<?xml version="1.0" encoding="UTF-8"?>
<svg width="23px" height="14px" viewBox="0 0 23 14" version="1.1" xmlns="http://www.w3.org/2000/svg" xmlns:xlink="http://www.w3.org/1999/xlink">
    <!-- Generator: Sketch 50.2 (55047) - http://www.bohemiancoding.com/sketch -->
    <title>noun_1720040_cc</title>
    <desc>Created with Sketch.</desc>
    <defs></defs>
    <g id="UI-Screens" stroke="none" stroke-width="1" fill="none" fill-rule="evenodd">
        <g id="Desktop---Selected-Office" transform="translate(-568.000000, -610.000000)" fill="#000000" fill-rule="nonzero">
            <g id="Group-6" transform="translate(417.000000, 609.000000)">
                <g id="Group-22" transform="translate(3.000000, 0.000000)">
                    <g id="Group-3" transform="translate(148.000000, 0.000000)">
                        <g id="noun_1720040_cc" transform="translate(0.000000, 1.000000)">
                            <path d="M1.75188462,7.00888462 L1.75188462,1.46380769 C1.75188462,0.998846154 2.23219231,0.620576923 2.82288462,0.620576923 C3.30696154,0.620576923 3.71215385,0.876615385 3.84407692,1.22446154 C3.08538462,1.33107692 2.55311538,1.72388462 2.55311538,2.22196154 L2.55311538,2.49119231 L5.97369231,2.49119231 L5.97369231,2.22196154 C5.97369231,1.66438462 5.30680769,1.23819231 4.40138462,1.19834615 C4.25680769,0.563230769 3.60446154,0.0821153846 2.82288462,0.0821153846 C1.9355,0.0821153846 1.21342308,0.702153846 1.21342308,1.46380769 L1.21342308,7.00915385 L0,7.00915385 L0,7.87930769 C0,11.2091538 2.29842308,13.9181538 5.12319231,13.9181538 L16.9537308,13.9181538 C19.7787692,13.9178846 22.0769231,11.2088846 22.0769231,7.87876923 L22.0769231,7.00915385 L1.75188462,7.00915385 L1.75188462,7.00888462 Z M4.26353846,1.73303846 C4.68003846,1.73303846 5.00903846,1.83130769 5.21096154,1.95273077 L3.31584615,1.95273077 C3.51776923,1.83130769 3.84676923,1.73303846 4.26353846,1.73303846 Z M16.954,13.3794231 L5.12319231,13.3794231 C2.83096154,13.3794231 0.932076923,11.3488846 0.596615385,8.70988462 L21.4803077,8.70988462 C21.1445769,11.3488846 19.2456923,13.3794231 16.954,13.3794231 Z M21.5384615,7.87876923 C21.5384615,7.97757692 21.5303846,8.07423077 21.5260769,8.17169231 L0.550846154,8.17169231 C0.546538462,8.07396154 0.538461538,7.97784615 0.538461538,7.87930769 L0.538461538,7.54761538 L21.5384615,7.54761538 L21.5384615,7.87876923 Z" id="Shape"></path>
                        </g>
                    </g>
                </g>
            </g>
        </g>
    </g>
</svg>