<?xml version="1.0" encoding="UTF-8"?>
<svg width="305px" height="315px" viewBox="0 0 305 315" version="1.1" xmlns="http://www.w3.org/2000/svg" xmlns:xlink="http://www.w3.org/1999/xlink">
    <!-- Generator: Sketch 50.2 (55047) - http://www.bohemiancoding.com/sketch -->
    <title>noun_1321257_cc</title>
    <desc>Created with Sketch.</desc>
    <defs></defs>
    <g id="UI-Screens" stroke="none" stroke-width="1" fill="none" fill-rule="evenodd">
        <g id="Desktop---Create-Office-2" transform="translate(-616.000000, -458.000000)" fill="#0AD5B1" fill-rule="nonzero">
            <g id="noun_1321257_cc" transform="translate(616.000000, 458.000000)">
                <g id="Group">
                    <path d="M297.608669,314.982773 L159.881492,314.982773 C158.52252,314.982773 157.422429,313.882734 157.422429,312.522451 C157.422429,311.162168 158.52252,310.062129 159.881492,310.062129 L297.608669,310.062129 C298.967641,310.062129 300.067732,311.162168 300.067732,312.522451 C300.067732,313.882734 298.967641,314.982773 297.608669,314.982773 Z" id="Shape"></path>
                    <path d="M159.881492,314.982773 C159.55497,314.982773 159.228448,314.92002 158.911764,314.785898 C157.662863,314.248184 157.083609,312.801152 157.619204,311.551611 L187.132258,242.653359 C187.670312,241.398896 189.120292,240.826729 190.364889,241.360137 C191.61379,241.898467 192.190585,243.345498 191.65745,244.594424 L162.144395,313.493291 C161.740393,314.425371 160.832772,314.982773 159.881492,314.982773 Z" id="Shape"></path>
                    <path d="M201.691704,280.533955 C196.26873,280.533955 191.854224,276.117188 191.854224,270.69082 C191.854224,265.265684 196.26873,260.848301 201.691704,260.848301 C207.114677,260.848301 211.529183,265.265684 211.529183,270.69082 C211.529183,276.117188 207.114677,280.533955 201.691704,280.533955 Z M201.691704,265.769561 C198.978065,265.769561 196.772964,267.975176 196.772964,270.690205 C196.772964,273.40585 198.978065,275.61208 201.691704,275.61208 C204.405343,275.61208 206.610444,273.40585 206.610444,270.690205 C206.610444,267.975176 204.405343,265.769561 201.691704,265.769561 Z" id="Shape"></path>
                    <path d="M159.180484,305.140254 L100.853538,305.140254 C99.4945665,305.140254 98.3944758,304.0396 98.3944758,302.679932 C98.3944758,301.319648 99.4945665,300.218994 100.853538,300.218994 L159.180484,300.218994 C160.539456,300.218994 161.639546,301.319648 161.639546,302.679932 C161.639546,304.0396 160.539456,305.140254 159.180484,305.140254 Z" id="Shape"></path>
                    <path d="M95.9347984,310.062129 C94.5752117,310.062129 93.475121,308.961475 93.475121,307.601191 C93.475121,303.530801 96.7846169,300.218994 100.853538,300.218994 C102.213125,300.218994 103.313216,301.319648 103.313216,302.679932 C103.313216,304.0396 102.213125,305.140254 100.853538,305.140254 C99.498871,305.140254 98.3944758,306.24583 98.3944758,307.601191 C98.3944758,308.961475 97.2943851,310.062129 95.9347984,310.062129 Z" id="Shape"></path>
                    <path d="M154.960907,314.982773 L95.9347984,314.982773 C94.5752117,314.982773 93.475121,313.882734 93.475121,312.522451 C93.475121,311.162168 94.5752117,310.062129 95.9347984,310.062129 L154.960907,310.062129 C156.319879,310.062129 157.422429,311.162168 157.422429,312.522451 C157.422429,313.882734 156.319879,314.982773 154.960907,314.982773 Z" id="Shape"></path>
                    <path d="M95.9347984,314.982773 C94.5752117,314.982773 93.475121,313.882734 93.475121,312.522451 L93.475121,307.601191 C93.475121,306.240908 94.5752117,305.140254 95.9347984,305.140254 C97.2943851,305.140254 98.3944758,306.240908 98.3944758,307.601191 L98.3944758,312.522451 C98.3944758,313.882734 97.2943851,314.982773 95.9347984,314.982773 Z" id="Shape"></path>
                    <path d="M115.610373,241.167568 C115.533508,241.167568 115.456643,241.162646 115.374859,241.157725 C113.020948,241.114658 110.749435,240.402832 108.789687,239.095459 L5.49430444,170.197822 C2.7609879,168.376113 0.902086694,165.59833 0.258266129,162.373271 C-0.39047379,159.148828 0.258266129,155.870859 2.08334677,153.136143 C5.72428427,147.681475 13.678881,146.080635 19.1356754,149.724053 L117.545524,215.359717 L190.643448,192.506836 C190.792258,192.46377 190.979808,192.42501 191.16244,192.405937 C192.276673,192.09832 193.314042,191.949434 194.313286,191.949434 L292.689315,191.949434 C299.471875,191.949434 304.986472,197.466855 304.986472,204.252891 C304.986472,211.038926 299.471875,216.555732 292.689315,216.555732 L196.191865,216.555732 L119.280212,240.605244 C119.1025,240.658154 118.790121,240.715986 118.60749,240.730137 C117.886804,240.96085 116.844516,241.11958 115.840353,241.143574 L115.610373,241.167568 Z M12.3291331,152.57874 C9.85100806,152.57874 7.54997984,153.809209 6.17625,155.865937 C5.08107863,157.504922 4.69183468,159.475518 5.08107863,161.406738 C5.46540323,163.343496 6.58455645,165.00709 8.22270161,166.102822 L111.51747,235.001074 C112.713488,235.799033 114.101976,236.226621 115.538427,236.236465 C115.625131,236.226621 115.71122,236.222314 115.783165,236.222314 C116.326139,236.208164 116.960121,236.111572 117.618085,235.928848 C117.766895,235.885781 118.055292,235.837793 118.213942,235.823027 L195.081935,211.7446 C195.322369,211.672617 195.567107,211.633857 195.816764,211.633857 L292.689315,211.633857 C296.758236,211.633857 300.067732,208.322666 300.067732,204.252275 C300.067732,200.181885 296.758236,196.870078 292.689315,196.870078 L194.313286,196.870078 C193.698367,196.870078 193.049627,196.975898 192.276673,197.201689 C192.146925,197.239834 191.998115,197.26875 191.844385,197.288437 L117.891724,220.410176 C117.180877,220.621816 116.412228,220.520918 115.792389,220.10748 L16.4078931,153.819053 C15.1928125,153.006328 13.7846472,152.57874 12.3291331,152.57874 Z" id="Shape"></path>
                    <path d="M100.853538,285.455215 C99.4945665,285.455215 98.3944758,284.354561 98.3944758,282.994277 L98.3944758,238.707246 C98.3944758,237.347578 99.4945665,236.246924 100.853538,236.246924 C102.213125,236.246924 103.313216,237.347578 103.313216,238.707246 L103.313216,282.994277 C103.313216,284.353945 102.213125,285.455215 100.853538,285.455215 Z" id="Shape"></path>
                    <path d="M167.610413,285.455215 L100.853538,285.455215 C99.4945665,285.455215 98.3944758,284.354561 98.3944758,282.994277 C98.3944758,281.633994 99.4945665,280.533955 100.853538,280.533955 L167.610413,280.533955 C168.97,280.533955 170.070091,281.633994 170.070091,282.994277 C170.070091,284.354561 168.97,285.455215 167.610413,285.455215 Z" id="Shape"></path>
                    <path d="M189.394546,236.241387 C188.035575,236.241387 186.935484,235.140732 186.935484,233.780449 L186.935484,221.026025 C186.935484,219.665742 188.035575,218.565088 189.394546,218.565088 C190.754133,218.565088 191.854224,219.665742 191.854224,221.026025 L191.854224,233.780449 C191.854224,235.140732 190.754133,236.241387 189.394546,236.241387 Z" id="Shape"></path>
                    <path d="M154.960907,246.083906 C153.889718,246.083906 152.905232,245.381924 152.597772,244.301572 C152.223286,242.994199 152.977177,241.628994 154.283881,241.259238 L188.71752,231.416719 C190.029143,231.018047 191.38873,231.80124 191.758296,233.103691 C192.132782,234.410449 191.378891,235.775654 190.072188,236.14541 L155.637933,245.98793 C155.411643,246.055605 155.181048,246.083906 154.960907,246.083906 Z" id="Shape"></path>
                    <path d="M150.041552,260.847686 C149.782056,260.847686 149.523175,260.809541 149.263679,260.722793 C147.976653,260.290283 147.27995,258.896777 147.707319,257.608477 L152.626058,242.844697 C153.058347,241.556396 154.456058,240.864258 155.738165,241.287539 C157.025806,241.720049 157.724355,243.11417 157.294526,244.401855 L152.375786,259.16625 C152.030817,260.194307 151.069698,260.847686 150.041552,260.847686 Z" id="Shape"></path>
                    <path d="M178.149516,260.847686 L150.042167,260.847686 C148.683196,260.847686 147.583105,259.747031 147.583105,258.387363 C147.583105,257.02708 148.683196,255.926426 150.042167,255.926426 L178.149516,255.926426 C179.509103,255.926426 180.609194,257.02708 180.609194,258.387363 C180.609194,259.747031 179.509103,260.847686 178.149516,260.847686 Z" id="Shape"></path>
                    <path d="M164.800847,255.926426 C163.44126,255.926426 162.341169,254.826387 162.341169,253.466104 L162.341169,245.733223 C162.341169,244.372939 163.44126,243.2729 164.800847,243.2729 C166.160433,243.2729 167.259909,244.372939 167.259909,245.733223 L167.259909,253.466104 C167.259909,254.826387 166.160433,255.926426 164.800847,255.926426 Z" id="Shape"></path>
                    <path d="M174.638327,255.926426 C173.27874,255.926426 172.178649,254.826387 172.178649,253.466104 L172.178649,242.921602 C172.178649,241.561318 173.27874,240.460664 174.638327,240.460664 C175.997913,240.460664 177.098004,241.561318 177.098004,242.921602 L177.098004,253.466104 C177.098004,254.826387 175.997913,255.926426 174.638327,255.926426 Z" id="Shape"></path>
                    <path d="M145.122812,300.218994 C144.752631,300.218994 144.378145,300.137168 144.022722,299.959365 C142.807026,299.349668 142.31755,297.873721 142.922631,296.658018 L147.841986,286.815498 C148.456905,285.604102 149.926562,285.109453 151.141643,285.714844 C152.357339,286.325156 152.846815,287.801104 152.241734,289.016191 L147.322994,298.859326 C146.890706,299.718809 146.02121,300.218994 145.122812,300.218994 Z" id="Shape"></path>
                    <path d="M154.960907,198.860977 C153.601321,198.860977 152.50123,197.760322 152.50123,196.400039 L152.50123,188.566875 C152.50123,187.206592 153.601321,186.105937 154.960907,186.105937 C156.319879,186.105937 157.422429,187.206592 157.422429,188.566875 L157.422429,196.400039 C157.422429,197.759707 156.319879,198.860977 154.960907,198.860977 Z" id="Shape"></path>
                    <path d="M120.529113,209.626348 C119.169526,209.626348 118.069435,208.525693 118.069435,207.16541 L118.069435,199.332246 C118.069435,197.971963 119.169526,196.871309 120.529113,196.871309 C121.888085,196.871309 122.988175,197.971963 122.988175,199.332246 L122.988175,207.16541 C122.988175,208.525693 121.8887,209.626348 120.529113,209.626348 Z" id="Shape"></path>
                    <path d="M277.933095,157.5 C276.573508,157.5 275.474032,156.399346 275.474032,155.039062 L275.474032,123.049951 L191.854224,123.049951 L191.854224,155.039062 C191.854224,156.39873 190.754133,157.5 189.394546,157.5 C188.035575,157.5 186.935484,156.399346 186.935484,155.039062 L186.935484,120.589629 C186.935484,119.229346 188.035575,118.128691 189.394546,118.128691 L277.933095,118.128691 C279.292681,118.128691 280.392772,119.229346 280.392772,120.589629 L280.392772,155.039062 C280.392772,156.399346 279.292681,157.5 277.933095,157.5 Z" id="Shape"></path>
                    <path d="M209.070121,167.34252 C207.710534,167.34252 206.610444,166.24248 206.610444,164.882197 L206.610444,135.354023 C206.610444,133.99374 207.710534,132.893086 209.070121,132.893086 C210.429093,132.893086 211.529183,133.99374 211.529183,135.354023 L211.529183,164.882197 C211.529183,166.24248 210.429093,167.34252 209.070121,167.34252 Z" id="Shape"></path>
                    <path d="M218.907601,167.34252 L209.070121,167.34252 C207.710534,167.34252 206.610444,166.24248 206.610444,164.882197 C206.610444,163.521914 207.710534,162.42126 209.070121,162.42126 L218.907601,162.42126 C220.267187,162.42126 221.367278,163.521914 221.367278,164.882197 C221.367278,166.24248 220.267187,167.34252 218.907601,167.34252 Z" id="Shape"></path>
                    <path d="M218.907601,167.34252 C217.548014,167.34252 216.447923,166.24248 216.447923,164.882197 L216.447923,135.354023 C216.447923,133.99374 217.548014,132.893086 218.907601,132.893086 C220.267187,132.893086 221.367278,133.99374 221.367278,135.354023 L221.367278,164.882197 C221.367278,166.24248 220.267187,167.34252 218.907601,167.34252 Z" id="Shape"></path>
                    <path d="M218.907601,137.814961 L209.070121,137.814961 C207.710534,137.814961 206.610444,136.714307 206.610444,135.354023 C206.610444,133.99374 207.710534,132.893086 209.070121,132.893086 L218.907601,132.893086 C220.267187,132.893086 221.367278,133.99374 221.367278,135.354023 C221.367278,136.714307 220.267187,137.814961 218.907601,137.814961 Z" id="Shape"></path>
                    <path d="M213.988861,137.814961 C212.629274,137.814961 211.529183,136.714307 211.529183,135.354023 L211.529183,130.432764 C211.529183,129.07248 212.629274,127.971826 213.988861,127.971826 C215.347833,127.971826 216.447923,129.07248 216.447923,130.432764 L216.447923,135.354023 C216.447923,136.714307 215.347833,137.814961 213.988861,137.814961 Z" id="Shape"></path>
                    <path d="M228.745081,167.34252 C227.385494,167.34252 226.285403,166.24248 226.285403,164.882197 L226.285403,135.354023 C226.285403,133.99374 227.385494,132.893086 228.745081,132.893086 C230.104667,132.893086 231.204758,133.99374 231.204758,135.354023 L231.204758,164.882197 C231.204758,166.24248 230.104667,167.34252 228.745081,167.34252 Z" id="Shape"></path>
                    <path d="M238.58256,167.34252 L228.745081,167.34252 C227.385494,167.34252 226.285403,166.24248 226.285403,164.882197 C226.285403,163.521914 227.385494,162.42126 228.745081,162.42126 L238.58256,162.42126 C239.942147,162.42126 241.042238,163.521914 241.042238,164.882197 C241.042238,166.24248 239.942147,167.34252 238.58256,167.34252 Z" id="Shape"></path>
                    <path d="M238.58256,167.34252 C237.222974,167.34252 236.123498,166.24248 236.123498,164.882197 L236.123498,135.354023 C236.123498,133.99374 237.222974,132.893086 238.58256,132.893086 C239.942147,132.893086 241.042238,133.99374 241.042238,135.354023 L241.042238,164.882197 C241.042238,166.24248 239.942147,167.34252 238.58256,167.34252 Z" id="Shape"></path>
                    <path d="M238.58256,137.814961 L228.745081,137.814961 C227.385494,137.814961 226.285403,136.714307 226.285403,135.354023 C226.285403,133.99374 227.385494,132.893086 228.745081,132.893086 L238.58256,132.893086 C239.942147,132.893086 241.042238,133.99374 241.042238,135.354023 C241.042238,136.714307 239.942147,137.814961 238.58256,137.814961 Z" id="Shape"></path>
                    <path d="M233.663821,137.814961 C232.304849,137.814961 231.204758,136.714307 231.204758,135.354023 L231.204758,130.432764 C231.204758,129.07248 232.304849,127.971826 233.663821,127.971826 C235.023407,127.971826 236.123498,129.07248 236.123498,130.432764 L236.123498,135.354023 C236.123498,136.714307 235.023407,137.814961 233.663821,137.814961 Z" id="Shape"></path>
                    <path d="M248.42004,167.34252 C247.061069,167.34252 245.960978,166.24248 245.960978,164.882197 L245.960978,135.354023 C245.960978,133.99374 247.061069,132.893086 248.42004,132.893086 C249.779627,132.893086 250.879718,133.99374 250.879718,135.354023 L250.879718,164.882197 C250.879718,166.24248 249.779627,167.34252 248.42004,167.34252 Z" id="Shape"></path>
                    <path d="M258.258135,167.34252 L248.42004,167.34252 C247.061069,167.34252 245.960978,166.24248 245.960978,164.882197 C245.960978,163.521914 247.061069,162.42126 248.42004,162.42126 L258.258135,162.42126 C259.617107,162.42126 260.717198,163.521914 260.717198,164.882197 C260.717198,166.24248 259.617107,167.34252 258.258135,167.34252 Z" id="Shape"></path>
                    <path d="M258.258135,167.34252 C256.898548,167.34252 255.798458,166.24248 255.798458,164.882197 L255.798458,135.354023 C255.798458,133.99374 256.898548,132.893086 258.258135,132.893086 C259.617107,132.893086 260.717198,133.99374 260.717198,135.354023 L260.717198,164.882197 C260.717198,166.24248 259.617107,167.34252 258.258135,167.34252 Z" id="Shape"></path>
                    <path d="M258.258135,137.814961 L248.42004,137.814961 C247.061069,137.814961 245.960978,136.714307 245.960978,135.354023 C245.960978,133.99374 247.061069,132.893086 248.42004,132.893086 L258.258135,132.893086 C259.617107,132.893086 260.717198,133.99374 260.717198,135.354023 C260.717198,136.714307 259.617107,137.814961 258.258135,137.814961 Z" id="Shape"></path>
                    <path d="M253.339395,137.814961 C251.979808,137.814961 250.879718,136.714307 250.879718,135.354023 L250.879718,130.432764 C250.879718,129.07248 251.979808,127.971826 253.339395,127.971826 C254.698367,127.971826 255.798458,129.07248 255.798458,130.432764 L255.798458,135.354023 C255.798458,136.714307 254.698367,137.814961 253.339395,137.814961 Z" id="Shape"></path>
                    <path d="M204.150766,157.5 L189.394546,157.5 C188.035575,157.5 186.935484,156.399346 186.935484,155.039062 C186.935484,153.678779 188.035575,152.578125 189.394546,152.578125 L204.150766,152.578125 C205.510353,152.578125 206.610444,153.678779 206.610444,155.039062 C206.610444,156.399346 205.510353,157.5 204.150766,157.5 Z" id="Shape"></path>
                    <path d="M277.933095,157.5 L263.176875,157.5 C261.817288,157.5 260.717198,156.399346 260.717198,155.039062 C260.717198,153.678779 261.817288,152.578125 263.176875,152.578125 L277.933095,152.578125 C279.292681,152.578125 280.392772,153.678779 280.392772,155.039062 C280.392772,156.399346 279.292681,157.5 277.933095,157.5 Z" id="Shape"></path>
                    <path d="M282.851835,182.106914 L223.418034,182.106914 C222.058448,182.106914 220.958972,181.00626 220.958972,179.645977 C220.958972,178.285693 222.058448,177.185654 223.418034,177.185654 L282.851835,177.185654 C284.211421,177.185654 285.311512,178.285693 285.311512,179.645977 C285.311512,181.00626 284.211421,182.106914 282.851835,182.106914 Z" id="Shape"></path>
                    <path d="M164.800847,63.994834 C163.44126,63.994834 162.341169,62.8941797 162.341169,61.5338965 L162.341169,17.2419434 C162.341169,15.8822754 163.44126,14.7810059 164.800847,14.7810059 C166.160433,14.7810059 167.259909,15.8816602 167.259909,17.2419434 L167.259909,61.5338965 C167.259909,62.8941797 166.160433,63.994834 164.800847,63.994834 Z" id="Shape"></path>
                    <path d="M174.638327,157.5 C173.27874,157.5 172.178649,156.399346 172.178649,155.039063 L172.178649,17.2419434 C172.178649,15.8822754 173.27874,14.7810059 174.638327,14.7810059 C175.997913,14.7810059 177.098004,15.8816602 177.098004,17.2419434 L177.098004,155.039063 C177.098004,156.399346 175.997913,157.5 174.638327,157.5 Z" id="Shape"></path>
                    <path d="M164.800847,19.7022656 C163.44126,19.7022656 162.341169,18.6016113 162.341169,17.2413281 C162.341169,7.74457031 170.065786,0.0166113281 179.557067,0.0166113281 C180.916653,0.0166113281 182.016129,1.11726563 182.016129,2.47693359 C182.016129,3.8372168 180.916653,4.93787109 179.557067,4.93787109 C172.774506,4.93787109 167.259909,10.455293 167.259909,17.2413281 C167.259909,18.6016113 166.160433,19.7022656 164.800847,19.7022656 Z" id="Shape"></path>
                    <path d="M174.638327,19.7022656 C173.27874,19.7022656 172.178649,18.6016113 172.178649,17.2413281 C172.178649,13.1703223 175.48876,9.85913086 179.557067,9.85913086 C180.916653,9.85913086 182.016129,10.9597852 182.016129,12.3200684 C182.016129,13.6803516 180.916653,14.7810059 179.557067,14.7810059 C178.202399,14.7810059 177.098004,15.886582 177.098004,17.2419434 C177.098004,18.6016113 175.997913,19.7022656 174.638327,19.7022656 Z" id="Shape"></path>
                    <path d="M264.032228,14.7810059 L179.557067,14.7810059 C178.19748,14.7810059 177.098004,13.6803516 177.098004,12.3200684 C177.098004,10.9597852 178.19748,9.85913086 179.557067,9.85913086 L264.032228,9.85913086 C265.391815,9.85913086 266.49129,10.9597852 266.49129,12.3200684 C266.49129,13.6803516 265.391815,14.7810059 264.032228,14.7810059 Z" id="Shape"></path>
                    <path d="M268.095615,4.93848633 L179.557067,4.93848633 C178.19748,4.93848633 177.098004,3.83783203 177.098004,2.47754883 C177.098004,1.11788086 178.19748,0.0172265625 179.557067,0.0172265625 L268.095615,0.0172265625 C269.455202,0.0172265625 270.554677,1.11788086 270.554677,2.47754883 C270.554677,3.83783203 269.455202,4.93848633 268.095615,4.93848633 Z" id="Shape"></path>
                    <path d="M268.095615,34.4666602 L204.150766,34.4666602 C202.791794,34.4666602 201.691704,33.3660059 201.691704,32.0057227 C201.691704,30.6454395 202.791794,29.5447852 204.150766,29.5447852 L268.095615,29.5447852 C269.455202,29.5447852 270.554677,30.6454395 270.554677,32.0057227 C270.554677,33.3660059 269.455202,34.4666602 268.095615,34.4666602 Z" id="Shape"></path>
                    <path d="M263.176875,24.6235254 L204.150766,24.6235254 C202.791794,24.6235254 201.691704,23.5228711 201.691704,22.1632031 C201.691704,20.8029199 202.791794,19.7022656 204.150766,19.7022656 L263.176875,19.7022656 C264.536462,19.7022656 265.635938,20.8029199 265.635938,22.1632031 C265.635938,23.5234863 264.536462,24.6235254 263.176875,24.6235254 Z" id="Shape"></path>
                    <path d="M282.851835,34.4666602 C273.35994,34.4666602 265.635938,26.7387012 265.635938,17.2419434 C265.635938,7.74518555 273.360554,0.0172265625 282.851835,0.0172265625 C292.343115,0.0172265625 300.067732,7.74518555 300.067732,17.2419434 C300.067732,26.7387012 292.34373,34.4666602 282.851835,34.4666602 Z M282.851835,4.93848633 C276.069889,4.93848633 270.554677,10.4559082 270.554677,17.2419434 C270.554677,24.0279785 276.069889,29.5454004 282.851835,29.5454004 C289.634395,29.5454004 295.148992,24.0279785 295.148992,17.2419434 C295.148992,10.4559082 289.63501,4.93848633 282.851835,4.93848633 Z" id="Shape"></path>
                    <path d="M282.851835,24.6235254 C278.783528,24.6235254 275.474032,21.312334 275.474032,17.2413281 C275.474032,13.1703223 278.783528,9.85913086 282.851835,9.85913086 C286.920756,9.85913086 290.230252,13.1703223 290.230252,17.2413281 C290.230252,21.312334 286.921371,24.6235254 282.851835,24.6235254 Z M282.851835,14.7810059 C281.497167,14.7810059 280.392772,15.886582 280.392772,17.2419434 C280.392772,18.5973047 281.497167,19.7028809 282.851835,19.7028809 C284.206502,19.7028809 285.311512,18.5973047 285.311512,17.2419434 C285.311512,15.886582 284.207117,14.7810059 282.851835,14.7810059 Z" id="Shape"></path>
                    <path d="M204.150766,34.4666602 C200.08246,34.4666602 196.772964,31.1554687 196.772964,27.0844629 C196.772964,23.013457 200.08246,19.7022656 204.150766,19.7022656 C205.510353,19.7022656 206.610444,20.8029199 206.610444,22.1632031 C206.610444,23.5228711 205.510353,24.6235254 204.150766,24.6235254 C202.796714,24.6235254 201.691704,25.7291016 201.691704,27.0844629 C201.691704,28.4398242 202.796714,29.5447852 204.150766,29.5447852 C205.510353,29.5447852 206.610444,30.6454395 206.610444,32.0057227 C206.610444,33.3660059 205.510353,34.4666602 204.150766,34.4666602 Z" id="Shape"></path>
                    <path d="M218.907601,44.3091797 C217.548014,44.3091797 216.447923,43.2085254 216.447923,41.8482422 L216.447923,32.0057227 C216.447923,30.6454395 217.548014,29.5447852 218.907601,29.5447852 C220.267187,29.5447852 221.367278,30.6454395 221.367278,32.0057227 L221.367278,41.8482422 C221.367278,43.2085254 220.267187,44.3091797 218.907601,44.3091797 Z" id="Shape"></path>
                    <path d="M209.070121,44.3091797 C207.710534,44.3091797 206.610444,43.2085254 206.610444,41.8482422 L206.610444,32.0057227 C206.610444,30.6454395 207.710534,29.5447852 209.070121,29.5447852 C210.429093,29.5447852 211.529183,30.6454395 211.529183,32.0057227 L211.529183,41.8482422 C211.529183,43.2085254 210.429093,44.3091797 209.070121,44.3091797 Z" id="Shape"></path>
                    <path d="M218.907601,83.679873 L194.313286,83.679873 C192.9537,83.679873 191.854224,82.5792188 191.854224,81.2189355 L191.854224,41.8488574 C191.854224,40.4885742 192.9537,39.3879199 194.313286,39.3879199 L218.907601,39.3879199 C220.267187,39.3879199 221.367278,40.4885742 221.367278,41.8488574 C221.367278,43.2091406 220.267187,44.3097949 218.907601,44.3097949 L196.772964,44.3097949 L196.772964,78.7592285 L218.907601,78.7592285 C220.267187,78.7592285 221.367278,79.8598828 221.367278,81.220166 C221.367278,82.5804492 220.267187,83.679873 218.907601,83.679873 Z" id="Shape"></path>
                    <path d="M218.907601,83.679873 C217.548014,83.679873 216.447923,82.5792188 216.447923,81.2189355 C216.447923,79.8586523 217.548014,78.757998 218.907601,78.757998 C228.399496,78.757998 236.123498,71.0300391 236.123498,61.5332812 C236.123498,52.0365234 228.399496,44.3091797 218.907601,44.3091797 C217.548014,44.3091797 216.447923,43.2085254 216.447923,41.8482422 C216.447923,40.487959 217.548014,39.3873047 218.907601,39.3873047 C231.11375,39.3873047 241.042238,49.3214941 241.042238,61.5332812 C241.042238,73.7450684 231.11375,83.679873 218.907601,83.679873 Z" id="Shape"></path>
                    <path d="M204.150766,78.7586133 C202.791794,78.7586133 201.691704,77.657959 201.691704,76.298291 L201.691704,46.7701172 C201.691704,45.4104492 202.791794,44.3091797 204.150766,44.3091797 C205.510353,44.3091797 206.610444,45.409834 206.610444,46.7701172 L206.610444,76.298291 C206.610444,77.657959 205.510353,78.7586133 204.150766,78.7586133 Z" id="Shape"></path>
                    <path d="M174.638327,192.709248 C173.27874,192.709248 172.178649,191.608594 172.178649,190.248311 L172.178649,164.882812 C172.178649,163.522529 173.27874,162.421875 174.638327,162.421875 C175.997913,162.421875 177.098004,163.522529 177.098004,164.882812 L177.098004,190.248311 C177.098004,191.607979 175.997913,192.709248 174.638327,192.709248 Z" id="Shape"></path>
                    <path d="M174.638327,167.34252 L100.853538,167.34252 C99.4945665,167.34252 98.3944758,166.24248 98.3944758,164.882197 C98.3944758,163.521914 99.4945665,162.42126 100.853538,162.42126 L174.638327,162.42126 C175.997913,162.42126 177.098004,163.521914 177.098004,164.882197 C177.098004,166.24248 175.997913,167.34252 174.638327,167.34252 Z" id="Shape"></path>
                    <path d="M100.853538,196.524932 C99.4945665,196.524932 98.3944758,195.424277 98.3944758,194.063994 L98.3944758,164.882197 C98.3944758,163.521914 99.4945665,162.42126 100.853538,162.42126 C102.213125,162.42126 103.313216,163.521914 103.313216,164.882197 L103.313216,194.063994 C103.313216,195.424277 102.213125,196.524932 100.853538,196.524932 Z" id="Shape"></path>
                    <path d="M105.772278,162.42126 C98.9897177,162.42126 93.475121,156.903838 93.475121,150.117803 C93.475121,148.758135 94.5752117,147.656865 95.9347984,147.656865 C97.2943851,147.656865 98.3944758,148.75752 98.3944758,150.117803 C98.3944758,154.188809 101.703972,157.5 105.772278,157.5 C107.131865,157.5 108.231956,158.600654 108.231956,159.960937 C108.231956,161.320605 107.131865,162.42126 105.772278,162.42126 Z" id="Shape"></path>
                    <path d="M145.122812,162.42126 C143.763841,162.42126 142.66375,161.320605 142.66375,159.960937 C142.66375,158.600654 143.763841,157.5 145.122812,157.5 C149.191734,157.5 152.50123,154.188809 152.50123,150.117803 C152.50123,148.758135 153.601321,147.656865 154.960907,147.656865 C156.319879,147.656865 157.422429,148.75752 157.422429,150.117803 C157.422429,156.903838 151.905988,162.42126 145.122812,162.42126 Z" id="Shape"></path>
                    <path d="M154.960907,152.57874 L95.9347984,152.57874 C94.5752117,152.57874 93.475121,151.478086 93.475121,150.117803 C93.475121,148.75752 94.5752117,147.656865 95.9347984,147.656865 L154.960907,147.656865 C156.319879,147.656865 157.422429,148.75752 157.422429,150.117803 C157.422429,151.478086 156.319879,152.57874 154.960907,152.57874 Z" id="Shape"></path>
                    <path d="M125.447853,152.57874 C124.088266,152.57874 122.988175,151.478086 122.988175,150.117803 L122.988175,125.510889 C122.988175,124.150605 124.088266,123.049951 125.447853,123.049951 C126.806825,123.049951 127.906915,124.150605 127.906915,125.510889 L127.906915,150.117803 C127.906915,151.478086 126.80744,152.57874 125.447853,152.57874 Z" id="Shape"></path>
                    <path d="M135.285333,152.57874 C133.925746,152.57874 132.825655,151.478086 132.825655,150.117803 L132.825655,147.656865 C132.825655,146.296582 133.925746,145.195928 135.285333,145.195928 C136.644919,145.195928 137.74501,146.296582 137.74501,147.656865 L137.74501,150.117803 C137.74501,151.478086 136.644919,152.57874 135.285333,152.57874 Z" id="Shape"></path>
                    <path d="M115.610373,152.57874 C114.251401,152.57874 113.150696,151.478086 113.150696,150.117803 L113.150696,147.656865 C113.150696,146.296582 114.250786,145.195928 115.610373,145.195928 C116.96996,145.195928 118.07005,146.296582 118.07005,147.656865 L118.07005,150.117803 C118.069435,151.478086 116.969345,152.57874 115.610373,152.57874 Z" id="Shape"></path>
                    <path d="M233.663821,182.106914 C232.304849,182.106914 231.204758,181.00626 231.204758,179.645977 L231.204758,174.724717 C231.204758,173.364434 232.304849,172.263779 233.663821,172.263779 C235.023407,172.263779 236.123498,173.364434 236.123498,174.724717 L236.123498,179.645977 C236.123498,181.00626 235.023407,182.106914 233.663821,182.106914 Z" id="Shape"></path>
                    <path d="M189.394546,132.893086 L179.557067,132.893086 C178.19748,132.893086 177.098004,131.792432 177.098004,130.432148 C177.098004,129.071865 178.19748,127.971211 179.557067,127.971211 L189.394546,127.971211 C190.754133,127.971211 191.854224,129.071865 191.854224,130.432148 C191.854224,131.792432 190.754133,132.893086 189.394546,132.893086 Z" id="Shape"></path>
                    <path d="M189.394546,147.65748 L179.557067,147.65748 C178.19748,147.65748 177.098004,146.556826 177.098004,145.196543 C177.098004,143.836875 178.19748,142.736221 179.557067,142.736221 L189.394546,142.736221 C190.754133,142.736221 191.854224,143.836875 191.854224,145.196543 C191.854224,146.556826 190.754133,147.65748 189.394546,147.65748 Z" id="Shape"></path>
                    <path d="M164.800847,63.994834 L130.366593,63.994834 C129.007006,63.994834 127.906915,62.8941797 127.906915,61.5338965 C127.906915,60.1736133 129.007006,59.072959 130.366593,59.072959 L164.800847,59.072959 C166.160433,59.072959 167.259909,60.1736133 167.259909,61.5338965 C167.259909,62.8941797 166.160433,63.994834 164.800847,63.994834 Z" id="Shape"></path>
                    <path d="M164.800847,73.8373535 L130.366593,73.8373535 C129.007006,73.8373535 127.906915,72.7366992 127.906915,71.3770312 C127.906915,70.016748 129.007006,68.9160937 130.366593,68.9160937 L164.800847,68.9160937 C166.160433,68.9160937 167.259909,70.016748 167.259909,71.3770312 C167.259909,72.7366992 166.160433,73.8373535 164.800847,73.8373535 Z" id="Shape"></path>
                    <path d="M164.800847,157.5 C163.44126,157.5 162.341169,156.399346 162.341169,155.039062 L162.341169,71.3770312 C162.341169,70.016748 163.44126,68.9160937 164.800847,68.9160937 C166.160433,68.9160937 167.259909,70.016748 167.259909,71.3770312 L167.259909,155.039062 C167.259909,156.399346 166.160433,157.5 164.800847,157.5 Z" id="Shape"></path>
                    <path d="M120.529113,201.791953 C119.481905,201.791953 118.511562,201.118887 118.180121,200.066836 C117.776734,198.769307 118.497419,197.389336 119.794284,196.98082 L154.226079,186.215449 C155.54631,185.806934 156.901593,186.537217 157.309899,187.830439 C157.715746,189.127969 156.992601,190.507324 155.695736,190.91584 L121.264556,201.681211 C121.019204,201.75873 120.768931,201.791953 120.529113,201.791953 Z" id="Shape"></path>
                    <path d="M125.447853,93.5230078 L61.503004,93.5230078 C60.1440323,93.5230078 59.0439415,92.4223535 59.0439415,91.0620703 L59.0439415,36.9275977 C59.0439415,35.5673145 60.1440323,34.4666602 61.503004,34.4666602 L125.447853,34.4666602 C126.806825,34.4666602 127.906915,35.5673145 127.906915,36.9275977 L127.906915,91.0620703 C127.906915,92.4223535 126.80744,93.5230078 125.447853,93.5230078 Z M63.9626815,88.6011328 L122.988175,88.6011328 L122.988175,39.3879199 L63.9626815,39.3879199 L63.9626815,88.6011328 Z" id="Shape"></path>
                    <path d="M115.610373,83.679873 L71.3410988,83.679873 C69.982127,83.679873 68.8814214,82.5792187 68.8814214,81.2189355 L68.8814214,46.7701172 C68.8814214,45.4104492 69.9815121,44.3091797 71.3410988,44.3091797 L115.610373,44.3091797 C116.969345,44.3091797 118.07005,45.409834 118.07005,46.7701172 L118.07005,81.2195508 C118.069435,82.579834 116.969345,83.679873 115.610373,83.679873 Z M73.8001613,78.7586133 L113.150696,78.7586133 L113.150696,49.2310547 L73.8001613,49.2310547 L73.8001613,78.7586133 Z" id="Shape"></path>
                    <path d="M66.4223589,103.365527 C62.3534375,103.365527 59.0439415,100.054336 59.0439415,95.9833301 C59.0439415,94.6236621 60.1440323,93.5230078 61.503004,93.5230078 C62.8625907,93.5230078 63.9626815,94.6236621 63.9626815,95.9833301 C63.9626815,97.3386914 65.0676915,98.4442676 66.4223589,98.4442676 C67.7813306,98.4442676 68.8820363,99.5449219 68.8820363,100.90459 C68.8814214,102.264873 67.7813306,103.365527 66.4223589,103.365527 Z" id="Shape"></path>
                    <path d="M120.529113,103.365527 C119.169526,103.365527 118.069435,102.264873 118.069435,100.90459 C118.069435,99.5449219 119.169526,98.4442676 120.529113,98.4442676 C121.88378,98.4442676 122.988175,97.3386914 122.988175,95.9833301 C122.988175,94.6236621 124.088266,93.5230078 125.447853,93.5230078 C126.806825,93.5230078 127.906915,94.6236621 127.906915,95.9833301 C127.906915,100.053721 124.598034,103.365527 120.529113,103.365527 Z" id="Shape"></path>
                    <path d="M120.529113,103.365527 L66.421744,103.365527 C65.0627722,103.365527 63.9620665,102.264873 63.9620665,100.90459 C63.9620665,99.5449219 65.0621573,98.4442676 66.421744,98.4442676 L120.529113,98.4442676 C121.888085,98.4442676 122.988175,99.5449219 122.988175,100.90459 C122.988175,102.264873 121.8887,103.365527 120.529113,103.365527 Z" id="Shape"></path>
                    <path d="M287.770575,305.140254 L174.638327,305.140254 C173.27874,305.140254 172.178649,304.0396 172.178649,302.679932 C172.178649,301.319648 173.27874,300.218994 174.638327,300.218994 L287.770575,300.218994 C289.130161,300.218994 290.230252,301.319648 290.230252,302.679932 C290.230252,304.0396 289.130161,305.140254 287.770575,305.140254 Z" id="Shape"></path>
                    <path d="M297.608669,305.140254 C296.249083,305.140254 295.148992,304.0396 295.148992,302.679932 C295.148992,271.474014 269.77127,246.084521 238.58256,246.084521 C237.222974,246.084521 236.123498,244.983867 236.123498,243.624199 C236.123498,242.263916 237.222974,241.163262 238.58256,241.163262 C272.486139,241.163262 300.067732,268.758984 300.067732,302.679932 C300.067732,304.0396 298.967641,305.140254 297.608669,305.140254 Z" id="Shape"></path>
                    <path d="M238.58256,246.083906 L189.394546,246.083906 C188.035575,246.083906 186.935484,244.983252 186.935484,243.623584 C186.935484,242.263301 188.035575,241.162646 189.394546,241.162646 L238.58256,241.162646 C239.942147,241.162646 241.042238,242.263301 241.042238,243.623584 C241.042238,244.983252 239.942147,246.083906 238.58256,246.083906 Z" id="Shape"></path>
                    <path d="M297.608669,314.982773 C296.249083,314.982773 295.148992,313.882734 295.148992,312.522451 L295.148992,302.679932 C295.148992,301.319648 296.249083,300.218994 297.608669,300.218994 C298.967641,300.218994 300.067732,301.319648 300.067732,302.679932 L300.067732,312.522451 C300.067732,313.882734 298.967641,314.982773 297.608669,314.982773 Z" id="Shape"></path>
                </g>
            </g>
        </g>
    </g>
</svg>