<?xml version="1.0" encoding="UTF-8"?>
<svg width="28px" height="38px" viewBox="0 0 28 38" version="1.1" xmlns="http://www.w3.org/2000/svg" xmlnsXlink="http://www.w3.org/1999/xlink">
    <title>logo</title>
    <desc>Created with Sketch.</desc>
    <defs></defs>
    <g id="Page-1" stroke="none" stroke-width="1" fill="none" fill-rule="evenodd">
        <g id="Desktop---Checkout-(Change-or-add-new-card)" transform="translate(-76.000000, -1152.000000)">
            <g id="Footer" transform="translate(0.000000, 1060.000000)">
                <g id="logo" transform="translate(75.000000, 92.000000)">
                    <path d="M15.0548446,0 C7.59238966,0 1.54296161,6.05471298 1.54296161,13.5240611 C1.54296161,24.2887427 15.0548446,37.3747715 15.0548446,37.3747715 C15.0548446,37.3747715 28.5667276,24.2887427 28.5667276,13.5240611 C28.5667276,6.05471298 22.5172996,0 15.0548446,0 Z" id="Shape" fill="#FFFFFF" fill-rule="nonzero"></path>
                    <path d="M22.2249105,14.9302556 C21.1804506,19.0837139 19.0926511,23.4412385 19.0926511,23.4412385 C19.0926511,23.4412385 18.6822609,24.4518524 17.6452694,24.4518524 C15.7606112,24.4518524 16.6067843,22.0041786 15.0544712,22.0041786 C13.4812465,22.0041786 14.3699896,24.4518524 12.458445,24.4518524 C11.4113712,24.4518524 11.0166647,23.4412385 11.0166647,23.4412385 C11.0166647,23.4412385 8.92886515,19.0833402 7.88477868,14.9302556 C6.84069221,10.777171 10.9513159,10.572731 10.9513159,10.572731 L19.1579999,10.572731 C19.1579999,10.572731 23.2686236,10.777171 22.2249105,14.9302556 Z" id="Path" fill="#0AD5B1"></path>
                    <path d="M15.086212,13.7854663 C16.7038739,13.7854663 18.15611,13.6591396 19.1494112,13.231946 C18.4925628,13.9846739 16.9126165,14.5153956 15.0664207,14.5153956 C13.1978196,14.5153956 11.6021896,13.9715927 10.960278,13.2042886 C11.9546994,13.6475534 13.4341954,13.7854663 15.086212,13.7854663 Z" id="Path" fill="#FFFFFF"></path>
                </g>
            </g>
        </g>
    </g>
</svg>
