<?xml version="1.0" encoding="UTF-8"?>
<svg width="365px" height="331px" viewBox="0 0 365 331" version="1.1" xmlns="http://www.w3.org/2000/svg" xmlns:xlink="http://www.w3.org/1999/xlink">
    <!-- Generator: Sketch 50.2 (55047) - http://www.bohemiancoding.com/sketch -->
    <title>Group 5</title>
    <desc>Created with Sketch.</desc>
    <defs></defs>
    <g id="UI-Screens" stroke="none" stroke-width="1" fill="none" fill-rule="evenodd">
        <g id="Desktop---How-it-Works-(Landlord)" transform="translate(-561.000000, -1023.000000)">
            <g id="Group-5" transform="translate(561.000000, 1023.000000)">
                <g id="Group" transform="translate(0.000000, 29.000000)">
                    <polygon id="Fill-2" fill="#E9F5F8" points="34 66 89 66 89 0 34 0"></polygon>
                    <polygon id="Fill-3" fill="#E9F5F8" points="98 66 153 66 153 0 98 0"></polygon>
                    <polygon id="Fill-4" fill="#E9F5F8" points="34 139 89 139 89 73 34 73"></polygon>
                    <polygon id="Fill-5" fill="#E9F5F8" points="98 139 153 139 153 73 98 73"></polygon>
                    <polygon id="Fill-6" fill="#E9F5F8" points="161 139 216 139 216 73 161 73"></polygon>
                    <polyline id="Fill-7" fill="#E9F5F8" points="216 53 216 0 195 0 216 53"></polyline>
                    <polyline id="Fill-8" fill="#E9F5F8" points="189.70086 0 184.705946 0 196.8772 30.5448119 187.950844 34.1154307 174.356805 0 161 0 161 66 216 66 189.70086 0"></polyline>
                    <path d="M230.579116,114.125766 C226.160827,116.469095 226,122.310463 226,122.310463 C226,122.310463 230.876702,125.480001 235.294992,123.136671 C239.713282,120.793342 242,113.824493 242,113.824493 C242,113.824493 234.997462,111.782436 230.579116,114.125766" id="Fill-45" fill="#00B779"></path>
                    <path d="M205,110 C205,110 205.081976,121.009437 210.444345,126.401689 C215.806714,131.793941 224.418859,129.527078 224.418859,129.527078 C224.418859,129.527078 226.916922,121.112178 221.554609,115.719925 C216.192295,110.327673 205,110 205,110" id="Fill-46" fill="#00B779"></path>
                    <path d="M217,100.860133 C217,108.592117 224.999971,113 224.999971,113 C224.999971,113 233,108.592117 233,100.860133 C233,93.1281497 224.999971,85 224.999971,85 C224.999971,85 217,93.1281497 217,100.860133" id="Fill-47" fill="#00B779"></path>
                    <path d="M225,155 C225,154.491952 225,99 225,99" id="Fill-48" fill="#FFFFFE"></path>
                    <path d="M225.5,98 C225.223835,98 225,98.2134471 225,98.4767961 L225,154.52326 C225,154.786609 225.223835,155 225.5,155 C225.776165,155 226,154.786609 226,154.52326 L226,98.4767961 C226,98.2134471 225.776165,98 225.5,98" id="Fill-49" fill="#484E51"></path>
                    <polyline id="Fill-50" fill="#E8822E" points="216.066632 157 232.93331 157 236 135 213 135 216.066632 157"></polyline>
                    <polyline id="Fill-51" fill="#C46C23" points="213.795235 141 235.204765 141 236 135 213 135 213.795235 141"></polyline>
                    <path d="M211,116 L225,130" id="Fill-52" fill="#FFFFFE"></path>
                    <path d="M211.836014,116.143575 C211.647864,115.955111 211.339208,115.951788 211.146687,116.135971 C210.954165,116.320323 210.950714,116.622507 211.138922,116.811027 L225.164001,130.856371 C225.259485,130.952011 225.385973,131 225.512633,131 C225.635497,131 225.758534,130.954715 225.853386,130.863975 C226.04585,130.679623 226.049243,130.377438 225.861093,130.188918 L211.836014,116.143575" id="Fill-53" fill="#484E51"></path>
                    <path d="M218,118 L220,125" id="Fill-54" fill="#FFFFFE"></path>
                    <path d="M219.036672,118.360537 C218.966207,118.105471 218.680933,117.950836 218.398639,118.014195 C218.116718,118.077948 217.945367,118.336384 218.015832,118.591451 L219.963331,125.639335 C220.023118,125.855644 220.237617,126 220.473348,126 C220.515565,126 220.558527,125.995338 220.601364,125.985733 C220.883224,125.921924 221.054636,125.663488 220.984171,125.408421 L219.036672,118.360537" id="Fill-55" fill="#484E51"></path>
                    <path d="M237,117 L226,123" id="Fill-56" fill="#FFFFFE"></path>
                    <path d="M236.29688,116.057235 L225.256034,122.066286 C225.021783,122.19377 224.93193,122.493396 225.055393,122.735446 C225.141285,122.903788 225.30775,123 225.479986,123 C225.555354,123 225.631853,122.981588 225.70309,122.942775 L236.743936,116.933666 C236.978244,116.806123 237.06804,116.506556 236.944634,116.264506 C236.821115,116.022456 236.531074,115.929692 236.29688,116.057235" id="Fill-57" fill="#484E51"></path>
                    <path d="M231,117 L229,120" id="Fill-58" fill="#FFFFFE"></path>
                    <path d="M231.721244,116.049719 C231.466841,115.938361 231.152687,116.020314 231.019504,116.233126 L229.059493,119.363207 C228.926188,119.576019 229.024464,119.838813 229.278744,119.950274 C229.355795,119.983989 229.438306,120 229.51959,120 C229.706757,120 229.887667,119.915173 229.980545,119.766815 L231.940495,116.636734 C232.0738,116.423974 231.975585,116.161179 231.721244,116.049719" id="Fill-59" fill="#484E51"></path>
                    <path d="M222,99 L225,105" id="Fill-60" fill="#FFFFFE"></path>
                    <path d="M225,111 L229,105" id="Fill-62" fill="#FFFFFE"></path>
                    <path d="M229.773148,104.085786 C229.539001,103.929395 229.222677,103.992842 229.06668,104.227187 L225.085643,110.206793 C224.929525,110.441257 224.992826,110.758011 225.226852,110.91422 C225.313778,110.972249 225.411945,111 225.509031,111 C225.673685,111 225.835213,110.92024 225.93338,110.772819 L229.914357,104.793213 C230.070475,104.558748 230.007174,104.242055 229.773148,104.085786" id="Fill-63" fill="#484E51"></path>
                    <path d="M253.636623,156 L2.36337732,156 C1.05814886,156 0,157.124171 0,158.51097 L0,159.48903 C0,160.875829 1.05814886,162 2.36337732,162 L253.636623,162 C254.941851,162 256,160.875829 256,159.48903 L256,158.51097 C256,157.124171 254.941851,156 253.636623,156" id="Fill-64" fill="#9F462C"></path>
                    <path d="M104.117398,152 L65,152 L65,156 L108,156 C108,153.790845 106.261659,152 104.117398,152" id="Fill-65" fill="#E9E6EC"></path>
                    <path d="M70.5020456,109 L19.4573905,109 C17.2433957,109 15.6004184,111.48025 16.0853418,114.090397 L23.2203441,152.49555 C23.6009469,154.544117 25.1062642,156 26.8438828,156 L82,156 L73.8740943,112.261189 C73.5199254,110.354803 72.1190984,109 70.5020456,109" id="Fill-66" fill="#E9E6EC"></path>
                    <path d="M71.2328397,114.287936 C71.0662932,113.37314 70.6438048,112.542923 70.043149,111.950181 C69.4223127,111.337406 68.6365171,111 67.8305409,111 L23.4803659,111 C23.2150706,111 23,111.216529 23,111.48368 C23,111.75083 23.2150706,111.967302 23.4803659,111.967302 L67.8305409,111.967302 C68.9911511,111.967302 70.0246124,113.016558 70.2878103,114.462232 L75.0470266,140.603468 C75.0894851,140.836776 75.2915177,141 75.5189461,141 C75.5476864,141 75.5768802,140.997375 75.6061307,140.992067 C75.8671178,140.943842 76.0398432,140.691872 75.992056,140.429116 L71.2328397,114.287936" id="Fill-68" fill="#484E51"></path>
                </g>
                <g id="Group-2" transform="translate(278.000000, 0.000000)">
                    <path d="M54.9607094,63.749942 L54.9572095,63.6441065 C54.9493346,63.4530864 54.9432096,63.3136934 54.9423346,63.3016471 C54.9327097,63.0942784 54.8775853,62.9359554 54.7935862,62.8068878 L54.7865863,62.7853765 L54.7787114,62.7784929 C54.7060871,62.6752388 54.6089631,62.5969378 54.4969643,62.5315435 L54.43134,62.4954046 C54.3158412,62.4377544 54.1880926,62.3904296 54.046344,62.3551511 L54.0323442,62.3499884 L54.0025945,62.3448257 C53.7330973,62.2811523 53.4312255,62.2407111 53.1179788,62.1890841 C52.9946051,62.1710146 52.8686064,62.1632706 52.7443577,62.146922 C52.6533587,62.1348757 52.5719845,62.1159458 52.4783605,62.1056203 C52.3987363,62.0961554 52.3173622,62.0978763 52.236863,62.0901322 C51.8964916,62.0557142 51.5569952,62.0350634 51.2139988,62.0230171 C51.0985,62.0187148 50.9838762,62.0023662 50.8683774,62.0006453 L50.8666274,62.0006453 C50.7590036,61.9997849 50.6522547,61.9997849 50.5463808,62.0006453 C47.6107866,62.0006453 40.2162392,62.0531328 37.3033948,62.515195 C36.9175239,62.5797288 36.5657775,62.6692157 36.2315311,62.7750511 C36.1212822,62.8094692 36.0215333,62.8550731 35.9165344,62.8937933 C35.7021616,62.9738153 35.4912888,63.057279 35.2952909,63.15451 C35.1832921,63.2095788 35.0765432,63.2723917 34.9697943,63.3326233 C34.7965461,63.4324356 34.6267979,63.5374106 34.4666746,63.6501297 C34.3651756,63.7224075 34.2645517,63.7955459 34.1683027,63.872126 L33.9880546,64.0063563 L34.0204293,64.0003332 C32.8313168,65.0001771 31.9327012,66.4078747 30.8258378,68.1296369 C30.5370908,68.5693273 30.2597187,69.0107386 30.0357211,69.440964 C25.1165227,78.486884 22.1494289,87.9096815 23.2169177,92.9785976 L23.2650422,93.2057566 C24.0490339,96.8652542 24.4401548,100.600471 24.4401548,104.340851 L24.4401548,226 L40.3606127,226 L40.3606127,99.9078085 C40.3606127,96.3550068 41.4394764,92.8753435 43.4650801,89.9343224 C44.808191,87.9836803 46.4137992,85.7241363 48.3160292,82.9775771 C53.3734761,75.6955814 54.6649626,70.0699536 54.9318347,66.8381001 L54.9318347,66.8277747 C54.9423346,66.7021489 54.9537095,66.5653372 54.9537095,66.4397114 C54.9965841,65.9354872 55.006209,65.4949363 54.9965841,65.1275238 C55.0088339,65.1017103 54.9808342,64.2817006 54.9607094,63.749942" id="Fill-88" fill="#C7B8C3"></path>
                    <path d="M33.8670235,63.1470771 C34.7467338,62.4760904 35.7912797,62.0126974 37.218385,61.7973286 C40.1528097,61.3798084 47.6021407,61.3323806 50.5594837,61.3323806 C50.6687864,61.3316031 50.7763261,61.3316031 50.8821029,61.3323806 L50.8838659,61.3323806 C51.4691642,61.3370457 52.0024555,61.3735884 52.5057768,61.4272362 C53.0558161,61.4855491 53.5688336,61.5648546 54.0712734,61.6480476 L54.1708799,61.6643752 C54.5234692,61.7219106 54.7182748,61.8564189 54.8311034,62.0414651 C54.958917,62.2498364 54.9809539,62.5219632 55.0029907,62.817415 L55.009161,62.9130481 C56.0634031,63.0669941 57.0603494,63.2380452 58,63.4199813 L57.9982371,63.4184263 L57.7831576,63.2287151 C57.1282229,62.651029 56.2079647,61.7452357 55.7407839,61.0478138 C55.5151267,60.7251493 55.1387376,60.4887878 54.6980009,60.4125923 L54.6980009,60.4032623 C53.1818668,60.1373556 51.6445774,60.0051797 50.0967102,60.0051797 C37.6696994,59.9764121 36.2822603,60.0051797 33.272029,61.8159887 C33.0578309,61.939612 32.8427515,62.0811179 32.6056351,62.2241788 C31.7135841,62.7925349 30.8426885,63.3709985 30.0044074,63.99689 L30,64 C31.1644263,63.6975506 32.4557847,63.4052087 33.8670235,63.1470771" id="Fill-89" fill="#FAF9FA"></path>
                    <path d="M39,65.2691786 L39,65.2650084 C38.9137121,64.2923174 38.0183682,63.8742583 37.124733,64.0327246 L35.1503631,65.2504128 L35,66 C36.2422042,65.7080884 37.5732593,65.4557935 39,65.2691786" id="Fill-90" fill="#69BDBF"></path>
                    <path d="M61.6350048,309 C66.3050322,309 68.5127605,313.89936 69.4041927,316.829283 C70.2964938,319.759206 73.0985102,328 68.1304699,328 C63.1632984,328 42.6551446,328 42.6551446,328 C42.6551446,328 41,327.770893 41,324.886792 C41,322.001809 43.7168699,321.68194 45.0757393,321.178787 C46.4346086,320.674752 49.6189157,319.346814 53.0152203,315.867035 C56.4123937,312.388137 58.1526848,309 61.6350048,309" id="Fill-91" fill="#FFA898"></path>
                    <path d="M62.2874624,323 C59.5760249,323 57.1724734,321.033532 56.6791754,318.23377 L48.8808159,273.975309 C45.0518035,252.248506 44.0498984,230.079635 45.9031677,208.083972 L49.6768967,163.288653 C49.9448085,160.108868 52.6987716,157.752036 55.8456721,158.020896 C58.9857684,158.292341 61.3127737,161.090379 61.0457125,164.271887 L57.2719834,209.068068 C55.5037656,230.056368 56.4597429,251.210983 60.112699,271.944211 L67.910208,316.203534 C68.4638924,319.345402 66.3996958,322.348532 63.2970221,322.908657 C62.9585176,322.969839 62.6208637,323 62.2874624,323" id="Fill-92" fill="#FFA898"></path>
                    <path d="M71.9167915,324.828075 L71.9273193,324.828075 L71.3605724,328.041 L71.0500021,329.821064 C70.9324416,330.505106 70.3323566,331 69.6269935,331 L43.0276119,331 C42.2248666,331 41.5835477,330.379007 41.5721426,329.588731 L41.551087,328.082457 L41.4326491,328.041 C41.1343613,327.894173 40.2886274,327.217904 40.0096406,324.195854 C39.966652,323.732053 40.074562,323.331301 40.1921226,322.964233 C40.7808024,320.930244 42.8556577,320.319616 44.0435453,319.971549 C44.2795436,319.898135 44.5041368,319.835086 44.6962693,319.761673 C47.0185281,318.92994 49.2118212,317.611949 51.2340374,315.843113 L51.2559704,315.821521 L51.3094867,315.7697 L51.5340799,315.569324 L51.6937517,315.431997 L51.7156846,315.411269 C52.4324528,314.87319 53.9309106,314 56.2198313,314 C59.4720464,314 61.1529862,315.400904 61.9443264,317.043642 C64.2446522,323.194838 67.5082724,315.926891 69.4980279,315.926891 C69.6691047,315.926891 69.9586194,315.895798 70.106886,315.957984 C70.2683124,316.011533 70.3972781,316.137631 70.4393893,316.295687 C70.7183762,317.170604 71.381628,319.381649 71.6053439,320.424986 L71.6053439,320.43535 C71.9273193,321.941625 72.1194518,323.500584 71.9167915,324.828075" id="Fill-93" fill="#7B5E74"></path>
                    <path d="M61,317.055786 L55.7622812,321.200694 C54.2851496,322.36439 52.4776962,323 50.6185771,323 L40,323 C40.567476,320.957896 42.5722756,320.344831 43.7182383,319.995375 C43.9460757,319.921669 44.1629023,319.858368 44.3483907,319.784661 C46.5894975,318.94961 48.7069452,317.626361 50.6600791,315.850467 L50.6804065,315.828789 L50.7320723,315.776761 L50.9488989,315.575585 L51.1038961,315.437711 L51.1242236,315.4169 C51.8170525,314.876674 53.2628458,314 55.4734613,314 C58.6132129,314 60.2351779,315.406494 61,317.055786" id="Fill-94" fill="#8C7185"></path>
                    <path d="M71,328 L70.6886817,329.804729 C70.5708381,330.498249 69.9693079,331 69.2622461,331 L42.598804,331 C41.7941254,331 41.151262,330.370403 41.1398294,329.569177 L41.1187231,328.042032 L41,328 L71,328" id="Fill-95" fill="#5A3C55"></path>
                    <path d="M68.9836255,310.809341 C69.0364251,311.104845 68.9607457,311.410719 68.7680273,311.64142 C68.5761888,311.86348 68.2857912,312 67.9848336,312 L55.7502932,312 C55.2566172,312 54.8368606,311.652652 54.7515013,311.17829 L53.6365504,305.024533 L48.023076,274.158979 C44.0525483,252.302863 43.0115168,230.015586 44.9422211,207.897663 L48.8379494,162.974898 C49.1389069,159.570545 51.9830438,157 55.4713354,157 C55.653494,157 55.8470924,157.010369 56.0398108,157.020737 C59.6891411,157.325746 62.415359,160.49767 62.1038415,164.092113 L58.1975533,209.003646 C56.3733281,229.984481 57.3606801,251.134669 61.1270494,271.861473 L67.814115,305.024533 L68.9836255,310.809341" id="Fill-96" fill="#484E51"></path>
                    <path d="M68.9840129,310.805153 C69.0355634,311.101697 68.9616743,311.408646 68.773515,311.640159 C68.5862148,311.863 68.3026871,312 68.0088492,312 L56.0637385,312 C55.5817413,312 55.1719148,311.651431 55.0885748,311.175399 L54,305 L67.8421692,305 L68.9840129,310.805153" id="Fill-97" fill="#69BDBF"></path>
                    <path d="M50.9772077,65.5184004 C50.6909845,68.819807 47.7822404,71.2634383 44.4808338,70.977215 C41.1803216,70.6900973 38.735796,67.7822477 39.0229137,64.4808411 C39.309137,61.1794345 42.217881,58.7358032 45.5183932,59.022921 C48.8206942,59.3091442 51.263431,62.2169938 50.9772077,65.5184004" id="Fill-98" fill="#FFA898"></path>
                    <path d="M44.3682181,75.9960664 C44.0950872,75.9873522 43.8296864,75.9594667 43.5685801,75.9185099 C40.3219296,75.4069862 37.8912362,72.5051564 38.0037524,69.0874457 L38.824004,44.4602348 C38.9459681,40.770641 41.9933534,37.8792682 45.6316633,38.0038813 C49.3043294,38.1215231 52.1189521,41.2211653 51.9961291,44.9116305 L51.1758774,69.5388415 C51.0539133,73.2293067 48.0056692,76.1215509 44.3682181,75.9960664" id="Fill-99" fill="#FFA898"></path>
                    <path d="M51.6155257,55.5934722 L51.9960485,44.7160209 C52.1214281,41.1300014 49.2482182,38.1180838 45.4991044,38.0037715 C41.7850618,37.8826851 38.6742443,40.6922276 38.5497414,44.2774003 L38,60 C40.2919045,59.706175 42.7100653,59.1532422 45.244838,58.3276533 C47.4210074,57.6189169 49.5594753,56.6840963 51.6155257,55.5934722" id="Fill-100" fill="#F48989"></path>
                    <path d="M62,163.999553 C62,167.313753 59.313059,170 56,170 C52.6860465,170 50,167.313753 50,163.999553 C50,160.686247 52.6860465,158 56,158 C59.313059,158 62,160.686247 62,163.999553" id="Fill-101" fill="#FFA898"></path>
                    <path d="M33,163.999553 C33,167.313753 30.313059,170 27,170 C23.6860465,170 21,167.313753 21,163.999553 C21,160.686247 23.6860465,158 27,158 C30.313059,158 33,160.686247 33,163.999553" id="Fill-102" fill="#FFA898"></path>
                    <path d="M69,73 C69,75.2091021 67.2084657,77 65.00041,77 C62.7907144,77 61,75.2091021 61,73 C61,70.7908979 62.7907144,69 65.00041,69 C67.2084657,69 69,70.7908979 69,73" id="Fill-103" fill="#FFA898"></path>
                    <path d="M29,73 C29,75.2091021 27.2091021,77 25,77 C22.7900779,77 21,75.2091021 21,73 C21,70.7908979 22.7900779,69 25,69 C27.2091021,69 29,70.7908979 29,73" id="Fill-104" fill="#FFA898"></path>
                    <path d="M69.4666491,74.4261007 C70.6060407,72.3914659 69.8598441,69.8285339 67.8003763,68.702881 C67.4491222,68.5103806 59.0347503,64 45.003807,64 L45.0029332,64 C31.982064,64 24.1496206,68.5880713 23.8228319,68.7840247 C21.8088,69.9865051 21.1622128,72.5753341 22.3802434,74.5659441 C22.7830498,75.2245892 23.350998,75.7494335 24.0150606,76.1007684 C25.3589135,76.8120705 25.9460847,78.411637 25.37202,79.8074811 L25.3702725,79.8100708 C24.5838826,81.718674 23.1203236,83.271626 21.2495895,84.1831977 C18.1398543,85.6981676 16,88.8567289 16,92.5133742 C16,96.9020393 19.0809009,100.569907 23.2208068,101.546221 C24.3811688,108.243165 28.6224316,116.732176 24.9823202,126.691268 C23.8446761,129.804079 22.8686789,132.280687 22.0517071,134.526814 C19.9424347,139.326377 19.0179897,145.366402 19.0179897,152.134131 C19.0179897,172.186981 27.2916852,172.993238 48.1449977,172.993238 C48.1449977,172.993238 69.4509213,173.850426 69.1669472,156.2621 C69.1084049,152.662428 67.9104709,147.746329 66.8907853,144.647331 C64.1532747,136.32406 60.2929741,132.632886 58.1059364,129.485546 C53.7213759,123.178783 53.5431275,114.863281 57.7249742,108.352795 C59.6708523,105.323718 61.5870224,101.276029 63.4551353,95.8661624 C65.2856762,90.563336 66.0283778,86.1323727 65.8798374,82.4645053 C65.7732379,79.8204296 66.8051562,77.2488652 68.718705,75.3972353 C69.010543,75.1149589 69.2630615,74.7886577 69.4666491,74.4261007" id="Fill-105" fill="#FFA898"></path>
                    <path d="M55.5004298,170 C51.9166832,170 49,167.08351 49,163.49914 C49,159.915631 51.9166832,157 55.5004298,157 C59.085036,157 62,159.915631 62,163.49914 C62,167.08351 59.085036,170 55.5004298,170" id="Fill-107" fill="#73FFC4"></path>
                    <path d="M26.5004298,170 C22.9158236,170 20,167.08351 20,163.49914 C20,159.915631 22.9158236,157 26.5004298,157 C30.085036,157 33,159.915631 33,163.49914 C33,167.08351 30.085036,170 26.5004298,170" id="Fill-108" fill="#73FFC4"></path>
                    <path d="M68.9972984,156.71701 C69.0706435,161.409302 67.6503367,165.248449 64.7674417,168.14146 C59.35716,173.572575 50.5393499,174 47.9714076,174 C47.6443746,174 47.4657577,173.988909 47.4657577,173.988909 L47.4459113,173.988909 C27.0283537,173.988909 18,173.125527 18,152.649219 C18,146.827365 18.6877184,141.781872 20.0458976,137.609998 C20.1641127,137.245705 20.5066776,137 20.8932495,137 L62.4514615,137 C62.8380334,137 63.197856,137.205608 63.3902791,137.536628 C64.5568981,139.548341 65.7105738,141.978948 66.7141077,145.022113 C67.7245447,148.122438 68.9343078,153.033987 68.9972984,156.71701" id="Fill-109" fill="#54939B"></path>
                    <path d="M59.9379732,133 C60.075131,133 60.2052999,133.061551 60.2882935,133.166948 C61.1453116,134.258853 62.0687245,135.503373 63,137 L21,137 C21.2454863,136.300169 21.5110658,135.632378 21.8098427,134.973862 C22.0343623,134.362563 22.278975,133.742833 22.5331974,133.086847 L22.6633663,133 L59.9379732,133" id="Fill-110" fill="#4B7D88"></path>
                    <g id="Group" transform="translate(16.000000, 121.000000) scale(-1, 1) translate(-16.000000, -121.000000) translate(0.000000, 63.000000)">
                        <path d="M9.81535135,5.5405037 C11.6774054,5.49152593 13.4140541,6.6816 13.9684324,8.54103704 L21.8075676,34.8232 C25.6726486,47.7816889 27.8131892,61.2041778 28.1712432,74.7168889 L28.896,102.119526 C28.9574054,104.433511 27.1178378,106.359111 24.7896216,106.420119 C22.4605405,106.481126 20.5223784,104.653481 20.460973,102.340356 L19.7353514,74.9368593 C19.3980541,62.1570963 17.3725405,49.4615407 13.7158919,37.2050667 L5.87762162,10.9220444 C5.21513514,8.70257778 6.49081081,6.37054815 8.72475676,5.71235556 C9.088,5.60580741 9.45383784,5.54995556 9.81535135,5.5405037" id="Fill-141" fill="#FFA898"></path>
                        <path d="M31.9991351,111.651289 C32.0198919,112.470163 31.3695135,113.150696 30.5452973,113.171319 C30.2166486,113.183348 29.9139459,113.086252 29.6657297,112.916978 C29.5965405,112.868859 29.5074595,112.859407 29.4287568,112.888622 C29.3500541,112.917837 29.2903784,112.983141 29.2696216,113.06477 C29.0828108,113.787407 28.4367568,114.333896 27.648,114.362252 C27.180973,114.375141 26.7563243,114.207585 26.4354595,113.92403 C26.368,113.864741 26.2745946,113.844119 26.1881081,113.869896 C26.1024865,113.897393 26.0358919,113.966133 26.0142703,114.052919 C25.7980541,114.901867 25.043027,115.509363 24.1582703,115.541156 C23.3392432,115.567793 22.515027,115.090044 22.2140541,114.208444 C22.1829189,114.1208 22.1085405,114.056356 22.0168649,114.03917 C21.9260541,114.021985 21.8309189,114.054637 21.7721081,114.125956 C21.4676757,114.485985 21.0196757,114.722281 20.5094054,114.740326 C19.5381622,114.769541 18.7407568,114.028859 18.7061622,113.075081 C18.7061622,113.075081 18.6162162,111.353985 18.572973,110.668296 C18.5634595,110.522222 18.4389189,110.409659 18.2918919,110.413956 C16.3364324,110.46723 15.7154595,107.979674 16.2854054,105.032415 C16.9556757,101.571319 20.0492973,95.5083852 24.4410811,95.5797037 C28.0994595,95.6389926 31.5156757,99.0055704 31.7829189,103.92483 C31.8313514,104.801274 31.7829189,103.206489 31.9991351,111.651289" id="Fill-142" fill="#FFA898"></path>
                        <path d="M29.7461622,74.6825185 L30.259027,93.9668741 C30.272,94.4420444 29.8949189,94.8364444 29.4175135,94.8493333 L19.5494054,95.1088296 C19.0711351,95.1208593 18.6741622,94.7470815 18.6611892,94.2719111 L18.1474595,74.9875556 C17.811027,62.3426963 15.8088649,49.783763 12.1842162,37.6673481 L4.352,11.3817481 C3.91178378,9.90468148 4.07005405,8.34942222 4.80518919,6.98835556 C5.54983784,5.6376 2.94289773,4.49789332 1.48057432,3.60737847 C-1.96937162,1.50645602 8.57932745,-3.40765621 13.7677365,6.98835556 C17.2266758,13.9190301 20.4085294,23.0518103 23.3132973,34.3866963 C27.2172973,47.4714963 29.3829189,61.0323259 29.7461622,74.6825185 Z" id="Fill-143" fill="#F2EEF1"></path>
                        <polyline id="Fill-144" fill="#EDE7EB" points="30.0583784 86.3942222 30.1846486 91.1502222 18.5859459 91.4552593 18.4596757 86.6984 30.0583784 86.3942222"></polyline>
                    </g>
                    <path d="M28.6339803,309 C33.3048413,309 35.5125529,313.89936 36.4048472,316.829283 C37.2962727,319.759206 40.098268,328 35.131134,328 C30.1631312,328 9.65600094,328 9.65600094,328 C9.65600094,328 8,327.770893 8,324.886792 C8,322.001809 10.7168494,321.68194 12.0765773,321.178787 C13.4345676,320.674752 16.6188507,319.346814 20.0151296,315.867035 C23.4122774,312.388137 25.1525554,309 28.6339803,309" id="Fill-111" fill="#FFA898"></path>
                    <path d="M29.0085748,322.997713 C26.2444205,322.9185 23.8530976,320.884803 23.4308444,318.073616 L16.771036,273.643096 C13.4996576,251.831218 13.123358,229.660299 15.6499408,207.747683 L20.7958805,163.11827 C21.1617754,159.950627 24.0369121,157.67757 27.2363253,158.037471 C30.4279351,158.400816 32.7178133,161.263662 32.3527854,164.433027 L27.2068456,209.061579 C24.7955805,229.972845 25.1554062,251.128636 28.2750508,271.942608 L34.9357263,316.373128 C35.4091354,319.527856 33.2163668,322.466472 30.0394969,322.93572 C29.692677,322.987381 29.3484583,323.007184 29.0085748,322.997713" id="Fill-112" fill="#FFA898"></path>
                    <path d="M38.9162354,324.828075 L38.9276406,324.828075 L38.360888,328.041 L38.0503146,329.821064 C37.9318756,330.505106 37.3317846,331 36.6272919,331 L10.0267679,331 C9.22489195,331 8.58356666,330.379007 8.57128409,329.588731 L8.55110559,328.082457 L8.43266659,328.041 C8.13437575,327.894173 7.2886335,327.217904 7.00964383,324.195854 C6.96665486,323.732053 7.07456596,323.331301 7.19125031,322.964233 C7.78081338,320.930244 9.85568934,320.319616 11.0435887,319.971549 C11.2787121,319.898135 11.5041849,319.835086 11.6963193,319.761673 C14.0186012,318.92994 16.2119161,317.611949 18.2341525,315.843113 L18.2560857,315.821521 L18.3096026,315.7697 L18.5333207,315.569324 L18.6938713,315.431997 L18.7149272,315.411269 C19.4325798,314.87319 20.9310526,314 23.2199961,314 C26.4722436,314 28.1523228,315.400904 28.9445482,317.043642 C31.2448969,323.194838 34.5076723,315.926891 36.498325,315.926891 C36.6694035,315.926891 36.9580438,315.895798 37.1071892,315.957984 C37.2686172,316.011533 37.3967068,316.137631 37.4396957,316.295687 C37.7178081,317.170604 38.3819439,319.381649 38.605662,320.424986 L38.605662,320.43535 C38.9276406,321.941625 39.119775,323.500584 38.9162354,324.828075" id="Fill-113" fill="#7B5E74"></path>
                    <path d="M28,317.055786 L22.7622812,321.200694 C21.2851496,322.36439 19.4776962,323 17.6185771,323 L7,323 C7.567476,320.957896 9.57142857,320.344831 10.7173913,319.995375 C10.9460757,319.921669 11.1629023,319.858368 11.3483907,319.784661 C13.5894975,318.94961 15.7069452,317.626361 17.6600791,315.850467 L17.6795596,315.828789 L17.7320723,315.776761 L17.9488989,315.575585 L18.1038961,315.437711 L18.1242236,315.4169 C18.8170525,314.876674 20.2628458,314 22.4726143,314 C25.6123659,314 27.2343309,315.406494 28,317.055786" id="Fill-114" fill="#8C7185"></path>
                    <path d="M38,328 L37.6886817,329.804729 C37.5699587,330.498249 36.9684285,331 36.2622461,331 L9.59792454,331 C8.79412541,331 8.15126198,330.370403 8.13894996,329.569177 L8.11872307,328.042032 L8,328 L38,328" id="Fill-115" fill="#5A3C55"></path>
                    <path d="M34.9882453,310.850835 C35.0328002,311.136299 34.9496882,311.439012 34.7560459,311.664106 C34.5615468,311.879714 34.2753674,312.008216 33.9831903,311.999592 L22.1795779,311.656345 C21.6988994,311.642546 21.3013329,311.284637 21.2319301,310.808576 L15.7533951,273.684416 C12.5034603,251.765759 12.1273144,229.500404 14.6420939,207.486017 L19.7196351,162.777648 C20.1086334,159.390024 22.949863,156.9045 26.3446011,157.002817 C26.5228206,157.008854 26.7096083,157.025241 26.8989665,157.040764 C30.4513603,157.448694 33.0029832,160.690568 32.5968485,164.267065 L27.5090254,208.965085 C26.8946824,214.366484 26.467127,219.784269 26.2177911,225.216715 L26.2169343,225.237413 C25.4997723,240.768914 26.2854802,256.365098 28.5620626,271.762922 L34.0363134,305.036332 L34.9882453,310.850835" id="Fill-116" fill="#484E51"></path>
                    <path d="M35.9879874,310.907485 C36.0335197,311.178877 35.9485845,311.466667 35.7506944,311.680665 C35.5519287,311.885644 35.2594716,312.007811 34.9608852,311.999612 L22.8983441,311.673286 C22.4071213,311.660167 22.0008337,311.319902 21.9299084,310.86731 L21,305 L35.0151736,305.379621 L35.9879874,310.907485" id="Fill-117" fill="#69BDBF"></path>
                    <path d="M30.4918741,70.6190034 C30.4113155,71.0253495 30.3489475,71.4282151 30.2753186,71.8328209 C30.1653084,72.4410349 30.0483684,73.0501189 29.953084,73.6539822 C29.8768565,74.1412495 29.8179534,74.6250363 29.7512543,75.1114334 C29.6793579,75.6282847 29.5987992,76.1486165 29.5372975,76.6637276 C29.473197,77.2084228 29.4281535,77.7496374 29.3761802,78.2925924 C29.3320028,78.7441847 29.2782971,79.1983874 29.242782,79.6491096 C29.1968722,80.2268693 29.1708856,80.8028888 29.1379691,81.3797784 C29.1145811,81.7922153 29.0816647,82.2072626 29.0643402,82.6188294 C29.040086,83.2226927 29.0348887,83.8256859 29.0236278,84.4286792 C29.0175643,84.8097918 29.001106,85.1917745 29.0002398,85.5720169 C28.9976412,86.2402692 29.016698,86.9067811 29.0314238,87.5732931 C29.0383536,87.8856662 29.0357549,88.2006497 29.0470158,88.5121527 C29.0807985,89.4892975 29.1319056,90.4664424 29.2012033,91.4427171 C29.2228589,91.7507396 29.613525,93.8729625 29.4446117,94 C29.5390299,93.9260398 31.345969,92.4720691 32.391499,91.5915076 C40.8995315,84.4687047 48.6340278,76.688091 54.3225078,67.1628865 C54.8197192,66.3458437 55.4754493,65.6132026 56.3200157,65.1572597 C56.5365712,65.043274 56.7635214,64.971054 57,64.9379894 L56.992204,64.9292882 C56.0497545,64.7126283 55.0458032,64.5081501 53.9829487,64.3254249 C53.2951685,64.2070886 52.5943949,64.4629039 52.142227,64.9954174 C51.229229,66.0691455 50.5501109,67.3525727 49.7800396,68.4993909 C46.7664532,73.0553396 42.1676806,79 32.1697461,87.6437728 C31.9921706,80.8054992 32.8523291,73.8253959 34.4314518,67.3856372 C34.7372282,66.1648588 34.8533019,64.5525262 36.0677452,64 C34.5994989,64.2018679 33.2369317,64.4672545 31.9800435,64.753524 C31.5677219,65.6236441 31.3884139,66.5903475 31.1554002,67.5553106 C30.912858,68.5829224 30.6911052,69.6035733 30.4918741,70.6190034" id="Fill-118" fill="#69BDBF"></path>
                    <path d="M42.2956729,96.8596553 C44.3852894,94.1037636 54.6396664,87.1762223 57.1072652,85.5344706 C57.4098225,85.3418924 57.4938185,84.9453043 57.3155412,84.6551178 L53.5211474,78.5532888 C53.5211474,78.5532888 58.8103283,76.0541681 60.6085299,75.2073514 C60.8802314,75.0895181 61.026796,74.8107633 60.9959403,74.5425607 C60.7550944,72.4400281 59.7094291,69.2981006 58.9054667,67.0355259 C58.5377697,65.9873373 57.9995091,65.0341189 57.3095414,64.1864228 C57.0755524,64.2198382 56.8509915,64.2928245 56.6367158,64.4080197 C55.8001835,64.8688006 55.1522139,65.6092156 54.6602369,66.4349279 C49.0316433,76.061203 41.378573,83.925255 32.96011,91.1227577 C31.925587,92.0126627 30.1376707,93.4820612 30.0442465,93.5568062 C30.2113815,93.4275413 29.8248282,91.2836792 29.8042577,90.9723883 C29.7348324,89.9857545 29.6842633,88.9982413 29.6508363,88.0107281 C29.639694,87.6950405 29.6422653,87.3784734 29.6354085,87.0619064 C29.6199806,86.3883222 29.6019815,85.714738 29.6045528,85.039395 C29.6054099,84.6542385 29.6208377,84.269082 29.6276945,83.8839254 C29.6388369,83.2745339 29.6439795,82.6651425 29.6679784,82.0548716 C29.6851204,81.6380584 29.7176903,81.2194865 29.7408321,80.8026732 C29.773402,80.2196623 29.798258,79.6375308 29.8445415,79.0536405 C29.8796827,78.5972564 29.9328231,78.1391136 29.9765353,77.6827295 C30.0279615,77.1340134 30.0725309,76.5870559 30.1359565,76.0365811 C30.1968108,75.5151249 30.2765213,74.9901512 30.3476608,74.4669363 C30.4136577,73.9762575 30.4719407,73.4873373 30.5473658,72.9948998 C30.6416471,72.3837496 30.7573559,71.769082 30.866208,71.1552937 C30.9390617,70.7455153 31.0007731,70.338375 31.0804837,69.9277172 C31.2784744,68.8997538 31.4970356,67.868273 31.7370244,66.831516 C31.967585,65.8563138 32.1450053,64.8793528 32.5521291,64 C31.3101872,64.2928245 31.1601942,65.5979296 30.1359565,65.9250488 C28.3128989,67.5333851 26.4565686,69.463962 24.8049316,71.5849609 C23.5767034,73.152847 21.2092834,75.7956384 21.3515625,76.0365811 C21.8529676,76.8939501 22.0157652,76.966057 22.873725,77.4382694 C23.6254041,77.8454098 23.9605313,78.7784031 23.6356893,79.5935631 C22.9671492,81.2555399 21.755206,82.5965529 20.1969932,83.3791769 C18.9516229,84.0087935 17.8828158,84.8740767 17,85.8923672 C17.3411269,91.1966233 19.7727273,96.1957439 22.0946186,99 L40.8454551,99 C41.3271468,98.2156173 41.8182667,97.4857545 42.2956729,96.8596553 Z" id="Fill-119" fill="#484E51"></path>
                    <path d="M39,103 L24,103 C24.9203164,104.802714 25.3004052,106.543833 25.3939803,107.011428 L25.3939803,177.4257 C28.4115377,177.763166 32.3108238,177.983517 37.3117885,178 L37.3117885,107.984789 C37.3281883,106.804958 38.009261,104.95453 39,103" id="Fill-120" fill="#484E51"></path>
                    <path d="M40.3555789,100.007784 L40.4146364,99.9127407 C40.6074416,99.6022122 40.8028523,99.2965998 40.9991315,99.0008193 L41,99 L22,99 L22.0191068,99.0188447 C22.3543447,99.3908234 22.6869772,99.721016 23.0109247,100.003687 C23.2271792,100.191315 23.4278009,100.39451 23.6197376,100.60508 L23.747406,100.747644 C23.9323948,100.959853 24.1086986,101.178615 24.2711066,101.406391 L24.2945559,101.440803 C24.4560954,101.670217 24.6046076,101.904547 24.7453033,102.142155 L24.8052292,102.242114 C24.9511359,102.494469 25.0857522,102.747644 25.209078,103 L38.7132605,103 C39.1952736,102.002048 39.7580564,100.979517 40.3555789,100.007784" id="Fill-121" fill="#517C88"></path>
                    <path d="M69.1472468,154.851177 C68.8755968,151.424343 67.9243934,147.354386 66.9209167,144.252562 C64.1872781,135.792809 60.2779179,131.843545 58.1004334,128.713273 C54.1387998,122.899294 54.0034033,115.29819 57.7662268,109.347138 C59.8563034,106.024618 61.74757,101.840001 63.5454301,96.5406941 C65.3330069,91.2629394 66.1582401,86.5627894 66.0014201,82.5781794 C65.9182969,80.3910406 66.7649536,78.2470066 68.3211566,76.7116128 C68.7187768,76.3228072 69.0538403,75.8702066 69.3246334,75.3762253 C70.8611268,72.5899294 69.85765,69.0682653 67.0777367,67.5225263 C66.8489337,67.3957981 63.2112235,65.4086657 56.8672967,64 C56.9889822,64.1293145 57.0960997,64.2689741 57.2092158,64.4051854 L57.2160713,64.4138063 C57.905908,65.2448673 58.4440663,66.1793799 58.8116936,67.2069989 C59.6155033,69.4251732 60.6609701,72.505444 60.9017702,74.5667167 C60.93262,74.8296561 60.7860833,75.1029407 60.5144333,75.2184616 C58.7165732,76.0486606 53.4283965,78.4987388 53.4283965,78.4987388 L57.2220699,84.4808263 C57.4003134,84.7653182 57.3163333,85.1541237 57.0138335,85.3429228 C54.5467032,86.952457 44.2942732,93.7440531 42.2050535,96.4458635 C41.7277379,97.0596762 41.2367113,97.7752163 40.755111,98.5442064 L46.5060353,98.5442064 C50.1814509,98.5442064 53.3461303,96.3768958 54.8294934,93.2474856 L54.8406336,93.4699064 C54.8406336,98.5976564 50.709326,102.752961 45.6131038,102.752961 L38.498788,102.752961 C37.6187107,104.695265 37.013711,106.534117 37,107.706568 L37,224.778409 C37,225.452569 37.5433,226 38.213427,226 L70.7882869,226 C71.1122102,226 71.41471,225.873272 71.6452268,225.64223 C71.8757437,225.410326 72,225.095661 72,224.769788 C71.8534633,210.281395 69.6485567,155.871037 69.1472468,154.851177" id="Fill-122" fill="#E9E3E8"></path>
                    <path d="M41,100 C40.2723427,100.974528 39.586991,102 39,103 C39.586991,102.000822 40.2734003,100.973706 41,100" id="Fill-123" fill="#E9E3E8"></path>
                    <path d="M41.673,99 C41.447,99.3243486 41.222,99.6594789 41,100 C41.222,99.6594789 41.447,99.3243486 41.673,99" id="Fill-124" fill="#E9E3E8"></path>
                    <path d="M16.998,100 C16.632,99.6802413 16.299,99.3461538 16,99 C16.299,99.346908 16.632,99.6794872 16.998,100" id="Fill-126" fill="#E9E3E8"></path>
                    <path d="M15.798,98 C15.498,97.6773296 15.232,97.3435327 15,97 C15.232,97.3435327 15.498,97.6766342 15.798,98" id="Fill-127" fill="#E9E3E8"></path>
                    <path d="M18,101 C17.6386139,100.684514 17.3061056,100.350906 17,100 C17.3061056,100.35173 17.6386139,100.684514 18,101" id="Fill-128" fill="#E9E3E8"></path>
                    <path d="M20.5640726,98.980671 L22.9813144,98.980671 L23,99 L22.9813144,98.980671 C20.6804332,96.3015062 18.2699862,91.5230461 17.9327954,86.4538108 C17.9226032,86.3025406 17.9064657,86.1512703 17.9005202,86 C16.0565877,87.9261749 15,90.4986101 15,93.2660159 C15,94.8274614 15.3516297,96.3510893 16.0141204,97.7528606 C17.3569381,98.520137 18.9019004,98.980671 20.5640726,98.980671" id="Fill-129" fill="#E9E3E8"></path>
                    <path d="M26,105.977864 C25.9177362,105.514124 25.5835925,103.787357 24.7745237,101.999504 L22.6958783,101.999504 C21.1684853,101.999504 19.7377735,101.604594 18.4724374,100.932643 C18.0390682,100.642698 17.63623,100.331243 17.2613784,100 C17.7642902,100.445673 18.3011251,100.868976 18.910895,101.236355 C20.1762311,101.997784 21.0904619,103.240161 21.4517442,104.688167 C21.6086391,105.318819 21.7689263,105.933125 21.9046192,106.450209 C22.8035846,109.933855 23.7873579,113.711748 23.7873579,117.771843 C23.7873579,120.237669 23.4252276,122.798136 22.4736812,125.473893 C20.8504551,130.060536 19.7360773,132.789636 18.9405778,135.061018 C16.8059592,141.14901 14.6535308,146.6313 13.9614971,152.776076 C14.7866795,152.776076 15.6797083,152.776076 15.7221123,152.776076 C16.1249505,152.776076 16.445525,153.322412 16.445525,153.993502 L16.445525,172.387395 C16.445525,173.615145 16.0426867,174.738791 15.4015379,175.325565 C14.7018714,175.949334 13.8300447,176.353709 12.896308,176.554176 C12.790298,176.576546 12.685136,176.568802 12.5833663,176.545572 C11.8548652,193.572333 11.0848081,215.381042 11,223.772249 C11,224.451943 11.5325946,225 12.2000339,225 C16.5413581,225 19.8700741,225 24.799118,225 C25.462317,225 26,224.453664 26,223.780853 L26,105.977864" id="Fill-130" fill="#E9E3E8"></path>
                    <path d="M24.519,101.856 C24.357,101.566 24.186,101.28 24,101 C24.185,101.28 24.358,101.566 24.519,101.856" id="Fill-131" fill="#E9E3E8"></path>
                    <path d="M24.603,101.804 C24.416,101.526 24.213,101.259 24,101 C24.213,101.259 24.416,101.526 24.603,101.804" id="Fill-132" fill="#E9E3E8"></path>
                    <path d="M25.465,102.925 C25.323,102.617 25.168,102.308 25,102 C25.167,102.307 25.323,102.617 25.465,102.925" id="Fill-133" fill="#E9E3E8"></path>
                    <path d="M23.701,100.734 C23.48,100.477 23.249,100.229 23,100 C23.249,100.229 23.48,100.477 23.701,100.734" id="Fill-134" fill="#E9E3E8"></path>
                    <path d="M25,102 C24.8806522,101.757213 24.7495377,101.512849 24.609178,101.27085 L24.5511851,101.174681 C24.4158682,100.946082 24.2704656,100.720637 24.1149773,100.499921 L24.0922844,100.466814 C23.9351151,100.247675 23.7644982,100.037206 23.5854766,99.8330443 L23.4619264,99.6958852 C23.2761809,99.4932997 23.0820306,99.2978086 22.8727517,99.1172947 C22.5592537,98.8453413 22.2373508,98.5276683 21.9129265,98.1697935 L21.894436,98.1516633 C17.817265,97.5959006 15.8627273,97.4399385 16.0308228,97.6837769 C16.4140438,98.4166376 16.7081926,98.8944769 16.913269,99.1172947 C17.3883086,99.8157023 17.7485381,100.265542 17.9939575,100.466814 C18.251865,100.761627 18.5239801,100.997583 18.8103027,101.174681 C20.064295,101.79032 21.4262901,102 22.9399899,102 L25,102 Z" id="Fill-135" fill="#D3C6CF"></path>
                    <path d="M41.3463031,98.5731906 C41.1448348,98.9005986 40.944258,99.2388899 40.7463555,99.5826229 L40.6857368,99.6878288 C40.0733089,100.762561 39.4947562,101.895338 39,102.999093 L39,103 L46.400839,103 C51.7023073,103 56,98.6285144 56,93.2339924 L55.9884111,93 C54.4453068,96.2922184 51.1531725,98.5722837 47.3297326,98.5722837 L41.3471945,98.5722837 L41.3463031,98.5731906" id="Fill-136" fill="#D3C6CF"></path>
                    <path d="M61,159 L61,154.626623 C61,154.280844 60.7043978,154 60.3397934,154 L45.6610585,154 C45.2956022,154 45,154.280844 45,154.626623 L45,159 L61,159" id="Fill-137" fill="#FAF9FA"></path>
                    <path d="M61,159 L45.1748583,159 L45.0004464,173.568383 C44.9802247,174.841953 45.6483824,176.019852 46.7268715,176.608802 C50.0659747,178.471322 55.9648042,178.459912 59.2836858,176.597392 C60.3419532,175.998787 61,174.852486 61,173.599981 L61,159" id="Fill-138" fill="#E1D9DF"></path>
                    <path d="M17,158 L17,154.148539 C17,153.515422 16.6616541,153 16.2364841,153 C16.1917293,153 15.2491944,153 14.3782671,153 C13.6004296,153 12.8780881,153 12.9076262,153 C12.5388471,153 12.236305,153.262175 12.2184032,153.595779 C12.1450054,154.940747 12.0760831,156.406656 12,158 C13.8250985,158 12.8843537,158 17,158" id="Fill-139" fill="#FAF9FA"></path>
                    <path d="M13.5567703,176.986296 C14.4626236,176.780317 15.3084157,176.364823 15.9871886,175.723902 C16.6091914,175.120994 17,173.966452 17,172.704942 L17,158 C13.2169725,158 14.081688,158 12.4040905,158 C12.2740952,161.438874 12.1440999,165.428498 12.0034088,170.085564 L12.0034088,170.127997 C11.9795489,171.447853 12.0651155,175.325205 12.7735075,176.615888 C12.8804657,176.80949 13.057358,176.933254 13.2531737,176.977456 C13.3519043,177.001324 13.4539259,177.009281 13.5567703,176.986296" id="Fill-140" fill="#E1D9DF"></path>
                    <path d="M65.0782364,69.0014581 C66.9246405,68.9524233 68.6466932,70.1438829 69.1964123,72.0054846 L76.9696622,98.3182446 C80.8022587,111.291819 82.9248087,124.729934 83.2798535,138.258377 L83.9985189,165.692915 C84.0594082,168.009594 82.2353016,169.937436 79.9266532,169.998514 C77.6171472,170.059593 75.6952746,168.229821 75.6343853,165.914002 L74.9148623,138.478603 C74.5803998,125.683962 72.5719101,112.973627 68.9459942,100.702884 L61.1736019,74.3892639 C60.5166833,72.1672134 61.7816374,69.8324689 63.9968078,69.1735101 C64.3569981,69.0668379 64.7197612,69.010921 65.0782364,69.0014581" id="Fill-141" fill="#FFA898"></path>
                    <path d="M86.9995141,175.101891 C87.0203793,175.922277 86.3666037,176.604067 85.5380823,176.624728 C85.207717,176.636779 84.9034331,176.539504 84.6539204,176.369917 C84.5843698,176.32171 84.4948234,176.31224 84.4157096,176.341509 C84.3365958,176.370778 84.2766084,176.436202 84.2557432,176.517983 C84.0679566,177.241954 83.4185279,177.789452 82.6256512,177.81786 C82.1561847,177.830773 81.7293179,177.662908 81.406777,177.378829 C81.3389652,177.31943 81.2450719,177.29877 81.1581336,177.324595 C81.0720648,177.352143 81.0051223,177.42101 80.9833878,177.507956 C80.7660422,178.358472 80.0070713,178.96709 79.1176931,178.998941 C78.2943879,179.025627 77.4658665,178.546997 77.1633214,177.663769 C77.1320236,177.575962 77.0572568,177.511399 76.9651022,177.494182 C76.8738171,177.476965 76.778185,177.509677 76.719067,177.581128 C76.4130444,177.941822 75.9627043,178.178555 75.4497687,178.196633 C74.4734522,178.225901 73.6718816,177.483852 73.6371063,176.528313 C73.6371063,176.528313 73.5466905,174.804038 73.5032214,174.117083 C73.4936582,173.970739 73.3684671,173.857968 73.2206721,173.862272 C71.2549985,173.915645 70.6307819,171.423495 71.2037049,168.470793 C71.8774763,165.003305 74.9872572,158.929175 79.4019812,159.000625 C83.0794688,159.060023 86.5135294,162.432818 86.7821685,167.361162 C86.830854,168.239225 86.7821685,166.641495 86.9995141,175.101891" id="Fill-142" fill="#FFA898"></path>
                    <path d="M78.0941292,97.3683259 C81.975544,110.433572 84.1286372,123.974137 84.4897791,137.603931 L84.9996769,156.859469 C85.0125749,157.333929 84.6376752,157.72774 84.1630317,157.74061 L74.352012,157.999718 C73.8765086,158.01173 73.4818321,157.63851 73.4689342,157.16405 L72.9581765,137.908513 C72.6236904,125.282549 70.633111,112.742384 67.0294314,100.644075 L59.2425257,74.3977556 C58.8048562,72.9228962 58.9622109,71.369961 59.6930931,70.0109283 C60.4334339,68.6621913 61.6449787,67.6780937 63.1230807,67.2413843 C63.6123418,67.1023924 64.1136411,67.0157369 64.6166601,67.0020093 C67.2168813,66.9333712 69.559144,68.6295882 70.2969051,71.1228642 L78.0941292,97.3683259" id="Fill-143" fill="#F2EEF1"></path>
                    <polyline id="Fill-144" fill="#EDE7EB" points="84.8707679 150 85 154.698642 73.1292321 155 73 150.300509 84.8707679 150"></polyline>
                    <path d="M30.1679098,65.2104551 C28.0561718,66.9014802 26.1061276,68.8004604 24.2197006,71.086254 C22.851047,72.7353459 21.386084,74.332235 20.3293315,75.4490305 C20.0810477,75.710044 19.8548531,75.9393936 19.6613508,76.137935 C19.5429521,76.2628791 19.4457591,76.3672845 19.3485662,76.4614206 C19.2204482,76.6265865 19.2151467,76.7669347 19.2840654,76.8790422 L19.3459154,76.974034 C19.6242407,77.3882324 19.9847383,77.7348241 20.4132709,78.0009723 L22.7759434,79.4669268 C22.7759434,79.4669268 18.950075,83.5062177 17.4091248,84.7796213 C16.9885444,85.1347708 17.0000308,85.4685258 17.0000308,85.6251339 C17.2589175,91.7311382 20.5988211,97.4811372 23.3140389,99.9132695 C25.8569602,102.167399 25.9233838,108.404385 26.0629883,109.155762 C25.9284198,107.640141 25.9536587,107.256473 26.0629883,105.94458 C26.154658,104.844595 25.6672565,101.232841 25.371879,100.361699 C24.6729732,98.2641777 23.8309288,96.1974643 23.1744345,93.0875526 C21.7015194,86.1993635 28.0172946,72.652335 30.8579798,68.3734252 C32.4210193,65.9780915 33.5334369,64.1869398 35.6451749,63.2858014 C35.7989165,63.220762 35.9173152,63.094962 35.9703295,62.9400655 C36.0224603,62.785169 36.0056724,62.6157241 35.921733,62.4745201 C35.6566613,62.0243788 35.066435,61.8677707 34.6007923,62.1210822 C33.0996029,62.9400655 31.1698808,64.3897602 30.1679098,65.2104551 Z" id="Fill-155" fill="#FAF9FA"></path>
                    <path d="M59.8174089,67.611601 C58.9805397,65.3720042 57.0576162,63.2699642 56.0385471,62.2563425 C55.8706373,62.0886951 55.6384218,61.9958442 55.3963817,62.0001429 C55.1543416,62.0027221 54.9248055,62.1033105 54.7622546,62.2752565 C54.5791615,62.4678361 54.5282527,62.7438094 54.628284,62.9853936 C54.7283154,63.2286972 54.7399261,63.5330416 54.7622546,63.8580196 C54.784583,64.5182923 54.8060183,65.210375 54.7953006,65.2310085 C54.810484,65.7434076 54.7693997,66.4733184 54.7301016,66.9298351 C54.4576949,70.169298 53.139425,75.7902131 47.9770942,83.0661087 C39.632517,94.8624649 36.8334262,97.6823795 37.0075879,105.640901 C37.0183055,106.18597 37.0513516,106.972623 37.0843976,108 C37.1174437,105.473253 40.4567386,100.334213 42.9628805,97.2512207 C45.140348,94.5568267 55.372267,87.3028584 57.9436079,85.6977424 C58.2579921,85.5094615 58.3464126,85.1234427 58.1624264,84.8397318 L54.2067235,78.8723454 C54.2067235,78.8723454 59.7182707,76.4289926 61.5920718,75.6010725 C61.8751961,75.4858687 62.0279225,75.2133343 61.9957696,74.9511166 C61.7447982,72.895502 60.6551713,69.8236865 59.8174089,67.611601 Z" id="Fill-156" fill="#FAF9FA"></path>
                    <path d="M67.9245462,26.9294696 C68.9717683,14.9210058 58.9954179,4.25113104 45.6424701,3.09723453 C43.6555223,2.92548778 41.6503695,2.98158596 39.6868282,3.26293994 C33.7095137,4.11563235 28.2072634,7.0491359 24.4813029,11.3428047 C22.5775781,13.5358122 21.3014929,15.9834192 20.3713032,18.6424731 C19.2035813,21.9859249 19.1203583,25.4372579 18.8117399,28.9697175 C18.5291286,32.2104665 17.9318307,35.5616857 18.0063845,38.8188326 C18.1372873,44.5063256 20.8333639,50.2991104 25.6273522,54.0671824 C31.041178,58.322877 38.6586781,57.2526962 44.7538918,55.205544 C50.7260048,53.2006812 56.412906,49.3946351 60.3105138,44.9343979 C64.6433083,39.9779075 67.2024138,33.8312725 67.8664635,27.5249734 C67.8872693,27.3264722 67.9063412,27.1279709 67.9245462,26.9294696" id="Fill-157" fill="#FFA898"></path>
                    <path d="M60.5587356,29.1662999 C58.9282251,28.6249502 57.2950135,29.4229137 56.8466457,31.3026977 C56.2902373,33.6306771 57.7929,33.9268376 57.3076183,36.0166582 C57.0060053,37.3093942 56.4198859,37.7347404 56.1155719,39.0090213 C55.8418694,40.1593894 56.0111328,41.5610983 57.093338,41.9214122 C58.8706035,42.5110967 61.4788801,39.6821931 62.4305364,36.7873785 C63.4047012,33.8222586 63.3380763,30.0899339 60.5587356,29.1662999" id="Fill-158" fill="#F48989"></path>
                    <path d="M48.854835,26.0045676 C46.8827121,23.7294139 42.7920678,24.0036408 42.6192837,24.0168099 C42.2490318,24.0439227 41.9724069,24.3398399 42.0021973,24.6775883 C42.0328388,25.0153367 42.3562772,25.2771691 42.7273802,25.2399858 C42.7648309,25.2384365 46.2732861,25.0091394 47.7951487,26.7660508 C47.9151614,26.9039389 48.0879456,26.983728 48.2666878,26.9976718 C48.4318116,27.0108409 48.6028935,26.968235 48.7433338,26.8675302 C49.0361307,26.6575994 49.0854976,26.2718226 48.854835,26.0045676" id="Fill-161" fill="#893327"></path>
                    <path d="M27.1859935,24.8742812 C27.5386417,24.9963468 27.8888237,24.7269955 27.9792463,24.3002703 C28.0688469,23.8735451 27.8600529,23.4367319 27.5123369,23.326772 C27.3512203,23.2722964 23.5082601,22.0849311 21.2172804,24.6039211 C20.9484787,24.8984926 20.926284,25.4039047 21.1663149,25.7327756 C21.2813982,25.8911582 21.4359387,25.9799332 21.5945892,25.9970829 C21.7680362,26.0152414 21.9464153,25.9486602 22.0861593,25.7963304 C23.855154,23.853369 27.1506465,24.8641932 27.1859935,24.8742812" id="Fill-162" fill="#893327"></path>
                    <path d="M38.0038309,41.8752106 L28.2138894,41.0038267 C27.8997784,40.975541 27.5883368,41.105108 27.3578701,41.3578549 C27.1256237,41.6106019 26.9948183,41.9637176 27.0001573,42.3286951 C27.0490981,45.8169678 29.3626636,48.6966404 32.3987735,48.9667238 L32.5429264,48.979498 C35.5772566,49.2495814 38.3392979,46.8224809 38.9746386,43.3962544 C39.0422659,43.0385764 38.972859,42.6672118 38.7877737,42.3770546 C38.6026885,42.0868975 38.317942,41.9034963 38.0038309,41.8752106" id="Fill-163" fill="#C74038"></path>
                    <path d="M33.3839242,43.9710525 C35.533141,44.1597462 37.5499588,43.4141314 39,42.079536 C38.850371,41.9714493 38.6853256,41.8945063 38.5030503,41.8780185 L28.5259687,41.0032493 C28.3427865,40.9867615 28.166859,41.0343929 28,41.1149999 C29.2015664,42.6822565 31.0605936,43.7677031 33.2098104,43.9563967 L33.3839242,43.9710525" id="Fill-164" fill="#F2EEF1"></path>
                    <path d="M23.154054,31.4413083 L23.0057085,33.2939007 C22.9358989,34.1592004 23.5144463,34.920475 24.2980596,34.9932926 L24.3006775,34.9942382 C25.0842908,35.0680015 25.7762789,34.4249372 25.8460885,33.5577462 L25.994434,31.7079908 C26.0633711,30.8417454 25.483951,30.0804708 24.7003377,30.0057619 C23.9149792,29.9319986 23.2229911,30.5750629 23.154054,31.4413083" id="Fill-165" fill="#532442"></path>
                    <path d="M43.2971114,35.9932926 L43.3006021,35.9942382 C44.0851194,36.0680015 44.7762626,35.4249372 44.8460751,34.5577462 L44.9944265,32.7089365 C45.0633663,31.8417454 44.4847957,31.0804708 43.7002783,31.0057619 C42.9157609,30.9319986 42.2237451,31.5750629 42.1539326,32.4413083 L42.0055812,34.2939007 C41.9366414,35.1601461 42.5143394,35.920475 43.2971114,35.9932926" id="Fill-166" fill="#532442"></path>
                    <path d="M67.4081569,41.1167836 C67.0354287,41.8654304 66.6340957,42.5804399 66.1703525,43.2687119 C64.5771562,45.717339 62.5037472,47.7028055 60.035073,49 C60.035073,49 60.0593436,47.7554178 60.05761,46.193437 C60.0558764,44.8729551 60.0298721,43.3402991 59.9769967,42.1215918 C59.9241213,41.145246 59.8539097,40.3793493 59.7412245,40.0843755 C57.9772666,39.1408046 41.4792762,26.1007227 43.6341653,12.2128069 C43.4191965,12.3732312 29.2659266,27.072756 19.4493059,27.8084654 C18.1386896,28.48725 18,24.6008416 18,24.6008416 C18,24.6008416 22.3999264,8.71020938 32.353503,5.43099836 C39.8696105,2.95477143 48.4848328,-2.13999434 60.3956658,8.38073578 C70.8190533,17.591334 72.0880628,31.7543861 67.4081569,41.1167836" id="Fill-167" fill="#9F462C"></path>
                    <path d="M67.1421534,14.1381137 L67.1326817,14.1268306 C66.2699009,12.2659865 65.5767486,10.7714093 65.1539688,9.79932661 C62.7533371,4.17513367 58.7804123,3.57192162 57.1004867,3.58667644 C56.6372371,3.5910161 56.2006804,3.36795783 55.9277248,2.98953991 C52.9501838,-1.15656653 41.9458535,-0.461353788 36.1423178,1.8837958 C21.0264322,8.00965287 14.7355373,24.0125648 15.0084929,42.6409681 C15.0971819,49.1938472 17.7879904,53.0630837 21.316609,55.3058174 C28.2808518,59.7504921 38.5076461,57.8931198 38.5076461,57.8931198 L38.5438105,56.7379036 C34.1618828,57.3220211 29.6706005,56.8229608 26.1299271,54.0056568 C21.3648282,50.2197417 18.6929631,44.3976605 18.5646653,38.6805989 C18.4880311,35.4015556 19.07269,32.0322474 19.3533951,28.7731664 C19.3990312,28.2350492 19.4446673,27.7082151 19.4799707,27.1796451 C29.2314606,26.4392999 43.2908272,11.6471517 43.5043697,11.4857166 C41.3637778,25.4611417 57.7523082,38.5833906 59.5045626,39.5329072 C59.7542697,40.1925347 59.8128217,43.2997277 59.8188491,45.6804625 C57.6007618,48.0577255 54.8961764,50.2110624 51.9298292,51.9816416 L51.7765607,56.4410712 L51.693038,59.0049394 C57.1977864,61.18605 65.7790974,59.4614711 68.9598483,56.9140936 C83.1552622,50.580801 72.3515586,25.4845758 67.1421534,14.1381137" id="Fill-168" fill="#9F462C"></path>
                    <path d="M52,56.9761474 L52.1520807,52.4265086 C55.0954402,50.6213494 57.7790664,48.4248804 59.9799646,46 C59.9799646,46 60.7967575,57.594098 52,56.9761474" id="Fill-169" fill="#893327"></path>
                    <path d="M38,10.0538852 C38,10.0538852 26.4667572,8.83755282 19.3804774,17.9626518 C17.8964487,21.0347597 16.7889773,24.4118196 16,28 C18.6871337,27.3310172 26.0731225,24.2502212 38,10.0538852" id="Fill-170" fill="#B55C32"></path>
                    <path d="M18,27 C18,27 33.3458957,12.0374724 38,10 C36.3797969,12.4729757 24.6133196,25.7353325 18,27" id="Fill-171" fill="#893327"></path>
                    <path d="M37.9633999,57.6163192 C37.9633999,57.6163192 27.6134101,59.4678162 20.5652736,55.0363361 C19.9901289,54.6694974 19.4864416,54.2022972 19.0463688,53.6243533 C20.8955461,53.8259415 21.6702485,52.1561335 21.6702485,52.1561335 C16.6917614,51.0279316 16.0460308,41.9374276 16.0460308,41.9374276 C15.7541013,34.6577568 16.9462193,27.2509038 16.9462193,27.2509038 L18.7065106,27 C18.6707819,27.526898 18.624596,28.0520656 18.5784102,28.5884806 C18.2943236,31.8363869 17.7026217,35.1959022 17.7801791,38.464573 C17.9100224,44.1635499 20.6140738,49.9672142 25.4365747,53.7411534 C29.0199003,56.5495455 33.5644146,57.0470272 38,56.4647573 L37.9633999,57.6163192" id="Fill-172" fill="#893327"></path>
                    <path d="M69,42.7254172 C68.5939399,43.0430499 67.5043601,43.0561392 66.1910508,42.9112847 C64.0418392,42.6948756 61.292786,42.0840435 59.8975601,41.7507037 C59.8438298,40.7629009 59.772483,39.9880167 59.6579759,39.6895816 C59.6579759,39.6895816 62.0273936,40.4592301 65.7779442,40.7288688 C62.9029331,36.7427529 59.2519158,28.5768 59,28 C59.3399982,28.5532394 64.0946886,36.1938766 67.4488681,40.7341045 C68.0169999,41.5089887 68.5393288,42.1843945 69,42.7254172" id="Fill-173" fill="#893327"></path>
                    <path d="M20,27.3996433 L15.259901,27 C15.1675552,28.0407379 15.1180503,28.5930228 15.0923458,28.880729 C15.0752094,29.0620486 15.0675933,29.1471579 15.0666413,29.1582591 C15.053313,29.3173763 15.0314166,29.5560522 15,29.9066652 L16.0443641,29.9945498 C17.1572734,30.08891 18.5062833,28.9325346 19.9076542,28.5005127 C19.9400228,28.1323228 19.9704874,27.7659831 20,27.3996433" id="Fill-174" fill="#5A3C55"></path>
                    <path d="M50.2580325,35.8732327 C49.7916065,37.3276703 48.6838448,38.2664209 47.5006318,38.2080098 L41.2064531,37.9026029 L41.090704,37.8942585 C38.9883574,37.7165217 37.3961643,35.5302758 37.3884477,32.8091508 C37.3841606,31.4615221 37.6911101,30.5486393 38.3530235,29.9353223 C39.3990523,28.969035 41.4242329,28.6210714 44.925,28.8063182 C45.1307762,28.817166 45.3279783,28.8305171 45.5217509,28.847206 C49.882491,29.2151962 51.0262635,30.9258085 51.0134025,31.8787446 C51.0031137,32.7023418 50.7990523,34.1843161 50.2580325,35.8732327 Z M25.6849278,36.5925243 L19.3144404,35.8265038 C18.138944,35.6854826 17.2138087,34.5748363 17.0114621,33.0644909 C16.7773917,31.3104876 16.8399819,29.8159966 16.9754513,29.0024128 C17.1314982,28.0628277 18.5607852,26.5691712 22.9215253,26.9371615 C23.1152978,26.9538504 23.3125,26.973877 23.5165614,26.9972415 C26.9958935,27.4019473 28.9310469,28.0845233 29.7893051,29.2118585 C30.3337545,29.9261434 30.4743682,30.8774106 30.2325812,32.2041782 C29.7412906,34.883581 27.7872744,36.7702611 25.6849278,36.5925243 Z M43.9767148,27.9318199 C37.5590704,27.9351576 35.3666968,29.6299154 34.0763087,29.5206031 C32.7859206,29.4121253 30.9270758,27.3744106 24.6054603,26.2946388 C18.2838448,25.214867 15.2366426,27.4503451 15.2366426,27.4503451 L15,30.1022113 C15,30.1022113 15.5684567,30.6128916 16.0640343,31.500741 C16.0871841,32.0214347 16.1300542,32.578844 16.208935,33.1662932 C16.459296,35.0387878 17.6673736,36.423132 19.2141245,36.6092132 L25.4688628,37.3635515 L25.6154783,37.3785715 C27.6869585,37.5538049 29.6101083,36.1102151 30.5506769,33.8847503 C30.8190433,33.4725345 31.102843,33.0052453 31.3017599,32.5871884 C31.7879061,31.5574833 32.9796931,31.5574833 33.5584386,31.6250733 C33.7736462,31.6501067 33.9974278,31.6692989 34.2152076,31.6809812 C34.7973827,31.7118556 35.9694495,31.911288 36.2669675,33.0060798 C36.387861,33.4525078 36.5859206,33.9615193 36.7779783,34.4137885 C37.3104242,36.7619166 38.9497744,38.5050722 41.0212545,38.6803056 L47.4611913,38.9965603 C49.0173736,39.0716603 50.4526625,37.9109474 51.0305505,36.1085462 C51.2114621,35.5419581 51.3537906,35.0004033 51.4678249,34.4922263 C52.1143051,33.700338 52.7642148,33.2931289 52.7642148,33.2931289 L53,30.6404283 C53,30.6404283 50.3952166,27.9284821 43.9767148,27.9318199 Z" id="Fill-175" fill="#5A3C55"></path>
                    <path d="M60.5983446,31.6788428 L53.2369854,31 C53.151601,32.0413856 53.1080375,32.5925985 53.0836419,32.8811529 C53.0688303,33.0624243 53.0618602,33.1475109 53.0609889,33.1586091 C53.0479198,33.317684 53.0287519,33.5553715 53,33.906816 L53.9549118,33.9946771 C55.2531039,34.1139833 56.8989327,32.1865876 58.5526029,32.3391885 L61,32.5648529 C60.8605968,32.2596511 60.7272925,31.9646227 60.5983446,31.6788428" id="Fill-176" fill="#5A3C55"></path>
                    <path d="M54.6779661,106 L50.6041988,106 C50.3680021,105.487483 50.2695172,104.907158 50.3304443,104.332117 C50.3888675,103.770286 50.4656523,103.084287 50.5624679,102.304944 C53.3642784,100.699585 55.2663713,97.5672412 55.2663713,93.9664109 L55.2555213,93.7392125 C54.3941962,95.6457416 52.9494735,97.202667 51.1658963,98.1484463 C51.4897278,96.2031702 51.9053672,94.0791295 52.4311762,92 L54.6779661,92 C55.4074217,92 56,92.885017 56,93.9734558 L56,104.027425 C56,105.114983 55.4074217,106 54.6779661,106 M48.4425398,106 L44.3211993,106 C43.5925783,106 43,105.114983 43,104.027425 L43,103.448861 L46.2792116,103.448861 C47.0120056,103.448861 47.7239343,103.356397 48.404982,103.182035 C48.3707627,103.492892 48.337378,103.798465 48.3064972,104.096993 C48.2388932,104.738961 48.2881356,105.385331 48.4425398,106 M47.1488829,99.1497044 L43,99.1497044 L43,96.9534533 C43.8863636,95.7857592 46.1248074,93.909171 48.6061248,92 L50.3029019,92 C49.7403698,94.3045666 49.3005265,96.6857466 48.9583333,98.9568499 C48.3741012,99.0836583 47.7690036,99.1497044 47.1488829,99.1497044" id="Fill-177" fill="#C6B9C5"></path>
                    <path d="M46.4753351,103 L43,103 L43,98.5722837 L47.3970198,98.5722837 C48.0542288,98.5722837 48.6955161,98.5042627 49.3146901,98.3736623 C49.0785194,99.8891711 48.8865755,101.357519 48.7282439,102.725195 C48.0064639,102.904771 47.2519562,103 46.4753351,103 M51.0147649,101.821876 C51.1730966,100.585707 51.3836157,99.1209868 51.6542832,97.5410847 C53.5445329,96.5670234 55.0756617,94.9635407 55.9885011,93 L56,93.2339924 C56,96.9424995 53.9841464,100.168511 51.0147649,101.821876" id="Fill-178" fill="#B4A2AF"></path>
                    <path d="M50.2408821,106 L48.1595138,106 C48.0108446,105.385331 47.9634312,104.738961 48.0285242,104.096993 C48.058258,103.798465 48.0904027,103.492892 48.123351,103.182035 C48.2671984,101.85407 48.4415834,100.428356 48.6561491,98.9568499 C48.9856322,96.6857466 49.4091384,94.3045666 49.9507763,92 L52,92 C51.4937212,94.0791295 51.0935199,96.2031702 50.7817164,98.1484463 C50.5358096,99.6824758 50.3445487,101.104667 50.2007013,102.304944 C50.1074817,103.084287 50.0335489,103.770286 49.9772957,104.332117 C49.9186316,104.907158 50.0134585,105.487483 50.2408821,106" id="Fill-179" fill="#4D3148"></path>
                    <path d="M43,97 L43,93.992 C43,92.8933333 43.6342117,92 44.4140241,92 L49,92 C46.3443502,93.9271111 43.9486378,95.8213333 43,97" id="Fill-180" fill="#D5CBD4"></path>
                    <path d="M55,94.0306108 C55,93.4613376 54.6804431,93 54.286749,93 L43.713251,93 C43.3195569,93 43,93.4613376 43,94.0306108 L43,103.969389 C43,104.538662 43.3195569,105 43.713251,105 L54.286749,105 C54.6804431,105 55,104.538662 55,103.969389 L55,94.0306108" id="Fill-181" fill="#F0ECEF"></path>
                    <path d="M44,99.7515283 C44,99.8887793 44.093633,100 44.2088015,100 L46.7911985,100 C46.906367,100 47,99.8887793 47,99.7515283 L47,96.2492605 C47,96.1112207 46.906367,96 46.7911985,96 L44.2088015,96 C44.093633,96 44,96.1112207 44,96.2492605 L44,99.7515283" id="Fill-182" fill="#B3A0AE"></path>
                    <path d="M49,98.315 C49,98.489 49.101296,98.631 49.2281719,98.631 L51.7728513,98.631 C51.898704,98.631 52,98.489 52,98.315 C52,98.141 51.898704,98 51.7728513,98 L49.2281719,98 C49.101296,98 49,98.141 49,98.315" id="Fill-183" fill="#CABAC4"></path>
                    <path d="M49,96.726087 C49,96.8765217 49.092558,97 49.2084892,97 L53.7924458,97 C53.907442,97 54,96.8765217 54,96.726087 L54,96.2747826 C54,96.1226087 53.907442,96 53.7924458,96 L49.2084892,96 C49.092558,96 49,96.1226087 49,96.2747826 L49,96.726087" id="Fill-184" fill="#CABAC4"></path>
                    <path d="M55,98.315 C55,98.141 54.8986694,98 54.7727738,98 L52.2272262,98 C52.1003071,98 52,98.141 52,98.315 C52,98.489 52.1003071,98.631 52.2272262,98.631 L54.7727738,98.631 C54.8986694,98.631 55,98.489 55,98.315" id="Fill-185" fill="#CABAC4"></path>
                    <path d="M55,100.316 C55,100.141 54.9129288,100 54.8047493,100 L49.1952507,100 C49.0879507,100 49,100.141 49,100.316 C49,100.49 49.0879507,100.63 49.1952507,100.63 L54.8047493,100.63 C54.9129288,100.63 55,100.49 55,100.316" id="Fill-186" fill="#CABAC4"></path>
                    <path d="M43,102 L43,103.968342 C43,104.538193 43.3195569,105 43.713251,105 L54.286749,105 C54.6804431,105 55,104.538193 55,103.968342 L55,102 L43,102" id="Fill-187" fill="#54939B"></path>
                    <path d="M49.8132022,90 L49.1853933,90 C49.0828652,90 49,90.1057537 49,90.2374978 L49,94.7625022 C49,94.8933501 49.0828652,95 49.1853933,95 L49.8132022,95 C49.9157303,95 50,94.8933501 50,94.7625022 L50,90.2374978 C50,90.1057537 49.9157303,90 49.8132022,90" id="Fill-188" fill="#B3A0AE"></path>
                    <path d="M49.8433989,90 L49.1566011,90 C49.0695225,90 49,90.1003584 49,90.2250896 L49,92 L50,92 L50,90.2250896 C50,90.1003584 49.9297753,90 49.8433989,90" id="Fill-189" fill="#CABAC4"></path>
                </g>
                <path d="M19.0742188,189.90625 L19.0742188,321.863472" id="Path-9" stroke="#9F462C" stroke-width="5" stroke-linecap="round"></path>
                <path d="M230.074219,189.90625 L230.074219,321.863472" id="Path-9" stroke="#9F462C" stroke-width="5" stroke-linecap="round"></path>
            </g>
        </g>
    </g>
</svg>