<?xml version="1.0" encoding="UTF-8"?>
<svg width="91px" height="84px" viewBox="0 0 91 84" version="1.1" xmlns="http://www.w3.org/2000/svg" xmlns:xlink="http://www.w3.org/1999/xlink">
    <!-- Generator: Sketch 50.2 (55047) - http://www.bohemiancoding.com/sketch -->
    <title>Group 23</title>
    <desc>Created with Sketch.</desc>
    <defs></defs>
    <g id="UI-Screens" stroke="none" stroke-width="1" fill="none" fill-rule="evenodd">
        <g id="Desktop---Search-Not-In-your-area" transform="translate(-43.000000, -264.000000)">
            <g id="Group-6" transform="translate(11.000000, 223.000000)">
                <g id="Group-23" transform="translate(32.000000, 41.000000)">
                    <g id="noun_1455319_cc" transform="translate(0.000000, 0.000000)" fill="#4F4F4F" fill-rule="nonzero">
                        <path d="M55.453125,68.3634349 L55.453125,71.2119114 C60.1581094,71.2119114 63.984375,67.3792863 63.984375,62.666482 C63.984375,57.9536777 60.1581094,54.1210526 55.453125,54.1210526 L27.015625,54.1210526 C23.8789688,54.1210526 21.328125,51.5659693 21.328125,48.4240997 C21.328125,45.2822302 23.8789688,42.7271468 27.015625,42.7271468 L82.46875,42.7271468 C87.1737344,42.7271468 91,38.8945217 91,34.1817175 C91,29.4689132 87.1737344,25.6362881 82.46875,25.6362881 L13.1352812,25.6362881 C15.7856563,22.4474187 19.90625,16.6493449 19.90625,11.3939058 C19.90625,4.2584723 16.1852031,0 9.953125,0 C3.72104688,0 0,4.2584723 0,11.3939058 C0,18.9737017 8.57959375,27.6971608 8.94501562,28.0646143 C9.21232813,28.3337953 9.57490625,28.4847645 9.953125,28.4847645 L82.46875,28.4847645 C85.6054063,28.4847645 88.15625,31.0398479 88.15625,34.1817175 C88.15625,37.323587 85.6054063,39.8786704 82.46875,39.8786704 L27.015625,39.8786704 C22.3106406,39.8786704 18.484375,43.7112954 18.484375,48.4240997 C18.484375,53.136904 22.3106406,56.9695291 27.015625,56.9695291 L55.453125,56.9695291 C58.5897813,56.9695291 61.140625,59.5246125 61.140625,62.666482 C61.140625,65.8083515 58.5897813,68.3634349 55.453125,68.3634349 Z M2.84375,11.3939058 C2.84375,5.88352812 5.36757812,2.84847645 9.953125,2.84847645 C14.5386719,2.84847645 17.0625,5.88352812 17.0625,11.3939058 C17.0625,16.4114971 12.1271719,22.5186306 9.953125,24.9654719 C7.77907812,22.5186306 2.84375,16.4114971 2.84375,11.3939058 Z" id="Shape"></path>
                        <path d="M14.3684211,10.0831025 C14.3684211,7.72046353 12.4457415,5.79778393 10.0831025,5.79778393 C7.72046353,5.79778393 5.79778393,7.72046353 5.79778393,10.0831025 C5.79778393,12.4457415 7.72046353,14.3684211 10.0831025,14.3684211 C12.4457415,14.3684211 14.3684211,12.4457415 14.3684211,10.0831025 Z M8.65466297,10.0831025 C8.65466297,9.29460388 9.29460388,8.65466297 10.0831025,8.65466297 C10.8716011,8.65466297 11.511542,9.29460388 11.511542,10.0831025 C11.511542,10.8716011 10.8716011,11.511542 10.0831025,11.511542 C9.29460388,11.511542 8.65466297,10.8716011 8.65466297,10.0831025 Z" id="Shape"></path>
                    </g>
                    <g id="x-circle" transform="translate(52.663378, 60.763192)" stroke="#4F4F4F" stroke-linecap="round" stroke-linejoin="round" stroke-width="3">
                        <circle id="Oval" fill="#FFFFFF" cx="9.7768595" cy="9.7768595" r="11.2768595"></circle>
                        <g id="Group-4" transform="translate(6.768595, 6.768595)">
                            <path d="M5.53390109,0.0722205688 L0.0722205688,5.53390109" id="Shape"></path>
                            <path d="M0.0722205688,0.0722205688 L5.53390109,5.53390109" id="Shape"></path>
                        </g>
                    </g>
                </g>
            </g>
        </g>
    </g>
</svg>