<?xml version="1.0" encoding="UTF-8"?>
<svg width="239px" height="245px" viewBox="0 0 239 245" version="1.1" xmlns="http://www.w3.org/2000/svg" xmlns:xlink="http://www.w3.org/1999/xlink">
    <!-- Generator: Sketch 50.2 (55047) - http://www.bohemiancoding.com/sketch -->
    <title>noun_1103564_cc</title>
    <desc>Created with Sketch.</desc>
    <defs></defs>
    <g id="UI-Screens" stroke="none" stroke-width="1" fill="none" fill-rule="evenodd">
        <g id="Desktop---Create-Office-1" transform="translate(-649.000000, -429.000000)" fill="#0AD5B1" fill-rule="nonzero">
            <g id="noun_1103564_cc" transform="translate(649.000000, 429.000000)">
                <g id="Group">
                    <rect id="Rectangle-path" x="71.7910476" y="48.8042766" width="102.356408" height="8.11299292"></rect>
                    <rect id="Rectangle-path" x="71.7910476" y="24.4652979" width="102.356408" height="8.11299292"></rect>
                    <path d="M178.995235,93.7394401 C164.238777,93.7394401 152.23398,105.771009 152.23398,120.566403 C152.23398,135.356389 164.238777,147.390662 178.995235,147.390662 C193.748996,147.390662 205.753793,135.356389 205.753793,120.566403 C205.753793,105.771009 193.746298,93.7394401 178.995235,93.7394401 Z M178.995235,139.277669 C168.700784,139.277669 160.327101,130.883426 160.327101,120.566403 C160.327101,110.246676 168.700784,101.852433 178.995235,101.852433 C189.284291,101.852433 197.660672,110.246676 197.660672,120.566403 C197.660672,130.883426 189.284291,139.277669 178.995235,139.277669 Z" id="Shape"></path>
                    <path d="M198.583287,221.684043 C203.315066,213.527781 208.40564,203.978788 213.29928,194.043076 C220.93649,178.541851 238.695496,140.351289 238.695496,120.566403 C238.695496,94.4425661 221.907664,72.1886266 198.583287,64.0404773 L198.583287,0.129023424 L44.8139753,0.129023424 L44.8139753,104.124071 C42.1783153,103.015295 39.3376296,102.35003 36.3350815,102.35003 C23.5209721,102.35003 13.0970314,113.378292 13.0970314,126.929694 C13.0970314,130.142439 13.6878293,133.303802 14.8262617,136.24341 C5.78084938,142.503936 0.301805996,152.647882 0.301805996,163.532814 C0.301805996,180.818897 13.911739,195.086948 31.3254392,196.888032 L31.3254392,221.884163 L4.34566914,221.884163 L4.34566914,229.997156 L165.509397,229.997156 C174.287736,243.683775 177.123026,244.870977 179.629196,244.870977 C182.151553,244.870977 184.976052,243.683775 193.570947,229.997156 L229.531385,229.997156 L229.531385,221.884163 L198.583287,221.884163 L198.583287,221.684043 Z M52.907097,8.24201635 L190.490166,8.24201635 L190.490166,61.8391519 C186.764632,61.1062782 182.923097,60.7141502 178.992538,60.7141502 C165.315162,60.7141502 152.706078,65.3601908 142.630142,73.1432554 L71.7370935,73.1432554 L71.7370935,81.2562483 L134.029851,81.2562483 C129.845707,86.0537315 126.408828,91.5218887 123.913449,97.4822342 L71.7370935,97.4822342 L71.7370935,105.595227 L121.177974,105.595227 C119.945122,110.384597 119.286881,115.398427 119.286881,120.566403 C119.286881,120.961236 119.338138,121.412859 119.351626,121.821213 L71.7370935,121.821213 L71.7370935,129.934206 L120.325498,129.934206 C121.269696,134.929105 122.812784,140.448645 124.720063,146.160192 L71.7910476,146.160192 L71.7910476,154.273185 L127.590424,154.273185 C129.664961,159.787315 131.941826,165.287925 134.224086,170.501875 L71.7883499,170.501875 L71.7883499,221.884163 L52.9043993,221.884163 L52.9043993,8.24201635 L52.907097,8.24201635 Z M79.8814716,221.884163 L79.8814716,178.614868 L117.660164,178.614868 L117.660164,221.884163 L79.8814716,221.884163 Z M125.753285,221.884163 L125.753285,178.614868 L137.868689,178.614868 C140.71477,184.772629 143.358523,190.156952 145.341338,194.078232 C150.383352,204.068031 155.635788,213.679223 160.513243,221.884163 L125.753285,221.884163 Z M8.39492769,163.532814 C8.39492769,154.370541 13.5961072,145.878941 21.9643951,141.362709 L25.660254,139.372321 L23.5398561,135.743109 C22.002163,133.106386 21.1874554,130.061309 21.1874554,126.929694 C21.1874554,117.851255 27.9802822,110.463023 36.3323838,110.463023 C39.4752127,110.463023 42.3887365,111.525825 44.8112776,113.316092 L44.8112776,187.138919 C41.7817524,188.293668 38.5067358,188.977864 35.0509728,188.977864 C20.3565616,188.97516 8.39492769,177.560179 8.39492769,163.532814 Z M39.4212586,196.793381 C41.269188,196.566217 43.0685587,196.195723 44.8139753,195.700831 L44.8139753,221.886868 L39.4212586,221.886868 L39.4212586,196.793381 Z M179.615708,235.903415 C168.762832,224.542521 127.380003,148.158692 127.380003,120.569108 C127.380003,92.0411202 150.534424,68.8298475 178.995235,68.8298475 C207.453349,68.8298475 230.605072,92.0411202 230.605072,120.569108 C230.605072,148.218188 190.228488,224.526295 179.615708,235.903415 Z" id="Shape"></path>
                </g>
            </g>
        </g>
    </g>
</svg>