<?xml version="1.0" encoding="UTF-8"?>
<svg width="312px" height="259px" viewBox="0 0 312 259" version="1.1" xmlns="http://www.w3.org/2000/svg" xmlns:xlink="http://www.w3.org/1999/xlink">
    <!-- Generator: Sketch 50.2 (55047) - http://www.bohemiancoding.com/sketch -->
    <title>Group 2</title>
    <desc>Created with Sketch.</desc>
    <defs></defs>
    <g id="UI-Screens" stroke="none" stroke-width="1" fill="none" fill-rule="evenodd">
        <g id="Desktop---Create-Office-3" transform="translate(-623.000000, -496.000000)" fill-rule="nonzero">
            <g id="Group-2" transform="translate(623.000000, 496.000000)">
                <g id="noun_1202007_cc" transform="translate(0.000000, 10.000000)" fill="#0AD5B1">
                    <path d="M57.3424658,79.9486301 L60.6506849,79.9486301 L60.6506849,83.2568493 C60.6506849,85.0839283 62.1318251,86.5650685 63.9589041,86.5650685 C65.7859831,86.5650685 67.2671233,85.0839283 67.2671233,83.2568493 L67.2671233,79.9486301 L70.5753425,79.9486301 C72.4024215,79.9486301 73.8835616,78.46749 73.8835616,76.640411 C73.8835616,74.813332 72.4024215,73.3321918 70.5753425,73.3321918 L57.3424658,73.3321918 C55.5153868,73.3321918 54.0342466,74.813332 54.0342466,76.640411 C54.0342466,78.46749 55.5153868,79.9486301 57.3424658,79.9486301 Z" id="Shape"></path>
                    <path d="M90.4246575,79.9486301 L93.7328767,79.9486301 L93.7328767,83.2568493 C93.7328767,85.0839283 95.2140169,86.5650685 97.0410959,86.5650685 C98.8681749,86.5650685 100.349315,85.0839283 100.349315,83.2568493 L100.349315,79.9486301 L103.657534,79.9486301 C105.484613,79.9486301 106.965753,78.46749 106.965753,76.640411 C106.965753,74.813332 105.484613,73.3321918 103.657534,73.3321918 L90.4246575,73.3321918 C88.5975785,73.3321918 87.1164384,74.813332 87.1164384,76.640411 C87.1164384,78.46749 88.5975785,79.9486301 90.4246575,79.9486301 Z" id="Shape"></path>
                    <path d="M10.1599491,199.044521 L150.840051,199.044521 C154.008235,199.044755 156.986138,197.532346 158.854866,194.973978 C160.723594,192.41561 161.258543,189.118776 160.294644,186.100782 L155.891238,172.322049 C149.978526,156.557645 134.907977,146.113851 118.071214,146.113014 L109.033787,146.113014 C107.083668,139.72939 106.696282,132.970585 107.904262,126.405952 C108.317539,122.902075 108.907417,119.421293 109.671645,115.97689 C113.767247,111.493211 116.293,105.798811 116.867584,99.7533835 C117.285522,99.8738876 117.715965,99.9457762 118.150379,99.9676238 C118.754238,99.9658888 119.353802,99.8660471 119.925636,99.6720013 C121.629832,99.1049725 126.815068,97.3765603 126.815068,76.640411 C126.815068,74.4112336 126.815068,67.630046 122.250123,65.5801741 C121.517135,65.2636544 120.726684,65.1019017 119.928282,65.1050477 C119.983397,64.6836467 119.974598,64.2703178 120.012675,63.8507364 C120.051405,63.7132475 120.08062,63.5732542 120.100111,63.4317504 C120.100707,63.3517908 120.061141,63.2843362 120.056079,63.205799 C120.104941,62.5002882 120.19863,61.7887564 120.19863,61.0911192 C119.86385,48.3031671 112.474305,36.7524367 101.004342,31.0881847 C100.964644,31.0680046 100.928617,31.0459718 100.888025,31.0276112 C100.656814,30.9054387 100.425834,30.782803 100.191215,30.6645673 C104.146395,21.6506372 101.476018,11.101976 93.7083626,5.05566271 C85.9407068,-0.990650597 75.0592932,-0.990650597 67.2916374,5.05566271 C59.5239816,11.101976 56.8536051,21.6506372 60.8087847,30.6645673 C48.91048,36.1933422 41.1626284,47.9759943 40.8013699,61.0911192 C40.815147,62.4338805 40.914085,63.7744159 41.0975878,65.1046507 C40.2904571,65.0980979 39.4908417,65.2600581 38.749877,65.5801741 C34.1849315,67.630046 34.1849315,74.4112336 34.1849315,76.640411 C34.1849315,97.3765603 39.3701681,99.1049725 41.0743641,99.6719351 C41.6462306,99.865851 42.2457737,99.9656892 42.8496207,99.9675576 C43.2840347,99.9457101 43.7144784,99.8738214 44.1324158,99.7533173 C44.7070576,105.799003 47.2328689,111.493658 51.3285534,115.977618 C52.0940837,119.428078 52.6844411,122.915081 53.0973589,126.425239 C54.3035116,132.98365 53.9155661,139.7359 51.9662126,146.113014 L42.9287864,146.113014 C41.1179362,146.12695 39.310018,146.261318 37.5170029,146.515227 L37.4931507,146.510397 C37.4386312,146.510397 37.3932094,146.538881 37.3392854,146.541494 C22.6158186,148.565135 10.2047508,158.535684 5.05546616,172.477006 L0.705356438,186.102403 C-0.258184031,189.120204 0.276959277,192.416681 2.14566666,194.974701 C4.01437405,197.53272 6.99205868,199.04485 10.1599491,199.044521 Z M126.815068,172.578767 C128.642147,172.578767 130.123288,174.059907 130.123288,175.886986 C130.123288,177.714065 128.642147,179.195205 126.815068,179.195205 C124.987989,179.195205 123.506849,177.714065 123.506849,175.886986 C123.509219,174.06089 124.988972,172.581136 126.815068,172.578767 Z M109.643988,102.950877 C108.302836,101.797532 106.785025,100.510503 105.067729,99.1945922 L109.966441,93.0710785 C110.029297,94.4994352 110.052653,95.9219695 110.186735,97.3602177 C110.244893,98.0645045 110.273973,98.7994916 110.273973,99.5328576 C110.232918,100.696947 110.020646,101.848643 109.643988,102.950877 Z M80.5,159.34589 C74.448153,159.427017 68.4834865,157.898134 63.2168705,154.915821 C61.9428866,152.348964 60.3152648,149.973428 58.3815443,147.858596 C60.4984648,140.654028 60.9392576,133.060675 59.6701949,125.659552 C59.6356571,125.354468 59.5738927,125.027351 59.5359143,124.719223 C61.5338802,126.573447 63.6525961,128.452086 66.0362342,130.382895 C74.4640483,137.216646 86.5247535,137.219405 94.9556938,130.389511 C97.3421438,128.456552 99.4633078,126.575895 101.462961,124.719852 C101.42581,125.0209 101.365038,125.34236 101.331327,125.640397 C100.060542,133.047783 100.500731,140.647691 102.618224,147.858827 C100.684504,149.973659 99.0568818,152.349196 97.7828979,154.916053 C92.5163274,157.898245 86.5517476,159.427046 80.5,159.34589 Z M93.1148021,164.130138 C89.5630649,171.387808 83.9941742,182.503425 80.5,182.503425 C77.0058258,182.503425 71.4369351,171.387808 67.8851979,164.130138 C76.1176578,166.57307 84.8823422,166.57307 93.1148021,164.130138 Z M90.7832685,125.255717 C84.7852725,130.115969 76.2035283,130.113209 70.2086595,125.249101 C64.1925465,120.634629 58.8759963,115.173689 54.4243518,109.036114 C54.6339275,108.856015 54.8257711,108.694077 55.0454368,108.50445 C60.5925264,103.720004 68.9761493,96.489726 80.5,96.489726 C92.0238507,96.489726 100.407474,103.720004 105.954563,108.504649 C106.174063,108.694243 106.365874,108.855982 106.57545,109.036081 C102.121404,115.176147 96.8022167,120.639312 90.7832685,125.255717 Z M118.394294,72.4027476 C118.73511,72.1337139 119.111221,71.9127048 119.512108,71.7459007 C120.086467,73.310005 120.320517,74.9786488 120.19863,76.640411 C120.19863,86.996361 118.757735,91.6340212 117.933923,93.0668109 C117.407479,92.6047555 116.929306,92.0904473 116.506757,91.5317972 C116.311368,85.1008417 116.945775,78.6715251 118.394294,72.4027807 L118.394294,72.4027476 Z M103.657534,40.8906697 C109.338946,45.5233392 112.878673,52.277924 113.454792,59.5860118 C107.698897,58.0338252 103.689004,52.8278665 103.657534,46.8664384 L103.657534,40.8906697 Z M80.5,7.16780822 C88.7218555,7.16780822 95.3869863,13.832939 95.3869863,22.0547945 C95.3869863,30.27665 88.7218555,36.9417808 80.5,36.9417808 C72.2781445,36.9417808 65.6130137,30.27665 65.6130137,22.0547945 C65.6219842,13.8366576 72.281863,7.17677868 80.5,7.16780822 Z M64.4465356,36.3113997 C68.509832,40.9187664 74.356857,43.5582166 80.5,43.5582166 C86.643143,43.5582166 92.490168,40.9187664 96.5534644,36.3113997 L96.7499395,36.4048899 C96.9303997,37.1216975 97.0280896,37.8568303 97.0410959,38.5958904 C97.0410959,48.4591805 81.8908084,56.7910959 63.9589041,56.7910959 C58.6887746,56.8078163 53.4452489,56.0436016 48.3991253,54.5233447 C50.8722366,46.4229027 56.7217714,39.7843608 64.4465356,36.3113997 Z M43.0660775,93.0668109 C42.2422647,91.6340212 40.8013699,86.996361 40.8013699,76.640411 C40.6796895,74.9793378 40.9131337,73.3113956 41.4861712,71.7475548 C41.8833906,71.9143163 42.2565947,72.1333102 42.5959134,72.3987447 C44.0397251,78.6747543 44.6731171,85.1099483 44.4806058,91.547015 C44.0612186,92.0997367 43.5873263,92.6088954 43.0660775,93.0668109 Z M47.889461,65.9032217 C47.5885892,64.3379942 47.4318186,62.7484834 47.4211164,61.154637 C52.8034825,62.6644594 58.3688056,63.422608 63.9589041,63.4075342 C78.3855186,63.4075342 90.7505502,58.814502 97.6922858,51.8059404 C99.6079132,59.1543453 105.529056,64.7781224 112.966334,66.3129116 C112.869006,66.7738788 112.813064,67.2277996 112.690527,67.6930345 L112.399768,68.8221627 C111.254124,73.2374432 110.491411,77.7433042 110.120107,82.2896584 L99.5840578,95.4599436 C87.9516541,88.0110693 73.048379,88.0110693 61.4159753,95.4599436 L50.8897842,82.3021965 C50.4690202,77.2651493 49.5808672,72.278129 48.236791,67.4055171 C48.1125342,66.907994 47.9896339,66.424994 47.8894941,65.9032217 L47.889461,65.9032217 Z M51.3559785,102.950877 C50.9793481,101.848694 50.7670873,100.697055 50.7260274,99.533023 C50.7260274,98.799657 50.7551066,98.0646699 50.8100231,97.3910834 C50.9448992,95.937882 50.9606463,94.5014532 51.0232378,93.0583418 L55.9322712,99.1946253 C54.2149746,100.510503 52.6971636,101.797532 51.3560116,102.950877 L51.3559785,102.950877 Z M7.00844027,188.113503 L11.3036336,174.644783 C15.1256258,164.436156 23.6512152,156.707977 34.1849315,153.903605 L34.1849315,165.962329 C28.7061735,165.968309 24.2662543,170.408228 24.260274,175.886986 L24.260274,182.503425 C24.260274,184.330504 25.7414141,185.811644 27.5684932,185.811644 L30.8767123,185.811644 C32.7037913,185.811644 34.1849315,184.330504 34.1849315,182.503425 C34.1849315,180.676346 32.7037913,179.195205 30.8767123,179.195205 L30.8767123,175.886986 C30.8790816,174.06089 32.3588348,172.581136 34.1849315,172.578767 L40.8013699,172.578767 C42.6274666,172.581136 44.1072197,174.06089 44.109589,175.886986 L44.109589,179.195205 C42.28251,179.195205 40.8013699,180.676346 40.8013699,182.503425 C40.8013699,184.330504 42.28251,185.811644 44.109589,185.811644 L47.4178082,185.811644 C49.2448872,185.811644 50.7260274,184.330504 50.7260274,182.503425 L50.7260274,175.886986 C50.7200471,170.408228 46.2801278,165.968309 40.8013699,165.962329 L40.8013699,152.833032 C41.5088987,152.789232 42.2135825,152.729452 42.9287864,152.729452 L53.9494569,152.729452 C56.9186617,156.937779 59.4524252,161.43701 61.5116821,166.157778 C67.2816464,177.965937 72.7318382,189.119863 80.5,189.119863 C88.2681618,189.119863 93.7183536,177.965937 99.488351,166.157778 C101.547753,161.436522 104.082503,156.937212 107.053388,152.729452 L115.777162,152.729452 C119.960763,156.240872 122.660023,161.205833 123.332308,166.626222 C118.795796,168.312093 116.131849,173.01922 117.022055,177.776282 C117.91226,182.533344 122.098058,185.958654 126.93721,185.890024 C131.776362,185.821395 135.86334,182.278758 136.618283,177.498364 C137.373226,172.717971 134.576863,168.088283 129.994366,166.531739 C129.561879,161.865865 127.943806,157.388005 125.293817,153.523425 C136.429416,155.952438 145.586677,163.837977 149.64145,174.48976 L153.99156,188.111948 C154.313032,189.11812 154.134834,190.217308 153.511945,191.070383 C152.889057,191.923457 151.89633,192.427902 150.840051,192.428082 L10.1599491,192.428082 C9.10394156,192.428015 8.11140734,191.923844 7.48852833,191.071099 C6.86564932,190.218354 6.68726609,189.119495 7.00840719,188.113503 L7.00844027,188.113503 Z" id="Shape"></path>
                    <path d="M80.5,30.3253425 C85.0676975,30.3253425 88.7705479,26.622492 88.7705479,22.0547945 C88.7705479,17.487097 85.0676975,13.7842466 80.5,13.7842466 C75.9323025,13.7842466 72.2294521,17.487097 72.2294521,22.0547945 C72.2348116,26.6202702 75.9345243,30.3199829 80.5,30.3253425 Z M80.5,20.4006849 C81.4135395,20.4006849 82.1541096,21.141255 82.1541096,22.0547945 C82.1541096,22.968334 81.4135395,23.7089041 80.5,23.7089041 C79.5864605,23.7089041 78.8458904,22.968334 78.8458904,22.0547945 C78.8465108,21.1415121 79.5867176,20.4013053 80.5,20.4006849 Z" id="Shape"></path>
                </g>
                <g id="noun_1202006_cc" transform="translate(151.000000, 60.000000)" fill="#0AD5B1">
                    <path d="M57.8241758,79.4175824 L61.1208791,79.4175824 L61.1208791,82.7142857 C61.1208791,84.5350047 62.5968635,86.010989 64.4175824,86.010989 C66.2383014,86.010989 67.7142857,84.5350047 67.7142857,82.7142857 L67.7142857,79.4175824 L71.010989,79.4175824 C72.831708,79.4175824 74.3076923,77.9415981 74.3076923,76.1208791 C74.3076923,74.3001602 72.831708,72.8241758 71.010989,72.8241758 L57.8241758,72.8241758 C56.0034569,72.8241758 54.5274725,74.3001602 54.5274725,76.1208791 C54.5274725,77.9415981 56.0034569,79.4175824 57.8241758,79.4175824 Z" id="Shape"></path>
                    <path d="M90.7912088,79.4175824 L94.0879121,79.4175824 L94.0879121,82.7142857 C94.0879121,84.5350047 95.5638964,86.010989 97.3846154,86.010989 C99.2053343,86.010989 100.681319,84.5350047 100.681319,82.7142857 L100.681319,79.4175824 L103.978022,79.4175824 C105.798741,79.4175824 107.274725,77.9415981 107.274725,76.1208791 C107.274725,74.3001602 105.798741,72.8241758 103.978022,72.8241758 L90.7912088,72.8241758 C88.9704898,72.8241758 87.4945055,74.3001602 87.4945055,76.1208791 C87.4945055,77.9415981 88.9704898,79.4175824 90.7912088,79.4175824 Z" id="Shape"></path>
                    <path d="M10.8059011,198.098901 L150.996297,198.098901 C154.153453,198.099135 157.120989,196.591991 158.983212,194.042528 C160.845435,191.493066 161.378522,188.207708 160.417978,185.20022 L156.029901,171.469451 C151.094476,158.305662 139.645396,148.673104 125.831374,146.062253 C123.551024,143.61435 121.61207,140.869405 120.067187,137.901989 C118.418835,134.840308 118.924286,133.380297 121.119956,128.285505 C121.863659,126.558264 122.713582,124.581527 123.565121,122.212022 C126.674505,113.548714 120.669429,106.539198 116.439297,103.544505 C116.855903,102.115833 117.092025,100.640627 117.142154,99.1532967 C117.558636,99.2733813 117.987582,99.3450197 118.420484,99.3667912 C119.02224,99.3650623 119.619717,99.2655681 120.18956,99.0721978 C121.887758,98.5072418 127.054945,96.7848462 127.054945,76.1208791 C127.054945,73.8994615 127.054945,67.1418791 122.50589,65.0991429 C121.775567,64.7833662 120.987792,64.6221609 120.192132,64.6256703 C120.368361,63.2995827 120.458352,61.9634568 120.461538,60.6257143 C120.101465,47.5562576 112.380609,35.8146456 100.523769,30.305044 C104.465181,21.3224913 101.8041,10.8105499 94.0634833,4.78528378 C86.3228667,-1.23998237 75.4793311,-1.23998237 67.7387145,4.78528378 C59.9980978,10.8105499 57.3370169,21.3224913 61.2784286,30.305044 C49.4215313,35.8145786 41.700648,47.556231 41.3406593,60.6257143 C41.3543885,61.9638015 41.4529821,63.2996705 41.6358462,64.6252747 C40.8315251,64.6187447 40.0346931,64.7801412 39.2963077,65.0991429 C34.7472527,67.1418791 34.7472527,73.8994615 34.7472527,76.1208791 C34.7472527,96.7848462 39.9144396,98.5072418 41.6127033,99.0722308 C42.1825791,99.2654716 42.7800352,99.3649623 43.3817802,99.3668242 C43.8146821,99.3450527 44.2436274,99.2734143 44.6601099,99.1533297 C44.7102232,100.640662 44.9463451,102.11587 45.362967,103.544538 C41.1328352,106.539231 35.1277582,113.548747 38.2371429,122.212055 C39.0886813,124.58156 39.9386044,126.558297 40.6823077,128.285538 C42.8779121,133.380297 43.3834286,134.840308 41.7350769,137.902022 C40.1904847,140.869879 38.2512027,143.614963 35.9700659,146.062484 C22.0986582,148.682341 10.6169479,158.384217 5.71921978,171.624 L1.38421978,185.201835 C0.424033387,188.209131 0.957313866,191.494133 2.8195163,194.043248 C4.68171873,196.592363 7.64903807,198.09923 10.8059011,198.098901 Z M118.663484,71.898 C119.003113,71.6299029 119.377914,71.409663 119.777407,71.2434396 C120.349761,72.8020889 120.582996,74.4649125 120.461538,76.1208791 C120.461538,86.4407802 119.025659,91.0622967 118.204714,92.4900989 C117.680104,92.0296519 117.203595,91.5171341 116.782516,90.9604286 C116.587808,84.5518592 117.220006,78.144923 118.663484,71.898 Z M43.5975495,92.4901319 C42.7765385,91.0622967 41.3406593,86.4407802 41.3406593,76.1208791 C41.2194025,74.4655881 41.4520341,72.8034521 42.0230769,71.2450549 C42.4189135,71.411236 42.7908185,71.6294675 43.128956,71.893978 C44.5677419,78.1481409 45.1989291,84.560934 45.0070879,90.9755934 C44.5891605,91.526391 44.1169179,92.0337774 43.5974835,92.4900989 L43.5975495,92.4901319 Z M127.054945,171.725275 C128.875664,171.725275 130.351648,173.201259 130.351648,175.021978 C130.351648,176.842697 128.875664,178.318681 127.054945,178.318681 C125.234226,178.318681 123.758242,176.842697 123.758242,175.021978 C123.760603,173.202238 125.235205,171.727636 127.054945,171.725275 Z M117.357989,119.98411 C116.561176,122.205527 115.762747,124.056692 115.064143,125.677681 C112.812132,130.90444 111.033396,135.031747 114.262516,141.027956 C115.147055,142.670077 116.035615,144.110374 116.873077,145.351648 L109.33556,145.351648 C107.39223,138.990246 107.006192,132.254968 108.209967,125.713187 C108.621805,122.221507 109.20963,118.752841 109.971198,115.320429 C111.367199,113.592233 112.635582,111.764736 113.766297,109.852418 C116.960521,112.149214 118.392369,116.18827 117.357989,119.98411 Z M80.9010989,158.538462 C74.8703183,158.619306 68.9264148,157.095745 63.6781319,154.123813 C62.4085827,151.565891 60.7866266,149.198624 58.8596374,147.091154 C60.9691889,139.911665 61.4084473,132.344745 60.1438022,124.969385 C60.1093846,124.665363 60.0478352,124.339385 60.009989,124.03233 C62.001,125.880099 64.1123407,127.752198 66.4876813,129.676286 C74.8861583,136.486248 86.9048803,136.488998 95.3064725,129.682879 C97.6846154,127.756648 99.7983956,125.882538 101.791088,124.032956 C101.754066,124.332956 101.693505,124.653297 101.659912,124.950297 C100.393551,132.331897 100.832207,139.905351 102.94233,147.091385 C101.01534,149.198855 99.3933844,151.566122 98.1238352,154.124044 C92.8755976,157.095855 86.9317804,158.619335 80.9010989,158.538462 Z M93.471989,163.306055 C89.9326154,170.538462 84.3831099,181.615385 80.9010989,181.615385 C77.4190879,181.615385 71.8695824,170.538462 68.3302088,163.306055 C76.5340116,165.740483 85.2681862,165.740483 93.471989,163.306055 Z M91.1485714,124.566956 C85.1714544,129.410289 76.6195831,129.407539 70.6455824,124.560363 C64.6504115,119.961954 59.3523682,114.520023 54.9162198,108.403813 C55.1250659,108.224341 55.3162418,108.062967 55.5351429,107.874 C61.0629231,103.106209 69.4173626,95.9010989 80.9010989,95.9010989 C92.3848352,95.9010989 100.739275,103.106209 106.267055,107.874198 C106.485791,108.063132 106.676934,108.224308 106.88578,108.40378 C102.447239,114.522473 97.1465677,119.966621 91.1485714,124.566956 Z M51.3145055,96.7993187 C51.4489121,95.3511758 51.4646044,93.9197473 51.526978,92.4816593 L56.4189231,98.5965824 C54.7076044,99.9079121 53.195044,101.190429 51.8585934,102.339791 C51.4832485,101.241439 51.2717042,100.093796 51.2307692,98.9338022 C51.2307692,98.202989 51.2597473,97.4705604 51.3144725,96.7993187 L51.3145055,96.7993187 Z M48.9971209,68.0048901 C54.8536813,65.442033 67.2081099,59.2106044 74.7359011,49.6673736 C84.789989,61.0110659 103.198549,68.3464945 112.039516,71.3677912 C111.270222,74.7890512 110.728573,78.2575458 110.418132,81.7504615 L99.9187582,94.8749011 C88.3268468,87.4519563 73.4754499,87.4519563 61.8835385,94.8749011 L51.393956,81.762956 C50.991222,77.1166582 50.1893063,72.5136475 48.9970879,68.0048901 L48.9971209,68.0048901 Z M105.383341,98.5965824 L110.265,92.4943846 C110.327637,93.9177692 110.350912,95.3353516 110.484527,96.7685934 C110.542484,97.4704286 110.571462,98.2028571 110.571462,98.9336703 C110.530534,100.093652 110.319001,101.241283 109.94367,102.339626 C108.607154,101.190429 107.094626,99.9078791 105.383308,98.5965824 L105.383341,98.5965824 Z M96.8986813,35.9322527 C106.847632,40.1975942 113.452605,49.8089641 113.868132,60.6257143 C113.849018,62.0508658 113.70772,63.4717531 113.445791,64.8727582 C105.099989,61.9467033 86.7504066,54.5507802 78.4515165,43.8242967 C78.5774835,43.5685385 78.740044,43.3039451 78.8553626,43.0502308 C79.5292088,43.1142857 80.2105385,43.1538462 80.9010989,43.1538462 C87.0220424,43.150059 92.8472293,40.5204659 96.8986813,35.9322527 Z M80.9010989,6.89010989 C89.0943342,6.89010989 95.7362637,13.5320394 95.7362637,21.7252747 C95.7362637,29.91851 89.0943342,36.5604396 80.9010989,36.5604396 C72.7078636,36.5604396 66.0659341,29.91851 66.0659341,21.7252747 C66.0748733,13.535745 72.7115692,6.89904912 80.9010989,6.89010989 Z M64.9035165,35.9322527 C66.9568443,38.2499315 69.4864077,40.0969193 72.3192857,41.346956 C72.1238901,41.723011 71.9546703,42.0887143 71.7257143,42.4794066 C66.3345824,51.7079341 54.3445714,58.2522198 47.9642637,61.2288132 C47.959022,61.029956 47.9340659,60.8219011 47.9340659,60.6257143 C48.3495925,49.8089641 54.9545663,40.1975942 64.9035165,35.9322527 Z M48.0342857,109.850308 C49.165511,111.763619 50.4345011,113.592055 51.8311978,115.321121 C52.5940633,118.75957 53.1823657,122.234435 53.5938462,125.732374 C54.7958056,132.267965 54.4092105,138.996723 52.4666374,145.351648 L44.9291209,145.351648 C45.7664835,144.110341 46.6551429,142.670044 47.5396813,141.027956 C50.7687692,135.031747 48.990033,130.90444 46.7380549,125.677681 C46.0394505,124.056692 45.241022,122.205527 44.4442088,119.98411 C43.398747,116.187602 44.8319828,112.14197 48.0342857,109.850308 Z M7.66536264,187.205934 L11.9456044,173.784099 C15.7542923,163.611008 24.2502042,155.909731 34.7472527,153.115121 L34.7472527,165.131868 C29.2875663,165.137828 24.8631023,169.562292 24.8571429,175.021978 L24.8571429,181.615385 C24.8571429,183.436104 26.3331272,184.912088 28.1538462,184.912088 L31.4505495,184.912088 C33.2712684,184.912088 34.7472527,183.436104 34.7472527,181.615385 C34.7472527,179.794666 33.2712684,178.318681 31.4505495,178.318681 L31.4505495,175.021978 C31.4529105,173.202238 32.9275127,171.727636 34.7472527,171.725275 L41.3406593,171.725275 C43.1603994,171.727636 44.6350016,173.202238 44.6373626,175.021978 L44.6373626,178.318681 C42.8166437,178.318681 41.3406593,179.794666 41.3406593,181.615385 C41.3406593,183.436104 42.8166437,184.912088 44.6373626,184.912088 L47.9340659,184.912088 C49.7547849,184.912088 51.2307692,183.436104 51.2307692,181.615385 L51.2307692,175.021978 C51.2248097,169.562292 46.8003458,165.137828 41.3406593,165.131868 L41.3406593,152.048275 C42.0457253,152.004626 42.747956,151.945055 43.4606703,151.945055 L54.442978,151.945055 C57.401847,156.138732 59.9267905,160.622302 61.9788791,165.326637 C67.7287582,177.093692 73.159978,188.208791 80.9010989,188.208791 C88.6422198,188.208791 94.0734396,177.093692 99.8233516,165.326637 C101.875585,160.621815 104.401511,156.138168 107.362055,151.945055 L116.055462,151.945055 C120.2245,155.444252 122.914364,160.391929 123.584308,165.793451 C119.063587,167.473453 116.408914,172.164195 117.296021,176.904697 C118.183127,181.645199 122.354355,185.058587 127.176662,184.990196 C131.998969,184.921805 136.071719,181.3915 136.824035,176.627747 C137.57635,171.863994 134.789721,167.250422 130.223176,165.699297 C129.792194,161.049664 128.179754,156.587392 125.538989,152.736264 C136.635825,155.156821 145.76121,163.014911 149.801868,173.629615 L154.136835,187.204385 C154.457188,188.207054 154.279611,189.302416 153.65889,190.152521 C153.03817,191.002626 152.048899,191.505315 150.996297,191.505495 L10.8059011,191.505495 C9.75356951,191.505427 8.76449028,191.003011 8.14377951,190.153235 C7.52306874,189.303459 7.34530646,188.208424 7.66532967,187.205934 L7.66536264,187.205934 Z" id="Shape"></path>
                    <path d="M80.9010989,29.967033 C85.4528963,29.967033 89.1428571,26.2770721 89.1428571,21.7252747 C89.1428571,17.1734773 85.4528963,13.4835165 80.9010989,13.4835165 C76.3493015,13.4835165 72.6593407,17.1734773 72.6593407,21.7252747 C72.6646816,26.274858 76.3515156,29.9616921 80.9010989,29.967033 Z M80.9010989,20.0769231 C81.8114584,20.0769231 82.5494505,20.8149152 82.5494505,21.7252747 C82.5494505,22.6356342 81.8114584,23.3736264 80.9010989,23.3736264 C79.9907394,23.3736264 79.2527473,22.6356342 79.2527473,21.7252747 C79.2533655,20.8151715 79.9909956,20.0775413 80.9010989,20.0769231 Z" id="Shape"></path>
                </g>
                <g id="noun_946238_cc" transform="translate(128.000000, 0.000000)">
                    <path d="M9.601057,38.8419628 C10.0879872,32.5793045 15.2286936,27.452298 22.2067061,26.6758146 C24.7848665,26.3889284 27.0243397,26.5965745 30.0293364,27.230285 C30.5063726,27.3308851 30.5509635,27.3407832 31.8022022,27.621039 C34.9626529,28.3289254 36.6090518,28.5753497 38.7721074,28.5405326 C41.1533415,28.5022035 42.9806585,28.1938595 45.9903976,27.4458197 C45.9916523,27.4455079 47.055601,27.1795339 47.3613271,27.1044433 C47.8958524,26.9731565 48.3411593,26.8683833 48.7741757,26.7735467 C51.8227656,26.1058638 54.3069936,25.9621411 57.1875367,26.4760251 C63.272861,27.5616161 67.5620907,32.7396877 68.0356677,38.84241 C68.1271067,40.0207331 68.1412154,41.2228074 68.0832279,42.4577322 C67.9027774,46.3006766 67.2253519,49.5181959 65.5535526,55.6945609 C64.1756005,60.7853245 63.7588534,62.5056553 63.4316188,64.854321 C63.0261552,67.7644587 62.8795539,69.5829931 62.7622958,72.4327949 C62.7532647,72.6536649 62.7532647,72.6536649 62.7442945,72.8762796 C62.5825258,76.8949393 62.4161289,79.0931028 61.852539,83.302662 C60.3368047,94.6239687 56.803889,100.970455 50.4348353,99.9008451 C47.6662882,99.4358927 46.0603001,97.2068383 44.9407988,93.7420177 C44.2254735,91.5281087 43.7212619,88.8732851 43.1876804,85.0132424 C43.1046519,84.4125958 43.0234503,83.8039955 42.9163109,82.9852454 C42.8868337,82.7599832 42.8512332,82.4870073 42.7871955,81.9959471 C42.7361545,81.6049708 42.6978493,81.313158 42.6604823,81.0313412 C42.5074925,79.8775139 42.3868398,79.0218743 42.2656424,78.2503347 C41.6450203,74.2994713 40.1869062,71.8869277 38.8139042,71.886927 C37.4409418,71.8869266 35.9828914,74.2993971 35.3621684,78.2503933 C35.2410136,79.0215618 35.1203926,79.8768817 34.9674834,81.0300093 C34.9300818,81.3120641 34.8917392,81.6041457 34.8406577,81.9954162 C34.776562,82.4869019 34.7409154,82.7602215 34.7114237,82.9855855 C34.6041763,83.8051287 34.5228978,84.4142621 34.4397827,85.0154559 C33.9062638,88.8745415 33.4019902,91.5292179 32.6866527,93.7428527 C31.5671568,97.2071683 29.9612469,99.4359401 27.1929679,99.9008463 C20.8239425,100.970451 17.2926062,94.6250865 15.7767404,83.3026573 C15.2134153,79.0950256 15.0471945,76.8973327 14.8857706,72.8790514 C14.8767391,72.6544604 14.8767391,72.6544604 14.8676444,72.4316512 C14.7506687,69.5841729 14.6038488,67.7647194 14.1978003,64.8549597 C13.8702152,62.5074721 13.4540814,60.7879187 12.0798748,55.704379 C10.3959029,49.4749388 9.71702357,46.2331823 9.5481601,42.3580028 C9.49586803,41.1579733 9.5118947,39.9887226 9.60105704,38.8419623 Z" id="Shape" stroke="#0AD5B1" stroke-width="6"></path>
                    <polygon id="Shape" fill="#0AD5B1" points="23.95185 7.582884 22.65227 12.198623 18.02907 13.505668 22.65227 14.812714 23.95185 19.428452 25.2589 14.812714 29.8821 13.505669 25.2589 12.198623"></polygon>
                    <polygon id="Shape" fill="#0AD5B1" points="7.92477 10.881665 6.37946 16.370228 0.882 17.924434 6.37946 19.478638 7.92477 24.967203 9.47897 19.478638 14.97642 17.924434 9.47897 16.370228"></polygon>
                    <polygon id="Shape" fill="#0AD5B1" points="15.80463 -4e-07 14.82082 3.4942407 11.32093 4.4837102 14.82082 5.473181 15.80463 8.967423 16.7941 5.47318 20.294 4.4837102 16.7941 3.4942407"></polygon>
                </g>
            </g>
        </g>
    </g>
</svg>