<?xml version="1.0" encoding="UTF-8"?>
<svg width="4344px" height="2812px" viewBox="0 0 4344 2812" version="1.1" xmlns="http://www.w3.org/2000/svg" xmlns:xlink="http://www.w3.org/1999/xlink">
    <!-- Generator: Sketch 51.3 (57544) - http://www.bohemiancoding.com/sketch -->
    <title>Artboard</title>
    <desc>Created with Sketch.</desc>
    <defs>
        <linearGradient x1="99.9768808%" y1="49.7406953%" x2="0.0271279517%" y2="49.7406953%" id="linearGradient-1">
            <stop stop-color="#FFFFFF" stop-opacity="0" offset="0%"></stop>
            <stop stop-color="#808080" stop-opacity="0.7" offset="100%"></stop>
        </linearGradient>
        <linearGradient x1="99.9768808%" y1="49.7406953%" x2="0.0271279517%" y2="49.7406953%" id="linearGradient-2">
            <stop stop-color="#000000" stop-opacity="0" offset="0%"></stop>
            <stop stop-color="#808080" stop-opacity="0.7" offset="100%"></stop>
        </linearGradient>
        <linearGradient x1="100.008813%" y1="49.7879778%" x2="-0.00629496403%" y2="49.7879778%" id="linearGradient-3">
            <stop stop-color="#FFFFFF" stop-opacity="0" offset="0%"></stop>
            <stop stop-color="#808080" stop-opacity="0.7" offset="100%"></stop>
        </linearGradient>
        <ellipse id="path-4" cx="203.401408" cy="203.941479" rx="202.707042" ry="203.256592"></ellipse>
        <linearGradient x1="49.9585202%" y1="100.114603%" x2="49.9585202%" y2="10.844858%" id="linearGradient-6">
            <stop stop-color="#434141" stop-opacity="0" offset="0%"></stop>
            <stop stop-color="#000000" stop-opacity="0" offset="32.594535%"></stop>
            <stop stop-color="#000000" stop-opacity="0.7" offset="100%"></stop>
        </linearGradient>
        <ellipse id="path-7" cx="141.5" cy="142" rx="141.5" ry="142"></ellipse>
        <polyline id="path-9" points="1232 0 1232 2258 0 2258 0 0"></polyline>
        <linearGradient x1="98.0969553%" y1="49.7406953%" x2="0.0271279517%" y2="49.7406953%" id="linearGradient-11">
            <stop stop-color="#000000" stop-opacity="0" offset="0%"></stop>
            <stop stop-color="#808080" stop-opacity="0.7" offset="100%"></stop>
        </linearGradient>
        <linearGradient x1="49.9454839%" y1="100.072762%" x2="49.9454839%" y2="-0.043047619%" id="linearGradient-12">
            <stop stop-color="#FFFFFF" stop-opacity="0" offset="0%"></stop>
            <stop stop-color="#000000" stop-opacity="0.7" offset="100%"></stop>
        </linearGradient>
        <rect id="path-13" x="875" y="2372" width="190" height="125"></rect>
    </defs>
    <g id="Artboard" stroke="none" stroke-width="1" fill="none" fill-rule="evenodd">
        <g id="Group-2" transform="translate(2379.000000, 1863.000000)">
            <path d="M1046,652.164959 L1047.82895,142.635246 C1047.82895,95.5358607 1083.1886,57 1126.47368,57 L1384.96491,58.2233607 C1427.64035,58.2233607 1463,97.3709016 1463,144.470287 L1461.17105,654" id="Shape" stroke="#B3B3B3" stroke-width="40" stroke-linecap="round" stroke-linejoin="round"></path>
            <path d="M1023,659 L1023,136.248746 C1023,87.8345035 1058.56765,48 1101.49412,48 L1361.50588,48 C1404.43235,48 1440,87.8345035 1440,136.248746 L1440,659" id="Shape" stroke="#E6E6E6" stroke-width="40" stroke-linecap="round" stroke-linejoin="round"></path>
            <rect id="Rectangle-path" fill="#3680D9" fill-rule="nonzero" x="28" y="0" width="1369" height="52"></rect>
            <polygon id="Shape" fill-opacity="0.48" fill="url(#linearGradient-1)" fill-rule="nonzero" points="20 642 1658 642 1658 685 20 685"></polygon>
            <path d="M43,662.164959 L44.8289474,152.635246 C44.8289474,105.535861 80.1885965,67 123.473684,67 L381.964912,68.2233607 C424.640351,68.2233607 460,107.370902 460,154.470287 L458.171053,664" id="Shape" stroke="#9DA2A7" stroke-width="40" stroke-linecap="round" stroke-linejoin="round"></path>
            <path d="M462.990968,52 L11.0090323,52 C4.89290323,52 0,46.8641975 0,40.4444444 L0,11.5555556 C0,5.13580247 4.89290323,0 11.0090323,0 L462.990968,0 C469.107097,0 474,5.13580247 474,11.5555556 L474,40.4444444 C474,46.8641975 469.107097,52 462.990968,52 Z" id="Shape" fill="#EFF6FF" fill-rule="nonzero"></path>
        </g>
        <polygon id="Shape" fill-opacity="0.23" fill="url(#linearGradient-2)" fill-rule="nonzero" points="543 2499 822 2499 822 2542 543 2542"></polygon>
        <polygon id="Shape" fill-opacity="0.25" fill="url(#linearGradient-3)" fill-rule="nonzero" points="3369 2507 4728 2507 4728 2550 3369 2550"></polygon>
        <rect id="Rectangle-path" fill="#DDB9A8" fill-rule="nonzero" x="3530" y="1536" width="185" height="90"></rect>
        <path d="M3605.46091,784 L3387.53909,784 C3325.27572,784 3274,732.563877 3274,670.105727 L3274,480.894273 C3274,418.436123 3325.27572,367 3387.53909,367 L3605.46091,367 C3667.72428,367 3719,418.436123 3719,480.894273 L3719,669.493392 C3719,732.563877 3667.72428,784 3605.46091,784 Z" id="Shape" fill="#212020" fill-rule="nonzero"></path>
        <path d="M3494.60714,940 L3493.39286,940 C3390.78571,940 3307,855.941368 3307,753 C3307,650.058632 3390.78571,566 3493.39286,566 L3494.60714,566 C3597.21429,566 3681,650.058632 3681,753 C3681,855.941368 3597.21429,940 3494.60714,940 Z" id="Shape" fill="#9E785F" fill-rule="nonzero"></path>
        <path d="M3620.51083,801.953235 L3363.02364,795.757162 C3333.87414,795.137554 3311.40474,770.353261 3312.01202,741.231717 L3315.04843,603.059283 C3315.65571,573.318131 3339.94695,550.39266 3368.48917,551.012267 L3625.97636,557.208341 C3655.12586,557.827948 3677.59526,582.612241 3676.98798,611.733786 L3673.95157,749.906219 C3673.95157,779.647371 3649.66033,803.19245 3620.51083,801.953235 Z" id="Shape" fill="#9E785F" fill-rule="nonzero"></path>
        <g id="Group" transform="translate(2953.000000, 647.000000)">
            <g id="Group-4" transform="translate(0.000000, 65.000000)" fill="#9E785F" fill-rule="nonzero">
                <path d="M28.9176056,201.53955 L100.964085,201.53955 C116.228169,201.53955 129.05,213.783923 129.05,229.701608 L129.05,466.630225 C129.05,481.935691 116.838732,494.792283 100.964085,494.792283 L28.9176056,494.792283 C13.6535211,494.792283 0.831690141,482.54791 0.831690141,466.630225 L0.831690141,229.701608 C0.831690141,214.396141 13.6535211,201.53955 28.9176056,201.53955 Z" id="Shape"></path>
                <path d="M0.831690141,246.231511 L0.831690141,185.009646 C0.831690141,149.500965 29.528169,120.726688 64.9408451,120.726688 C100.353521,120.726688 129.05,149.500965 129.05,185.009646 L129.05,246.231511" id="Shape"></path>
                <path d="M99.0392157,161 L114.960784,161 C118.254902,161 121,157.991525 121,154.381356 L121,25.6186441 C121,22.0084746 118.254902,19 114.960784,19 L99.0392157,19 C95.745098,19 93,22.0084746 93,25.6186441 L93,154.381356 C93,157.991525 95.745098,161 99.0392157,161 Z" id="Shape"></path>
                <path d="M68.0939452,142 L83.9758349,142 C87.2617431,142 90,138.991525 90,135.381356 L90,6.61864407 C90,3.00847458 87.2617431,0 83.9758349,0 L68.0939452,0 C64.8080369,0 62.0697801,3.00847458 62.0697801,6.61864407 L62.0697801,135.381356 C61.5221287,138.991525 64.2603856,142 68.0939452,142 Z" id="Shape"></path>
                <path d="M38.0392157,152 L53.9607843,152 C57.254902,152 60,148.991525 60,145.381356 L60,16.6186441 C60,13.0084746 57.254902,10 53.9607843,10 L38.0392157,10 C34.745098,10 32,13.0084746 32,16.6186441 L32,145.381356 C32,148.991525 34.745098,152 38.0392157,152 Z" id="Shape"></path>
                <path d="M8.03921569,185 L23.9607843,185 C27.254902,185 30,181.991525 30,178.381356 L30,49.6186441 C30,46.0084746 27.254902,43 23.9607843,43 L8.03921569,43 C4.74509804,43 2,46.0084746 2,49.6186441 L2,178.381356 C2,181.991525 4.74509804,185 8.03921569,185 Z" id="Shape"></path>
                <path d="M66.283871,217.937824 L78.4645161,230.165803 C80.9006452,232.611399 85.163871,232.611399 88.2090323,230.165803 L180.172903,137.84456 C182.609032,135.398964 182.609032,131.119171 180.172903,128.062176 L167.992258,115.834197 C165.556129,113.388601 161.292903,113.388601 158.247742,115.834197 L66.283871,208.15544 C63.2387097,211.212435 63.2387097,215.492228 66.283871,217.937824 Z" id="Shape"></path>
            </g>
            <ellipse id="Oval" fill="#223954" fill-rule="nonzero" cx="542.401408" cy="887.941479" rx="202.707042" ry="203.256592"></ellipse>
            <polyline id="Shape" fill="#18326C" fill-rule="nonzero" points="339.694366 796.108682 405.024648 1776.27074 480.123944 1776.27074 496.609155 796.108682"></polyline>
            <rect id="Rectangle-path" fill="#9E785F" fill-rule="nonzero" transform="translate(208.908637, 492.189875) rotate(-180.000000) translate(-208.908637, -492.189875) " x="71.2265951" y="424.233605" width="275.364085" height="135.91254"></rect>
            <polyline id="Shape" fill="#18326C" fill-rule="nonzero" points="744.497887 753.253376 683.441549 1776.88296 613.226761 1776.88296 597.352113 753.253376"></polyline>
            <g id="circleshadow" transform="translate(339.000000, 684.000000)">
                <mask id="mask-5" fill="white">
                    <use xlink:href="#path-4"></use>
                </mask>
                <use id="Mask" fill="#18326C" fill-rule="nonzero" xlink:href="#path-4"></use>
                <polygon id="Shape" fill="url(#linearGradient-6)" fill-rule="nonzero" mask="url(#mask-5)" points="-1 200 -1 417 410.17508 417 410.17508 200"></polygon>
            </g>
            <path d="M404.414085,1837.4926 C404.414085,1837.4926 297.565493,1849.73698 238.951408,1874.83794 C225.519014,1880.34791 229.792958,1900.55113 243.835915,1900.55113 L465.470423,1900.55113 C472.797183,1900.55113 478.902817,1894.42894 478.902817,1887.08232 L478.902817,1837.4926" id="Shape" fill="#F2D9C4" fill-rule="nonzero"></path>
            <path d="M688.326056,1837.4926 C688.326056,1837.4926 795.174648,1849.73698 853.788732,1874.83794 C867.221127,1880.34791 862.947183,1900.55113 848.904225,1900.55113 L627.269718,1900.55113 C619.942958,1900.55113 613.837324,1894.42894 613.837324,1887.08232 L613.837324,1837.4926" id="Shape" fill="#F2D9C4" fill-rule="nonzero"></path>
            <rect id="Rectangle-path" fill="#9E785F" fill-rule="nonzero" x="481.34507" y="262.254019" width="119.059859" height="178.767846"></rect>
            <rect id="Rectangle-path" fill="#FFD482" fill-rule="nonzero" x="339.694366" y="419.594212" width="406.024648" height="468.347267"></rect>
            <ellipse id="Oval" fill="#9E785F" fill-rule="nonzero" cx="542.401408" cy="417.145338" rx="59.8352113" ry="59.9974277"></ellipse>
            <ellipse id="Oval" fill="#9E785F" fill-rule="nonzero" cx="337.252113" cy="93.281672" rx="23.8119718" ry="23.8765273"></ellipse>
            <ellipse id="Oval" fill="#9E785F" fill-rule="nonzero" cx="747.550704" cy="93.281672" rx="23.8119718" ry="23.8765273"></ellipse>
            <path d="M602.23662,419.594212 C602.23662,452.654019 575.371831,479.59164 542.401408,479.59164 C509.430986,479.59164 482.566197,452.654019 482.566197,419.594212" id="Shape" stroke="#192B3D" stroke-width="15" stroke-linecap="round" stroke-linejoin="round"></path>
            <path d="M688.326056,1837.4926 C688.326056,1837.4926 795.174648,1849.73698 853.788732,1874.83794 C867.221127,1880.34791 862.947183,1900.55113 848.904225,1900.55113 L627.269718,1900.55113 C619.942958,1900.55113 613.837324,1894.42894 613.837324,1887.08232 L613.837324,1837.4926" id="Shape" fill="#F2D9C4" fill-rule="nonzero"></path>
            <path d="M480.123944,1837.4926 L480.123944,1887.08232 C480.123944,1894.42894 474.01831,1900.55113 466.691549,1900.55113 L245.057042,1900.55113 C230.403521,1900.55113 226.740141,1880.34791 240.172535,1874.83794 C298.78662,1849.73698 394.034507,1837.4926 394.034507,1837.4926 C394.034507,1837.4926 444.711268,1888.30675 480.123944,1837.4926 Z" id="Shape" fill="#D7E9FE" fill-rule="nonzero"></path>
            <g transform="translate(612.563380, 1836.655949)" id="Shape">
                <path d="M0.663380282,0.836655949 L0.663380282,50.4263666 C0.663380282,57.7729904 6.76901408,63.8951768 14.0957746,63.8951768 L235.730282,63.8951768 C250.383803,63.8951768 254.047183,43.6919614 240.614789,38.1819936 C182.000704,13.0810289 86.7528169,0.836655949 86.7528169,0.836655949 C86.7528169,0.836655949 35.465493,51.6508039 0.663380282,0.836655949 Z" fill="#F9F8F7" fill-rule="nonzero"></path>
                <path d="M92.2478873,19.2032154 C92.2478873,19.2032154 95.9112676,8.18327974 105.680282,5.1221865" stroke="#070707" stroke-linecap="round" stroke-linejoin="round"></path>
                <path d="M117.891549,23.488746 C117.891549,23.488746 121.55493,12.4688103 131.323944,9.40771704" stroke="#070707" stroke-linecap="round" stroke-linejoin="round"></path>
                <path d="M145.977465,30.2231511 C145.977465,30.2231511 149.640845,19.2032154 159.409859,16.1421222" stroke="#070707" stroke-linecap="round" stroke-linejoin="round"></path>
            </g>
            <g transform="translate(410.077465, 0.000000)">
                <ellipse id="Oval" fill="#000000" fill-rule="nonzero" cx="197.043662" cy="48.5897106" rx="16.4852113" ry="16.5299035"></ellipse>
                <ellipse id="Oval" fill="#DD996B" fill-rule="nonzero" cx="241.614789" cy="90.2205788" rx="37.8549296" ry="13.4688103"></ellipse>
                <g>
                    <ellipse id="Oval" fill="#000000" fill-rule="nonzero" cx="71.2676056" cy="48.5897106" rx="16.4852113" ry="16.5299035"></ellipse>
                    <path d="M161.630986,111.648232 L109.122535,111.648232 C106.069718,111.648232 103.016901,109.199357 103.016901,105.526045 L103.016901,90.2205788 C103.016901,87.1594855 105.459155,84.0983923 109.122535,84.0983923 L161.630986,84.0983923 C164.683803,84.0983923 167.73662,86.5472669 167.73662,90.2205788 L167.73662,105.526045 C167.126056,108.587138 164.683803,111.648232 161.630986,111.648232 Z" id="Shape" fill="#E8C5AA" fill-rule="nonzero"></path>
                    <ellipse id="Oval" fill="#DD996B" fill-rule="nonzero" cx="38.2971831" cy="90.2205788" rx="37.8549296" ry="13.4688103"></ellipse>
                    <path d="M54.171831,6.34662379 C64.5514085,-2.83665595 79.815493,-1.61221865 88.9739437,8.18327974" id="Shape" stroke="#000000" stroke-width="6" stroke-linecap="round" stroke-linejoin="round"></path>
                    <path d="M181.779577,6.34662379 C192.159155,-2.83665595 207.423239,-1.61221865 216.58169,8.18327974" id="Shape" stroke="#000000" stroke-width="6" stroke-linecap="round" stroke-linejoin="round"></path>
                    <path d="M173.23169,145.320257 C160.409859,167.972347 131.71338,175.93119 109.122535,163.074598" id="Shape" stroke="#000000" stroke-width="8" stroke-linecap="round" stroke-linejoin="round"></path>
                </g>
            </g>
            <rect id="Rectangle-path" fill="#F2D9C4" fill-rule="nonzero" x="401.971831" y="1773.20965" width="73.878169" height="69.792926"></rect>
            <rect id="Rectangle-path" fill="#F2D9C4" fill-rule="nonzero" x="613.837324" y="1773.20965" width="73.878169" height="69.792926"></rect>
            <rect id="Rectangle-path" fill="#192633" fill-rule="nonzero" x="395.255634" y="1765.86302" width="84.8683099" height="17.1421222"></rect>
            <rect id="Rectangle-path" fill="#192633" fill-rule="nonzero" x="608.342254" y="1765.86302" width="84.8683099" height="17.1421222"></rect>
        </g>
        <path d="M3293,715.992652 C3293,715.992652 3319.31343,707.260362 3319.31343,661.727713 C3319.31343,616.195063 3336,730.338555 3336,730.338555 L3326.37313,774 L3307.76119,739.694579 L3293,715.992652 Z" id="Shape" fill="#9E785F" fill-rule="nonzero"></path>
        <path d="M3705,729.992652 C3705,729.992652 3678.68657,721.260362 3678.68657,675.727713 C3678.68657,630.195063 3662,744.338555 3662,744.338555 L3671.62687,788 L3690.23881,753.694579 L3705,729.992652 Z" id="Shape" fill="#9E785F" fill-rule="nonzero"></path>
        <polyline id="Shape" fill="#FFD482" fill-rule="nonzero" points="3295.66321 1068 3185 1068 3185 1215 3303 1215"></polyline>
        <path d="M374,2215 C676.837612,1909.70464 472.725062,1490 472.725062,1490 L402.466736,2024.72574" id="Shape" fill="#657C5D" fill-rule="nonzero"></path>
        <path d="M474,1504 C474,1504 451.97849,1688.88136 364.504159,1804.81356 C355.328529,1817.01695 319.237721,1890.23729 316.179178,1904.88136 C302.721589,1967.72881 295.992794,2127.59322 377.961748,2224" id="Shape" fill="#AED2A2" fill-rule="nonzero"></path>
        <path d="M185,1727 L280,2068" id="Shape" fill="#339179" fill-rule="nonzero"></path>
        <path d="M313,2252 C92.3493142,2084.1123 185.539658,1797 185.539658,1797" id="Shape" fill="#C6F1B8" fill-rule="nonzero"></path>
        <circle id="Oval" fill="#000000" fill-rule="nonzero" cx="3846.5" cy="1200.5" r="222.5"></circle>
        <path d="M190,1807 C190,1807 220.142284,1924.26174 285.852465,1990.83221 C292.483767,1997.55034 322.023206,2041.52349 325.64028,2050.68456 C340.108577,2089.77181 358.193947,2192.37584 314.789058,2262" id="Shape" fill="#657C5D" fill-rule="nonzero"></path>
        <path d="M327,2280 L185,1797" id="Shape" stroke="#27481C" stroke-width="10" stroke-linecap="round" stroke-linejoin="round"></path>
        <path d="M3842.49151,1450.05079 L3829.66764,1450.05079 C3770.43357,1450.05079 3722.19139,1401.6984 3722.19139,1342.32901 L3722.19139,1265.82207 C3722.19139,1206.45269 3770.43357,1158.1003 3829.66764,1158.1003 L3842.49151,1158.1003 C3901.72558,1158.1003 3949.96776,1206.45269 3949.96776,1265.82207 L3949.96776,1342.32901 C3950.57842,1401.6984 3902.33624,1450.05079 3842.49151,1450.05079 Z" id="Shape" fill="#DDB9A8" fill-rule="nonzero"></path>
        <path d="M464,2266 C726.551838,2062.87 615.815688,1717 615.815688,1717 L505.674895,2122.65" id="Shape" fill="#657C5D" fill-rule="nonzero"></path>
        <path d="M616,1731 C616,1731 578.611776,1872.38127 496.357683,1953.17057 C487.633764,1961.73913 450.868677,2014.37458 447.129854,2025.3913 C429.682016,2072.51839 406.625945,2196.1505 460.83887,2280" id="Shape" fill="#C6F1B8" fill-rule="nonzero"></path>
        <polygon id="Shape" fill="#3F6ED8" fill-rule="nonzero" points="563.429907 2536 223.174455 2536 199 2143 587 2143"></polygon>
        <path d="M483,2215 L615,1723" id="Shape" stroke="#27481C" stroke-width="10" stroke-linecap="round" stroke-linejoin="round"></path>
        <g id="Group" transform="translate(3630.000000, 1251.000000)">
            <polyline id="Shape" fill="#FF7353" fill-rule="nonzero" points="72.1750795 598.666025 118.293827 1232.12741 169.331908 1232.12741 178.555657 598.666025"></polyline>
            <polyline id="Shape" fill="#FF7353" fill-rule="nonzero" points="348.272649 569.927912 305.228484 1232.12741 257.264987 1232.12741 248.656154 569.927912"></polyline>
            <ellipse id="girlbottom" fill="#FF7353" fill-rule="nonzero" cx="211.761156" cy="595.608779" rx="137.12641" ry="136.353174"></ellipse>
            <g id="circleshadow" opacity="0.166462054" transform="translate(71.000000, 454.000000)">
                <mask id="mask-8" fill="white">
                    <use xlink:href="#path-7"></use>
                </mask>
                <g id="Mask" fill-rule="nonzero"></g>
                <polygon id="Shape" fill="url(#linearGradient-6)" fill-rule="nonzero" mask="url(#mask-8)" points="-1 142 -1 289 277 289 277 142"></polygon>
            </g>
            <rect id="Rectangle-path" fill="#DDB9A8" fill-rule="nonzero" transform="translate(381.364787, 385.158018) rotate(48.595793) translate(-381.364787, -385.158018) " x="288.20026" y="339.602775" width="186.329053" height="91.1104865"></rect>
            <path d="M118.293827,1232.12741 C118.293827,1232.12741 46.3485809,1240.07625 6.37899962,1257.19683 C-2.8447499,1260.86552 0.22983327,1274.3174 10.0684994,1274.3174 L160.108158,1274.3174 C165.027491,1274.3174 169.331908,1270.03726 169.331908,1265.14567 L169.331908,1231.51596" id="Shape" fill="#F2D9C4" fill-rule="nonzero"></path>
            <path d="M310.147817,1232.12741 C310.147817,1232.12741 382.093064,1240.07625 422.062645,1257.19683 C431.286394,1260.86552 428.211811,1274.3174 418.373145,1274.3174 L268.333486,1274.3174 C263.414153,1274.3174 259.109737,1270.03726 259.109737,1265.14567 L259.109737,1231.51596" id="Shape" fill="#F2D9C4" fill-rule="nonzero"></path>
            <rect id="Rectangle-path" fill="#DDB9A8" fill-rule="nonzero" x="169.946824" y="176.766068" width="80.5540792" height="119.844046"></rect>
            <rect id="Rectangle-path" fill="#FFEAE5" fill-rule="nonzero" x="74.6347461" y="281.935333" width="274.252819" height="314.284895"></rect>
            <path d="M342.738399,399.333582 C315.682067,427.460245 305.843401,467.204444 317.526817,504.502846 C324.2909,527.126467 359.956065,517.34328 353.191982,494.719659 C345.198065,469.650241 350.732315,444.580823 369.179814,425.625898 C385.167647,408.50532 359.341148,382.213004 342.738399,399.333582 Z" id="Shape" fill="#462318" fill-rule="nonzero"></path>
            <path d="M356.881481,526.515018 C364.875398,533.852408 373.484231,540.57835 383.322897,544.858494 C387.627313,546.692842 393.161563,546.081393 396.236146,541.801248 C398.695813,538.132553 397.465979,531.406612 393.161563,528.960815 C384.55273,525.292119 377.17373,520.400526 370.409647,513.674584 C361.800815,505.114295 348.887565,518.566178 356.881481,526.515018 Z" id="Shape" fill="#703928" fill-rule="nonzero"></path>
            <path d="M315.682067,532.62951 C317.526817,546.692842 324.905816,559.533275 338.433982,566.259217 C348.887565,571.15081 358.111315,555.86458 347.657732,550.361537 C340.893649,546.692842 335.359399,540.57835 334.129566,532.62951 C333.514649,527.737916 330.440066,523.457772 324.905816,523.457772 C320.6014,523.457772 315.06715,527.737916 315.682067,532.62951 Z" id="Shape" fill="#703928" fill-rule="nonzero"></path>
            <g transform="translate(1.000000, 1232.127409)" fill="#3E3E3E" fill-rule="nonzero" id="Shape">
                <path d="M168.331908,0 L168.331908,33.6297067 C168.331908,38.5213004 164.027491,42.8014449 159.108158,42.8014449 L9.06849943,42.8014449 C-0.77016673,42.8014449 -3.22983327,29.3495622 5.37899962,25.6808669 C44.7336642,8.56028897 109.299911,0.611449212 109.299911,0.611449212 C109.299911,0.611449212 144.350159,34.2411559 168.331908,0 Z"></path>
                <path d="M106.225328,12.2289842 C106.225328,12.2289842 103.765661,4.8915937 97.0015782,3.05724606" stroke="#070707" stroke-width="5" stroke-linecap="round" stroke-linejoin="round"></path>
                <path d="M88.3927453,15.2862303 C88.3927453,15.2862303 85.9330788,7.94883976 79.1689958,6.11449212" stroke="#070707" stroke-width="5" stroke-linecap="round" stroke-linejoin="round"></path>
                <path d="M69.9452463,20.177824 C69.9452463,20.177824 67.4855797,12.8404335 60.7214968,11.0060858" stroke="#070707" stroke-linecap="round" stroke-linejoin="round"></path>
            </g>
            <ellipse id="Oval" fill="#DDB9A8" fill-rule="nonzero" cx="211.761156" cy="280.100985" rx="39.9695813" ry="39.7441988"></ellipse>
            <ellipse id="Oval" fill="#DDB9A8" fill-rule="nonzero" cx="90.007662" cy="67.9281086" rx="16.6027491" ry="16.5091287"></ellipse>
            <ellipse id="Oval" fill="#DDB9A8" fill-rule="nonzero" cx="332.899733" cy="67.9281086" rx="16.6027491" ry="16.5091287"></ellipse>
            <path d="M418.373145,357.143586 C423.292478,351.029094 432.516228,349.806196 438.665394,354.697789 C444.81456,359.589383 446.044394,368.761121 441.12506,374.875613" id="Shape" fill="#703928" fill-rule="nonzero"></path>
            <path d="M251.730737,281.935333 C251.730737,303.947505 233.898155,321.679532 211.761156,321.679532 C189.624157,321.679532 171.791574,303.947505 171.791574,281.935333" id="Shape" stroke="#FF7353" stroke-width="15" stroke-linecap="round" stroke-linejoin="round"></path>
            <path d="M310.147817,1232.12741 C310.147817,1232.12741 382.093064,1240.07625 422.062645,1257.19683 C431.286394,1260.86552 428.211811,1274.3174 418.373145,1274.3174 L268.333486,1274.3174 C263.414153,1274.3174 259.109737,1270.03726 259.109737,1265.14567 L259.109737,1231.51596" id="Shape" fill="#F2D9C4" fill-rule="nonzero"></path>
            <g transform="translate(258.264987, 1232.127409)" fill="#3E3E3E" fill-rule="nonzero" id="Shape">
                <path d="M0.844749905,0 L0.844749905,33.6297067 C0.844749905,38.5213004 5.14916635,42.8014449 10.0684994,42.8014449 L160.108158,42.8014449 C169.946824,42.8014449 172.406491,29.3495622 163.797658,25.6808669 C124.442994,8.56028897 59.8767468,0.611449212 59.8767468,0.611449212 C59.8767468,0.611449212 24.8264987,34.2411559 0.844749905,0 Z"></path>
                <path d="M62.95133,12.2289842 C62.95133,12.2289842 65.4109966,4.8915937 72.1750795,3.05724606" stroke="#070707" stroke-width="5" stroke-linecap="round" stroke-linejoin="round"></path>
                <path d="M80.1689958,15.2862303 C80.1689958,15.2862303 82.6286623,7.94883976 89.3927453,6.11449212" stroke="#070707" stroke-width="5" stroke-linecap="round" stroke-linejoin="round"></path>
                <path d="M99.2314115,20.177824 C99.2314115,20.177824 101.691078,12.8404335 108.455161,11.0060858" stroke="#070707" stroke-width="5" stroke-linecap="round" stroke-linejoin="round"></path>
            </g>
            <g transform="translate(121.983327, 0.000000)">
                <ellipse id="Oval" fill="#000000" fill-rule="nonzero" cx="133.43691" cy="33.0755035" rx="11.0684994" ry="11.0060858"></ellipse>
                <ellipse id="Oval" fill="#DD996B" fill-rule="nonzero" cx="163.567825" cy="61.2021673" rx="25.8264987" ry="8.56028897"></ellipse>
                <g>
                    <ellipse id="Oval" fill="#000000" fill-rule="nonzero" cx="47.9634975" cy="33.0755035" rx="11.0684994" ry="11.0060858"></ellipse>
                    <path d="M108.840244,75.2654992 L73.7899962,75.2654992 C71.3303296,75.2654992 70.1004964,73.4311515 70.1004964,71.5968039 L70.1004964,61.2021673 C70.1004964,58.7563704 71.9452463,57.533472 73.7899962,57.533472 L109.455161,57.533472 C111.914828,57.533472 113.144661,59.3678197 113.144661,61.2021673 L113.144661,71.5968039 C113.144661,73.4311515 111.299911,75.2654992 108.840244,75.2654992 Z" id="Shape" fill="#E8C5AA" fill-rule="nonzero"></path>
                    <ellipse id="Oval" fill="#DD996B" fill-rule="nonzero" cx="25.8264987" cy="61.2021673" rx="25.8264987" ry="8.56028897"></ellipse>
                    <path d="M36.2800815,4.94883976 C43.0441644,-1.16565236 53.4977472,-0.554203151 59.6469136,6.17173818" id="Shape" stroke="#000000" stroke-width="6" stroke-linecap="round" stroke-linejoin="round"></path>
                    <path d="M122.983327,4.94883976 C129.74741,-1.16565236 140.200993,-0.554203151 146.350159,6.17173818" id="Shape" stroke="#000000" stroke-width="6" stroke-linecap="round" stroke-linejoin="round"></path>
                    <path d="M117.449077,98.5005692 C108.840244,113.7868 89.1629121,119.289842 74.4049128,110.729553" id="Shape" stroke="#000000" stroke-width="8" stroke-linecap="round" stroke-linejoin="round"></path>
                </g>
            </g>
            <ellipse id="Oval" fill="#935C47" fill-rule="nonzero" cx="388.857146" cy="374.875613" rx="50.4231641" ry="50.1388354"></ellipse>
            <path d="M388.857146,370.595469 C386.39748,363.258078 390.08698,354.697789 397.465979,352.251992 C404.844979,349.806196 413.453812,353.474891 415.913478,360.812281" id="Shape" fill="#703928" fill-rule="nonzero"></path>
            <path d="M287.395902,476.987632 L302.768818,522.846323 C305.843401,532.62951 316.9119,538.132553 326.750566,534.463858 L478.634975,484.325022 C488.473641,481.267776 494.007891,470.26169 490.318391,460.478503 L474.945475,414.619812 C471.870892,404.836625 460.802393,399.333582 450.963727,403.002277 L299.079318,453.141112 C289.240652,456.198358 283.706402,467.204444 287.395902,476.987632 Z" id="Shape" fill="#DDB9A8" fill-rule="nonzero"></path>
            <path d="M373.645564,473.644155 C364.421815,460.192273 359.502482,445.517492 359.502482,429.008363 C358.887565,417.390828 340.440066,417.390828 341.054983,429.008363 C341.669899,448.574738 347.204149,466.918214 357.657732,482.815893 C364.421815,493.21053 380.409647,483.427343 373.645564,473.644155 Z" id="Shape" fill="#703928" fill-rule="nonzero"></path>
        </g>
        <circle id="Oval" stroke="#000000" stroke-width="5" fill="#303449" cx="4034.5" cy="1638.5" r="2.5"></circle>
        <g id="Group" transform="translate(3316.000000, 2463.000000)">
            <path d="M249.242601,22.8 L249.242601,71.4 C249.242601,78.6 255.347852,84.6 262.674153,84.6 L484.294772,84.6 C498.947374,84.6 502.610525,64.8 489.178972,59.4 C430.568561,34.8 335.326642,22.8 335.326642,22.8 C335.326642,22.8 284.042532,72.6 249.242601,22.8 Z" id="Shape" fill="#D7E9FE" fill-rule="nonzero"></path>
            <path d="M12.3588543,27 C12.3588543,27 -9.62005001,5.4 5.64307797,0.6 C20.906206,-4.2 12.3588543,27 12.3588543,27 Z" id="Shape" stroke="#070707" stroke-width="5" stroke-linecap="round" stroke-linejoin="round"></path>
            <path d="M40.4430098,19.2 C36.7798591,4.2 14.1904296,27 14.1904296,27 C14.1904296,27 44.7166856,34.2 40.4430098,19.2" id="Shape" stroke="#070707" stroke-width="5" stroke-linecap="round" stroke-linejoin="round"></path>
            <path d="M345.705569,33.6 C345.705569,33.6 323.726665,12 338.989793,7.2 C354.252921,2.4 345.705569,33.6 345.705569,33.6 Z" id="Shape" stroke="#070707" stroke-width="5" stroke-linecap="round" stroke-linejoin="round"></path>
            <path d="M374.40025,25.8 C370.737099,10.8 348.14767,33.6 348.14767,33.6 C348.14767,33.6 378.673926,40.8 374.40025,25.8" id="Shape" stroke="#070707" stroke-width="5" stroke-linecap="round" stroke-linejoin="round"></path>
        </g>
        <g id="Group" transform="translate(3316.000000, 2463.000000)">
            <path d="M249.242601,22.8 L249.242601,71.4 C249.242601,78.6 255.347852,84.6 262.674153,84.6 L484.294772,84.6 C498.947374,84.6 502.610525,64.8 489.178972,59.4 C430.568561,34.8 335.326642,22.8 335.326642,22.8 C335.326642,22.8 284.042532,72.6 249.242601,22.8 Z" id="Shape" fill="#D7E9FE" fill-rule="nonzero"></path>
            <path d="M12.3588543,27 C12.3588543,27 -9.62005001,5.4 5.64307797,0.6 C20.906206,-4.2 12.3588543,27 12.3588543,27 Z" id="Shape" stroke="#070707" stroke-width="5" stroke-linecap="round" stroke-linejoin="round"></path>
            <path d="M40.4430098,19.2 C36.7798591,4.2 14.1904296,27 14.1904296,27 C14.1904296,27 44.7166856,34.2 40.4430098,19.2" id="Shape" stroke="#070707" stroke-width="5" stroke-linecap="round" stroke-linejoin="round"></path>
            <path d="M345.705569,33.6 C345.705569,33.6 323.726665,12 338.989793,7.2 C354.252921,2.4 345.705569,33.6 345.705569,33.6 Z" id="Shape" stroke="#070707" stroke-width="5" stroke-linecap="round" stroke-linejoin="round"></path>
            <path d="M374.40025,25.8 C370.737099,10.8 348.14767,33.6 348.14767,33.6 C348.14767,33.6 378.673926,40.8 374.40025,25.8" id="Shape" stroke="#070707" stroke-width="5" stroke-linecap="round" stroke-linejoin="round"></path>
        </g>
        <path d="M572.686275,2531 L597,2138 L437.745098,2138 C437.745098,2138 377.568627,2531 318,2531" id="Shape" fill="#1A3982" fill-rule="nonzero"></path>
        <path d="M213,2210 L597,2210" id="Shape" stroke="#FFFFFF" stroke-width="2" fill="#F7F7F7" fill-rule="nonzero"></path>
        <path d="M398,2139 L474,1490" id="Shape" stroke="#27481C" stroke-width="10" stroke-linecap="round" stroke-linejoin="round"></path>
        <path d="M2394,2536 L2394,2013.24875 C2394,1964.8345 2429.56765,1925 2472.49412,1925 L2732.50588,1925 C2775.43235,1925 2811,1964.8345 2811,2013.24875 L2811,2536" id="Shape" stroke="#EFF6FF" stroke-width="40" stroke-linecap="round" stroke-linejoin="round"></path>
        <g id="Shape-+-Shape-+-Oval-+-Oval-+-Shape-+-Rectangle-path-+-Shape-+-Shape-+-Shape-+-Rectangle-path-+-Shape-+-Shape-+-Rectangle-path-+-Oval-+-Oval-+-Shape-+-Shape-+-Shape-+-Shape-+-Rectangle-path-+-Oval-+-Oval-+-Shape-+-Shape-+-Oval-+-Shape-+-Oval-+-Oval-+-Group-3-+-Shape-+-Oval-+-Shape-+-Group-+-Group-+-Rectangle-3-+-Shape-Mask" transform="translate(875.000000, 283.000000)">
            <mask id="mask-10" fill="white">
                <use xlink:href="#path-9"></use>
            </mask>
            <use id="Mask" fill="#3A76FF" fill-rule="nonzero" xlink:href="#path-9"></use>
            <polygon id="Shape" fill="url(#linearGradient-11)" fill-rule="nonzero" mask="url(#mask-10)" points="92 2171 844 2171 844 2209 92 2209"></polygon>
            <path d="M174.934962,712.164841 C51.8365604,712.164841 -49.2587454,612.522514 -49.2587454,489.885803 L-49.2587454,373.145088 C-49.2587454,251.097977 51.2418822,150.86605 174.934962,150.86605 C298.033364,150.86605 399.12867,250.508377 399.12867,373.145088 L399.12867,489.885803 C399.12867,612.522514 298.033364,712.164841 174.934962,712.164841 Z" id="Shape" fill="#6D472B" fill-rule="nonzero" mask="url(#mask-10)"></path>
            <ellipse id="Oval" fill="#AFD3FD" fill-rule="nonzero" mask="url(#mask-10)" cx="176.718997" cy="1224.52687" rx="197.433186" ry="195.747057"></ellipse>
            <ellipse id="Oval" fill="#6D472B" fill-rule="nonzero" mask="url(#mask-10)" cx="169.582858" cy="379.630683" rx="203.379968" ry="178.64867"></ellipse>
            <polyline id="Shape" fill="#AFD3FD" fill-rule="nonzero" mask="url(#mask-10)" points="-24.2822581 1228.65406 42.3217081 2139.5854 115.467135 2139.5854 129.144736 1228.65406"></polyline>
            <rect id="Rectangle-path" fill="#F4F7FF" fill-rule="nonzero" mask="url(#mask-10)" x="301.601434" y="773.483196" width="268.1999" height="130.891105"></rect>
            <polyline id="Shape" fill="#AFD3FD" fill-rule="nonzero" mask="url(#mask-10)" points="372.962826 1186.7925 311.116286 2139.5854 242.728285 2139.5854 229.645363 1186.7925"></polyline>
            <path d="M229.050685,342.48591 C186.233849,397.90827 119.035205,433.284244 42.9163864,433.284244 C20.3186121,433.284244 -1.68448385,429.746647 -22.4982233,423.850651 L-22.4982233,487.527405 C-22.4982233,594.834527 66.1088389,683.274462 174.934962,683.274462 C283.166407,683.274462 372.368148,595.424126 372.368148,487.527405 L372.368148,422.081852 C312.305643,419.723454 259.973955,388.474677 229.050685,342.48591 Z" id="Shape" fill="#F2D9C4" fill-rule="nonzero" mask="url(#mask-10)"></path>
            <path d="M318.252425,2139.5854 C318.252425,2139.5854 422.321123,2151.37739 479.410236,2175.55097 C492.493158,2180.85737 488.330411,2200.31416 474.65281,2200.31416 L258.784598,2200.31416 C251.648459,2200.31416 245.701676,2194.41816 245.701676,2187.34297 L245.701676,2139.5854" id="Shape" fill="#F2D9C4" fill-rule="nonzero" mask="url(#mask-10)"></path>
            <rect id="Rectangle-path" fill="#F2D9C4" fill-rule="nonzero" mask="url(#mask-10)" x="116.656492" y="621.956107" width="115.962263" height="172.163075"></rect>
            <path d="M233.808111,536.464169 C233.808111,565.354548 205.263554,588.938531 170.772214,588.938531 C136.280875,588.938531 107.736318,565.354548 107.736318,536.464169" id="Shape" fill="#000000" fill-rule="nonzero" mask="url(#mask-10)"></path>
            <polygon id="Shape" fill="url(#linearGradient-12)" fill-rule="nonzero" mask="url(#mask-10)" points="91.6800045 1073.58938 91.6800045 1383.12915 276.030268 1383.12915 276.030268 1073.58938"></polygon>
            <rect id="Rectangle-path" fill="#FFFFFF" fill-rule="nonzero" mask="url(#mask-10)" x="105.357605" y="524.672178" width="129.639863" height="11.7919914"></rect>
            <ellipse id="Oval" fill="#000000" fill-rule="nonzero" mask="url(#mask-10)" cx="108.330996" cy="454.509829" rx="16.0563133" ry="15.9191884"></ellipse>
            <ellipse id="Oval" fill="#000000" fill-rule="nonzero" mask="url(#mask-10)" cx="230.83472" cy="454.509829" rx="16.0563133" ry="15.9191884"></ellipse>
            <path d="M224.887937,342.48591 C205.263554,313.595532 193.964667,279.398756 193.964667,241.664384 C193.964667,236.357988 193.964667,231.641191 194.559345,226.334795 C186.828528,225.155596 178.503032,224.565996 170.177536,224.565996 C61.946091,224.565996 -27.2556495,312.416332 -27.2556495,420.313054 L-27.2556495,423.850651 C-6.44191001,429.746647 15.561186,433.284244 38.1589602,433.284244 C114.872457,433.284244 182.071102,397.90827 224.887937,342.48591 Z" id="Shape" fill="#6D472B" fill-rule="nonzero" mask="url(#mask-10)"></path>
            <path d="M268.299451,251.097977 C260.568633,284.705153 245.701676,315.95393 224.887937,342.48591 C255.811207,388.474677 308.142895,419.723454 367.610722,422.081852 L367.610722,420.313054 C367.610722,348.381906 327.172599,284.705153 268.299451,251.097977 Z" id="Shape" fill="#6D472B" fill-rule="nonzero" mask="url(#mask-10)"></path>
            <path d="M193.964667,242.253983 C193.964667,279.398756 205.263554,314.185131 224.887937,343.07551 C245.701676,316.543529 260.568633,285.294752 268.299451,251.687577 C246.296355,239.305986 221.319867,230.461992 195.154023,227.513994 C194.559345,231.641191 193.964667,236.947587 193.964667,242.253983 Z" id="Shape" fill="#6D472B" fill-rule="nonzero" mask="url(#mask-10)"></path>
            <path d="M196.34338,515.238585 L145.201049,515.238585 C142.227657,515.238585 139.254266,512.880186 139.254266,509.342589 L139.254266,494.6026 C139.254266,491.654602 141.632979,488.706604 145.201049,488.706604 L196.34338,488.706604 C199.316771,488.706604 202.290163,491.065002 202.290163,494.6026 L202.290163,509.342589 C201.695484,512.290587 199.316771,515.238585 196.34338,515.238585 Z" id="Shape" fill="#E8C5AA" fill-rule="nonzero" mask="url(#mask-10)"></path>
            <rect id="Rectangle-path" fill="#FFFFFF" fill-rule="nonzero" mask="url(#mask-10)" x="-21.3088668" y="773.483196" width="395.461049" height="451.043671"></rect>
            <ellipse id="Oval" fill="#DD996B" fill-rule="nonzero" mask="url(#mask-10)" cx="76.2183695" cy="494.6026" rx="36.8700527" ry="12.9711905"></ellipse>
            <ellipse id="Oval" fill="#DD996B" fill-rule="nonzero" mask="url(#mask-10)" cx="274.246233" cy="494.6026" rx="36.8700527" ry="12.9711905"></ellipse>
            <path d="M91.0853263,413.827458 C101.194857,404.983465 116.061814,406.162664 124.981988,415.596257" id="Shape" stroke="#000000" stroke-width="6" stroke-linecap="round" stroke-linejoin="round" mask="url(#mask-10)"></path>
            <path d="M215.967763,413.827458 C226.077294,404.983465 240.94425,406.162664 249.864424,415.596257" id="Shape" stroke="#000000" stroke-width="6" stroke-linecap="round" stroke-linejoin="round" mask="url(#mask-10)"></path>
            <ellipse id="Oval" fill="#F2D9C4" fill-rule="nonzero" mask="url(#mask-10)" cx="176.718997" cy="771.124798" rx="58.2784704" ry="57.7807579"></ellipse>
            <polyline id="Shape" fill="#F4F7FF" fill-rule="nonzero" mask="url(#mask-10)" points="376.530896 772.993353 257.000564 762.380561 257.000564 2077.1876 402.102061 2077.1876 402.102061 1224.03702"></polyline>
            <ellipse id="Oval" fill="#F2D9C4" fill-rule="nonzero" mask="url(#mask-10)" cx="-44.5013193" cy="466.30182" rx="23.1924525" ry="22.9943832"></ellipse>
            <ellipse id="Oval" fill="#F2D9C4" fill-rule="nonzero" mask="url(#mask-10)" cx="383.072357" cy="466.30182" rx="23.1924525" ry="22.9943832"></ellipse>
            <path d="M234.402789,773.483196 C234.402789,805.321573 208.236945,831.263954 176.124319,831.263954 C144.011692,831.263954 117.845848,805.321573 117.845848,773.483196" id="Shape" stroke="#294074" stroke-width="15" stroke-linecap="round" stroke-linejoin="round" mask="url(#mask-10)"></path>
            <ellipse id="Oval" fill="#6D472B" fill-rule="nonzero" mask="url(#mask-10)" cx="416.37434" cy="621.956107" rx="70.7667141" ry="70.1623489"></ellipse>
            <path d="M318.252425,2139.5854 C318.252425,2139.5854 422.321123,2151.37739 479.410236,2175.55097 C492.493158,2180.85737 488.330411,2200.31416 474.65281,2200.31416 L258.784598,2200.31416 C251.648459,2200.31416 245.701676,2194.41816 245.701676,2187.34297 L245.701676,2139.5854" id="Shape" fill="#F2D9C4" fill-rule="nonzero" mask="url(#mask-10)"></path>
            <g id="Group" mask="url(#mask-10)" fill="#F2D9C4" fill-rule="nonzero">
                <g transform="translate(-127.000000, 2139.000000)" id="Shape">
                    <path d="M169.321708,0.585401154 C169.321708,0.585401154 65.2530109,12.3773926 8.16389698,36.550975 C-4.91902496,41.8573711 -0.756277068,61.3141569 12.9213231,61.3141569 L229.384213,61.3141569 C236.520353,61.3141569 242.467135,55.4181612 242.467135,48.3429664 L242.467135,0.585401154"></path>
                </g>
            </g>
            <g id="Group" mask="url(#mask-10)">
                <g transform="translate(245.106998, 2139.153624)" id="Shape">
                    <path d="M0,0.431777121 L0,48.1893423 C0,55.2645372 5.9467827,61.1605329 13.0829219,61.1605329 L228.951134,61.1605329 C243.223412,61.1605329 246.791482,41.7037471 233.70856,36.3973509 C176.619446,12.2237685 83.8496361,0.431777121 83.8496361,0.431777121 C83.8496361,0.431777121 33.8966614,49.3685415 0,0.431777121 Z" stroke="none" fill="#F9F8F7" fill-rule="nonzero"></path>
                    <path d="M89.2017405,17.5301647 C89.2017405,17.5301647 92.7698101,6.9173724 102.284662,3.96937454" stroke="#070707" stroke-width="10" fill="none" stroke-linecap="round" stroke-linejoin="round"></path>
                    <path d="M114.772906,21.6573617 C114.772906,21.6573617 118.340976,11.0445694 127.855828,8.09657154" stroke="#070707" stroke-width="10" fill="none" stroke-linecap="round" stroke-linejoin="round"></path>
                    <path d="M141.533428,28.7325565 C141.533428,28.7325565 145.101498,18.1197642 154.61635,15.1717664" stroke="#070707" stroke-width="10" fill="none" stroke-linecap="round" stroke-linejoin="round"></path>
                </g>
            </g>
            <rect id="Rectangle-3" mask="url(#mask-10)" x="0" y="749" width="139" height="1363"></rect>
            <polyline id="Shape" fill="#F4F7FF" fill-rule="nonzero" mask="url(#mask-10)" points="-21.3088668 777.336439 98.2214655 767.313246 98.2214655 2082.12029 -44.5013193 2082.12029 -46.8800324 1228.38011"></polyline>
        </g>
        <polyline id="Shape" fill="#FFFFFF" fill-rule="nonzero" points="2107 283 1355 447.817518 1355 2356.16893 2107 2541 2107 283"></polyline>
        <path d="M1968.74955,312.4317 C1968.74955,312.4317 1833.1302,1935.88425 1592.09494,2168.98332 L1447,2379.12565 L2102,2541 L2102,283" id="Shape" fill="#AFD3FD" fill-rule="nonzero" opacity="0.2"></path>
        <ellipse id="Oval" fill="#3A76FF" fill-rule="nonzero" cx="1435.5" cy="1386.5" rx="34.5" ry="31.5"></ellipse>
        <path d="M1456.88505,1360 C1456.88505,1360 1456.88505,1395.13876 1429.0999,1401.69005 C1429.0999,1401.69005 1410.18235,1407.0502 1409,1405.26349 C1409,1405.26349 1433.82928,1438.01996 1467.52617,1405.85906 C1467.52617,1405.85906 1485.26138,1377.86717 1456.88505,1360 Z" id="Shape" fill="#1D3878" fill-rule="nonzero"></path>
        <g id="Group-3" transform="translate(1321.000000, 737.509829)" fill-rule="nonzero">
            <path d="M71.1764706,151 L55.8235294,151 C52.6470588,151 50,148.097458 50,144.614407 L50,20.3855932 C50,16.9025424 52.6470588,14 55.8235294,14 L71.1764706,14 C74.3529412,14 77,16.9025424 77,20.3855932 L77,144.614407 C77,148.097458 74.3529412,151 71.1764706,151 Z" id="Shape" fill="#F2D9C4"></path>
            <path d="M106.176471,137 L90.8235294,137 C87.6470588,137 85,134.097458 85,130.614407 L85,6.38559322 C85,2.90254237 87.6470588,0 90.8235294,0 L106.176471,0 C109.352941,0 112,2.90254237 112,6.38559322 L112,130.614407 C112,134.097458 109.352941,137 106.176471,137 Z" id="Shape" fill="#F2D9C4"></path>
            <path d="M141.123696,146 L125.809016,146 C122.640462,146 120,143.097458 120,139.614407 L120,15.3855932 C120,11.9025424 122.640462,9 125.809016,9 L141.123696,9 C144.29225,9 146.932712,11.9025424 146.932712,15.3855932 L146.932712,139.614407 C147.460804,143.097458 144.820342,146 141.123696,146 Z" id="Shape" fill="#F2D9C4"></path>
            <path d="M169.176471,170 L153.823529,170 C150.647059,170 148,167.097458 148,163.614407 L148,39.3855932 C148,35.9025424 150.647059,33 153.823529,33 L169.176471,33 C172.352941,33 175,35.9025424 175,39.3855932 L175,163.614407 C175,167.097458 172.352941,170 169.176471,170 Z" id="Shape" fill="#F2D9C4"></path>
            <path d="M113.212435,214.533679 L101.295337,226.243523 C98.9119171,228.585492 94.7409326,228.585492 91.761658,226.243523 L1.78756477,137.834197 C-0.595854922,135.492228 -0.595854922,131.393782 1.78756477,128.466321 L13.7046632,116.756477 C16.0880829,114.414508 20.2590674,114.414508 23.238342,116.756477 L113.212435,205.165803 C115.595855,207.507772 115.595855,211.606218 113.212435,214.533679 Z" id="Shape" fill="#F2D9C4"></path>
            <path d="M148.428812,168.956107 L78.2567766,168.956107 C63.3898198,168.956107 50.9015761,180.748098 50.9015761,196.077687 L50.9015761,424.252721 C50.9015761,438.99271 62.7951415,451.374301 78.2567766,451.374301 L148.428812,451.374301 C163.295769,451.374301 175.784013,439.58231 175.784013,424.252721 L175.784013,196.077687 C175.189335,180.748098 163.295769,168.956107 148.428812,168.956107 Z" id="Shape" fill="#F4F7FF"></path>
            <path d="M175.189335,223.629981 L175.189335,164.670024 C175.189335,130.473249 147.239456,102.762069 112.748116,102.762069 C78.2567766,102.762069 50.3068979,130.473249 50.3068979,164.670024 L50.3068979,223.629981" id="Shape" fill="#F2D9C4"></path>
        </g>
        <mask id="mask-14" fill="white">
            <use xlink:href="#path-13"></use>
        </mask>
        <g id="Mask" fill-rule="nonzero"></g>
        <g id="Group" mask="url(#mask-14)">
            <g transform="translate(748.381172, 2422.153624)" id="Shape">
                <path d="M242.085963,0.431777121 L242.085963,48.1893423 C242.085963,55.2645372 236.139181,61.1605329 229.003041,61.1605329 L13.1348295,61.1605329 C-1.13744895,61.1605329 -4.70551857,41.7037471 8.37740337,36.3973509 C65.4665173,12.2237685 158.236327,0.431777121 158.236327,0.431777121 C158.236327,0.431777121 207.594624,49.3685415 242.085963,0.431777121 Z" stroke="none" fill="#F9F8F7" fill-rule="nonzero"></path>
                <path d="M152.289545,17.5301647 C152.289545,17.5301647 148.721475,6.9173724 139.206623,3.96937454" stroke="#070707" stroke-width="10" fill="none" stroke-linecap="round" stroke-linejoin="round"></path>
                <path d="M127.313057,21.6573617 C127.313057,21.6573617 123.744988,11.0445694 114.230135,8.09657154" stroke="#070707" stroke-width="1" fill="none" stroke-linecap="round" stroke-linejoin="round"></path>
                <path d="M100.552535,28.7325565 C100.552535,28.7325565 96.9844656,18.1197642 87.4696133,15.1717664" stroke="#070707" stroke-width="1" fill="none" stroke-linecap="round" stroke-linejoin="round"></path>
            </g>
        </g>
    </g>
</svg>