<?xml version="1.0" encoding="UTF-8"?>
<svg width="48px" height="49px" viewBox="0 0 48 49" version="1.1" xmlns="http://www.w3.org/2000/svg" xmlns:xlink="http://www.w3.org/1999/xlink">
    <!-- Generator: Sketch 51.3 (57544) - http://www.bohemiancoding.com/sketch -->
    <title>noun_Hospital_1778100</title>
    <desc>Created with Sketch.</desc>
    <defs></defs>
    <g id="Page-1" stroke="none" stroke-width="1" fill="none" fill-rule="evenodd">
        <g id="1-index-2-copy-47" transform="translate(-322.000000, -1391.000000)" fill="#000000" fill-rule="nonzero">
            <g id="noun_Hospital_1778100" transform="translate(322.000000, 1391.000000)">
                <path d="M18.5440514,21.4220183 L21.5239434,21.4220183 L21.5239434,24.4036697 C21.5239434,24.7614679 21.7623347,25 22.1199218,25 L26.8281512,25 C27.1857382,25 27.4241296,24.7614679 27.4241296,24.4036697 L27.4241296,21.4220183 L30.4040216,21.4220183 C30.7616086,21.4220183 31,21.1834862 31,20.8256881 L31,16.1743119 C31,15.8165138 30.7616086,15.5779817 30.4040216,15.5779817 L27.4241296,15.5779817 L27.4241296,12.5963303 C27.4241296,12.2385321 27.1857382,12 26.8281512,12 L22.1795196,12 C21.8219326,12 21.5835412,12.2385321 21.5835412,12.5963303 L21.5835412,15.5779817 L18.6036492,15.5779817 C18.2460622,15.5779817 18.0076708,15.8165138 18.0076708,16.1743119 L18.0076708,20.8256881 C17.948073,21.1834862 18.2460622,21.4220183 18.5440514,21.4220183 Z M19.1400298,16.7706422 L22.1199218,16.7706422 C22.4775088,16.7706422 22.7159002,16.5321101 22.7159002,16.1743119 L22.7159002,13.1926606 L26.2321728,13.1926606 L26.2321728,16.1743119 C26.2321728,16.5321101 26.4705641,16.7706422 26.8281512,16.7706422 L29.8080432,16.7706422 L29.8080432,20.2293578 L26.8281512,20.2293578 C26.4705641,20.2293578 26.2321728,20.4678899 26.2321728,20.8256881 L26.2321728,23.8073394 L22.775498,23.8073394 L22.775498,20.8256881 C22.775498,20.4678899 22.5371067,20.2293578 22.1795196,20.2293578 L19.1996276,20.2293578 L19.1996276,16.7706422 L19.1400298,16.7706422 Z" id="Shape"></path>
                <path d="M48,30.3042394 C48,28.8379052 47.52,27.3715711 46.62,26.1496259 C46.92,25.4775561 47.04,24.744389 47.04,23.9501247 C47.04,22.6670823 46.62,21.3840399 45.84,20.3453865 C46.08,19.7955112 46.2,19.1845387 46.2,18.5735661 C46.2,15.7630923 43.86,13.4413965 40.98,13.4413965 C39.72,13.4413965 38.58,13.8690773 37.68,14.6022444 L37.68,7.94264339 L38.52,7.94264339 C38.88,7.94264339 39.12,7.69825436 39.12,7.33167082 L39.12,4.27680798 C39.12,3.91022444 38.88,3.66583541 38.52,3.66583541 L29.7,3.66583541 L29.7,0.610972569 C29.7,0.244389027 29.46,0 29.1,0 L25.14,0 C24.78,0 24.54,0.244389027 24.54,0.610972569 L24.54,3.66583541 L23.22,3.66583541 L23.22,0.610972569 C23.22,0.244389027 22.98,0 22.62,0 L18.66,0 C18.3,0 18.06,0.244389027 18.06,0.610972569 L18.06,3.66583541 L9.3,3.66583541 C8.94,3.66583541 8.7,3.91022444 8.7,4.27680798 L8.7,7.33167082 C8.7,7.69825436 8.94,7.94264339 9.3,7.94264339 L10.38,7.94264339 L10.38,14.7244389 C9.48,13.9912718 8.34,13.563591 7.08,13.563591 C4.2,13.563591 1.86,15.8852868 1.86,18.6957606 C1.86,19.3067332 1.98,19.9177057 2.22,20.467581 C1.44,21.5062344 1.02,22.7281796 1.02,24.0723192 C1.02,24.8054863 1.14,25.5386534 1.44,26.2718204 C0.54,27.4326683 0.06,28.8990025 0.06,30.4264339 C0.06,34.0311721 2.94,37.0249377 6.54,37.3304239 L6.54,44.723192 L0.6,44.723192 C0.24,44.723192 0,44.967581 0,45.3341646 L0,48.3890274 C0,48.755611 0.24,49 0.6,49 L47.4,49 C47.76,49 48,48.755611 48,48.3890274 L48,45.3341646 C48,44.967581 47.76,44.723192 47.4,44.723192 L41.52,44.723192 L41.52,37.3304239 C45.18,36.9027431 48,33.9700748 48,30.3042394 Z M40.98,14.7855362 C43.2,14.7855362 45,16.5573566 45,18.6957606 C45,19.2456359 44.88,19.7955112 44.64,20.3453865 C44.52,20.5897756 44.58,20.8341646 44.76,21.0174564 C45.48,21.872818 45.9,22.9725686 45.9,24.0723192 C45.9,24.744389 45.72,25.4164589 45.42,26.0885287 C45.3,26.3329177 45.36,26.5773067 45.48,26.7605985 C46.32,27.7992519 46.8,29.0822943 46.8,30.3653367 C46.8,33.298005 44.46,35.7418953 41.52,36.0473815 L41.52,32.9925187 L43.5,30.915212 C43.74,30.6708229 43.74,30.3042394 43.5,30.0598504 C43.26,29.8154613 42.9,29.8154613 42.66,30.0598504 L41.58,31.159601 L41.58,28.776808 C41.58,28.4102244 41.34,28.1658354 40.98,28.1658354 C40.98,28.1658354 40.98,28.1658354 40.98,28.1658354 C40.62,28.1658354 40.38,28.4102244 40.38,28.776808 L40.38,31.2817955 L39.18,29.9987531 C38.94,29.7543641 38.58,29.7543641 38.34,29.9987531 C38.1,30.2431421 38.1,30.6097257 38.34,30.8541147 L40.38,33.053616 L40.38,36.0473815 C37.44,35.7418953 35.16,33.298005 35.16,30.3653367 C35.16,29.265586 35.52,28.1658354 36.12,27.1882793 C36.24,27.0049875 36.36,26.882793 36.48,26.6995012 C36.66,26.5162095 36.66,26.2718204 36.54,26.0274314 C36.24,25.4164589 36.06,24.744389 36.06,24.0112219 C36.06,22.9114713 36.48,21.8117207 37.2,20.9563591 C37.38,20.7730673 37.38,20.5286783 37.32,20.2842893 C37.08,19.7955112 36.96,19.2456359 36.96,18.6346633 C36.96,18.5735661 36.96,18.5124688 36.96,18.4513716 C37.08,16.3740648 38.82,14.7855362 40.98,14.7855362 Z M25.74,1.22194514 L28.5,1.22194514 L28.5,3.66583541 L25.74,3.66583541 L25.74,1.22194514 Z M19.26,1.22194514 L22.02,1.22194514 L22.02,3.66583541 L19.26,3.66583541 L19.26,1.22194514 Z M9.9,4.88778055 L37.86,4.88778055 L37.86,6.72069825 L9.9,6.72069825 L9.9,4.88778055 Z M36.48,7.94264339 L36.48,16.1296758 C36.12,16.8017456 35.82,17.59601 35.82,18.3902743 C35.82,18.4513716 35.82,18.5735661 35.82,18.6346633 C35.82,19.2456359 35.94,19.8566085 36.18,20.4064838 C35.4,21.4451372 34.98,22.6670823 34.98,24.0112219 C34.98,24.744389 35.1,25.4775561 35.4,26.2107232 C35.34,26.2718204 35.28,26.394015 35.22,26.4551122 C34.44,27.6159601 34.02,28.8990025 34.02,30.3042394 C34.02,32.4426434 34.98,34.3366584 36.54,35.6197007 L36.54,41.3628429 L31.2,41.3628429 L31.2,30.6708229 C31.2,30.3042394 30.96,30.0598504 30.6,30.0598504 L17.28,30.0598504 C16.92,30.0598504 16.68,30.3042394 16.68,30.6708229 L16.68,41.3628429 L11.58,41.3628429 L11.58,35.6197007 C13.14,34.3366584 14.1,32.4426434 14.1,30.3042394 C14.1,28.8990025 13.68,27.6159601 12.9,26.4551122 C12.84,26.3329177 12.78,26.2718204 12.72,26.1496259 C13.02,25.4775561 13.14,24.744389 13.14,23.9501247 C13.14,22.6670823 12.72,21.3840399 11.94,20.3453865 C12.18,19.7955112 12.3,19.1845387 12.3,18.5735661 C12.3,18.5124688 12.3,18.3902743 12.3,18.3291771 C12.24,17.4738155 12,16.7406484 11.64,16.0685786 C11.64,16.0685786 11.64,16.0685786 11.64,16.0685786 L11.64,7.94264339 L36.48,7.94264339 Z M37.74,44.6009975 L9.96,44.6009975 L9.96,42.6458853 L37.74,42.6458853 L37.74,44.6009975 Z M29.94,41.4239401 L17.88,41.4239401 L17.88,31.2817955 L29.94,31.2817955 L29.94,41.4239401 Z M1.2,30.3042394 C1.2,28.9600998 1.68,27.6770574 2.52,26.6995012 C2.7,26.5162095 2.7,26.2718204 2.58,26.0274314 C2.28,25.4164589 2.1,24.744389 2.1,24.0112219 C2.1,22.9114713 2.52,21.8117207 3.24,20.9563591 C3.42,20.7730673 3.42,20.5286783 3.36,20.2842893 C3.12,19.7955112 3,19.2456359 3,18.6346633 C3,16.4962594 4.8,14.7244389 7.02,14.7244389 C9.18,14.7244389 10.92,16.3740648 11.04,18.3902743 C11.04,18.4513716 11.04,18.5124688 11.04,18.5735661 C11.04,19.1234414 10.92,19.6733167 10.68,20.223192 C10.56,20.467581 10.62,20.7119701 10.8,20.8952618 C11.52,21.7506234 11.94,22.8503741 11.94,23.9501247 C11.94,24.6221945 11.76,25.2942643 11.46,25.9663342 C11.34,26.2107232 11.4,26.4551122 11.52,26.638404 C11.64,26.7605985 11.76,26.9438903 11.88,27.127182 C12.54,28.0436409 12.84,29.1433915 12.84,30.3042394 C12.84,33.2369077 10.56,35.680798 7.62,35.9862843 L7.62,32.9925187 L9.66,30.7930175 C9.9,30.5486284 9.9,30.1820449 9.66,29.9376559 C9.42,29.6932668 9.06,29.6932668 8.82,29.9376559 L7.62,31.2206983 L7.62,28.7157107 C7.62,28.3491272 7.38,28.1047382 7.02,28.1047382 C7.02,28.1047382 7.02,28.1047382 7.02,28.1047382 C6.66,28.1047382 6.42,28.4102244 6.42,28.7157107 L6.42,31.0985037 L5.28,29.9376559 C5.04,29.6932668 4.68,29.6932668 4.44,29.9376559 C4.2,30.1820449 4.2,30.5486284 4.44,30.7930175 L6.42,32.8703242 L6.42,35.925187 C3.54,35.680798 1.2,33.298005 1.2,30.3042394 Z M7.68,37.2082294 C8.64,37.1471322 9.54,36.8416459 10.38,36.4139651 L10.38,41.3628429 L9.36,41.3628429 C9,41.3628429 8.76,41.6072319 8.76,41.9738155 L8.76,44.6009975 L7.68,44.6009975 L7.68,37.2082294 Z M46.8,47.6558603 L1.2,47.6558603 L1.2,45.8229426 L46.8,45.8229426 L46.8,47.6558603 Z M38.94,44.6009975 L38.94,42.0349127 C38.94,41.6683292 38.7,41.4239401 38.34,41.4239401 L37.62,41.4239401 L37.62,36.4750623 C38.46,36.9027431 39.36,37.2082294 40.32,37.2693267 L40.32,44.6620948 L38.94,44.6620948 L38.94,44.6009975 Z" id="Shape"></path>
            </g>
        </g>
    </g>
</svg>