<?xml version="1.0" encoding="UTF-8"?>
<svg width="88px" height="40px" viewBox="0 0 88 40" version="1.1" xmlns="http://www.w3.org/2000/svg" xmlns:xlink="http://www.w3.org/1999/xlink">
    <!-- Generator: Sketch 51.3 (57544) - http://www.bohemiancoding.com/sketch -->
    <title>Laguro_space_White</title>
    <desc>Created with Sketch.</desc>
    <defs></defs>
    <g id="Laguro_space_White" stroke="none" stroke-width="1" fill="none" fill-rule="evenodd">
        <g id="Group-2" transform="translate(0.000000, 5.000000)" fill="#FFFFFF" fill-rule="nonzero">
            <path d="M0,19.0114654 L0,0 L3.14308682,0 L3.14308682,18.8054461 C3.14308682,19.2339663 3.24758843,19.5635973 3.44855306,19.794339 C3.64951769,20.0250806 3.94694534,20.1404514 4.34083602,20.1404514 L5,20.1404514 L5,23 L3.71382637,23 C2.53215434,23 1.62379421,22.6538875 0.972668811,21.9534217 C0.321543408,21.2447152 0,20.2640631 0,19.0114654 Z" id="Shape"></path>
            <path d="M6,14.9843444 C6,13.481409 6.34191355,12.1193738 7.02574065,10.8982387 C7.70956775,9.67710372 8.66537154,8.7221135 9.89315202,8.0332681 C11.1209325,7.3444227 12.4963575,7 14.0194269,7 C15.5424964,7 16.9179213,7.35225049 18.137931,8.04892368 C19.3579407,8.74559687 20.3137445,9.70058708 20.9898009,10.9217221 C21.6658572,12.1350294 22,13.4970646 22,14.9921722 C22,16.4872798 21.6580864,17.8571429 20.9742593,19.0782779 C20.2904322,20.2994129 19.3346285,21.2544031 18.106848,21.9510763 C16.8790675,22.6477495 15.5036425,23 13.9883439,23 C11.6648859,23 9.75327829,22.2407045 8.24575036,20.7299413 C6.7459932,19.2035225 6,17.2935421 6,14.9843444 Z M9.11607576,14.9843444 C9.11607576,16.5029354 9.57455075,17.7553816 10.4915007,18.741683 C11.4084507,19.7279843 12.5740651,20.221135 13.9961146,20.221135 C15.4259349,20.221135 16.5993201,19.7279843 17.51627,18.741683 C18.43322,17.7553816 18.891695,16.5029354 18.891695,14.9921722 C18.891695,13.4735812 18.43322,12.221135 17.51627,11.2426614 C16.5993201,10.2641879 15.4259349,9.77103718 13.9961146,9.77103718 C12.5662943,9.77103718 11.4006799,10.2641879 10.48373,11.2504892 C9.57455075,12.221135 9.11607576,13.4735812 9.11607576,14.9843444 Z" id="Shape"></path>
            <rect id="Rectangle-path" x="19" y="7" width="3" height="16"></rect>
            <path d="M24,14.9843444 C24,13.481409 24.3632831,12.1193738 25.0898494,10.8982387 C25.8164157,9.67710372 26.8319573,8.7221135 28.136474,8.0332681 C29.4409908,7.3444227 30.9023798,7 32.5206411,7 C34.1389024,7 35.6002914,7.35225049 36.8965517,8.04892368 C38.192812,8.74559687 39.2083536,9.70058708 39.9266634,10.9217221 C40.6449733,12.1350294 41,13.4970646 41,14.9921722 C41,16.4872798 40.6367169,17.8571429 39.9101506,19.0782779 C39.1835843,20.2994129 38.1680427,21.2544031 36.863526,21.9510763 C35.5590092,22.6477495 34.0976202,23 32.4876153,23 C30.0189412,23 27.9878582,22.2407045 26.3861098,20.7299413 C24.8008742,19.2035225 24,17.2935421 24,14.9843444 Z M27.3190869,14.9843444 C27.3190869,16.5029354 27.8062166,17.7553816 28.780476,18.741683 C29.7547353,19.7279843 30.9932006,20.221135 32.5041282,20.221135 C34.0233123,20.221135 35.270034,19.7279843 36.2442933,18.741683 C37.2185527,17.7553816 37.7056824,16.5029354 37.7056824,14.9921722 C37.7056824,13.4735812 37.2185527,12.221135 36.2442933,11.2426614 C35.270034,10.2641879 34.0233123,9.77103718 32.5041282,9.77103718 C30.9849441,9.77103718 29.7464789,10.2641879 28.7722195,11.2504892 C27.7979602,12.2289628 27.3190869,13.4735812 27.3190869,14.9843444 Z" id="Shape"></path>
            <path d="M36,7.9127182 C36,7.9127182 37.0794473,7 38.8670121,7 L41,7 L41,10 L38.2625216,10 L36,7.9127182 Z" id="Shape"></path>
            <path d="M41,24 C41,25.6905188 40.6384768,27.2200358 39.9070227,28.588551 C39.1839763,29.9570662 38.1666667,31.0357782 36.8635015,31.8246869 C35.5603363,32.6055456 34.1058358,33 32.4915925,33 C30.0281899,33 27.9935707,32.1466905 26.3961424,30.4481216 C24.7987141,28.7495528 24,26.6001789 24,24 L27.3125618,24 C27.3125618,25.706619 27.8001978,27.1153846 28.7670623,28.226297 C29.7423343,29.3291592 30.9782394,29.8846154 32.483185,29.8846154 C33.9965381,29.8846154 35.2408506,29.3291592 36.2161227,28.2182469 C37.1913947,27.1073345 37.6706231,25.6985689 37.6706231,24 L41,24 Z" id="Shape"></path>
            <path d="M45,17.0381143 L45,7.00802407 L48.0076923,7.00802407 L48.0076923,16.444333 C48.0076923,17.5275827 48.3230769,18.4102307 48.9615385,19.0762287 C49.5923077,19.7422267 50.3923077,20.0792377 51.3538462,20.0792377 C52.4076923,20.0792377 53.2769231,19.7101304 53.9615385,18.9638917 C54.6461538,18.225677 54.9923077,17.2868606 54.9923077,16.1474423 L54.9923077,7 L58,7 L58,22.6068205 L55.0769231,22.6068205 L55.0769231,20.4964895 L54.8846154,20.4964895 C54.5615385,21.2026078 54.0076923,21.7963892 53.2461538,22.2778335 C52.4769231,22.7592778 51.5692308,23 50.5153846,23 C48.8461538,23 47.5153846,22.4383149 46.5230769,21.3069208 C45.4923077,20.1995988 45,18.7713139 45,17.0381143 Z" id="Shape"></path>
            <path d="M61,23 L61,7.04102564 L64.0932358,7.04102564 L64.0932358,9.80615385 L64.2989031,9.80615385 C64.5786106,9.06769231 65.0968921,8.41948718 65.8702011,7.85333333 C66.6352834,7.28717949 67.5402194,7 68.5932358,7 L70,7 L70,10.1179487 L68.5027422,10.1179487 C67.1700183,10.1179487 66.1170018,10.5774359 65.3601463,11.4882051 C64.595064,12.3989744 64.2166362,13.6133333 64.2166362,15.1230769 L64.2166362,22.9917949 L61,22.9917949 L61,23 Z" id="Shape"></path>
            <path d="M72,14.9843444 C72,13.481409 72.3419136,12.1193738 73.0257407,10.8982387 C73.7095678,9.67710372 74.6653715,8.7221135 75.893152,8.0332681 C77.1209325,7.3444227 78.4963575,7 80.0194269,7 C81.5424964,7 82.9179213,7.35225049 84.137931,8.04892368 C85.3579407,8.74559687 86.3137445,9.70058708 86.9898009,10.9217221 C87.6658572,12.1350294 88,13.4970646 88,14.9921722 C88,16.4872798 87.6580864,17.8571429 86.9742593,19.0782779 C86.2904322,20.2994129 85.3346285,21.2544031 84.106848,21.9510763 C82.8790675,22.6477495 81.5036425,23 79.9883439,23 C77.6648859,23 75.7532783,22.2407045 74.2457504,20.7299413 C72.753764,19.2035225 72,17.2935421 72,14.9843444 Z M75.1160758,14.8277886 C75.1160758,16.3463796 75.5745508,17.5988258 76.4915007,18.5851272 C77.4084507,19.5714286 78.5740651,20.0645793 79.9961146,20.0645793 C81.4259349,20.0645793 82.5993201,19.5714286 83.51627,18.5851272 C84.43322,17.5988258 84.891695,16.3463796 84.891695,14.8356164 C84.891695,13.3170254 84.43322,12.0645793 83.51627,11.0861057 C82.5993201,10.1076321 81.4259349,9.61448141 79.9961146,9.61448141 C78.5662943,9.61448141 77.4006799,10.1076321 76.48373,11.0939335 C75.5745508,12.072407 75.1160758,13.3170254 75.1160758,14.8277886 Z" id="Shape"></path>
        </g>
        <rect id="Rectangle-10" fill-opacity="0" fill="#D8D8D8" x="0" y="0" width="88" height="5"></rect>
    </g>
</svg>