<svg xmlns="http://www.w3.org/2000/svg" width="37" height="37" viewBox="0 0 37 37">
    <g fill="none" fill-rule="evenodd">
        <ellipse cx="12.774" cy="12" stroke="#3481F8" stroke-width="2" rx="9.774" ry="10"/>
        <path fill="#3481F8" d="M9 14.269h1.575c.01.464.166.867.468 1.209.303.341.72.564 1.253.666v-3.391a16.46 16.46 0 0 1-.626-.165 6.368 6.368 0 0 1-.597-.209 3.23 3.23 0 0 1-.56-.282 3.15 3.15 0 0 1-.47-.38 2.039 2.039 0 0 1-.384-.506 2.769 2.769 0 0 1-.238-.655 3.571 3.571 0 0 1-.091-.835c0-.752.264-1.398.794-1.938s1.254-.858 2.172-.955V6h1.084v.828c.41.048.793.146 1.15.293.356.146.677.344.963.593.286.249.514.565.685.948.17.384.259.812.263 1.286h-1.64c0-.44-.122-.803-.366-1.092-.245-.288-.596-.473-1.055-.556v3.083c.278.069.505.126.681.172.176.047.392.118.648.213.257.095.467.193.63.293.164.1.338.23.524.392.185.16.332.338.44.53.107.194.196.425.267.696.07.271.106.568.106.89 0 .835-.292 1.54-.875 2.113-.584.574-1.39.905-2.421.993v1.091h-1.084V17.66c-.982-.107-1.776-.47-2.384-1.087C9.304 15.955 9 15.187 9 14.269zm1.934-4.578c0 .376.114.67.344.883.23.212.569.39 1.018.531V8.3c-.444.083-.783.25-1.015.502a1.27 1.27 0 0 0-.347.89zm2.446 6.482c.503-.058.9-.218 1.194-.48.293-.26.44-.596.44-1.006 0-.464-.142-.818-.426-1.062-.283-.245-.686-.44-1.208-.586v3.134z"/>
        <path stroke="#3481F8" stroke-width="2" d="M18.64 20l3.909 4"/>
        <path fill="#FFF" stroke="#3481F8" stroke-width="2" d="M22.628 22.162l-.017-.016a1 1 0 0 0-1.414.016l-.476.488a1 1 0 0 0 0 1.398l9.569 9.79a1 1 0 0 0 1.43 0l.477-.488a1 1 0 0 0 0-1.398l-9.57-9.79z"/>
        <path stroke="#3481F8" d="M24.504 4c1.052 2.051 1.704 3.718 1.955 5 .25 1.282.25 2.949 0 5M22.549 2l-1.955-2"/>
    </g>
</svg>
