<?xml version="1.0" encoding="UTF-8"?>
<svg width="364px" height="300px" viewBox="0 0 364 300" version="1.1" xmlns="http://www.w3.org/2000/svg" xmlns:xlink="http://www.w3.org/1999/xlink">
    <!-- Generator: Sketch 50.2 (55047) - http://www.bohemiancoding.com/sketch -->
    <title>Group 9</title>
    <desc>Created with Sketch.</desc>
    <defs></defs>
    <g id="UI-Screens" stroke="none" stroke-width="1" fill="none" fill-rule="evenodd">
        <g id="Desktop---How-it-Works-(Landlord)" transform="translate(-570.000000, -543.000000)">
            <g id="Group-9" transform="translate(570.000000, 543.000000)">
                <path d="M356.969814,299.254934 L41.8225204,299.254934 C38.3247596,299.254934 35.4882929,296.417668 35.4882929,292.918922 C35.4882929,289.420176 38.3247596,286.583775 41.8225204,286.583775 L356.969814,286.583775 C360.467575,286.583775 363.303176,289.420176 363.303176,292.918922 C363.303176,296.417668 360.467575,299.254934 356.969814,299.254934" id="Fill-192" fill="#DED4DB"></path>
                <path d="M97.816597,37.3041635 C96.8047478,38.0859918 95.9409109,39.0314585 95.2527842,40.1145893 L92.8568916,43.8886638 C92.3990061,44.6081536 92.6128014,45.5622785 93.3329541,46.0194272 C93.4091241,46.0679127 93.4870252,46.1086058 93.5666575,46.1415067 C93.8349836,46.2540623 94.0401233,46.4791734 94.1275456,46.757099 C94.214968,47.0350247 94.1760175,47.3380589 94.0202152,47.5839495 L93.9700122,47.6618726 C93.5129923,48.3822282 93.725922,49.336353 94.4469403,49.7935018 C95.0865951,50.2004334 95.9114815,50.0766223 96.4083176,49.5380872 C96.469773,49.4714197 96.5269005,49.3969599 96.5771034,49.3173052 C96.6385588,49.2203342 96.7476203,49.165788 96.8610098,49.175312 C96.9743992,49.1848359 97.073074,49.2558325 97.1172179,49.3605958 C97.2332041,49.6367898 97.4305536,49.880083 97.702342,50.0532454 C98.4224947,50.5112599 99.3728885,50.2930753 99.8342363,49.5779146 C99.900885,49.4731513 100.017737,49.4134103 100.140647,49.4203368 C100.263558,49.4272633 100.373485,49.4991257 100.428016,49.6099496 C100.530153,49.8177445 100.691149,49.999565 100.904944,50.1277052 C101.502186,50.4887488 102.273407,50.2948069 102.638677,49.6982624 L104.283256,46.9700888 C104.47974,46.6454093 104.798269,46.4151033 105.167001,46.3311195 C105.535733,46.2471358 105.922642,46.3172665 106.23944,46.5233298 C109.361545,48.5605855 112.677536,49.0818043 114.398285,47.577023 C116.576055,45.6713708 115.373781,41.244474 111.711562,37.688584 C104.70825,30.8884965 104.883095,31.8564743 97.816597,37.3041635" id="Fill-193" fill="#F79A8C"></path>
                <path d="M85.5293826,49.0464263 L82.4124718,50.0524998 L81.5469037,50.3312913 L81.1132541,50.470687 L80.8959965,50.539952 C80.7929939,50.5754503 80.6527718,50.595364 80.5315923,50.5832426 C80.2892332,50.5737187 80.0252349,50.4126776 79.9066521,50.2602947 L79.6054344,49.918299 C79.4046226,49.6905904 79.2072731,49.4594186 79.0177137,49.2213203 C78.6299391,48.752916 78.2508203,48.2758536 77.9011308,47.7710852 L77.9045931,47.6446766 L78.0543363,47.6264946 C78.5373234,48.0048544 78.990881,48.4109203 79.4366486,48.8256442 C79.6634275,49.02911 79.8824162,49.2403682 80.0979427,49.4533579 L80.4216651,49.7737084 C80.4978351,49.8542289 80.5220711,49.849034 80.5835264,49.8585579 L80.6666209,49.8412417 L80.8821474,49.7685135 L81.3140659,49.6239229 L82.1770373,49.3338759 L83.9029801,48.7555134 L85.2818301,48.2931698 C85.3432855,48.0611322 85.5051467,47.8602638 85.7509681,47.7797433 L104.548511,41.5961139 C104.93542,41.4688396 105.351758,41.6792319 105.478997,42.0662499 C105.607101,42.4541336 105.395902,42.8705892 105.008993,42.9978636 L86.2114503,49.181493 C85.9664945,49.2611477 85.7172109,49.1962118 85.5293826,49.0464263" id="Fill-194" fill="#A897A8"></path>
                <path d="M107.270667,38.9595217 C106.874237,38.1785592 105.923843,37.8763908 105.14137,38.2642746 C99.5316228,41.1153936 98.72751,45.5925075 98.6963496,45.7812545 C98.5543964,46.635811 99.1274025,47.4366871 99.9808527,47.5908016 C100.231002,47.634958 100.478554,47.6176418 100.707064,47.5492426 C101.257566,47.3838725 101.701602,46.9215289 101.816723,46.3197896 C101.840959,46.1916494 102.461571,43.1794894 106.575616,41.0894192 C107.355493,40.6928773 107.666232,39.7396183 107.270667,38.9595217" id="Fill-195" fill="#F79A8C"></path>
                <path d="M82.5728732,51.9462117 L77.8070551,51.9522724 C77.1769215,52.3981655 76.147761,52.2700254 75.3471105,51.5972894 C74.4356673,50.8319116 74.1647445,49.6535415 74.742944,48.9643551 C75.3211435,48.2751688 76.528611,48.3375072 77.4400542,49.1020192 C78.1506857,49.6985637 78.4640213,50.5427304 78.2986978,51.2137347 L82.5720076,51.2085398 C82.7001117,50.9920868 82.9251594,50.8397039 83.1952167,50.8388381 L102.983835,50.8145954 C103.391518,50.8137296 103.721299,51.1436039 103.722165,51.5514014 C103.72303,51.9591989 103.393249,52.289939 102.985566,52.289939 L83.1978134,52.3141818 C82.9268906,52.3150476 82.7009773,52.1626647 82.5728732,51.9462117" id="Fill-196" fill="#B6A7B5"></path>
                <path d="M56.8467739,81.721103 C58.3130463,84.8986331 62.0765365,86.2847982 65.2523059,84.8172468 C68.4280753,83.3505613 69.8138499,79.5860106 68.3475775,76.4102122 C66.8813051,73.2326821 63.1178149,71.8465171 59.9420455,73.3132026 C56.7662761,74.780754 55.3805015,78.5444388 56.8467739,81.721103" id="Fill-197" fill="#FDC5C5"></path>
                <path d="M69.4675367,90.8860349 C72.4156617,88.8357921 73.7945117,85.0175611 72.5982966,81.4382943 L62.9186483,52.4318603 C61.4696873,48.0802891 56.764459,45.7313412 52.4167103,47.1833079 C48.0577093,48.6344088 45.7189442,53.3383655 47.1713675,57.6908025 L56.8518814,86.6963706 C58.3008424,91.0479418 63.0060707,93.3968898 67.3538194,91.944923 C68.1259061,91.6869111 68.8348064,91.3258674 69.4675367,90.8860349" id="Fill-198" fill="#FDC5C5"></path>
                <path d="M74.4610929,46.9044999 C74.5251449,46.5581751 74.7190322,46.2854443 74.996014,46.1573041 L77.4533619,45.0222245 L78.2479534,46.7451904 C78.3197956,46.9019024 78.3267201,47.0811255 78.2661303,47.2421665 C78.2055406,47.4032076 78.0826299,47.5330794 77.9250965,47.6023443 C77.036158,47.9980204 76.1039412,48.3720512 75.1509507,48.7192418 C74.9804337,48.4811435 74.8142447,48.2361187 74.6636358,47.9746435 C74.4706141,47.6413059 74.3979064,47.2525563 74.4610929,46.9044999" id="Fill-199" fill="#F2EEF1"></path>
                <path d="M37.2009198,17.309368 C43.6260319,14.3413644 51.1201207,12.5906926 58.0230265,14.9508961 C60.9668237,15.9595671 63.6379669,17.6764723 65.8131396,19.8990117 C67.521771,21.6462204 70.0578856,25.7181343 72.6251607,30.6203619 C74.0524825,33.3450723 76.5704202,35.3425006 79.5497056,36.1078784 L79.5955807,36.1191339 C80.3261202,36.307881 80.933749,36.814381 81.2496814,37.5001041 C81.5656138,38.186693 81.555227,38.9771794 81.2237144,39.655976 C80.8177629,40.4845581 80.2586059,41.4265616 79.4891159,42.3850155 C79.0762399,42.9010394 78.8910083,43.5486668 78.9464046,44.1902335 C78.9810274,44.5798489 78.7663665,44.9495506 78.4114835,45.1131891 L75.2590844,46.5694849 C74.9821027,46.6976251 74.7882154,46.9703559 74.7241634,47.3166807 C74.6609769,47.6647371 74.7336846,48.0534867 74.9267063,48.3868243 C76.3107497,50.7868552 78.5915217,52.2353587 80.7796779,52.2786493 C81.2055374,52.2873074 81.5716727,52.5842809 81.6660197,52.9998707 C81.9005886,54.0353819 82.0633154,54.9825802 82.1386199,55.8163572 C82.8025106,63.1593088 74.4489127,66.5784005 59.0253544,66.4918193 C43.6026616,66.4052381 27.7125621,61.8744438 22.0249139,49.5539389 C16.3372658,37.233434 22.3486364,24.1691966 37.2009198,17.309368" id="Fill-200" fill="#FDC5C5"></path>
                <path d="M64.5727955,33.5563614 C67.3789674,31.9026605 71.6297724,33.871517 72.1049693,34.101823 C72.6277725,34.3563717 72.8458956,34.9875487 72.5931497,35.511365 C72.4832226,35.7399393 72.3005877,35.9113701 72.0859268,36.0109385 C71.8106761,36.1382129 71.4800291,36.1451394 71.1848704,36.0031462 C70.1747524,35.515694 67.1790211,34.4732564 65.6435033,35.3771641 C65.150995,35.6706744 64.4940288,35.5053043 64.1980045,35.0031333 C63.9028458,34.4992307 64.0690349,33.8524692 64.5727955,33.5563614" id="Fill-201" fill="#BA3A39"></path>
                <path d="M66.6500114,38.7588456 C66.6733817,38.3345977 67.0109533,38.0410874 67.4099802,38.1042917 L70.755401,38.6341687 C71.0072813,38.6748618 71.2357913,38.8540849 71.352643,39.1077678 C71.4694947,39.3623166 71.4582423,39.6514978 71.3249448,39.8705482 L69.5600514,42.7614945 C69.4890748,42.8775133 69.3904001,42.9614971 69.2804729,43.0134458 C69.0623497,43.11388 68.7922925,43.086174 68.5681103,42.9156091 C68.2305388,42.6575971 68.125805,42.1710107 68.3352725,41.8272834 L69.4639733,39.9805063 L67.3268857,39.6428397 C66.9295899,39.5796354 66.6266411,39.1839593 66.6500114,38.7588456" id="Fill-202" fill="#532442"></path>
                <path d="M46.3116797,42.6096261 C48.3734629,41.1429405 50.92862,41.1567935 52.2390902,43.0001073 C53.8620304,45.281522 51.8876695,46.4088092 53.3253782,48.4642469 C54.2160477,49.7361247 55.1837529,49.8945683 56.0718258,51.1439351 C56.8733419,52.2712223 57.1511892,53.9145335 55.782726,54.888572 C53.5348456,56.4877268 48.8832826,54.7431156 46.5055669,52.0443796 C44.0698582,49.2798418 42.7966075,45.110957 46.3116797,42.6096261" id="Fill-203" fill="#F2A5AB"></path>
                <path d="M69.3933599,50.6799578 C68.4836478,50.789916 67.6561647,50.1405569 67.5462375,49.2305885 C67.228574,46.6097756 69.3803763,44.7422191 69.6261977,44.5378874 C70.3299046,43.9543301 71.3625273,44.0521669 71.9493825,44.7500114 C72.5379688,45.4461242 72.4479498,46.4920251 71.7563608,47.0859722 C71.4932281,47.3128149 70.7566297,48.1214833 70.8423209,48.832315 C70.9219532,49.4851373 70.6112142,50.0955347 70.0918733,50.4288723 C69.8875993,50.5604758 69.6512992,50.6496544 69.3933599,50.6799578" id="Fill-204" fill="#F2A5AB"></path>
                <path d="M35.1341861,68.3593215 C33.3900664,60.4423365 23.0153669,64.5073238 17.9509278,53.5348882 C12.8856232,42.5633184 17.2965583,33.855847 18.7195523,32.7571316 C16.0492747,27.7440801 19.2570701,21.2842567 29.8879778,15.7794239 C34.8312373,13.2200836 45.0267642,10.2174475 45.8698275,7.79230809 C45.8698275,7.79230809 46.0464034,9.15249876 45.1739108,11.0598826 C46.9898727,10.1975339 48.9200896,9.40877912 50.951578,8.72565344 C58.5945445,6.15678921 64.4137589,12.384575 70.9842865,10.8763305 C70.9842865,10.8763305 70.1870983,13.1421605 66.6841441,14.3811375 C72.127702,17.183771 73.7039016,21.8565584 76.8943856,23.6782269 C75.1225677,24.4964192 73.0478009,24.5042115 71.0760367,24.0401363 C72.4877783,26.2739313 73.1179119,28.0549066 73.1179119,28.0549066 C70.6371937,25.7544441 66.6737573,25.3648287 62.2576287,25.8436227 C64.5366696,26.6834604 66.5006437,27.8488433 67.947008,29.2886887 C67.947008,29.2886887 55.2335434,31.5017042 48.4942301,29.7899938 C52.057774,31.7571187 55.7000847,35.3450437 57.8752573,40.8464132 C56.5310301,39.9883935 54.6068721,39.3892516 52.4602632,38.8334003 C55.0128236,42.7096407 54.6605373,45.7572989 54.6605373,45.7572989 C52.3460082,42.5659159 48.1151112,41.4897115 44.2581397,39.2576482 L44.2339038,39.2437952 L44.0296297,39.1243131 L43.9872169,39.0992046 L43.7777494,38.972796 L43.5345247,38.8221447 L43.327654,38.6896755 L43.3068803,38.6766883 L43.1095308,38.5476823 L43.0878916,38.5329635 L42.8818864,38.3935678 L42.8507259,38.3727883 L42.6507797,38.2325268 L42.6438551,38.2281977 L42.4439089,38.0844729 L42.4023616,38.0533037 L42.2084744,37.9087131 L42.1885663,37.8939943 L42.0076626,37.7545985 L41.9713087,37.7260267 L41.7774215,37.5719122 L41.5757441,37.4048105 L41.5463148,37.3805677 L41.3567553,37.2177951 L41.3255949,37.1909549 L41.1403633,37.024719 C39.3244014,35.3796762 37.788018,33.1631974 36.8609945,29.9077443 C30.8851122,34.5943847 37.5240197,42.592756 39.5104985,45.2438724 C42.5053642,49.2395949 40.3985714,51.6326992 40.3985714,51.6326992 C41.8882142,51.0413496 43.0151839,50.2534607 43.8547849,49.3711983 C44.51002,50.882906 45.3323097,52.2153907 46.390034,53.2751446 C50.7135467,57.6024731 49.1780289,64.1635965 49.1780289,64.1635965 C48.4959612,63.263152 47.7784052,62.4839212 47.0296888,61.8042587 C48.1904157,65.7194607 48.0121086,70.3273122 43.531928,74.3187055 C43.531928,74.3187055 43.2852411,72.0450832 42.1807762,69.0147412 C41.0598655,71.9688918 38.601652,73.082326 38.601652,73.082326 C38.8639192,70.4138934 38.08058,67.9142941 36.6705695,65.6017102 C36.294913,67.357577 35.1341861,68.3593215 35.1341861,68.3593215" id="Fill-205" fill="#E7584B"></path>
                <path d="M40.5989701,52.0283753 C40.5989701,52.0283753 42.7057629,49.6352709 39.7108972,45.6395485 C37.7244184,42.9884321 31.0855109,34.9900608 37.0613932,30.3034204 C38.266264,34.5346437 40.5245312,37.2610857 43.978148,39.3684721 C44.1538584,39.4758328 44.3745782,39.6065704 44.5779867,39.7225892 C45.1561862,40.483638 45.6270553,41.2559423 45.9144239,42.0498919 C46.5047414,43.6758869 46.5514821,47.1408665 44.0551836,49.7668744 C43.2155825,50.6491368 42.0886128,51.4370257 40.5989701,52.0283753" id="Fill-206" fill="#E7584B"></path>
                <path d="M260.051286,171.013457 C263.508365,171.543334 265.882618,174.777142 265.352891,178.235195 C264.822297,181.694114 261.590266,184.06817 258.132321,183.538293 L245.821346,181.651689 L245.830867,168.833342 L260.051286,171.013457" id="Fill-207" fill="#E9E6EC"></path>
                <path d="M275.639534,152.027094 C275.953735,150.726645 274.985164,149.374246 273.480807,149.011471 C271.966928,148.645233 270.488538,149.408013 270.174337,150.707597 C268.42762,157.945785 263.355391,164.117293 256.256001,167.639417 C253.133032,169.190952 251.134435,171.423015 250.317339,174.277597 C249.250093,179.707104 253.509554,182.962558 256.145209,184.416256 L256.616078,184.677731 C258.815486,185.905453 263.392611,188.459598 265.945171,187.342701 C266.827185,186.956548 267.407115,186.144417 267.716989,184.860418 L275.639534,152.027094" id="Fill-208" fill="#E9E6EC"></path>
                <path d="M256.136487,185.538651 L255.733133,185.295357 C255.285634,185.02609 254.789663,184.696215 254.284171,184.300539 C254.139622,184.187118 253.162395,183.575855 253.860043,182.791429 C255.202539,181.283184 259.47758,182.863291 260.237549,176.454551 C260.507606,174.178331 257.987937,173.18005 258.408604,171.439768 C258.466597,171.19734 258.607684,170.863137 258.796378,170.691706 C255.410276,170.77569 254.027963,168.768738 253.876489,167.515908 C253.808975,166.965251 254.094612,166.747932 254.58712,166.62845 C256.020501,166.28126 256.492236,166.353122 258.18269,165.27432 C263.327627,161.676006 267.060823,156.223987 268.553928,150.036895 C269.031721,148.057649 270.972325,146.822135 272.888693,147.285344 C274.796405,147.745956 278.5296,149.337319 277.95746,151.710509 L269.132993,188.27808 C268.807539,189.625283 267.342998,189.506667 265.513187,189.064237 C264.484892,188.816615 260.210716,188.059029 256.136487,185.538651" id="Fill-209" fill="#CFCAD6"></path>
                <path d="M265.729413,189.777335 L275.589099,148.919666 C277.142794,149.706689 278.539821,150.904973 278.173686,152.423607 C276.332622,160.053142 271.052657,181.933944 269.349219,188.991177 C269.023765,190.338381 267.559224,190.219765 265.729413,189.777335" id="Fill-210" fill="#E9E6EC"></path>
                <path d="M262.673837,169.0851 C262.723174,168.880768 262.702401,168.659986 262.599398,168.476434 L260.100503,163.978541 C259.902288,163.62096 259.473831,163.530916 259.143184,163.777672 C258.814269,164.024429 258.705207,164.513613 258.905153,164.871193 L261.404048,169.369086 C261.603129,169.726667 262.031585,169.816711 262.362232,169.569955 C262.521497,169.451338 262.627962,169.274713 262.673837,169.0851" id="Fill-211" fill="#E9E6EC"></path>
                <path d="M265.486171,166.551483 C265.543299,166.315982 265.504348,166.059702 265.362395,165.864894 L262.647973,162.169608 C262.409942,161.845794 261.971099,161.817223 261.66815,162.106404 C261.365201,162.394719 261.312402,162.892561 261.551298,163.217241 L264.264855,166.912526 C264.502886,167.23634 264.941729,167.264912 265.244678,166.975731 C265.366723,166.859712 265.447221,166.710792 265.486171,166.551483" id="Fill-212" fill="#E9E6EC"></path>
                <path d="M268.298455,163.151523 C268.365104,162.875329 268.299321,162.576624 268.103703,162.383548 L265.173755,159.49087 C264.893311,159.212945 264.451871,159.259698 264.187872,159.593902 C263.923009,159.925508 263.937723,160.42335 264.219033,160.701275 L267.148981,163.594819 C267.429425,163.871879 267.870865,163.825125 268.134863,163.491787 C268.214495,163.388756 268.269026,163.272737 268.298455,163.151523" id="Fill-213" fill="#E9E6EC"></path>
                <path d="M270.245587,158.886677 C270.324354,158.560266 270.215292,158.213075 269.95389,158.039913 L266.808416,155.948977 C266.486424,155.734255 266.05364,155.866725 265.843307,156.245085 C265.632109,156.622579 265.722993,157.103104 266.046716,157.31696 L269.19219,159.407896 C269.514182,159.622617 269.946966,159.490148 270.157299,159.111788 L270.245587,158.886677" id="Fill-214" fill="#E9E6EC"></path>
                <path d="M250.790573,167.514309 C251.393874,167.60695 251.83791,168.124706 251.837044,168.734238 L251.826658,183.327499 C251.825792,183.687677 251.669124,184.028807 251.395605,184.263442 C251.122085,184.497211 250.760278,184.600243 250.405395,184.546562 L213.823889,178.920516 C193.626723,175.814848 173.086791,175.369821 152.77537,177.599287 L108.905781,182.412336 C104.276723,182.918836 100.098625,179.565546 99.5896712,174.93172 C99.5567796,174.621759 99.5403338,174.314396 99.5403338,174.008764 C99.5437961,169.695289 102.778424,166.08745 107.064717,165.617314 L150.933441,160.804266 C172.711135,158.414624 194.73465,158.891687 216.390299,162.223331 L250.790573,167.514309" id="Fill-215" fill="#765970"></path>
                <path d="M102.722414,176.960106 C104.188687,180.13677 107.952177,181.522935 111.127081,180.056249 C114.303716,178.589564 115.68949,174.825879 114.223218,171.648349 C112.75608,168.471685 108.993455,167.08552 105.81682,168.553071 C102.641051,170.018891 101.255276,173.784307 102.722414,176.960106" id="Fill-216" fill="#FDC5C5"></path>
                <path d="M61.0282507,90.7284538 C62.1283878,93.1111684 64.9510054,94.1510086 67.3321833,93.0505616 C69.7142268,91.9509803 70.7537741,89.1267016 69.6545026,86.7448527 C68.5543655,84.3621381 65.7317479,83.3222978 63.3497044,84.4227449 C60.967661,85.523192 59.9289792,88.3466049 61.0282507,90.7284538" id="Fill-217" fill="#FDC5C5"></path>
                <path d="M68.2150562,121.909781 C56.2104919,105.607406 52.6538725,86.9820584 60.2734687,80.3083794 C67.8913337,73.6355663 83.8004757,81.4425932 95.80504,97.7449675 C101.118763,104.961511 104.776654,112.630873 106.542413,119.518408 C109.099301,129.491696 112.966659,139.332516 117.915978,148.360338 C119.521606,151.290245 120.718687,154.63228 121.343627,158.220205 C123.54996,170.877511 128.128816,180.757291 108.518505,182.57896 C96.1547295,183.73049 89.9105211,173.762396 87.7050535,161.10509 C85.4138947,147.953406 79.737499,135.845891 71.1441387,125.631907 C70.1470042,124.44661 69.1689122,123.205035 68.2150562,121.909781" id="Fill-218" fill="#FDC5C5"></path>
                <path d="M84.8554204,160.483879 C84.7126016,159.741013 85.0943172,158.999012 85.7807127,158.68299 L115.961342,144.742551 C116.756799,144.374581 117.701134,144.696663 118.10622,145.474162 C118.470624,146.172873 118.840221,146.866388 119.216744,147.552977 C120.991158,150.788516 122.221131,154.326224 122.872903,158.0648 C123.123918,159.500317 123.405228,160.901201 123.677882,162.257062 C125.284376,170.254568 126.946267,178.524804 118.184121,182.570744 C115.654065,183.73959 112.376159,184.498041 108.162573,184.890254 C96.0792422,186.014078 87.8797154,177.769816 85.0735435,161.675237 C85.0042981,161.276963 84.9315904,160.880421 84.8554204,160.483879" id="Fill-219" fill="#765970"></path>
                <path d="M35.6697255,80.3892158 C38.592749,79.038549 43.2789348,76.874019 50.6016411,73.4921573 C66.4623113,66.1665219 78.2444246,72.646259 81.8607682,75.7207574 C85.4823052,78.8056456 84.3605289,81.9407509 84.3605289,81.9407509 C82.1602548,80.374497 79.9063154,79.0428781 77.6437203,77.9943797 C71.4419247,75.1129574 65.7724535,74.695636 61.2585158,76.7813771 L61.210044,76.8030224 C60.0891333,77.3216438 59.0340057,78.0065011 58.0965955,78.8229618 C52.4323177,83.7303843 51.4507634,93.1400292 54.4715962,103.689083 C39.647011,104.546237 34.2363447,94.4378814 32.2862197,87.8715632 C31.4016091,84.8723904 32.8323932,81.6991893 35.6697255,80.3892158" id="Fill-220" fill="#4586D0"></path>
                <path d="M58.0997422,78.6735593 C59.0371525,77.8570985 60.09228,77.1722412 61.2131907,76.6536199 L61.2616626,76.6319746 C65.7756003,74.5462334 71.4450715,74.9635548 77.6468671,77.8449772 C79.9094621,78.8934755 82.1634015,80.2250944 84.3636757,81.7913483 C89.5215961,85.4329536 94.431964,90.3524975 98.6040024,95.9162055 C105.697333,104.026267 106.879699,106.085168 113.883011,118.738144 C114.236163,119.377114 114.585852,120.006559 114.911306,120.612627 C115.460076,125.151214 115.571734,129.449105 114.65856,133.313224 C114.258667,135.091602 113.629399,136.777337 112.721418,138.336665 C112.276516,139.135809 111.751982,139.889932 111.158202,140.61808 C110.912381,140.917651 110.951332,141.353154 111.235238,141.616361 L114.836867,144.908178 C115.011712,145.060561 115.250608,145.124631 115.473059,145.079609 C115.621072,145.045842 115.750907,144.974846 115.853044,144.869217 C115.906709,144.809476 115.956912,144.740211 115.987207,144.656227 C116.679661,143.057072 117.221507,141.585192 117.624862,140.142749 C118.831464,135.956548 118.891188,132.080307 118.124295,126.641276 C120.696763,131.582465 122.151783,134.760861 122.817405,136.27863 C123.113429,136.945305 123.146321,137.697696 122.903096,138.379956 L120.374772,145.595633 C103.14131,153.555043 100.735897,154.666745 83.8408725,162.469443 L79.2170076,160.313571 C78.3557674,159.908371 77.7429451,159.110092 77.5880084,158.169821 C77.2097552,155.891003 76.1364507,150.943754 73.0983066,143.20426 C68.884721,132.438754 63.8635603,123.32435 61.5265264,119.194427 L61.5221986,119.184037 C58.3031507,113.948472 55.9228384,108.615936 54.4747429,103.53968 C51.4539102,92.9906267 52.4354644,83.5809817 58.0997422,78.6735593" id="Fill-221" fill="#529EDC"></path>
                <path d="M120.494007,145.456418 C120.614321,145.667676 120.730307,145.893653 120.851486,146.105777 C122.414702,148.955164 123.562446,152.027065 124.267018,155.259141 C124.367424,155.718022 124.135452,156.184694 123.710458,156.380368 C123.3097,156.565652 87.9624946,172.892269 88.3320922,172.720838 C88.0905987,172.832528 87.815348,172.843783 87.5660644,172.751141 C87.3167808,172.659365 87.1151034,172.471484 87.0043107,172.229923 C85.6877816,169.358024 84.6594867,166.05322 83.9601076,162.330228 C100.855997,154.526664 103.264008,153.414096 120.494007,145.456418" id="Fill-222" fill="#4586D0"></path>
                <path d="M115.784228,145.257281 C115.753933,145.341265 115.70373,145.41053 115.650065,145.470271 C115.547928,145.5759 115.418093,145.646896 115.270081,145.680663 C115.04763,145.725685 114.808733,145.661615 114.633888,145.509232 L111.032259,142.217415 C110.748353,141.954208 110.709402,141.518705 110.955224,141.219134 C111.549004,140.490986 112.073538,139.736864 112.51844,138.937719 C113.426421,137.378392 114.055689,135.692656 114.455581,133.914278 C115.368756,130.050159 115.257097,125.752268 114.708327,121.213681 C115.937434,123.449208 117.009007,125.46655 117.921316,127.242331 C118.688209,132.681362 118.628485,136.557602 117.421883,140.743803 C117.018528,142.186246 116.476683,143.658126 115.784228,145.257281" id="Fill-223" fill="#6BC4EC"></path>
                <path d="M100.120116,103.828287 C100.004995,103.881101 99.9097827,103.948635 99.8171669,104.026558 C99.6475156,104.139979 99.5159492,104.281972 99.4172745,104.443879 C98.2496231,102.168525 97.0663915,99.981484 95.878832,97.9130591 C92.1188041,91.3805075 88.2774128,85.9553294 84.7259868,82.1648044 C84.6342365,82.0669677 84.5520076,81.9656677 84.4559295,81.8825497 C82.2972026,79.5994035 80.2414783,77.9439709 78.3995494,77.0262102 C77.9581096,76.8002332 77.7711469,76.2694905 77.9979258,75.8279263 C78.2195112,75.3759725 78.7544323,75.1993468 79.2053933,75.4209947 C80.8196778,76.2227366 82.5412928,77.5093333 84.3581203,79.2288359 C86.7808455,81.5292984 89.3576418,84.6185157 91.9630018,88.347568 C94.9847001,92.6506537 98.0591981,97.8247463 101.022903,103.643869 C100.721686,103.620492 100.412678,103.681099 100.120116,103.828287" id="Fill-224" fill="#DAD0D7"></path>
                <path d="M100.591863,104.086732 C100.884425,103.939544 101.193433,103.878938 101.49465,103.902315 C102.165466,103.917899 102.805986,104.296259 103.125381,104.940423 C103.583266,105.880695 103.20761,107.007116 102.271931,107.473789 C102.196626,107.509287 102.129112,107.541322 102.047748,107.566431 C101.169197,107.878989 100.170331,107.47985 99.7384127,106.620964 C99.4190181,105.977666 99.4977848,105.243457 99.8890216,104.702325 C99.9876964,104.540418 100.119263,104.398425 100.288914,104.285003 C100.38153,104.20708 100.476742,104.139547 100.591863,104.086732" id="Fill-225" fill="#F2EEF1"></path>
                <path d="M21.3181335,81.110135 C18.7439339,82.4279008 15.5898036,81.4097059 14.2715434,78.834781 L0.575659027,52.0699343 C-0.740870084,49.4950094 0.277038025,46.3399904 2.85123761,45.0222245 L21.3181335,81.110135" id="Fill-226" fill="#E9E6EC"></path>
                <path d="M68.5945424,209.921317 C62.9519038,209.921317 58.3773763,205.3455 58.3773763,199.701272 L58.3773763,186.475128 C58.3773763,180.830033 62.9519038,176.255083 68.5945424,176.255083 L72.9769138,176.255083 L72.9769138,159.30941 L67.2001121,159.30941 C57.8130259,159.30941 50.2029509,166.921629 50.2029509,176.31136 L50.2029509,209.865039 C50.2029509,219.253904 57.8130259,226.866124 67.2001121,226.866124 L78.4750024,226.866124 L78.4750024,209.921317 L68.5945424,209.921317" id="Fill-227" fill="#DAD5DF"></path>
                <path d="M179.442658,251.411028 C210.256883,255.412811 237.055738,260.886475 252.010158,265.830262 L252.373697,242.928668 L108.529259,224.245311 L105.599311,246.813567 C121.319759,245.854247 148.628433,247.408379 179.442658,251.411028" id="Fill-228" fill="#CFC9D4"></path>
                <path d="M318.82919,197.160405 L211.536828,182.123848 C209.727791,181.871031 207.899711,181.775792 206.074228,181.839862 L87.4308058,186.013942 C77.0275425,186.38018 68.8912022,195.11276 69.2573375,205.518954 L69.8329403,221.885399 C69.8381337,221.883667 170.674223,192.928316 191.845154,191.773323 L206.119237,191.271152 C207.671201,191.21574 209.224896,191.276347 210.767338,191.452107 L318.058835,203.639277 C318.797164,203.722395 319.464517,203.191652 319.548477,202.453114 L319.981261,198.646139 C320.062625,197.920588 319.552805,197.261705 318.82919,197.160405" id="Fill-229" fill="#7B6686"></path>
                <path d="M69.2454496,221.45653 L70.0452345,244.207472 C70.3204852,252.025755 76.9438124,258.421508 84.7642204,258.421508 L84.8724164,258.421508 C94.256906,258.421508 102.943748,253.673395 108.215923,245.907061 C117.628111,232.04368 133.718157,219.091132 157.516086,210.578468 C161.278711,214.312715 166.514533,216.543913 172.230744,216.343045 C183.211342,215.956027 191.799509,206.739458 191.413465,195.754901 C191.3598,194.238864 191.257663,191.344454 191.257663,191.344454 C170.085867,192.499448 69.2454496,221.45653 69.2454496,221.45653" id="Fill-230" fill="#DAD5DF"></path>
                <path d="M170.902963,157.074179 C170.79217,156.293217 170.070286,155.750353 169.29041,155.860311 L119.696819,162.88118 C117.293136,163.220579 115.114501,164.482067 113.623127,166.398109 L92.6157888,193.376811 L100.522754,199.536198 L122.553193,171.244924 C123.89569,169.521093 125.798208,168.320211 127.932699,167.852673 L169.795901,158.667273 C170.52471,158.507964 171.007697,157.812717 170.902963,157.074179" id="Fill-231" fill="#745F7F"></path>
                <path d="M79.4730331,211.808394 C70.6373138,213.406683 64.8951349,222.157445 67.1343596,231.015568 C69.0463996,238.580168 76.4288301,243.613133 84.1678746,242.63996 C88.0161905,242.156837 91.3295852,240.331705 93.7315368,237.712624 L93.7315368,237.71349 L115.182046,216.357371 L207.751094,193.032395 C208.860752,192.752738 209.563594,191.661815 209.360185,190.536259 C209.14639,189.35356 208.015092,188.568268 206.832726,188.782124 L79.4730331,211.808394" id="Fill-232" fill="#E9E6EC"></path>
                <path d="M82.6854761,232.727154 C79.0267197,233.387769 75.5254966,230.958301 74.8642026,227.298513 C74.2029085,223.639592 76.6325583,220.137382 80.2904491,219.475036 C83.9492056,218.813555 87.4504286,221.244756 88.1117227,224.903677 C88.7730167,228.562599 86.343367,232.065674 82.6854761,232.727154 Z M90.1267652,224.540036 C89.2646594,219.766814 84.6970564,216.597943 79.926045,217.460291 C75.1550335,218.32264 71.9870542,222.890664 72.84916,227.66302 C73.7112659,232.435376 78.2780033,235.605114 83.0490147,234.742765 C87.8200262,233.880416 90.9888711,229.311526 90.1267652,224.540036 Z" id="Fill-233" fill="#CFC9D4"></path>
                <path d="M104.872649,194.75617 C105.693208,199.299951 102.676703,203.649791 98.1342015,204.47058 C93.5917,205.29137 89.2430858,202.274015 88.4225272,197.730234 C87.6019686,193.186452 90.6184735,188.836613 95.160975,188.015823 C99.7034765,187.195033 104.051225,190.212388 104.872649,194.75617" id="Fill-234" fill="#E9E6EC"></path>
                <path d="M96.3798954,193.557675 C96.1868737,193.557675 95.9912553,193.574125 95.7947714,193.609623 C94.0142977,193.931705 92.8276038,195.643416 93.1495952,197.424391 C93.470721,199.204501 95.1758901,200.392395 96.9624227,200.070313 C98.7428964,199.74823 99.9295903,198.038252 99.6075989,196.256411 L99.6084645,196.256411 C99.3219614,194.671975 97.9361869,193.557675 96.3798954,193.557675 Z M96.3764331,201.470331 C94.1822179,201.470331 92.2286307,199.898016 91.8244104,197.663355 C91.3708527,195.1525 93.0439959,192.739482 95.5558746,192.284931 C98.0660221,191.829514 100.47836,193.50486 100.932784,196.017447 C101.386341,198.529167 99.7123327,200.941319 97.2013195,201.395871 C96.9243377,201.446088 96.6482215,201.470331 96.3764331,201.470331 Z" id="Fill-235" fill="#CFC9D4"></path>
                <path d="M10.4250793,72.7282089 C2.19439205,82.422706 7.90627607,95.5536109 9.09816337,97.8826452 C10.2891851,100.210814 17.2847066,111.666372 29.7307106,110.456833 L23.889857,99.0419675 C23.889857,99.0419675 17.9390761,97.5103461 14.4906528,90.772597 C11.0430949,84.0339821 13.6995235,79.1274255 13.6995235,79.1274255 L10.4250793,72.7282089" id="Fill-236" fill="#DAD5DF"></path>
                <path d="M72.6389365,182.446504 C70.0656025,183.765136 66.9106067,182.746075 65.593212,180.17115 L23.0808338,97.0921589 C21.7634391,94.5172339 22.7822128,91.362215 25.3555468,90.0444491 L72.6389365,182.446504" id="Fill-237" fill="#E9E6EC"></path>
                <path d="M73.2504333,182.21978 L77.2614759,180.166074 C83.5039532,176.970361 85.9734191,169.318315 82.7786071,163.074944 L76.3638818,150.537987 C59.3848976,117.358339 39.9745325,97.5728026 32.5765218,90.7320219 C30.7813335,89.0713945 28.1439474,88.7025586 25.9670436,89.8177245 L73.2504333,182.21978" id="Fill-238" fill="#7B6686"></path>
                <path d="M21.0636002,80.8968697 L25.890008,78.4258422 C29.2181175,76.7219241 30.5346466,72.642218 28.8312085,69.3140366 C26.2241173,64.2178671 22.8250313,59.5684566 18.7620546,55.5372359 L8.81927357,45.6747713 C7.21191357,44.0808114 4.7623558,43.6998541 2.74731321,44.731902 L2.59670436,44.8089593 L21.0636002,80.8968697" id="Fill-239" fill="#7B6686"></path>
                <path d="M101.168467,219.988979 L93.1282051,219.988979 C91.8895772,219.988979 90.8846526,218.983771 90.8846526,217.744794 L90.8846526,201.734198 L103.41202,201.734198 L103.41202,217.744794 C103.41202,218.983771 102.407095,219.988979 101.168467,219.988979" id="Fill-240" fill="#CFC9D4"></path>
                <path d="M354.508585,284.618382 C315.028292,244.513104 260.248217,242.427363 252.095431,242.427363 C238.177095,258.215445 239.82254,277.121316 239.82254,288.792462 L355.152568,288.792462 L355.152568,286.195026 C355.152568,285.60714 354.922327,285.038301 354.508585,284.618382" id="Fill-241" fill="#E9E6EC"></path>
                <path d="M354.309923,293.059184 L64.5644572,293.059184 C63.3258292,293.059184 62.3209046,292.053976 62.3209046,290.814999 L62.3209046,283.633088 C62.3209046,282.393245 63.3258292,281.388903 64.5644572,281.388903 L329.104579,281.388903 C330.344073,281.388903 331.348132,282.393245 331.348132,283.633088 L331.348132,288.869519 L355.207517,288.869519 C355.95104,288.869519 356.553476,289.47299 356.553476,290.216723 L356.553476,290.814999 C356.553476,292.053976 355.548551,293.059184 354.309923,293.059184" id="Fill-242" fill="#CFC9D4"></path>
                <path d="M98.1381134,289.725807 L43.1182759,289.725807 C42.2509766,289.725807 41.5472698,289.021902 41.5472698,288.154358 C41.5472698,287.286815 42.2509766,286.583775 43.1182759,286.583775 L98.1381134,286.583775 L98.1381134,289.725807" id="Fill-243" fill="#E9E6EC"></path>
                <path d="M127.824503,285.746535 L89.5966872,281.597564 C88.310453,281.458168 87.0172942,281.388903 85.7232699,281.388903 L67.8605406,281.388903 C67.1914564,281.388903 66.6487452,281.930902 66.6487452,282.600174 L66.6487452,282.735241 L109.664884,287.045253 C110.854175,287.164735 112.047793,287.223611 113.243143,287.223611 L129.025912,287.223611 L129.025912,287.085946 C129.025912,286.398492 128.508302,285.820995 127.824503,285.746535" id="Fill-244" fill="#776681"></path>
                <path d="M109.664884,287.43054 L66.6487452,283.120527 L66.6487452,291.200285 C66.6487452,292.439262 67.6536698,293.44447 68.8931634,293.44447 L126.781494,293.44447 C128.020987,293.44447 129.025912,292.439262 129.025912,291.200285 L129.025912,287.608897 L113.243143,287.608897 C112.047793,287.608897 110.854175,287.550022 109.664884,287.43054" id="Fill-245" fill="#B7AEBF"></path>
                <path d="M141.390697,157.783363 C142.618938,155.463852 141.735193,152.588491 139.417202,151.359903 L107.285582,134.331979 C99.6832972,130.303355 93.2495293,124.319729 88.6801952,117.029591 L69.3650426,86.2118787 C67.971478,83.9884735 65.0397988,83.3166033 62.8170198,84.7096949 C60.5942409,86.1053838 59.92256,89.0378891 61.3161247,91.2595627 L80.6312773,122.07641 C86.085222,130.778686 93.7645424,137.920769 102.837427,142.728623 L134.969047,159.757414 C137.287039,160.986001 140.16159,160.102873 141.390697,157.783363" id="Fill-246" fill="#FDC5C5"></path>
                <path d="M154.352692,149.878594 C155.348961,150.922763 156.152209,152.123644 156.735601,153.449202 L158.765359,158.065712 C159.153133,158.945377 158.754106,159.973096 157.872092,160.36098 C157.779477,160.401673 157.685995,160.432842 157.590783,160.457085 C157.273119,160.536739 157.005659,160.752327 156.861109,161.048434 C156.715693,161.34281 156.707903,161.688269 156.841201,161.98784 L156.881882,162.083945 C157.270523,162.964476 156.87063,163.992195 155.988616,164.380079 C155.206143,164.724672 154.306817,164.446746 153.84547,163.762755 C153.787476,163.67704 153.736408,163.584398 153.693995,163.486561 C153.642061,163.367079 153.529537,163.289156 153.401433,163.279632 C153.273329,163.270974 153.152149,163.335044 153.085501,163.44327 C152.908059,163.73072 152.646658,163.969684 152.31428,164.116006 C151.433131,164.50389 150.409164,164.099556 150.017062,163.223354 C149.961665,163.095214 149.841351,163.008633 149.702861,162.99478 C149.56437,162.981792 149.429341,163.044131 149.349709,163.157552 C149.200831,163.371408 148.990498,163.547168 148.729962,163.654528 C148.002885,163.955831 147.175402,163.60864 146.86899,162.880492 L145.498796,159.558372 C145.335204,159.162696 145.019271,158.851869 144.622841,158.695157 C144.225545,158.540177 143.78324,158.551432 143.3946,158.727192 C139.565327,160.469206 135.778466,160.485656 134.116575,158.514203 C132.011514,156.019798 134.103592,151.28727 138.792374,147.943504 C147.758795,141.552945 147.399584,142.601444 154.352692,149.878594" id="Fill-247" fill="#FDC5C5"></path>
                <path d="M133.643718,146.938688 C134.045341,147.151678 134.198547,147.64952 133.985617,148.052122 L129.320205,156.860028 C129.107275,157.261765 128.608708,157.415879 128.207084,157.202889 L123.776241,154.854807 L129.212874,144.590606 L133.643718,146.938688" id="Fill-248" fill="#488FD6"></path>
                <path d="M59.9001861,91.890337 C57.9379432,88.7457078 58.7965868,84.4850469 62.0684342,82.4287434 C65.279692,80.4261202 69.5209758,81.3949639 71.5282282,84.5976025 L90.8433808,115.410986 C95.2214244,122.391163 101.376479,128.115912 108.65331,131.971372 L129.13698,142.826923 C129.651993,143.099654 129.848477,143.739489 129.575823,144.254647 L124.13919,154.518849 C123.866536,155.033141 123.226881,155.22968 122.712733,154.95695 L102.228198,144.100533 C92.8255318,139.118651 84.8683641,131.722884 79.2153387,122.704587 L59.9001861,91.890337" id="Fill-249" fill="#5CADE3"></path>
                <path d="M221.194202,147.188042 C224.346601,157.780386 224.703215,161.783901 224.703215,172.383171 C224.703215,222.576891 192.516199,228.371771 192.516199,228.371771 C191.839325,228.371771 191.290554,227.822846 191.290554,227.145781 L191.290554,152.493738 L221.194202,147.188042" id="Fill-250" fill="#E9E3E8"></path>
                <path d="M146.766998,187.542608 C144.262044,190.019696 142.58717,193.292466 142.10072,196.831905 C141.42298,201.762704 143.10651,206.820778 146.606002,210.361949 L191.8605,256.151283 C194.115305,258.431832 197.791373,258.452612 200.07128,256.198037 C202.352052,253.942597 202.372825,250.265493 200.118886,247.984944 L154.863522,202.19561 C153.88543,201.206853 153.415427,199.792982 153.604986,198.414609 C153.794546,197.035371 154.628088,195.798991 155.837286,195.112402 L211.76597,163.236667 C214.551369,161.653963 215.523402,158.104134 213.93595,155.317085 C212.348498,152.52917 208.803131,151.557729 206.017733,153.145628 L150.089048,185.020498 C148.868597,185.715745 147.75288,186.567704 146.766998,187.542608" id="Fill-251" fill="#FFA898"></path>
                <path d="M190.641695,245.362443 C194.393933,242.611759 199.012604,245.192744 201.431001,246.989304 C203.848533,248.78673 210.884736,253.666446 206.893602,256.592891 C202.901602,259.519336 186.422916,271.599145 186.422916,271.599145 C186.422916,271.599145 184.960106,272.393094 183.284366,270.107351 C181.610357,267.821607 183.608088,265.967038 184.407008,264.767888 C185.205927,263.567873 186.994191,260.639696 187.703091,255.882059 C188.411991,251.123557 187.844179,247.413552 190.641695,245.362443" id="Fill-252" fill="#FFA898"></path>
                <path d="M182.582833,271.166608 C184.296658,273.523348 185.61838,273.522483 185.976726,273.456681 L186.077997,273.435036 L186.945296,274.618601 C187.419628,275.266228 188.333668,275.40649 188.981113,274.932025 L209.289072,260.045253 C209.807547,259.665161 210.016149,259.001949 209.806681,258.395881 C209.608466,257.821848 209.372166,257.104955 209.153178,256.466852 C208.974871,255.955157 208.819068,255.493679 208.724721,255.22268 C207.691233,252.184546 204.15885,248.097047 201.802773,247.703103 C201.802773,247.703103 201.091276,247.322145 199.873422,248.213932 C198.707501,249.069354 198.342232,250.108328 198.015913,251.252066 C197.548506,252.864208 197.188429,254.659036 194.847068,256.376807 C192.471083,258.11709 190.643869,257.872931 189.28233,257.498034 C188.361366,257.242619 187.655928,256.922269 187.163419,257.125735 C185.762065,259.266888 185.128469,262.689443 183.676911,264.853107 C183.56785,265.024538 183.434552,265.200298 183.290868,265.397703 C182.581102,266.323256 181.411719,267.888644 181.874798,269.733689 C182.000306,270.19257 182.221026,270.67223 182.582833,271.166608" id="Fill-253" fill="#7B5E74"></path>
                <path d="M181.874798,269.818624 C185.897093,266.609059 188.664315,259.330177 189.28233,257.582969 C188.361366,257.327554 187.655928,257.007204 187.163419,257.21067 C185.762065,259.351823 185.128469,262.774378 183.676911,264.938042 C183.56785,265.109473 183.434552,265.285232 183.290868,265.482638 C182.581102,266.408191 181.411719,267.973579 181.874798,269.818624" id="Fill-254" fill="#8C7185"></path>
                <path d="M186.097146,273.270184 L186.198417,273.248539 L187.065716,274.432104 C187.540048,275.079731 188.454088,275.219993 189.101533,274.745528 L209.409492,259.858756 C209.927967,259.478665 210.136569,258.815453 209.927102,258.209384 C209.728887,257.635351 209.492586,256.918459 209.273598,256.280355 L186.097146,273.270184" id="Fill-255" fill="#5A3C55"></path>
                <path d="M204.592605,259.956074 L209.352364,256.466852 C209.174057,255.955157 209.018255,255.493679 208.923908,255.22268 C207.89042,252.184546 204.358036,248.097047 202.00196,247.703103 C202.00196,247.703103 201.290463,247.322145 200.072609,248.213932 C198.906688,249.069354 198.541419,250.108328 198.215099,251.252066 C198.215099,251.252066 204.211755,253.112696 204.592605,259.956074" id="Fill-256" fill="#8C7185"></path>
                <path d="M214.450369,154.829316 C215.920969,157.399046 215.476933,160.644109 213.374468,162.722058 C212.969382,163.122929 212.504572,163.464059 212.002542,163.75324 L156.074724,195.628975 C155.789952,195.791748 155.535475,195.983958 155.302637,196.214264 C154.709723,196.800419 154.317621,197.575321 154.207693,198.395245 C154.051891,199.545043 154.448321,200.726876 155.264552,201.552861 L196.424913,243.197553 C196.684583,243.46076 196.681987,243.893666 196.418854,244.154275 L188.071315,252.408927 C187.808182,252.668671 187.375398,252.666939 187.115728,252.403732 L145.955367,210.758174 C142.297476,207.055962 140.528255,201.766717 141.24408,196.60388 C141.742647,192.964006 143.479842,189.50855 146.122422,186.89553 C147.165431,185.864348 148.335679,184.973427 149.600274,184.2574 L205.528958,152.381665 C207.041971,151.509793 208.812058,151.287279 210.495588,151.760012 C212.180849,152.217161 213.584801,153.308084 214.450369,154.829316" id="Fill-257" fill="#484E51"></path>
                <path d="M182.634873,248.170294 L191.944058,238.964115 L196.381826,243.454216 C196.641497,243.717423 196.6389,244.150329 196.375767,244.410938 L188.028228,252.66559 C187.765096,252.925334 187.332311,252.923602 187.072641,252.660395 L182.634873,248.170294" id="Fill-258" fill="#69BDBF"></path>
                <path d="M203.547341,68.4055512 C202.83844,69.6826239 201.487288,70.5553624 199.924072,70.5813367 L165.863101,71.1519069 C156.28559,71.3120821 146.795501,68.9380255 138.420264,64.2860176 L108.637796,47.7438133 C106.599383,46.612197 105.864516,44.0407354 106.996679,42.0008823 C108.127977,39.961895 110.698714,39.2268206 112.737127,40.3593027 L142.519595,56.9006412 C149.600808,60.8340251 157.623758,62.8409774 165.722014,62.7050449 L199.782119,62.1362064 C202.11396,62.096379 204.035521,63.9561432 204.075337,66.287775 C204.087455,67.0557502 203.894433,67.7795691 203.547341,68.4055512" id="Fill-259" fill="#F79A8C"></path>
                <path d="M138.195316,66.1236446 L115.566769,53.5546517 C115.147834,53.3217482 114.997225,52.7944687 115.230063,52.3762815 L120.026176,43.7372093 C120.258148,43.3181563 120.785279,43.167505 121.203349,43.3995426 L143.831896,55.9685355 C150.671615,59.7668528 158.421912,61.7045401 166.247514,61.5703393 L200.299829,61.0015008 C201.855255,60.9833187 203.324124,61.5573521 204.439841,62.6361538 C205.554693,63.7158214 206.177902,65.1599958 206.209928,66.711531 C206.222912,67.7331891 205.966703,68.7392627 205.475061,69.6249884 C204.470136,71.4345355 202.56329,72.5851997 200.492851,72.6181005 L166.440535,73.186939 C156.580849,73.3523091 146.815509,70.9107192 138.195316,66.1236446" id="Fill-260" fill="#E1D9DF"></path>
                <polyline id="Fill-261" fill="#D6CBD3" points="121.90748 57.5037705 117.717264 55.1764678 123.354709 45.0222245 127.544059 47.3486614 121.90748 57.5037705"></polyline>
                <path d="M245.125429,206.476251 L212.929757,206.476251 L212.929757,201.70909 L245.125429,201.70909 C249.078479,201.70909 252.29493,198.491732 252.29493,194.537569 L252.29493,139.395734 L257.061614,139.395734 L257.061614,194.537569 C257.061614,201.121204 251.707209,206.476251 245.125429,206.476251" id="Fill-262" fill="#E2DFE6"></path>
                <path d="M260.904736,160.455745 L260.351638,160.455745 C259.975981,160.455745 259.670436,160.150113 259.670436,159.774351 L259.670436,153.929254 C259.670436,153.552626 259.975981,153.248726 260.351638,153.248726 L260.904736,153.248726 C261.281258,153.248726 261.585938,153.552626 261.585938,153.929254 L261.585938,159.774351 C261.585938,160.150113 261.281258,160.455745 260.904736,160.455745" id="Fill-263" fill="#503955"></path>
                <polygon id="Fill-264" fill="#978AA0" points="257.073732 158.612431 259.859995 158.612431 259.859995 155.846162 257.073732 155.846162"></polygon>
                <path d="M203.694146,190.479508 L203.694146,190.478642 L201.21689,190.478642 L194.044792,195.200781 C193.152392,195.786936 192.117172,196.098628 191.050792,196.098628 L186.097146,196.098628 L186.097146,198.822473 L191.050792,198.822473 C192.650362,198.822473 194.203191,198.357532 195.54136,197.476135 L203.694146,192.109832 L203.694146,190.479508" id="Fill-265" fill="#503955"></path>
                <path d="M186.458953,195.523729 C186.458953,195.128053 186.137827,194.807702 185.742263,194.807702 L180.189643,194.807702 C179.906603,194.807702 179.639142,194.970475 179.536139,195.233682 C178.849744,196.986085 177.148037,198.226794 175.154634,198.226794 L168.636906,198.226794 C168.241341,198.226794 167.920215,198.547144 167.920215,198.942821 C167.920215,199.338497 168.241341,199.660579 168.636906,199.660579 L185.742263,199.660579 C186.137827,199.660579 186.458953,199.338497 186.458953,198.942821 L186.458953,195.523729" id="Fill-266" fill="#978AA0"></path>
                <path d="M255.056958,128.140178 L217.396955,128.140178 C213.495839,128.140178 210.333053,131.302989 210.333053,135.205204 C210.333053,139.107418 213.495839,142.271095 217.396955,142.271095 L255.056958,142.271095 C257.771379,142.271095 259.971654,140.070201 259.971654,137.354149 L259.971654,133.055392 C259.971654,130.341072 257.771379,128.140178 255.056958,128.140178" id="Fill-267" fill="#7B6686"></path>
                <polygon id="Fill-268" fill="#B3AABB" points="204.274076 195.416368 210.061265 195.416368 210.061265 190.478642 204.274076 190.478642"></polygon>
                <path d="M211.4782,195.673514 L202.173342,195.673514 C201.421164,195.673514 200.811804,196.283912 200.811804,197.036302 L200.811804,208.158524 C200.811804,208.910914 201.421164,209.521312 202.173342,209.521312 L211.4782,209.521312 C212.230378,209.521312 212.839738,208.910914 212.839738,208.158524 L212.839738,197.036302 C212.839738,196.283912 212.230378,195.673514 211.4782,195.673514" id="Fill-269" fill="#503955"></path>
                <polygon id="Fill-270" fill="#B3AABB" points="202.54294 243.839502 211.961187 243.839502 211.961187 209.526507 202.54294 209.526507"></polygon>
                <path d="M147.14658,281.491069 L147.14658,284.227035 C147.770655,283.808848 148.49427,283.527459 149.274147,283.427025 L149.274147,281.388903 L147.14658,281.491069" id="Fill-271" fill="#978AA0"></path>
                <path d="M144.549876,288.115397 C144.549876,290.873008 146.785638,293.109401 149.543338,293.109401 C152.300173,293.109401 154.535935,290.873008 154.535935,288.115397 C154.535935,285.35692 152.300173,283.120527 149.543338,283.120527 C149.323484,283.120527 149.107958,283.135246 148.895894,283.162952 C148.116017,283.263386 147.392402,283.544775 146.768327,283.962963 C145.431024,284.859078 144.549876,286.384639 144.549876,288.115397" id="Fill-272" fill="#503955"></path>
                <path d="M199.476232,278.590599 L199.476232,271.864971 L147.466841,274.364571 C145.834379,274.442494 144.549876,275.790563 144.549876,277.425216 L144.549876,280.515299 C144.549876,280.904049 144.87533,281.214009 145.26397,281.195827 L146.768327,281.123099 L148.895894,281.020933 L199.476232,278.590599" id="Fill-273" fill="#D2CDD7"></path>
                <path d="M212.69692,243.293175 L200.441341,243.293175 C199.690028,243.293175 199.080668,243.903572 199.080668,244.655963 L199.080668,278.593196 L214.058458,278.593196 L214.058458,244.655963 C214.058458,243.903572 213.449098,243.293175 212.69692,243.293175" id="Fill-274" fill="#E2DFE6"></path>
                <path d="M247.675393,262.341039 L165.635115,262.341039 C164.50728,262.341039 163.592375,263.254471 163.592375,264.38349 C163.592375,265.512509 164.50728,266.426806 165.635115,266.426806 L247.675393,266.426806 C248.803228,266.426806 249.718134,265.512509 249.718134,264.38349 C249.718134,263.254471 248.803228,262.341039 247.675393,262.341039" id="Fill-275" fill="#D2CDD7"></path>
                <path d="M170.51692,281.568127 L170.51692,284.385479 C171.140994,283.967292 171.864609,283.685903 172.644486,283.585468 L172.644486,281.388903 L170.51692,281.568127" id="Fill-276" fill="#978AA0"></path>
                <path d="M167.920215,288.115397 C167.920215,290.873008 170.155112,293.109401 172.912812,293.109401 C175.669647,293.109401 177.905409,290.873008 177.905409,288.115397 C177.905409,285.35692 175.669647,283.120527 172.912812,283.120527 C172.692958,283.120527 172.477431,283.135246 172.265367,283.162952 C171.48549,283.263386 170.761875,283.544775 170.137801,283.962963 C168.800498,284.859078 167.920215,286.384639 167.920215,288.115397" id="Fill-277" fill="#503955"></path>
                <path d="M199.132602,278.590599 L199.132602,271.864971 L170.725522,274.2676 C169.138935,274.400935 167.920215,275.728224 167.920215,277.320453 L167.920215,280.488459 C167.920215,280.886732 168.260384,281.201022 168.657679,281.16639 L170.137801,281.041713 L172.265367,280.86249 L199.132602,278.590599" id="Fill-278" fill="#E2DFE6"></path>
                <path d="M208.132779,283.290227 L208.132779,281.388903 L206.005213,281.388903 L206.005213,283.290227 C206.347977,283.215767 206.703726,283.175939 207.068996,283.175939 C207.4334,283.175939 207.790014,283.215767 208.132779,283.290227" id="Fill-279" fill="#978AA0"></path>
                <path d="M210.04655,281.188035 C210.423072,281.188035 210.727752,280.882403 210.727752,280.507507 L210.727752,278.123926 C210.727752,276.102255 209.088366,274.462407 207.06813,274.462407 C205.047029,274.462407 203.408508,276.102255 203.408508,278.123926 L203.408508,280.507507 C203.408508,280.882403 203.713188,281.188035 204.08971,281.188035 L210.04655,281.188035" id="Fill-280" fill="#EEECF0"></path>
                <path d="M207.734618,283.234815 C207.391853,283.160355 207.035239,283.120527 206.670834,283.120527 C206.305565,283.120527 205.949816,283.160355 205.607051,283.234815 C203.360902,283.723133 201.677372,285.722293 201.677372,288.115397 C201.677372,290.873008 203.913134,293.109401 206.670834,293.109401 C209.428534,293.109401 211.663431,290.873008 211.663431,288.115397 C211.663431,285.722293 209.980767,283.723133 207.734618,283.234815" id="Fill-281" fill="#503955"></path>
                <path d="M266.991411,281.491069 L266.991411,284.227035 C266.367336,283.808848 265.643722,283.527459 264.863845,283.427025 L264.863845,281.388903 L266.991411,281.491069" id="Fill-282" fill="#978AA0"></path>
                <path d="M269.65563,288.115397 C269.65563,290.873008 267.419867,293.109401 264.663033,293.109401 C261.905333,293.109401 259.670436,290.873008 259.670436,288.115397 C259.670436,285.35692 261.905333,283.120527 264.663033,283.120527 C264.882022,283.120527 265.098414,283.135246 265.310478,283.162952 C266.090355,283.263386 266.81397,283.544775 267.438044,283.962963 C268.775347,284.859078 269.65563,286.384639 269.65563,288.115397" id="Fill-283" fill="#503955"></path>
                <path d="M214.660894,278.590599 L214.660894,271.864971 L266.66942,274.364571 C268.302747,274.442494 269.586384,275.790563 269.586384,277.425216 L269.586384,280.515299 C269.586384,280.904049 269.260931,281.214009 268.873156,281.195827 L267.368799,281.123099 L265.241232,281.020933 L214.660894,278.590599" id="Fill-284" fill="#D2CDD7"></path>
                <path d="M243.621072,281.568127 L243.621072,284.385479 C242.996997,283.967292 242.273382,283.685903 241.493505,283.585468 L241.493505,281.388903 L243.621072,281.568127" id="Fill-285" fill="#978AA0"></path>
                <path d="M245.419722,288.115397 C245.419722,290.873008 243.18396,293.109401 240.427126,293.109401 C237.669425,293.109401 235.434529,290.873008 235.434529,288.115397 C235.434529,285.35692 237.669425,283.120527 240.427126,283.120527 C240.646114,283.120527 240.862506,283.135246 241.07457,283.162952 C241.854447,283.263386 242.578062,283.544775 243.202137,283.962963 C244.53944,284.859078 245.419722,286.384639 245.419722,288.115397" id="Fill-286" fill="#503955"></path>
                <path d="M214.660894,278.590599 L214.660894,271.864971 L243.067974,274.2676 C244.653695,274.400935 245.87328,275.728224 245.87328,277.320453 L245.87328,280.488459 C245.87328,280.886732 245.532246,281.201022 245.134951,281.16639 L243.655695,281.041713 L241.528128,280.86249 L214.660894,278.590599" id="Fill-287" fill="#E2DFE6"></path>
                <path d="M234.741209,172.29659 L178.31742,172.29659 C173.053034,172.29659 168.785783,176.565909 168.785783,181.830912 L168.785783,188.074282 C168.785783,189.578198 170.004503,190.797261 171.508861,190.797261 L241.549767,190.797261 C243.053259,190.797261 244.272845,189.578198 244.272845,188.074282 L244.272845,181.830912 C244.272845,176.565909 240.005594,172.29659 234.741209,172.29659" id="Fill-288" fill="#877494"></path>
                <path d="M129.993883,274.709859 C129.66237,271.814584 128.281789,266.907161 123.007017,265.863858 C120.555728,265.591127 117.811877,266.208451 114.992722,268.683808 C109.800179,273.245771 103.211474,275.276966 96.8028076,274.290806 C95.2586341,274.052708 93.7914962,275.263113 93.5249012,276.993871 L93.52317,277.003395 C93.2565751,278.734153 94.2926601,280.328979 95.8368336,280.567943 C129.264209,285.715196 120.894165,284.426867 125.674698,285.162808 C131.643656,286.0823 130.334051,277.678729 129.993883,274.709859" id="Fill-289" fill="#FFA898"></path>
                <path d="M180.286579,158.444489 C179.302428,158.427173 178.3001,158.661808 177.377404,159.174369 L131.624339,184.560843 C122.297842,189.736667 116.391205,199.579218 116.209436,210.247754 L115.121417,274.123901 C115.066886,277.330002 117.621178,279.975058 120.827242,280.029604 C124.033306,280.08415 126.676751,277.528273 126.731282,274.321306 L127.819301,210.445159 C127.93096,203.913473 131.547303,197.88569 137.258322,194.715952 L183.010521,169.330344 C185.814097,167.77448 186.825946,164.239369 185.27052,161.435004 C184.22751,159.553595 182.292965,158.479122 180.286579,158.444489" id="Fill-290" fill="#FFA898"></path>
                <path d="M130.429098,281.623494 C130.273296,282.635628 130.032668,283.506635 129.687306,284.084132 L128.528311,285.850388 L127.257657,287.790673 C126.938262,288.276394 126.377374,288.520552 125.813889,288.433105 L95.8072391,283.812267 C95.1606597,283.712698 94.6612269,283.208796 94.5789979,282.566363 L94.3227897,280.624347 L94.1825677,280.559411 C93.3092095,280.125639 92.3596813,278.38882 92.6790759,276.311737 C92.8028521,275.507398 93.137827,274.78964 93.5983092,274.219936 C94.4231957,273.235507 95.6488401,272.697838 96.911704,272.893512 C101.847173,273.653694 106.931521,272.5342 111.316489,269.791307 C111.316489,269.791307 111.377078,269.746285 111.492199,269.690007 C111.830636,269.507321 112.631287,269.159264 113.538402,269.300392 C114.770105,269.489139 115.36302,270.285686 115.850334,271.280504 L115.849469,271.290028 C116.811981,273.223386 117.418744,275.869307 121.772552,276.176671 C124.847049,276.393989 125.065173,274.355002 128.134477,273.909109 C128.748165,273.812138 129.478705,273.784432 130.376299,273.847636 C130.565858,273.866684 130.635104,274.112575 130.649818,274.296127 C130.72945,276.413037 130.77446,279.379309 130.429098,281.623494" id="Fill-291" fill="#7B5E74"></path>
                <path d="M115.733382,271.280504 L115.732517,271.290028 C111.419391,275.64766 104.381456,275.92039 101.018724,275.840736 C98.1978376,275.780129 94.5866874,274.604356 93.4813569,274.219936 C94.3062434,273.235507 95.5318878,272.697838 96.7947517,272.893512 C101.730221,273.653694 106.814568,272.5342 111.199536,269.791307 C111.199536,269.791307 111.260126,269.746285 111.375247,269.690007 C111.713684,269.507321 112.514334,269.159264 113.42145,269.300392 C114.653153,269.489139 115.246067,270.285686 115.733382,271.280504" id="Fill-292" fill="#85697E"></path>
                <path d="M129.058803,285.046499 C128.474545,285.71404 128.362021,286.520977 126.372945,286.256904 C127.794208,281.468098 127.950011,277.964157 127.863454,275.990971 C127.846142,275.585771 127.997617,275.190961 128.281523,274.90178 C128.56543,274.611733 128.957532,274.453289 129.362618,274.462813 C129.559102,274.468008 129.763376,274.478398 129.978037,274.493117 C130.167596,274.512164 130.236842,274.758055 130.251556,274.941607 C130.367542,278.20745 130.418611,283.493232 129.058803,285.046499" id="Fill-293" fill="#85697E"></path>
                <path d="M94.3469251,281.388903 L128.692668,286.679881 L127.422014,288.620165 C127.102619,289.105886 126.541731,289.350045 125.978246,289.262598 L95.9715964,284.641759 C95.325017,284.542191 94.8255842,284.038288 94.7433553,283.395856 L94.4871471,281.453839 L94.3469251,281.388903" id="Fill-294" fill="#5A3C55"></path>
                <path d="M184.006889,169.850694 L138.249496,195.236302 C132.770449,198.279631 129.304715,204.071048 129.19825,210.331735 L128.208905,268.389625 C128.202846,268.758461 127.891242,269.059763 127.521644,269.052837 L115.785406,268.8537 C115.415808,268.846774 115.114591,268.535081 115.12065,268.166245 L116.109994,210.109221 C116.296091,199.181808 122.348144,189.094232 131.898822,183.796328 L177.65535,158.409854 C178.657678,157.847076 179.792437,157.559627 180.932391,157.578675 C183.265097,157.618502 185.41863,158.912891 186.554256,160.959671 C188.306165,164.115555 187.161884,168.10868 184.006889,169.850694" id="Fill-295" fill="#484E51"></path>
                <path d="M115.228846,261.475227 L128.316236,261.698607 L128.208905,268.012108 C128.202846,268.380944 127.891242,268.682246 127.521644,268.67532 L115.785406,268.476183 C115.415808,268.469257 115.114591,268.157564 115.12065,267.788728 L115.228846,261.475227" id="Fill-296" fill="#69BDBF"></path>
                <path d="M186.964661,61.0806155 L186.963795,61.0762864 C186.930038,60.2606915 187.685679,59.7299488 189.39431,59.7412043 L190.996477,60.5957608 L191.079571,61.018277 C189.806321,60.9897052 188.434395,61.004424 186.964661,61.0806155" id="Fill-297" fill="#69BDBF"></path>
                <path d="M184.616534,60.9613333 C185.238012,64.1076941 183.190943,67.1622789 180.045469,67.7839319 C176.899994,68.4055849 173.845404,66.3579395 173.224792,63.2115787 C172.603314,60.0652178 174.650383,57.0097673 177.795857,56.38898 C180.941332,55.767327 183.995056,57.8149724 184.616534,60.9613333" id="Fill-298" fill="#FFA898"></path>
                <path d="M181.330084,74.05498 C181.063489,74.1233792 180.798625,74.1709989 180.534626,74.2056313 C177.250661,74.626416 174.096531,72.5380774 173.262123,69.2445285 L167.259408,45.5091581 C166.359217,41.9532681 168.51102,38.3402346 172.067639,37.4397901 C175.655419,36.523761 179.235409,38.6934859 180.136465,42.2502416 L186.13918,65.9847463 C187.039371,69.541502 184.885837,73.1562672 181.330084,74.05498" id="Fill-299" fill="#FFA898"></path>
                <path d="M214.04585,157.065602 C214.667328,160.212829 212.621125,163.267414 209.474785,163.889067 C206.32931,164.51072 203.275586,162.46394 202.654108,159.316713 C202.03263,156.169487 204.079699,153.115768 207.225173,152.494115 C210.371513,151.872462 213.424372,153.920107 214.04585,157.065602" id="Fill-300" fill="#FFA898"></path>
                <path d="M186.348294,163.127151 C186.968906,166.274377 184.922703,169.328962 181.776363,169.950615 C178.630888,170.571402 175.577164,168.523757 174.955686,165.378262 C174.335074,162.231035 176.381277,159.175585 179.526751,158.554797 C182.673091,157.933144 185.726816,159.98079 186.348294,163.127151" id="Fill-301" fill="#FFA898"></path>
                <path d="M203.984412,65.7448704 C204.436239,68.0340774 202.947461,70.2548852 200.659765,70.706839 C198.372068,71.1587929 196.151021,69.6704621 195.699194,67.3821209 C195.247367,65.092914 196.736145,62.8712403 199.023841,62.4192865 C201.311538,61.9673326 203.532586,63.4565293 203.984412,65.7448704" id="Fill-302" fill="#FFA898"></path>
                <path d="M165.898584,73.5371785 C166.350411,75.8255197 164.862499,78.0471933 162.574802,78.4991471 C160.287106,78.951101 158.066058,77.4619044 157.614232,75.1735632 C157.162405,72.8852221 158.650317,70.6635484 160.938013,70.2115946 C163.226575,69.7596407 165.446757,71.2488374 165.898584,73.5371785" id="Fill-303" fill="#FFA898"></path>
                <path d="M204.428027,68.196682 C205.14039,65.9750084 203.917342,63.5966228 201.69716,62.8840595 C201.318041,62.7628459 192.265064,59.9394329 178.628904,62.6329741 L178.627173,62.6329741 C165.973433,65.1334391 159.253162,71.1508326 158.972718,71.4062472 C157.248506,72.9768301 157.123864,75.6478602 158.694005,77.3725577 C159.214211,77.9431278 159.868581,78.3509253 160.580943,78.5691099 C162.025576,79.010674 162.906725,80.4721647 162.619356,81.9561665 L162.618491,81.9596298 C162.225523,83.9882273 161.104612,85.7969086 159.463495,87.0532018 C156.73609,89.1406746 155.269817,92.6593346 155.980449,96.2576493 C156.833033,100.57632 160.540262,103.593674 164.752116,103.759045 C167.1809,110.126226 172.952508,117.664851 171.349476,128.164554 C170.848312,131.445981 170.380905,134.069391 170.02256,136.437387 C168.905112,141.56386 169.180362,147.685151 170.49516,154.344111 C174.390217,174.075967 182.588013,173.281152 202.854425,169.277637 C202.854425,169.277637 223.726734,166.031708 220.034221,148.778672 C219.27858,145.24789 217.159669,140.640039 215.566158,137.786322 C211.28852,130.123886 206.819592,127.232074 204.082666,124.554983 C198.596695,119.191278 196.807566,111.042255 199.607679,103.832639 C200.910359,100.478483 201.985394,96.1286433 202.750556,90.4463191 C203.499273,84.8774162 203.360782,80.3751938 202.50387,76.7950611 C201.886719,74.2123439 202.389615,71.485036 203.89051,69.2945317 C204.118154,68.961194 204.300789,68.5923581 204.428027,68.196682" id="Fill-304" fill="#FFA898"></path>
                <path d="M209.491017,164.487685 C213.032056,163.788109 215.343123,160.336982 214.64461,156.795811 C213.945231,153.255506 210.495942,150.942922 206.954902,151.641632 C203.413863,152.341209 201.102796,155.791469 201.802175,159.332641 C202.501554,162.874677 205.950843,165.187261 209.491017,164.487685" id="Fill-305" fill="#73FFC4"></path>
                <path d="M181.792837,170.548643 C185.333876,169.849067 187.644943,166.398806 186.94643,162.857635 C186.247051,159.315598 182.797762,157.003014 179.256723,157.70259 C175.715683,158.402166 173.404617,161.853293 174.103996,165.394464 C174.803375,168.934769 178.252664,171.248219 181.792837,170.548643" id="Fill-306" fill="#73FFC4"></path>
                <path d="M169.101102,154.113504 C173.125994,174.499914 182.202342,173.600335 202.324204,169.626258 C202.33459,169.62366 202.502511,169.602015 202.793342,169.544006 C205.330322,169.0427 213.924548,166.904145 218.180546,160.445187 C220.439679,157.007048 221.082796,152.908294 220.087393,148.250225 C219.311844,144.593035 217.153982,139.92804 215.541429,137.050947 C213.955708,134.216278 212.342289,132.020579 210.799847,130.244798 C210.544504,129.951288 210.151536,129.817087 209.770686,129.892413 L168.873458,137.970439 C168.494339,138.045765 168.205239,138.358323 168.16023,138.742743 C167.647814,143.140203 167.953359,148.299576 169.101102,154.113504" id="Fill-307" fill="#54939B"></path>
                <path d="M169.651351,137.922412 L210.465485,129.85997 C209.271867,128.530083 208.119795,127.45561 207.076786,126.519668 C206.974649,126.427892 206.836158,126.390662 206.701995,126.416636 L170.462389,133.574304 L170.353327,133.688591 C170.246862,134.396825 170.132607,135.06783 170.036529,135.725847 C169.877265,136.446202 169.750892,137.170887 169.651351,137.922412" id="Fill-308" fill="#4B7D88"></path>
                <path d="M160.253013,80.0685631 C160.952392,80.2832845 161.37652,80.9837264 161.238029,81.6997529 C160.900458,83.3863547 159.988149,84.8513087 158.654309,85.8729668 C158.024175,86.3543583 157.478867,86.9076122 156.9803,87.4929011 C156.53886,88.0115225 156.13464,88.5543866 155.802262,89.1379439 C155.889684,88.9812319 155.971047,88.8219225 156.067125,88.6695396 L156.062798,88.6487601 C156.031637,88.4937798 155.956333,88.1639054 156.290442,87.7318652 C157.522145,86.176001 160.407084,81.4408751 160.407084,81.4408751 C156.905861,80.0616366 157.370671,80.4477888 156.544053,79.5343571 L156.433261,79.4053511 C156.443648,79.295393 156.466152,79.194093 156.525011,79.1075118 C156.59945,78.995822 156.672158,78.8737425 156.762177,78.7274203 C156.908458,78.4953827 157.078975,78.226981 157.265072,77.9230809 C157.393176,78.1005724 157.531667,78.2737348 157.682276,78.4391049 C158.377327,79.2027511 159.266265,79.7655289 160.253013,80.0685631" id="Fill-309" fill="#FAF9FA"></path>
                <path d="M155.528742,89.1786371 C155.305425,89.5821055 155.105479,89.9976952 154.936693,90.4262722 C155.103748,89.9968294 155.308022,89.5838371 155.528742,89.1786371" id="Fill-310" fill="#FAF9FA"></path>
                <polyline id="Fill-311" fill="#FAF9FA" points="154.937559 89.3059114 154.936693 89.3067773 155.009401 89.1786371 155.008536 89.1795029 154.937559 89.3059114"></polyline>
                <path d="M188.546231,130.701249 C188.607686,130.576573 188.723672,130.487394 188.860432,130.460554 L202.570165,127.752294 C202.766649,127.713332 202.964864,127.810303 203.054883,127.989526 L204.411229,130.687396 C204.47355,130.811208 204.474415,130.958396 204.413825,131.083938 C204.351505,131.208615 204.236384,131.29866 204.099624,131.324634 L190.389025,134.032894 C190.193407,134.071856 189.995192,133.974885 189.905173,133.796527 L188.548827,131.097791 C188.485641,130.97398 188.485641,130.826792 188.546231,130.701249 Z M161.357005,104.54074 C162.76615,105.037716 163.915624,106.089677 164.555279,107.439478 C164.835723,108.030828 165.116167,108.605727 165.352467,109.08885 C166.932129,112.350364 168.652013,115.885474 169.444008,119.894184 C169.924398,122.328847 170.061158,124.928015 169.630105,127.758354 C168.838976,133.000846 168.22096,135.981837 167.879061,138.495289 C167.108705,144.152505 165.89691,149.897168 166.429234,156.395953 L172.543607,155.188145 C172.907146,155.117148 173.262894,155.355246 173.334736,155.718888 L174.236658,160.289509 L176.726898,172.125159 L208.977101,172.125159 C218.43776,172.125159 225.366633,163.20643 223.037389,154.034883 C221.952832,149.76643 221.219696,147.051243 221.06649,146.852107 C220.130811,143.528254 218.397078,139.705694 216.79924,136.845917 C212.444566,129.044085 207.80339,125.91937 205.036169,123.261327 C199.980385,118.308016 198.366967,110.844717 200.937704,104.245498 C202.362429,100.562333 203.423615,96.0687691 204.174063,90.496403 C204.923645,84.8997941 204.820642,80.073758 203.868517,76.1611535 C203.345714,74.0139397 203.83476,71.8165088 205.074254,69.9870481 C205.379799,69.53596 205.615234,69.0381181 205.78402,68.5117044 C206.763843,65.4657777 205.084641,62.1921425 202.029185,61.213775 C201.777305,61.1341203 197.787036,59.8882168 191.226895,59.7410287 C192.810019,61.5808792 188.033814,62.9748366 184.926425,63.5886973 C177.957736,64.9653384 171.128403,64.3679281 164.383031,65.7004128 C160.171177,67.909965 157.922431,69.9255754 157.757973,70.0762267 C155.56722,72.0589362 155.253018,75.371533 156.933952,77.7308707 L156.929624,77.7369314 C157.058594,77.9144228 157.197084,78.0867194 157.348559,78.2529553 C158.033223,79.005346 158.906582,79.5637947 159.876883,79.8694263 C160.597036,80.0962691 161.047997,80.8148931 160.894791,81.5551623 C160.551161,83.2235821 159.642314,84.6738172 158.319726,85.6868172 C157.689593,86.1682087 157.143419,86.7214626 156.645718,87.3067515 C156.204278,87.8253729 155.800058,88.3691029 155.466814,88.9526601 L155.395837,89.0790687 C155.171655,89.4834029 154.971709,89.8989927 154.802923,90.3275696 C154.068921,92.2176372 153.870706,94.3129023 154.282717,96.4012409 C154.999407,100.030725 157.437712,103.158038 161.357005,104.54074 Z" id="Fill-312" fill="#E9E3E8"></path>
                <path d="M190.097482,133.32714 L188.741137,130.628404 C188.678816,130.504593 188.67795,130.357405 188.739406,130.231862 C188.799996,130.107185 188.915982,130.018006 189.052741,129.991166 L202.762475,127.282906 C202.958959,127.243945 203.157174,127.340916 203.247193,127.520139 L204.603538,130.218009 C204.665859,130.342686 204.666725,130.489008 204.605269,130.614551 C204.543814,130.739228 204.428693,130.829272 204.291068,130.855247 L190.581335,133.563506 C190.384851,133.602468 190.187501,133.506363 190.097482,133.32714" id="Fill-313" fill="#E1D9DF"></path>
                <path d="M173.703941,160.189075 L173.776649,160.175222 L176.736027,174.238606 C177.000025,175.467194 176.551661,176.739937 175.577031,177.524363 C174.015546,178.804899 171.662066,179.724391 169.242803,180.162492 C169.163171,180.177211 169.084404,180.195393 169.004772,180.209246 L168.990923,180.12786 L168.981402,180.130457 C168.981402,180.130457 167.496087,180.240415 166.344881,173.75202 L166.336226,173.710461 C165.597896,169.206507 164.975553,165.346717 164.457943,162.015938 L173.703941,160.189075" id="Fill-314" fill="#E1D9DF"></path>
                <path d="M172.792526,154.99357 C173.15693,154.920842 173.510947,155.155477 173.581924,155.518252 L174.485577,160.094068 L174.412869,160.107921 L165.166871,161.934785 C164.910663,160.253378 164.672631,158.706172 164.464895,157.284508 C164.413827,156.932123 164.649261,156.601383 165.001547,156.532118 L165.939823,156.346834 L166.678153,156.200512 L172.792526,154.99357" id="Fill-315" fill="#FAF9FA"></path>
                <path d="M185.001337,63.6571115 C178.032648,65.0337526 171.203315,64.4363423 164.457943,65.768827 C165.131355,64.9255261 165.845448,64.1281132 166.582047,63.336761 C166.779396,63.1358926 166.955972,62.9402191 167.136011,62.7644593 C169.645293,60.2129113 170.974805,59.9176694 182.953402,57.584306 C184.444776,57.2899299 185.954327,57.1418761 187.471668,57.1436077 L187.473399,57.1539975 C187.914839,57.1531316 188.32858,57.340147 188.615083,57.6501077 C189.215788,58.3228437 190.297748,59.136707 191.053389,59.643207 C191.139946,59.7020822 191.214384,59.7514335 191.300941,59.8094429 C192.884931,61.6492934 188.107861,63.0432507 185.001337,63.6571115" id="Fill-316" fill="#FAF9FA"></path>
                <path d="M168.441046,2.89984438 C161.892158,3.7301581 155.098314,6.05226591 150.805961,11.3328534 C148.974419,13.586562 147.71069,16.2662502 147.088346,19.1000529 C146.529189,21.6507351 146.620074,27.1451781 147.193945,33.2240442 C147.415531,35.5747238 146.627864,37.9150137 145.028294,39.6509668 L145.017907,39.6613565 C144.670814,40.0379848 144.50376,40.5470822 144.560887,41.0570455 C144.618015,41.566143 144.893265,42.0250233 145.314797,42.3159362 C145.937141,42.7462447 146.744716,43.2111858 147.729732,43.5904114 C148.300142,43.8103277 148.71648,44.3099012 148.8316,44.9099089 C149.673798,49.3212211 150.730657,53.2156436 151.929469,55.5862368 C155.033396,61.7239782 163.332463,60.2962542 175.489367,52.5991854 C187.647137,44.9029824 197.977693,33.4595451 196.385913,20.9000761 C194.794133,8.34233868 183.581564,0.980339153 168.441046,2.89984438" id="Fill-317" fill="#FFA898"></path>
                <path d="M156.259424,36.681149 C156.358099,37.4629772 155.804135,38.1764063 155.023393,38.2759747 L155.01993,38.2768405 C154.240919,38.3746773 153.527691,37.823155 153.429016,37.0421926 L153.216952,35.3720412 C153.118277,34.590213 153.671375,33.8767839 154.452983,33.7780813 C155.234591,33.6793787 155.948685,34.2317668 156.048225,35.0135951 L156.259424,36.681149" id="Fill-318" fill="#53344D"></path>
                <path d="M157.703706,31.4598616 C157.495969,31.4858359 157.278712,31.4174368 157.122909,31.2546641 C155.05247,29.1074503 151.551247,30.2607119 151.515759,30.2736991 C151.157414,30.3957786 150.769639,30.2035683 150.645863,29.8451222 C150.523818,29.486676 150.713378,29.0979264 151.070857,28.9741153 C151.248299,28.9143742 155.428127,27.5186853 158.109657,30.3022709 C158.37279,30.5758675 158.365865,31.0105051 158.092346,31.2719803 C157.982419,31.379341 157.844793,31.4416795 157.703706,31.4598616" id="Fill-319" fill="#893327"></path>
                <path d="M160.504037,45.6326305 C159.704252,45.7339305 158.879365,45.381545 158.414555,44.6568603 C158.171331,44.2767689 157.3023,44.1451654 157.102354,44.1451654 C155.909601,44.1494945 154.940165,43.1858457 154.936703,41.9936226 C154.93324,40.8005336 155.902677,39.8264951 157.088505,39.8273609 C157.43127,39.8264951 160.48586,39.887102 162.049076,42.3252286 C162.693059,43.3295705 162.400497,44.6646527 161.397303,45.3088168 C161.117725,45.4880399 160.813045,45.5936689 160.504037,45.6326305" id="Fill-320" fill="#F8918C"></path>
                <path d="M154.665771,46.4593246 C154.654518,46.4818357 153.451379,48.6065384 149.743285,49.2749453 C149.917264,49.9840453 150.096437,50.6740975 150.282534,51.3243223 C154.937559,50.4282069 156.475674,47.5589059 156.541457,47.4298999 C156.808917,46.9112785 156.60724,46.2740409 156.088765,46.006505 C155.569424,45.7372374 154.932366,45.9433007 154.665771,46.4593246" id="Fill-321" fill="#D63E39"></path>
                <path d="M172.409559,44.0337556 C171.453106,46.5601951 166.644875,57.3248358 165.273815,58.3395675 C163.564318,58.9603547 161.998506,59.3612256 160.584167,59.5404487 C149.098078,60.6781257 142.363093,42.1281034 145.195232,39.3626998 C145.719766,38.8492733 146.141298,38.2631186 146.464155,37.6276126 C146.542056,37.4752296 146.68574,37.3661373 146.854526,37.3349681 C147.454365,37.2224125 149.025371,37.0605057 151.612554,37.6986091 C155.007312,38.5341177 161.885982,41.5151085 164.782173,38.0934194 C164.793425,39.6882451 166.891562,45.9151651 172.409559,44.0337556" id="Fill-322" fill="#69BDBF"></path>
                <path d="M173.099801,39.7217234 L170.866635,43.9321672 C171.253544,43.8715604 171.656033,43.7789185 172.085355,43.638657 C172.106994,43.6360595 173.461608,41.1442526 174.805835,38.6533114 C174.274377,39.157214 173.692715,39.5286473 173.099801,39.7217234 Z M170.168121,32.0350444 L164.457968,37.6983208 C164.456237,38.0178054 164.541929,38.5182447 164.722832,39.1121918 L170.793062,32.9354889 C170.6312,32.5831034 170.395766,32.3147017 170.168121,32.0350444 Z" id="Fill-323" fill="#517C88"></path>
                <path d="M146.475382,30.3065006 L145.757826,30.3982767 C145.543165,30.4251168 145.391691,30.6216562 145.418523,30.8355117 L146.70822,41.0114003 C146.735053,41.2261217 146.931537,41.3776388 147.146197,41.3507986 L147.862888,41.2598883 C148.077549,41.2321824 148.229889,41.0365088 148.203056,40.8217875 L146.912494,30.6458989 C146.885661,30.4311775 146.690043,30.2796604 146.475382,30.3065006" id="Fill-324" fill="#5A3C55"></path>
                <path d="M180.444986,33.7649368 L180.438927,33.7554129 C180.438927,33.7554129 180.251964,33.4515128 179.97152,32.9969615 C179.689345,32.5380812 179.331,31.9164281 178.902544,31.2904461 C178.687017,30.9787537 178.444658,30.6661956 178.172004,30.3796118 C178.023126,30.2367528 177.881173,30.0999545 177.70806,29.9778751 C177.545333,29.8549297 177.354908,29.7441058 177.155827,29.660122 C176.960209,29.5700776 176.745548,29.5155314 176.547333,29.4783015 C176.346521,29.4419374 176.112817,29.4402058 175.960478,29.4376084 C175.875652,29.4462665 175.816793,29.4514614 175.762262,29.457522 L175.760531,29.4384742 L147.14658,33.0662265 C147.269491,34.0359359 147.335274,34.5510941 147.369031,34.8194958 C147.390671,34.9883292 147.400192,35.0679839 147.401923,35.0775078 C147.420965,35.2264275 147.448664,35.4480753 147.490211,35.7753523 L149.020535,35.5814104 C151.098764,35.3182035 153.221137,33.0939325 155.869776,32.7588632 L175.645411,30.2514716 C175.687824,30.2506058 175.777843,30.2488742 175.944032,30.2462768 C176.000294,30.2661905 176.034051,30.2679221 176.112817,30.2904332 C176.193315,30.3164075 176.2842,30.346711 176.375085,30.4047204 C176.761128,30.6133811 177.142844,31.1830854 177.427615,31.7917512 C177.718446,32.4030145 177.966864,33.0541051 178.167676,33.5415573 C178.371085,34.0307411 178.506113,34.358018 178.506113,34.358018 L178.545064,34.4342095 C178.761456,34.7848633 179.361295,34.9190642 179.885829,34.7337804 C180.410363,34.5493625 180.660512,34.1155907 180.444986,33.7649368" id="Fill-325" fill="#5A3C55"></path>
                <path d="M173.741726,26.8496871 C171.601176,26.7224127 169.773097,27.8808692 169.658842,29.7925821 C169.516888,32.1605779 171.441046,32.0835207 171.330254,34.2056259 C171.262739,35.5190627 170.638665,36.0679875 170.560764,37.3641081 C170.490653,38.5338201 171.029036,39.8385988 172.450299,39.9234484 C174.782139,40.0628442 177.339893,36.7208098 177.836729,33.7138447 C178.345683,30.6341514 177.388365,27.0687375 173.741726,26.8496871" id="Fill-326" fill="#F48989"></path>
                <path d="M145.416152,17.9725257 C145.408362,17.750012 145.46549,17.5300958 145.556374,17.3162402 C145.466355,17.6149454 145.429136,17.8322642 145.416152,17.9725257" id="Fill-327" fill="#9F462C"></path>
                <path d="M145.416152,17.9725257 C145.408362,17.750012 145.46549,17.5300958 145.556374,17.3162402 C145.466355,17.6149454 145.429136,17.8322642 145.416152,17.9725257" id="Fill-328" fill="#9F462C"></path>
                <path d="M204.611648,40.8291588 C203.297715,55.4925511 185.04548,60.3289769 178.640276,53.530621 C183.542854,54.4319313 193.774735,51.6223714 183.129113,38.9867109 L183.039094,38.8698263 C183.080641,39.0351964 179.915258,39.2447229 175.420363,37.7823664 C173.555064,37.166774 171.46212,36.2715244 169.274829,34.9632825 C163.290291,31.400466 156.587332,24.768346 151.891625,12.5690548 C151.891625,12.5690548 146.384015,14.705013 145.415444,17.0522294 C146.460185,13.3751258 153.523221,-1.42160146 180.223401,0.110885798 C195.807954,0.998343109 206.050222,24.893023 204.611648,40.8291588" id="Fill-329" fill="#9F462C"></path>
                <path d="M149.252909,13.8529922 C148.368298,15.4443546 147.724316,17.1647231 147.333944,18.9491617 C147.225748,19.4426745 147.143519,20.0591327 147.083795,20.7587088 C145.118955,20.4703934 145.434022,17.8166796 145.434022,17.8166796 C145.519714,15.9759632 147.863672,14.5716161 149.252909,13.8529922" id="Fill-330" fill="#893327"></path>
                <path d="M184.259545,53.4093455 C181.623024,53.1738446 180.811121,50.8015197 180.665706,50.6508684 C180.896812,50.8023855 183.726355,52.4413677 184.803987,50.6474052 C187.376455,46.3642332 179.533543,39.2879516 179.172601,38.9615405 C181.752859,39.4221525 183.374934,39.290549 183.348967,39.1658721 C190.806702,47.9703144 188.203939,52.0361676 184.259545,53.4093455" id="Fill-331" fill="#893327"></path>
                <path d="M185.441045,38.5849122 C185.105205,38.7866464 184.259545,38.9260422 183.132575,39.0056969 L183.042556,38.8888123 C183.084103,39.0541824 179.918721,39.2637089 175.423825,37.8013524 L175.432481,37.789231 C168.302796,35.0099745 157.076378,8.97327568 156.66783,8.02434571 C157.116194,7.77585767 157.805186,7.42260637 158.774622,6.92649608 C163.007251,20.7587088 178.833298,35.4844394 185.441045,38.5849122" id="Fill-332" fill="#893327"></path>
                <path d="M175.877383,37.5874968 L175.868727,37.5996182 C175.402186,37.4455036 174.923527,37.2714754 174.430153,37.0792652 C174.184332,36.9822942 173.937645,36.8853233 173.679706,36.78056 C172.422035,36.2584754 171.094254,35.6073847 169.722328,34.7701445 C163.738656,31.2177179 157.035696,24.5855979 152.339989,12.3863066 C153.71278,10.2858467 155.41189,8.92132696 156.359687,8.25811496 L156.508565,8.16547307 C156.870373,7.91611921 157.098883,7.79230809 157.098883,7.79230809 L157.112732,7.82261152 C157.52128,8.77154148 168.747698,34.8082403 175.877383,37.5874968" id="Fill-333" fill="#B55C32"></path>
                <path d="M98.8550418,44.3913206 C97.599968,44.6354796 96.4037529,45.0917625 95.3018847,45.7506455 L91.4682835,48.0485106 C90.7360128,48.4857456 90.4988472,49.4338098 90.9376902,50.1662867 L91.0917613,50.3801423 C91.2804552,50.6017902 91.3635497,50.8953004 91.316809,51.18275 C91.2700684,51.4701996 91.0995514,51.7230167 90.8494022,51.8728022 L90.76977,51.9204219 C90.0383649,52.3585227 89.8003337,53.3065869 90.2391767,54.0390639 C90.6286824,54.6892887 91.4215428,54.9490323 92.1062072,54.6910203 C92.1918984,54.6589853 92.2758585,54.6191579 92.3572219,54.5698066 C92.4558967,54.5109314 92.5770762,54.5109314 92.6748854,54.5698066 C92.771829,54.6295476 92.8272254,54.7377741 92.8194353,54.8511955 C92.8003928,55.1490349 92.8670415,55.4555323 93.032365,55.7325921 C93.4703425,56.4650691 94.4181396,56.6971067 95.1504102,56.2642007 C95.2568751,56.2009964 95.3884415,56.2001306 95.4957719,56.2607375 C95.6022368,56.3222101 95.66802,56.4364973 95.6671544,56.5603084 C95.6654233,56.7914802 95.7277442,57.0261153 95.8601761,57.2365076 C96.2323704,57.8278572 97.008785,58.0010196 97.6025647,57.6313179 L100.296213,55.9317289 C100.618204,55.7299947 101.005979,55.6667904 101.372979,55.7577007 C101.73998,55.8477451 102.054182,56.0841118 102.244607,56.410523 C104.121158,59.6330753 106.850295,61.587213 109.062687,61.0149112 C111.863665,60.2902266 112.776839,55.7940648 111.099368,50.9723577 C107.891573,41.7523256 107.614591,42.6951949 98.8550418,44.3913206" id="Fill-334" fill="#FFA898"></path>
                <path d="M128.877338,100.703764 C126.692644,101.425852 124.290692,101.427583 122.088687,100.658742 C119.018517,99.5877328 116.577615,97.104584 115.558841,94.0179642 L103.216705,56.6322015 C102.4853,54.4174544 103.68844,52.0286791 105.902563,51.2970679 C108.116686,50.5654568 110.504789,51.7689355 111.235328,53.9836826 L123.577464,91.3685794 C123.779141,91.9789769 124.262994,92.4707581 124.869757,92.682882 C125.476521,92.895006 126.159454,92.8084248 126.697837,92.4577709 L159.605006,70.8566271 C161.554265,69.5786885 164.171743,70.1206868 165.451919,72.0704955 C166.731228,74.02117 166.187652,76.6393855 164.237527,77.9199214 L131.331223,99.5201995 C130.563464,100.024102 129.735981,100.419778 128.877338,100.703764" id="Fill-335" fill="#FFA898"></path>
                <path d="M113.688974,94.462331 L103.912382,64.843768 C103.761773,64.3900825 104.00846,63.8991671 104.462883,63.7493816 L113.84391,60.6506404 C114.298334,60.5008549 114.788245,60.7476113 114.937988,61.2021627 L124.716312,90.8198599 C124.762187,90.9609873 124.892022,91.0839326 125.027916,91.128089 C125.128322,91.1627215 125.252098,91.1661847 125.352504,91.1332839 L125.465894,91.072677 L158.368734,69.4732648 C158.799787,69.1979366 159.26027,68.9788861 159.741526,68.8195767 C162.227437,67.9987869 164.975616,68.9477169 166.411593,71.1425503 C167.262447,72.4412684 167.562799,73.9867428 167.24427,75.5157668 C166.933531,77.0309378 166.04113,78.3374482 164.743644,79.1885414 L131.841668,100.787088 C130.965713,101.36545 130.016185,101.824331 129.013857,102.155937 C126.477743,102.993177 123.702731,102.974995 121.202971,102.099659 C117.670587,100.865011 114.860953,98.0112945 113.688974,94.462331" id="Fill-336" fill="#E9E3E8"></path>
                <polyline id="Fill-337" fill="#E1D9DF" points="106.236369 72.2641336 104.733742 67.7116941 115.760215 64.0700888 117.262841 68.6225283 106.236369 72.2641336"></polyline>
                <path d="M166.172408,149.785478 C165.029858,159.025424 163.01395,216.339581 162.727447,226.229752 C162.702346,227.122404 163.41817,227.856613 164.310571,227.856613 C164.310571,227.856613 192.259766,224.817612 193.018869,182.504514 C193.0206,182.394556 193.021466,181.687187 193.022331,180.685443 C193.024928,175.845554 196.955473,171.927754 201.793999,171.940741 L203.574472,171.945936 L203.574472,149.785478 L166.172408,149.785478" id="Fill-338" fill="#E9E3E8"></path>
                <path d="M172.581173,160.175222 L172.655612,160.175222 L172.834784,174.546836 C172.855558,175.803129 172.170028,176.965048 171.062101,177.546008 C169.281627,178.499267 166.793985,178.945161 164.336637,178.906199 C164.255273,178.905333 164.174775,178.907931 164.093412,178.905333 L164.096874,178.823081 L164.086487,178.823081 C164.086487,178.823081 162.608097,178.643858 162.73447,172.055029 L162.73447,172.012604 C162.882482,167.45064 163.020108,163.544096 163.156867,160.175222 L172.581173,160.175222" id="Fill-339" fill="#E1D9DF"></path>
                <path d="M172.418573,154.98035 C172.789901,154.98035 173.091119,155.279055 173.091119,155.647891 L173.091119,160.31202 L163.592375,160.31202 C163.666814,158.613297 163.732597,157.049641 163.804439,155.61499 C163.82175,155.259141 164.116909,154.98035 164.47612,154.98035 L172.418573,154.98035" id="Fill-340" fill="#FAF9FA"></path>
                <path d="M255.299317,128.140178 L221.72393,128.140178 C217.822814,128.140178 214.660894,131.302989 214.660894,135.205204 C214.660894,139.107418 217.822814,142.271095 221.72393,142.271095 L255.299317,142.271095 C258.013739,142.271095 260.214013,140.070201 260.214013,137.354149 L260.214013,133.055392 C260.214013,130.341072 258.013739,128.140178 255.299317,128.140178" id="Fill-341" fill="#7B6686"></path>
            </g>
        </g>
    </g>
</svg>