<?xml version="1.0" encoding="UTF-8"?>
<svg width="19px" height="25px" viewBox="0 0 19 25" version="1.1" xmlns="http://www.w3.org/2000/svg" xmlnsXlink="http://www.w3.org/1999/xlink">
    <title>logo</title>
    <desc>Created with Sketch.</desc>
    <defs></defs>
    <g id="UI-Mockups" stroke="none" strokeWidth="1" fill="none" fillRule="evenodd">
        <g id="Desktop---Home" transform="translate(-12.000000, -6.000000)">
            <g id="logo" transform="translate(11.000000, 6.000000)">
                <path d="M10.0365631,0 C5.06159311,0 1.02864107,3.9833638 1.02864107,8.89740859 C1.02864107,15.979436 10.0365631,24.5886654 10.0365631,24.5886654 C10.0365631,24.5886654 19.0444851,15.979436 19.0444851,8.89740859 C19.0444851,3.9833638 15.011533,0 10.0365631,0 Z" id="Shape" fill="#FFFFFF" fillRule="nonzero"></path>
                <path d="M14.816607,9.82253656 C14.1203004,12.555075 12.7284341,15.4218675 12.7284341,15.4218675 C12.7284341,15.4218675 12.4548406,16.086745 11.763513,16.086745 C10.5070741,16.086745 11.0711895,14.4764333 10.0363141,14.4764333 C8.98749765,14.4764333 9.57999307,16.086745 8.30563002,16.086745 C7.60758079,16.086745 7.34444312,15.4218675 7.34444312,15.4218675 C7.34444312,15.4218675 5.95257677,12.5548291 5.25651912,9.82253656 C4.56046147,7.09024406 7.30087728,6.95574406 7.30087728,6.95574406 L12.7719999,6.95574406 C12.7719999,6.95574406 15.5124157,7.09024406 14.816607,9.82253656 Z" id="Path" fill="#0AD5B1"></path>
                <path d="M10.0574747,9.06938574 C11.1359159,9.06938574 12.1040734,8.98627605 12.7662741,8.70522761 C12.3283752,9.20044333 11.2750777,9.54960238 10.0442804,9.54960238 C8.79854638,9.54960238 7.73479304,9.19183729 7.30685202,8.68703199 C7.96979963,8.97865356 8.95613024,9.06938574 10.0574747,9.06938574 Z" id="Path" fill="#FFFFFF"></path>
            </g>
        </g>
    </g>
</svg>
