<?xml version="1.0" encoding="UTF-8"?>
<svg width="37px" height="50px" viewBox="0 0 37 50" version="1.1" xmlns="http://www.w3.org/2000/svg" xmlns:xlink="http://www.w3.org/1999/xlink">
    <!-- Generator: Sketch 50.2 (55047) - http://www.bohemiancoding.com/sketch -->
    <title>logo</title>
    <desc>Created with Sketch.</desc>
    <defs></defs>
    <g id="UI-Screens" stroke="none" stroke-width="1" fill="none" fill-rule="evenodd">
        <g id="Mobile---Expanded" transform="translate(-30.000000, -29.000000)">
            <g id="logo" transform="translate(30.000000, 29.000000)">
                <path d="M18.0731261,0 C8.12318621,0 0.057282145,8.07295064 0.057282145,18.0320814 C0.057282145,32.3849903 18.0731261,49.8330286 18.0731261,49.8330286 C18.0731261,49.8330286 36.0889701,32.3849903 36.0889701,18.0320814 C36.0889701,8.07295064 28.0230661,0 18.0731261,0 Z" id="Shape" fill="#0AD5B1" fill-rule="nonzero"></path>
                <path d="M27.633214,19.9070074 C26.2406009,25.4449519 23.4568682,31.2549847 23.4568682,31.2549847 C23.4568682,31.2549847 22.9096812,32.6024698 21.5270259,32.6024698 C19.0141483,32.6024698 20.1423791,29.3389048 18.0726282,29.3389048 C15.9749953,29.3389048 17.1599861,32.6024698 14.61126,32.6024698 C13.2151616,32.6024698 12.6888862,31.2549847 12.6888862,31.2549847 C12.6888862,31.2549847 9.90515354,25.4444536 8.51303824,19.9070074 C7.12092295,14.3695613 12.6017546,14.0969746 12.6017546,14.0969746 L23.5439998,14.0969746 C23.5439998,14.0969746 29.0248314,14.3695613 27.633214,19.9070074 Z" id="Path" fill="#FFFFFF"></path>
                <path d="M18.1149493,18.3806218 C20.2718318,18.3806218 22.2081467,18.2121861 23.5325482,17.6425946 C22.6567504,18.6462318 20.5501553,19.3538608 18.0885609,19.3538608 C15.5970928,19.3538608 13.4695861,18.6287902 12.613704,17.6057182 C13.9395993,18.1967379 15.9122605,18.3806218 18.1149493,18.3806218 Z" id="Path" fill="#0AD5B1"></path>
            </g>
        </g>
    </g>
</svg>