<?xml version="1.0" encoding="UTF-8"?>
<svg width="18px" height="24px" viewBox="0 0 18 24" version="1.1" xmlns="http://www.w3.org/2000/svg" xmlns:xlink="http://www.w3.org/1999/xlink">
    <!-- Generator: Sketch 51.3 (57544) - http://www.bohemiancoding.com/sketch -->
    <title>noun_Approve_2008949</title>
    <desc>Created with Sketch.</desc>
    <defs></defs>
    <g id="Page-1" stroke="none" stroke-width="1" fill="none" fill-rule="evenodd">
        <g id="Artboard" transform="translate(-3.000000, 0.000000)" fill="#3481F8" fill-rule="nonzero">
            <g id="noun_Approve_2008949" transform="translate(3.000000, 0.000000)">
                <path d="M17.5135135,0 L0.486486486,0 C0.217807419,-1.69088438e-17 0,0.223857625 0,0.5 L0,23.5 C0,23.7761424 0.217807419,24 0.486486486,24 L17.5135135,24 C17.7821926,24 18,23.7761424 18,23.5 L18,0.5 C18,0.223857625 17.7821926,1.69088438e-17 17.5135135,0 Z M17.027027,23 L0.972972973,23 L0.972972973,1 L17.027027,1 L17.027027,23 Z M4.13513514,15 C4.13513514,17.7614237 6.31320933,20 9,20 C11.6867907,20 13.8648649,17.7614237 13.8648649,15 C13.8648649,12.2385763 11.6867907,10 9,10 C6.31320933,10 4.13513514,12.2385763 4.13513514,15 Z M12.8918919,15 C12.8918919,17.209139 11.1494325,19 9,19 C6.85056746,19 5.10810811,17.209139 5.10810811,15 C5.10810811,12.790861 6.85056746,11 9,11 C11.1494325,11 12.8918919,12.790861 12.8918919,15 Z M3.16216216,4 C3.16216216,3.72385763 3.37996958,3.5 3.64864865,3.5 L11.4324324,3.5 C11.7011115,3.5 11.9189189,3.72385763 11.9189189,4 C11.9189189,4.27614237 11.7011115,4.5 11.4324324,4.5 L3.64864865,4.5 C3.37996958,4.5 3.16216216,4.27614237 3.16216216,4 Z M3.16216216,6.5 C3.16216216,6.22385763 3.37996958,6 3.64864865,6 L6.08108108,6 C6.34976015,6 6.56756757,6.22385763 6.56756757,6.5 C6.56756757,6.77614237 6.34976015,7 6.08108108,7 L3.64864865,7 C3.37996958,7 3.16216216,6.77614237 3.16216216,6.5 Z M8.51351351,16.295 L11.087027,13.645 C11.2777892,13.4489389 11.5870757,13.4489389 11.7778378,13.645 C11.9686,13.8410611 11.9686,14.1589389 11.7778378,14.355 L8.85891892,17.355 C8.76757301,17.4496563 8.64322907,17.5028992 8.51351351,17.5028992 C8.38379796,17.5028992 8.25945402,17.4496563 8.16810811,17.355 L6.70864865,15.855 C6.58524718,15.7281707 6.53705342,15.543313 6.5822215,15.370061 C6.62738957,15.196809 6.75905736,15.0614837 6.9276269,15.015061 C7.09619644,14.9686382 7.27605799,15.0181707 7.39945946,15.145 L8.51351351,16.295 Z" id="Shape"></path>
            </g>
        </g>
    </g>
</svg>