<svg xmlns="http://www.w3.org/2000/svg" width="120" height="64" viewBox="0 0 120 64">
    <g fill="none" fill-rule="evenodd">
        <g>
            <path fill="#123C7E" stroke="#103A7B" d="M75.88 59.5h30v-29c0-8.284-6.715-15-15-15-8.284 0-15 6.716-15 15v29zM12.88 59.5h36v-11c0-9.941-8.059-18-18-18-9.94 0-18 8.059-18 18v11z"/>
            <path fill="#0D326D" d="M64.88 0c15.188 0 27.5 12.312 27.5 27.5V60h-55V27.5C37.38 12.312 49.692 0 64.88 0z"/>
            <path fill="#0D326D" d="M16.38 47.5h87c8.837 0 16 7.163 16 16H.38c0-8.837 7.164-16 16-16z"/>
            <path fill="#59A0C5" d="M29.38 36h59v28h-59z"/>
            <path stroke="#59A0C5" stroke-linecap="square" d="M44.469 29h2.863"/>
            <path stroke="#3D718B" stroke-linecap="square" d="M30 37.5h58M30 40h58M30 42.5h58M30 52.5h58M30 45h58M30 55h58M30 47.5h58M30 57.5h58M30 57.5h58M30 60h58M30 62.5h58M30 50h58"/>
            <path fill="#A5E1FF" d="M33.783 19h50.194l4.403 17h-59z"/>
            <path stroke="#59A0C5" stroke-linecap="square" stroke-width="1.5" d="M43.489 30.5h4.783M68.489 30.5h4.783"/>
            <path stroke="#59A0C5" stroke-width="1.5" d="M37.608 21.25a1.25 1.25 0 0 0-1.218.968l-2.198 9.5a1.25 1.25 0 0 0 1.218 1.532h46.382a1.25 1.25 0 0 0 1.21-1.565l-2.475-9.5a1.25 1.25 0 0 0-1.21-.935H37.608z"/>
            <circle cx="58.88" cy="26.5" r="5.5" stroke="#59A0C5" stroke-width="2"/>
            <circle cx="38.5" cy="23" r="1.5" stroke="#59A0C5" stroke-width="1.5"/>
            <circle cx="45.88" cy="26" r="2.5" stroke="#59A0C5" stroke-width="1.5"/>
            <circle cx="70.88" cy="26" r="2.5" stroke="#59A0C5" stroke-width="1.5"/>
            <circle cx="36.38" cy="31.5" r="1.5" stroke="#59A0C5" stroke-width="1.5"/>
            <circle cx="79" cy="23" r="1.5" stroke="#59A0C5" stroke-width="1.5"/>
            <circle cx="80.88" cy="31.5" r="1.5" stroke="#59A0C5" stroke-width="1.5"/>
            <path fill="#FFF" d="M54.38 19h9v17h-9z"/>
            <path fill="#C1D7E1" d="M54.38 36h9v28h-9z"/>
            <circle cx="89.38" cy="52.5" r="6" fill="#FECC33"/>
            <circle cx="89.38" cy="52.5" r="5" stroke="#F5A623" stroke-width=".8"/>
            <path fill="#FFA300" fill-rule="nonzero" d="M87.88 53.239h.616c.004.181.065.34.183.473.118.134.281.22.49.261v-1.328a6.423 6.423 0 0 1-.245-.065 2.485 2.485 0 0 1-.234-.081 1.261 1.261 0 0 1-.219-.11 1.232 1.232 0 0 1-.183-.15.798.798 0 0 1-.15-.198 1.086 1.086 0 0 1-.093-.257 1.401 1.401 0 0 1-.036-.327c0-.294.104-.547.31-.758.208-.212.49-.337.85-.375V50h.423v.324c.16.02.31.058.45.115.139.057.264.135.376.232.112.098.2.222.268.372.066.15.1.318.103.503h-.642a.639.639 0 0 0-.143-.427.676.676 0 0 0-.412-.218v1.207l.266.068c.069.018.153.046.254.083.1.037.182.076.246.115.064.039.132.09.205.153.072.063.13.133.171.208.042.076.077.167.105.273.027.106.041.222.041.348 0 .327-.114.603-.342.828-.228.225-.543.354-.946.389V55h-.424v-.433c-.383-.042-.694-.184-.931-.426a1.236 1.236 0 0 1-.357-.902zm.756-1.793c0 .147.045.262.135.345.09.084.222.153.397.208v-1.098a.694.694 0 0 0-.396.196.498.498 0 0 0-.136.349zm.956 2.539a.825.825 0 0 0 .467-.188.505.505 0 0 0 .171-.395c0-.181-.055-.32-.166-.416a1.224 1.224 0 0 0-.472-.23v1.229z"/>
            <path stroke="#F5A623" stroke-linecap="square" stroke-width=".5" d="M85.523 52.5h1.85M91.523 52.5h1.85"/>
            <circle cx="42.38" cy="16" r="6" fill="#FECC33"/>
            <circle cx="42.38" cy="16" r="5" stroke="#F5A623" stroke-width=".8"/>
            <path stroke="#F5A623" stroke-linecap="square" stroke-width=".5" d="M38.523 16h1.85M44.523 16h1.85"/>
            <path fill="#FFA300" fill-rule="nonzero" d="M40.88 16.739h.616c.004.181.065.34.183.473.118.134.281.22.49.261v-1.328a6.423 6.423 0 0 1-.245-.065A2.485 2.485 0 0 1 41.69 16a1.261 1.261 0 0 1-.219-.11 1.232 1.232 0 0 1-.183-.15.798.798 0 0 1-.15-.198 1.086 1.086 0 0 1-.093-.257 1.401 1.401 0 0 1-.036-.327c0-.294.104-.547.31-.758.208-.212.49-.337.85-.375V13.5h.423v.324c.16.02.31.058.45.115.139.057.264.135.376.232.112.098.2.222.268.372.066.15.1.318.103.503h-.642a.639.639 0 0 0-.143-.427.676.676 0 0 0-.412-.218v1.207l.266.068c.069.018.153.046.254.083.1.037.182.076.246.115.064.039.132.09.205.153.072.063.13.133.171.208.042.076.077.167.105.273.027.106.041.222.041.348 0 .327-.114.603-.342.828-.228.225-.543.354-.946.389v.427h-.424v-.433c-.383-.042-.694-.184-.931-.426a1.236 1.236 0 0 1-.357-.902zm.756-1.793c0 .147.045.262.135.345.09.084.222.153.397.208v-1.098a.694.694 0 0 0-.396.196.498.498 0 0 0-.136.349zm.956 2.539a.825.825 0 0 0 .467-.188.505.505 0 0 0 .171-.395c0-.181-.055-.32-.166-.416a1.224 1.224 0 0 0-.472-.23v1.229z"/>
            <path stroke="#FFF" stroke-linecap="square" d="M80.5 6v5M83 8.5h-5M24.5 50v2M25.5 51h-2M98 34v3M99.5 35.5h-3M28.5 14v4M30.5 16h-4"/>
        </g>
    </g>
</svg>
