<?xml version="1.0" encoding="UTF-8"?>
<svg width="688px" height="818px" viewBox="0 0 688 818" version="1.1" xmlns="http://www.w3.org/2000/svg" xmlns:xlink="http://www.w3.org/1999/xlink">
    <!-- Generator: Sketch 51.3 (57544) - http://www.bohemiancoding.com/sketch -->
    <title>error</title>
    <desc>Created with Sketch.</desc>
    <defs>
        <filter x="-11.3%" y="-8.7%" width="122.7%" height="118.6%" filterUnits="objectBoundingBox" id="filter-1">
            <feOffset dx="0" dy="4" in="SourceAlpha" result="shadowOffsetOuter1"></feOffset>
            <feGaussianBlur stdDeviation="22" in="shadowOffsetOuter1" result="shadowBlurOuter1"></feGaussianBlur>
            <feColorMatrix values="0 0 0 0 0   0 0 0 0 0   0 0 0 0 0  0 0 0 0.5 0" type="matrix" in="shadowBlurOuter1" result="shadowMatrixOuter1"></feColorMatrix>
            <feMerge>
                <feMergeNode in="shadowMatrixOuter1"></feMergeNode>
                <feMergeNode in="SourceGraphic"></feMergeNode>
            </feMerge>
        </filter>
        <rect id="path-2" x="0" y="0" width="102" height="54"></rect>
    </defs>
    <g id="error" stroke="none" stroke-width="1" fill="none" fill-rule="evenodd">
        <g id="girl" filter="url(#filter-1)" transform="translate(44.000000, 39.000000)">
            <path d="M98.5704291,413.601912 L98.5704291,212.203825 C106.476213,84.1021455 174.001866,13.9202425 301.147388,1.65811567 C428.29291,-10.6040112 497.451026,59.5778918 508.621735,212.203825 L508.621735,413.601912 L177.474347,368.787313 L98.5704291,413.601912 Z" id="Path-4" fill="#313647" fill-rule="nonzero"></path>
            <path d="M167.86847,346.504198 C149.197761,296.630131 145.177239,259.904384 155.806903,236.326959 C195.331157,260.310168 253.18097,260.310168 329.356343,236.326959 C405.531716,212.34375 446.686101,212.34375 452.819496,236.326959 C451.868004,308.141325 442.397388,358.085354 424.407649,386.159049 C406.41791,414.232743 329.081157,422.206157 192.397388,410.079291 C194.715485,417.569963 186.539179,396.378265 167.86847,346.504198 Z" id="Path-5" stroke="#313647" fill="#FFD9BA" fill-rule="nonzero"></path>
            <circle id="Oval-2-Copy" fill-opacity="0.8" fill="#F3788F" fill-rule="nonzero" opacity="0.300000012" cx="226.567164" cy="351.940299" r="29.5522388"></circle>
            <circle id="Oval-2-Copy" fill-opacity="0.8" fill="#F3788F" fill-rule="nonzero" opacity="0.300000012" cx="369.850746" cy="351.940299" r="29.5522388"></circle>
            <rect id="Rectangle" stroke="#979797" fill="#D8D8D8" fill-rule="nonzero" x="0.5" y="346.5" width="599" height="384.074627" rx="10"></rect>
            <g id="Bitmap" transform="translate(268.000000, 524.000000)">
                <mask id="mask-3" fill="white">
                    <use xlink:href="#path-2"></use>
                </mask>
                <use id="Mask" fill="#D8D8D8" xlink:href="#path-2"></use>
            </g>
            <circle id="Oval-2" fill="#313647" fill-rule="nonzero" cx="241.253731" cy="291.402985" r="12"></circle>
            <path d="M223.814132,271.136894 C239.350513,265.343983 250.593517,265.343983 257.543144,271.136894" id="Path-6" stroke="#313647" stroke-width="3" fill-rule="nonzero"></path>
            <path d="M344.727146,272.976912 C360.193563,265.822062 371.538013,265.822062 378.760494,272.976912" id="Path-7" stroke="#313647" stroke-width="3" fill-rule="nonzero"></path>
            <path d="M447.28195,269.503265 C460.432603,267.392724 467.007929,273.96805 467.007929,289.229244 C467.007929,304.490438 460.432603,310.759095 447.28195,308.035215" id="Path-8" stroke="#313647" fill="#FFD9BA" fill-rule="nonzero"></path>
            <path d="M135.669673,269.04134 C148.820326,266.930799 155.395652,273.506125 155.395652,288.767319 C155.395652,304.028513 148.820326,310.29717 135.669673,307.573289" id="Path-8" stroke="#313647" fill="#FFD9BA" fill-rule="nonzero" transform="translate(145.532663, 288.424406) scale(-1, 1) translate(-145.532663, -288.424406) "></path>
            <circle id="Oval-2" fill="#313647" fill-rule="nonzero" cx="361.253731" cy="291.402985" r="12"></circle>
        </g>
        <g id="laguro-03" transform="translate(277.000000, 546.000000)" stroke="#2F3449">
            <path d="M58.3,21.5 C59.4,20.6 60.8,20 62.6,20 L64.6,20 L64.6,23.6 L62.6,23.6 C61.3,23.6 60.1,23.9 59.2,24.5" id="Shape" stroke-width="2" fill="#2F3449" fill-rule="nonzero"></path>
            <path d="M50.3532067,43.7229252 C43.2602767,43.7229252 38.0315142,38.4941627 38.0315142,31.3102977 C38.0315142,24.1719002 43.3512117,18.8976702 50.3986742,18.8976702 C57.5370717,18.8976702 62.7203667,24.2173677 62.7203667,31.3102977 C62.7203667,38.4032277 57.4461367,43.7229252 50.3532067,43.7229252 Z M50.3532067,40.4492652 C55.4455667,40.4492652 59.0374992,36.5845277 59.0374992,31.3102977 C59.0374992,26.0815352 55.4455667,22.1713302 50.3532067,22.1713302 C45.2608467,22.1713302 41.7143817,26.1270027 41.7143817,31.3102977 C41.7143817,36.6299952 45.3063142,40.4492652 50.3532067,40.4492652 Z" id="o" stroke-width="2.00000114" fill="#2D3247" transform="translate(50.375940, 31.310298) rotate(-0.061095) translate(-50.375940, -31.310298) "></path>
            <path d="M63.4,48.9 C63.4,56 58.1,61.3 51.1,61.3 C44.1,61.3 38.8,56.1 38.8,48.9 M42.4,48.9 C42.4,54.2 46,58 51,58 C56.1,58 59.7,54.1 59.7,48.9" id="Shape" stroke-width="2" fill="#2F3449" fill-rule="nonzero"></path>
            <path d="M0.3,37.6 L0.3,8.6 L3.9,8.6 L3.9,37.7 C3.9,38.9 4.5,39.6 5.6,39.6 L6.7,39.6 L6.7,42.8 L5,42.8 C2,42.7 0.3,40.8 0.3,37.6 Z" id="Shape" stroke-width="2" fill="#2F3449" fill-rule="nonzero"></path>
            <path d="M9.4,30.9 C9.4,23.6 14.2,18.4 20.9,18.4 C25.9,18.4 28.5,21.6 29.2,22.8 L29.5,22.8 L29.5,19 L33,19 L33,42.6 L29.5,42.6 L29.5,38.9 L29.2,38.9 C28.6,39.8 26.2,43.2 21,43.2 C14.2,43.3 9.4,38.1 9.4,30.9 Z M29.6,30.9 C29.6,25.1 26,21.7 21.3,21.7 C16.4,21.7 13.1,25.5 13.1,30.9 C13.1,36.4 16.5,40 21.4,40 C26.5,40 29.6,35.8 29.6,30.9 Z" id="Shape" stroke-width="2" fill="#2F3449" fill-rule="nonzero"></path>
            <path d="M70,34.1 L70,19.2 L73.6,19.2 L73.6,34 C73.6,37.8 76.4,40.2 79.7,40.2 C83.4,40.2 86.3,37.3 86.3,33.4 L86.3,19.2 L89.9,19.2 L89.9,42.8 L86.3,42.8 L86.3,39.3 L86,39.3 C85,41.4 82.5,43.3 78.8,43.3 C73.3,43.5 70,39.3 70,34.1 Z" id="Shape" stroke-width="2" fill="#2F3449" fill-rule="nonzero"></path>
            <path d="M96.2,19.2 L99.7,19.2 L99.7,23.6 L100,23.6 C100.7,21.6 103,19.2 106.5,19.2 L108.5,19.2 L108.5,22.8 L106.5,22.8 C102.2,22.8 99.8,26.2 99.8,30.7 L99.8,42.9 L96.2,42.9 L96.2,19.2 Z" id="Shape" stroke-width="2" fill="#2F3449" fill-rule="nonzero"></path>
            <path d="M110.3,31 C110.3,23.9 115.6,18.6 122.7,18.6 C129.8,18.6 135,23.9 135,31 C135,38.1 129.7,43.4 122.6,43.4 C115.5,43.5 110.3,38.2 110.3,31 Z M131.3,31 C131.3,25.8 127.7,21.9 122.6,21.9 C117.5,21.9 114,25.9 114,31 C114,36.3 117.6,40.1 122.6,40.1 C127.7,40.2 131.3,36.3 131.3,31 Z" id="Shape" stroke-width="2" fill="#2F3449" fill-rule="nonzero"></path>
        </g>
    </g>
</svg>