<?xml version="1.0" standalone="no"?>
<!DOCTYPE svg PUBLIC "-//W3C//DTD SVG 20010904//EN"
 "http://www.w3.org/TR/2001/REC-SVG-20010904/DTD/svg10.dtd">
<svg version="1.0" xmlns="http://www.w3.org/2000/svg"
 width="200.000000pt" height="200.000000pt" viewBox="0 0 200.000000 200.000000"
 preserveAspectRatio="xMidYMid meet">
<metadata>
Created by potrace 1.11, written by Peter Selinger 2001-2013
</metadata>
<g transform="translate(0.000000,200.000000) scale(0.100000,-0.100000)"
fill="#000000" stroke="none">
<path d="M5 1441 c8 -324 147 -602 396 -789 61 -45 205 -122 231 -122 9 0 19
-4 22 -9 3 -5 23 -12 43 -16 21 -5 43 -9 48 -11 33 -8 76 -15 115 -20 25 -3
52 -7 60 -8 8 -1 21 -5 27 -9 7 -4 21 -3 32 3 26 13 34 13 25 -2 -6 -10 -4
-10 7 -2 16 12 29 12 48 0 10 -6 12 -5 7 2 -5 8 1 11 16 11 33 -2 126 13 168
26 10 3 27 7 37 9 10 2 55 18 100 35 246 96 460 319 547 574 45 134 54 181 62
335 l5 102 -153 -1 c-100 0 -158 -5 -167 -12 -11 -9 -13 -9 -8 0 5 8 -4 12
-33 11 -36 0 -40 -3 -41 -27 -5 -231 -62 -391 -184 -514 -88 -89 -208 -149
-329 -164 -60 -8 -151 -7 -186 1 -14 3 -41 9 -60 12 -76 14 -183 76 -255 149
-126 127 -182 280 -185 506 l0 36 -112 1 c-72 0 -118 -4 -127 -11 -11 -9 -13
-9 -8 0 6 9 -13 12 -72 11 l-79 -2 3 -105z"/>
</g>
</svg>
