<?xml version="1.0" encoding="UTF-8"?>
<svg width="64px" height="88px" viewBox="0 0 64 88" version="1.1" xmlns="http://www.w3.org/2000/svg">
    <!-- Generator: Sketch 50 (54983) - http://www.bohemiancoding.com/sketch -->
    <title>logo</title>
    <desc>Created with Sketch.</desc>
    <defs></defs>
    <g id="UI-Mockups" stroke="none" stroke-width="1" fill="none" fill-rule="evenodd">
        <g id="Desktop---Home" transform="translate(-179.000000, -94.000000)">
            <g id="Group-3" transform="translate(176.000000, 94.000000)">
                <g id="logo">
                    <path d="M35.1279707,0 C17.7155759,0 3.60024375,14.1276636 3.60024375,31.5561425 C3.60024375,56.6737331 35.1279707,87.2078001 35.1279707,87.2078001 C35.1279707,87.2078001 66.6556977,56.6737331 66.6556977,31.5561425 C66.6556977,14.1276636 52.5403656,0 35.1279707,0 Z" id="Shape" fill="#FFFFFF" fill-rule="nonzero"></path>
                    <path d="M51.8581246,34.837263 C49.4210515,44.5286658 44.5495193,54.6962233 44.5495193,54.6962233 C44.5495193,54.6962233 43.5919421,57.0543222 41.1722954,57.0543222 C36.7747595,57.0543222 38.7491634,51.3430833 35.1270994,51.3430833 C31.4562418,51.3430833 33.5299757,57.0543222 29.0697051,57.0543222 C26.6265328,57.0543222 25.7055509,54.6962233 25.7055509,54.6962233 C25.7055509,54.6962233 20.8340187,44.5277938 18.3978169,34.837263 C15.9616152,25.1467323 25.5530705,24.6697056 25.5530705,24.6697056 L44.7019997,24.6697056 C44.7019997,24.6697056 54.293455,25.1467323 51.8581246,34.837263 Z" id="Path" fill="#0AD5B1"></path>
                    <path d="M35.2011614,32.1660881 C38.9757057,32.1660881 42.3642568,31.8713257 44.6819594,30.8745406 C43.1493132,32.6309057 39.4627718,33.8692564 35.1549816,33.8692564 C30.7949123,33.8692564 27.0717756,32.6003829 25.5739821,30.8100068 C27.8942987,31.8442913 31.3464558,32.1660881 35.2011614,32.1660881 Z" id="Path" fill="#FFFFFF"></path>
                </g>
            </g>
        </g>
    </g>
</svg>
