<?xml version="1.0" encoding="UTF-8"?>
<svg width="49px" height="16px" viewBox="0 0 49 16" version="1.1" xmlns="http://www.w3.org/2000/svg" xmlns:xlink="http://www.w3.org/1999/xlink">
    <!-- Generator: Sketch 50 (54983) - http://www.bohemiancoding.com/sketch -->
    <title>Laguro</title>
    <desc>Created with Sketch.</desc>
    <defs></defs>
    <g id="UI-Mockups" stroke="none" stroke-width="1" fill="none" fill-rule="evenodd">
        <g id="Desktop---Home" transform="translate(-37.000000, -13.000000)" fill="#FFFFFF">
            <path d="M38.84375,23.796875 L44.2265625,23.796875 L44.2265625,25 L37.3046875,25 L37.3046875,13.625 L38.84375,13.625 L38.84375,23.796875 Z M50.8515625,25 C50.7994789,24.7447904 50.7591147,24.5195322 50.7304688,24.3242188 C50.7018228,24.1289053 50.6848959,23.9322927 50.6796875,23.734375 C50.3932277,24.140627 50.0195336,24.4804674 49.5585938,24.7539062 C49.0976539,25.0273451 48.6015652,25.1640625 48.0703125,25.1640625 C47.1900998,25.1640625 46.5195336,24.9388043 46.0585938,24.4882812 C45.5976539,24.0377582 45.3671875,23.4166706 45.3671875,22.625 C45.3671875,21.8177043 45.6940071,21.1862002 46.3476562,20.7304688 C47.0013054,20.2747373 47.8880152,20.046875 49.0078125,20.046875 L50.6796875,20.046875 L50.6796875,19.2109375 C50.6796875,18.7161434 50.5286473,18.3242202 50.2265625,18.0351562 C49.9244777,17.7460923 49.4973986,17.6015625 48.9453125,17.6015625 C48.4505184,17.6015625 48.0481786,17.7278633 47.7382812,17.9804688 C47.4283839,18.2330742 47.2734375,18.5364566 47.2734375,18.890625 L45.8046875,18.890625 L45.7890625,18.84375 C45.7578123,18.2291636 46.048174,17.6666692 46.6601562,17.15625 C47.2721385,16.6458308 48.0624952,16.390625 49.03125,16.390625 C49.9895881,16.390625 50.7604137,16.6341121 51.34375,17.1210938 C51.9270863,17.6080754 52.21875,18.3098912 52.21875,19.2265625 L52.21875,23.296875 C52.21875,23.5989598 52.2343748,23.8906236 52.265625,24.171875 C52.2968752,24.4531264 52.3541662,24.7291653 52.4375,25 L50.8515625,25 Z M48.296875,23.875 C48.8541695,23.875 49.3567686,23.7317723 49.8046875,23.4453125 C50.2526064,23.1588527 50.5442702,22.830731 50.6796875,22.4609375 L50.6796875,21.0859375 L48.953125,21.0859375 C48.3333302,21.0859375 47.8372414,21.2421859 47.4648438,21.5546875 C47.0924461,21.8671891 46.90625,22.2343729 46.90625,22.65625 C46.90625,23.0312519 47.0234363,23.3281239 47.2578125,23.546875 C47.4921887,23.7656261 47.8385394,23.875 48.296875,23.875 Z M54.1171875,20.9296875 C54.1171875,19.5703057 54.4140595,18.4739625 55.0078125,17.640625 C55.6015655,16.8072875 56.4218698,16.390625 57.46875,16.390625 C58.005211,16.390625 58.4765605,16.4986968 58.8828125,16.7148438 C59.2890645,16.9309907 59.6276028,17.2421855 59.8984375,17.6484375 L60.0859375,16.546875 L61.3125,16.546875 L61.3125,25.046875 C61.3125,26.1302137 60.997399,26.9622367 60.3671875,27.5429688 C59.736976,28.1237008 58.8281309,28.4140625 57.640625,28.4140625 C57.234373,28.4140625 56.7955753,28.3580735 56.3242188,28.2460938 C55.8528622,28.134114 55.4375018,27.9817718 55.078125,27.7890625 L55.46875,26.59375 C55.744793,26.7500008 56.078123,26.8763016 56.46875,26.9726562 C56.859377,27.0690109 57.2447898,27.1171875 57.625,27.1171875 C58.3750038,27.1171875 58.9205712,26.9466163 59.2617188,26.6054688 C59.6028663,26.2643212 59.7734375,25.7447952 59.7734375,25.046875 L59.7734375,24.09375 C59.4973945,24.4479184 59.1666686,24.7148429 58.78125,24.8945312 C58.3958314,25.0742196 57.9531275,25.1640625 57.453125,25.1640625 C56.4166615,25.1640625 55.6015655,24.7890662 55.0078125,24.0390625 C54.4140595,23.2890588 54.1171875,22.3072977 54.1171875,21.09375 L54.1171875,20.9296875 Z M55.65625,21.09375 C55.65625,21.9427126 55.8359357,22.6249974 56.1953125,23.140625 C56.5546893,23.6562526 57.1015588,23.9140625 57.8359375,23.9140625 C58.2994815,23.9140625 58.6874984,23.8085948 59,23.5976562 C59.3125016,23.3867177 59.5703115,23.0885436 59.7734375,22.703125 L59.7734375,18.8125 C59.5755198,18.4531232 59.3177099,18.1679698 59,17.9570312 C58.6822901,17.7460927 58.2994814,17.640625 57.8515625,17.640625 C57.1171838,17.640625 56.5677102,17.9479136 56.203125,18.5625 C55.8385398,19.1770864 55.65625,19.966141 55.65625,20.9296875 L55.65625,21.09375 Z M68.9140625,23.75 C68.6484362,24.2031273 68.3072937,24.5520821 67.890625,24.796875 C67.4739563,25.0416679 66.9921902,25.1640625 66.4453125,25.1640625 C65.5234329,25.1640625 64.8046901,24.8697946 64.2890625,24.28125 C63.7734349,23.6927054 63.515625,22.7760479 63.515625,21.53125 L63.515625,16.546875 L65.0546875,16.546875 L65.0546875,21.546875 C65.0546875,22.4479212 65.1874987,23.0677066 65.453125,23.40625 C65.7187513,23.7447934 66.1328097,23.9140625 66.6953125,23.9140625 C67.2421902,23.9140625 67.6940086,23.8033865 68.0507812,23.5820312 C68.4075539,23.360676 68.6770824,23.046877 68.859375,22.640625 L68.859375,16.546875 L70.3984375,16.546875 L70.3984375,25 L69.015625,25 L68.9140625,23.75 Z M76.640625,17.90625 L75.8515625,17.859375 C75.4453105,17.859375 75.102866,17.9557282 74.8242188,18.1484375 C74.5455715,18.3411468 74.3307299,18.6119774 74.1796875,18.9609375 L74.1796875,25 L72.640625,25 L72.640625,16.546875 L74.015625,16.546875 L74.1640625,17.78125 C74.403647,17.3437478 74.699217,17.0026054 75.0507812,16.7578125 C75.4023455,16.5130196 75.8072894,16.390625 76.265625,16.390625 C76.3802089,16.390625 76.4895828,16.3997395 76.59375,16.4179688 C76.6979172,16.436198 76.7838538,16.4557291 76.8515625,16.4765625 L76.640625,17.90625 Z M77.765625,20.6953125 C77.765625,19.4453063 78.1041633,18.4153686 78.78125,17.6054688 C79.4583367,16.7955689 80.3775984,16.390625 81.5390625,16.390625 C82.7109434,16.390625 83.6367154,16.7942668 84.3164062,17.6015625 C84.9960971,18.4088582 85.3359375,19.4400979 85.3359375,20.6953125 L85.3359375,20.8671875 C85.3359375,22.1276105 84.9973992,23.1588502 84.3203125,23.9609375 C83.6432258,24.7630248 82.72136,25.1640625 81.5546875,25.1640625 C80.388015,25.1640625 79.4648471,24.7617228 78.7851562,23.9570312 C78.1054654,23.1523397 77.765625,22.1224021 77.765625,20.8671875 L77.765625,20.6953125 Z M79.3046875,20.8671875 C79.3046875,21.7630253 79.4934877,22.5026012 79.8710938,23.0859375 C80.2486998,23.6692738 80.8098921,23.9609375 81.5546875,23.9609375 C82.2890662,23.9609375 82.8463523,23.6692738 83.2265625,23.0859375 C83.6067727,22.5026012 83.796875,21.7630253 83.796875,20.8671875 L83.796875,20.6953125 C83.796875,19.8098914 83.6054707,19.0729196 83.2226562,18.484375 C82.8398418,17.8958304 82.2786495,17.6015625 81.5390625,17.6015625 C80.8046838,17.6015625 80.2486998,17.8958304 79.8710938,18.484375 C79.4934877,19.0729196 79.3046875,19.8098914 79.3046875,20.6953125 L79.3046875,20.8671875 Z" id="Laguro"></path>
        </g>
    </g>
</svg>