<?xml version="1.0" encoding="UTF-8"?>
<svg width="448px" height="148px" viewBox="0 0 448 148" version="1.1" xmlns="http://www.w3.org/2000/svg" xmlns:xlink="http://www.w3.org/1999/xlink">
    <!-- Generator: Sketch 51.2 (57519) - http://www.bohemiancoding.com/sketch -->
    <title>logo</title>
    <desc>Created with Sketch.</desc>
    <defs></defs>
    <g id="Page-1" stroke="none" stroke-width="1" fill="none" fill-rule="evenodd">
        <g id="logo" transform="translate(0.000000, -6.000000)">
            <rect id="Rectangle" x="0" y="0" width="329.341317" height="119.760479"></rect>
            <path d="M21.9879257,84.1148268 C21.1057496,89.2957556 15.893544,92.6821828 10.8430407,91.1960271 C10.747816,91.1673438 10.6543879,91.1386604 10.5627566,91.1099771 C7.9162282,90.2942945 5.81230101,89.1236556 4.24738163,87.5980603 C2.68246226,86.0760504 1.5828863,84.1775716 0.948653765,81.9097948 C0.314421229,79.6438107 0,77.0587244 0,74.1581214 L0,12.7381204 C0,9.43595049 2.39499142,6.61781204 5.65958212,6.07999936 C9.77939857,5.40056267 13.5255029,8.57186479 13.5255029,12.7381204 L13.5255029,71.5945476 C13.5255029,73.2294981 13.6530681,74.6045059 13.9171819,75.7177781 C14.1759057,76.8346358 14.6430458,77.7847715 15.3132122,78.5645999 C15.9833786,79.346221 16.8960985,79.9414004 18.0531686,80.3465526 C18.5778029,80.5329943 19.1689148,80.701509 19.8265044,80.8485111 C21.2979957,81.1801623 22.2412594,82.6304638 21.9879257,84.1148268" id="l" fill="#50E3C2"></path>
            <path d="M53.4498122,81.3875693 C56.1933621,81.3875693 58.5021122,81.2925557 60.3760628,81.0989431 C61.8475541,80.9483556 62.9525201,79.7149718 62.9525201,78.2413651 L62.9525201,68.0749127 C62.9525201,66.6730143 61.9445755,65.486241 60.5593254,65.246018 C60.2916182,65.1976148 60.0077407,65.1510044 59.7094897,65.104394 C58.2936959,64.882098 56.7287765,64.7691574 55.0147316,64.7691574 C53.5234767,64.7691574 52.0142548,64.882098 50.4888626,65.104394 C48.9598771,65.3266899 47.5818138,65.7372202 46.3528759,66.3323996 C45.1221414,66.9275789 44.1339604,67.7629813 43.3883329,68.8421921 C42.6427054,69.9214029 42.27079,71.2766908 42.27079,72.9116414 C42.27079,76.1116268 43.2787347,78.3202443 45.2910305,79.5500426 C47.3015297,80.7744628 50.0217225,81.3875693 53.4498122,81.3875693 M52.3322694,31.0859491 C56.8042376,31.0859491 60.5665122,31.6434816 63.6226865,32.7603393 C66.6770642,33.8736115 69.1169729,35.435061 70.9442094,37.4446877 C72.7696493,39.450729 74.0740482,41.8888132 74.8574062,44.7499767 C75.6407643,47.6129328 76.0288499,50.7537589 76.0288499,54.1742475 L76.0288499,87.1690556 C76.0288499,88.558405 75.0478556,89.7415929 73.6787758,89.9925722 C71.8012319,90.3349796 69.4349875,90.7222047 66.5854329,91.1488694 C62.3739851,91.779903 57.6217328,92.0972125 52.3322694,92.0972125 C48.8287185,92.0972125 45.6270121,91.7619759 42.7181665,91.0932955 C39.8129144,90.4228223 37.3334784,89.3454042 35.2870454,87.8574558 C33.2352223,86.3695074 31.6325723,84.4387599 30.4790956,82.0580424 C29.3220255,79.6791176 28.7470838,76.7426604 28.7470838,73.246878 C28.7470838,69.8998904 29.3974866,67.0763738 30.7036822,64.7691574 C32.0044877,62.4655264 33.7778235,60.5867674 36.0129092,59.1382586 C38.247995,57.6861644 40.8352325,56.6463932 43.7800119,56.0153596 C46.7247913,55.3825334 49.7989326,55.0670166 53.0024358,55.0670166 C54.4936907,55.0670166 56.0568134,55.1602375 57.6971939,55.3448865 C59.3357777,55.5313282 61.0875531,55.8486377 62.9525201,56.2932295 L62.9525201,54.0630996 C62.9525201,52.5016501 62.7656641,51.0154944 62.3937487,49.6028398 C62.0200366,48.1901851 61.3678371,46.9442524 60.4371503,45.8668343 C59.5046668,44.7876235 58.2757289,43.9504285 56.7485401,43.3552491 C55.2195546,42.7600697 53.3006868,42.46248 50.9919366,42.46248 C47.8620978,42.46248 44.9909828,42.6865687 42.3839817,43.1311605 C42.1019009,43.1795636 41.8234135,43.2297595 41.5521129,43.2799553 C38.4815651,43.8482441 35.563736,41.766909 35.0912059,38.687035 C34.6456261,35.7828465 36.5429336,33.0400019 39.4248287,32.4430298 C40.1722529,32.2888568 40.9735779,32.1328911 41.8252102,31.9787182 C45.1023778,31.3835388 48.6059286,31.0859491 52.3322694,31.0859491" id="a" fill="#50E3C2"></path>
            <path d="M103.696121,59.9718683 C103.696121,65.6977806 104.943026,69.8801706 107.440429,72.5208308 C109.937832,75.1614911 113.161099,76.4791322 117.110229,76.4791322 C119.271651,76.4791322 121.301913,76.1833352 123.201018,75.5881558 C124.358088,75.2260286 125.383999,74.8226691 126.276956,74.3762846 C127.248966,73.8940459 127.840078,72.8937143 127.840078,71.8109181 L127.840078,45.6266113 C127.840078,44.2175421 126.821354,43.0056709 125.425323,42.7923385 C125.057001,42.7367645 124.670712,42.6811905 124.26466,42.629202 C122.847069,42.444553 121.05936,42.3495394 118.899735,42.3495394 C113.980391,42.3495394 110.216319,43.9665628 107.609318,47.2024025 C105.00052,50.4364494 103.696121,54.6941331 103.696121,59.9718683 Z M141.367378,84.7345568 C141.367378,94.0261673 138.999337,100.829498 134.270442,105.142755 C129.536156,109.456013 122.290094,111.614435 112.526866,111.614435 C108.951448,111.614435 105.465864,111.315052 102.075504,110.721666 C100.736968,110.485028 99.446943,110.2215 98.207225,109.927496 C95.195968,109.21579 93.313034,106.236308 93.9580467,103.215593 L93.997574,103.03453 C94.6785205,99.854264 97.880227,97.9683342 101.044203,98.7499553 C101.74132,98.9238481 102.4582,99.0833992 103.193047,99.232194 C106.13603,99.8255807 109.323363,100.124963 112.751453,100.124963 C118.188245,100.124963 122.065508,99.0081054 124.376055,96.7779755 C126.684805,94.5478456 127.840078,91.2385049 127.840078,86.8517461 L127.840078,84.6216162 C126.499746,85.2902966 124.728207,85.9589771 122.530851,86.6276575 C120.333496,87.2963379 117.81633,87.6333672 114.986539,87.6333672 C111.258401,87.6333672 107.850075,87.0381878 104.757967,85.8478291 C101.664062,84.6592631 99.0175335,82.9113719 96.8219749,80.6059482 C94.622823,78.3023172 92.9087782,75.4196412 91.6798403,71.9615056 C90.4509025,68.5051628 89.8346369,64.5074219 89.8346369,59.9718683 C89.8346369,55.7339043 90.4868363,51.831177 91.7912353,48.2601008 C93.0956342,44.69261 94.9947384,41.6432121 97.4921413,39.1136997 C99.9895442,36.5877728 103.025955,34.615793 106.60317,33.2031384 C110.178589,31.7922764 114.240911,31.0859491 118.786544,31.0859491 C123.183051,31.0859491 127.356768,31.4176003 131.305899,32.0880734 C134.256068,32.5882392 136.872053,33.1081248 139.155649,33.6495229 C140.458251,33.9578688 141.367378,35.1105807 141.367378,36.4461488 L141.367378,84.7345568 Z" id="g" fill="#50E3C2"></path>
            <path d="M206.734653,87.160092 C206.734653,88.5010383 205.821933,89.6627137 204.512144,89.9585107 C202.286042,90.4586765 199.63592,90.9695985 196.561779,91.4912768 C192.388062,92.1958115 187.804698,92.5489751 182.813486,92.5489751 C178.116931,92.5489751 174.185768,91.8802947 171.019995,90.5429338 C167.850629,89.2037802 165.319089,87.3465338 163.419985,84.9640236 C161.517287,82.5868915 160.157191,79.7418624 159.337899,76.4325217 C158.51681,73.1249738 158.108961,69.4983236 158.108961,65.5579493 L158.108961,39.6264145 C158.108961,35.8993726 161.136388,32.8786581 164.871712,32.8786581 C168.607037,32.8786581 171.634464,35.8993726 171.634464,39.6264145 L171.634464,63.4389673 C171.634464,69.6847653 172.547184,74.1450251 174.372624,76.8233323 C176.198063,79.4998467 179.3836,80.8390003 183.931029,80.8390003 C185.569613,80.8390003 187.301625,80.767292 189.128861,80.6167044 C189.684039,80.570094 190.196097,80.5216908 190.665033,80.4697023 C192.120354,80.3065658 193.20915,79.0785601 193.20915,77.6157096 L193.20915,39.6264145 C193.20915,35.8993726 196.236577,32.8786581 199.971902,32.8786581 C203.707226,32.8786581 206.734653,35.8993726 206.734653,39.6264145 L206.734653,87.160092 Z" id="u" fill="#50E3C2"></path>
            <path d="M256.718645,41.4764901 C256.391647,43.0558667 254.837508,44.0615764 253.263605,43.6940711 C252.710224,43.564996 252.110128,43.4323356 251.461522,43.2978824 C249.486957,42.8891448 247.194377,42.6829832 244.587376,42.6829832 C243.096121,42.6829832 241.513234,42.8335708 239.83692,43.1293678 C239.393137,43.208247 238.985288,43.2835407 238.613372,43.3570418 C237.26765,43.6223627 236.315402,44.8019652 236.315402,46.1698021 L236.315402,83.8973618 C236.315402,87.6226109 233.287975,90.6433255 229.552651,90.6433255 C225.819123,90.6433255 222.789899,87.6226109 222.789899,83.8973618 L222.789899,37.1488907 C222.789899,35.902958 223.585834,34.7986493 224.775245,34.4168023 C226.995957,33.7015115 229.593975,33.0184893 232.571095,32.3659433 C236.482495,31.5126138 240.823304,31.0859491 245.593524,31.0859491 C246.488277,31.0859491 247.530358,31.1415231 248.723362,31.2508783 C249.91457,31.3620263 251.107574,31.5126138 252.300578,31.6972629 C253.491785,31.8837046 254.648855,32.1077932 255.766398,32.3659433 C257.272026,32.7208997 258.218884,34.20347 257.908056,35.7147236 L256.718645,41.4764901 Z" id="r" fill="#50E3C2"></path>
            <path d="M307.342786,80.0937222 C304.392574,84.1340942 300.281589,86.1532553 294.99956,86.1532553 C289.719585,86.1532553 285.606545,84.1340942 282.658388,80.0937222 C279.710231,76.05745 278.237179,70.5677917 278.237179,63.6308973 C278.237179,56.7821489 279.710231,51.3601377 282.658388,47.3648637 C285.606545,43.3695896 289.719585,41.3709277 294.99956,41.3709277 C300.281589,41.3709277 304.392574,43.3695896 307.342786,47.3648637 C310.290943,51.3601377 311.763995,56.7821489 311.763995,63.6308973 C311.763995,70.5677917 310.290943,76.05745 307.342786,80.0937222 M294.315423,27.5504364 C275.632118,27.9337695 260.79888,43.3572902 261.18101,61.9991691 C261.723389,88.2544128 296.018574,110.063402 296.018574,110.063402 C296.018574,110.063402 329.385142,86.864574 328.844817,60.6113803 C328.458578,41.9674514 313.000783,27.1671033 294.315423,27.5504364" id="o" fill="#50E3C2"></path>
            <text id="smile-anywhere" font-family="Ubuntu-BoldItalic, Ubuntu" font-size="30" font-style="italic" font-weight="bold" letter-spacing="-0.683333218" fill="#303549">
                <tspan x="239" y="148">smile anywhere</tspan>
            </text>
        </g>
    </g>
</svg>
