<?xml version="1.0" encoding="utf-8"?>
<!-- Generator: Adobe Illustrator 22.1.0, SVG Export Plug-In . SVG Version: 6.00 Build 0)  -->
<svg version="1.1" id="Layer_1" xmlns="http://www.w3.org/2000/svg" xmlns:xlink="http://www.w3.org/1999/xlink" x="0px" y="0px"
	 viewBox="0 0 127.7 57" style="enable-background:new 0 0 127.7 57;" xml:space="preserve">
<style type="text/css">
	.st0{fill:#FFFFFF;}
	.st1{enable-background:new    ;}
</style>
<title>logo</title>
<desc>Created with Sketch.</desc>
<g id="Page-1">
	<g id="_x32_-search-result-3" transform="translate(-270.000000, -32.000000)">
		<path id="l" class="st0" d="M277.3,58.1c-0.3,1.7-2,2.9-3.7,2.4h-0.1c-0.9-0.3-1.6-0.7-2.1-1.2s-0.9-1.1-1.1-1.9
			c-0.2-0.8-0.3-1.7-0.3-2.6V34.3c0-1.1,0.8-2,1.9-2.2c1.4-0.2,2.6,0.8,2.6,2.2V54c0,0.5,0,1,0.1,1.4s0.2,0.7,0.5,1
			c0.2,0.3,0.5,0.5,0.9,0.6c0.2-0.1,0.4,0,0.6,0C277.1,57.1,277.4,57.6,277.3,58.1"/>
		<path id="a" class="st0" d="M287.9,57.2c0.9,0,1.7,0,2.3-0.1c0.5-0.1,0.9-0.5,0.9-1v-3.4c0-0.5-0.3-0.9-0.8-0.9
			c-0.1,0-0.2,0-0.3,0c-0.5-0.1-1-0.1-1.6-0.1c-0.5,0-1,0-1.5,0.1s-1,0.2-1.4,0.4s-0.7,0.5-1,0.8s-0.4,0.8-0.4,1.4
			c0,1.1,0.3,1.8,1,2.2C285.8,57,286.7,57.2,287.9,57.2 M287.5,40.4c1.5,0,2.8,0.2,3.8,0.6s1.8,0.9,2.4,1.6c0.6,0.7,1,1.5,1.3,2.4
			c0.3,1,0.4,2,0.4,3.1v11c0,0.5-0.3,0.9-0.8,0.9c-0.6,0.1-1.4,0.2-2.4,0.4c-1.4,0.2-3,0.3-4.8,0.3c-1.2,0-2.2-0.1-3.2-0.3
			s-1.8-0.6-2.5-1.1s-1.2-1.1-1.6-1.9c-0.4-0.8-0.6-1.8-0.6-2.9s0.2-2.1,0.7-2.8c0.4-0.8,1-1.4,1.8-1.9c0.7-0.5,1.6-0.8,2.6-1
			s2-0.3,3.1-0.3c0.5,0,1,0,1.6,0.1c0.5,0.1,1.1,0.2,1.8,0.3v-0.7c0-0.5-0.1-1-0.2-1.5s-0.3-0.9-0.7-1.2c-0.3-0.4-0.7-0.6-1.2-0.8
			s-1.2-0.3-1.9-0.3c-1,0-2,0.1-2.9,0.2c-0.1,0-0.2,0-0.3,0c-1,0.2-2-0.5-2.2-1.5c-0.1-1,0.5-1.9,1.4-2.1c0.2-0.1,0.5-0.1,0.8-0.2
			C285.1,40.5,286.2,40.4,287.5,40.4"/>
		<path id="g" class="st0" d="M304.6,50c0,1.9,0.4,3.3,1.3,4.2c0.8,0.9,1.9,1.3,3.2,1.3c0.7,0,1.4-0.1,2-0.3c0.4-0.1,0.7-0.3,1-0.4
			c0.3-0.2,0.5-0.5,0.5-0.9v-8.7c0-0.5-0.3-0.9-0.8-0.9c-0.1,0-0.3,0-0.4-0.1c-0.5-0.1-1.1-0.1-1.8-0.1c-1.6,0-2.9,0.5-3.8,1.6
			C305.1,46.8,304.6,48.3,304.6,50z M317.2,58.3c0,3.1-0.8,5.4-2.4,6.8c-1.6,1.4-4,2.2-7.3,2.2c-1.2,0-2.4-0.1-3.5-0.3
			c-0.4-0.1-0.9-0.2-1.3-0.3c-1-0.2-1.6-1.2-1.4-2.2v-0.1c0.2-1.1,1.3-1.7,2.4-1.4c0.2,0.1,0.5,0.1,0.7,0.2c1,0.2,2,0.3,3.2,0.3
			c1.8,0,3.1-0.4,3.9-1.1c0.8-0.7,1.2-1.9,1.2-3.3v-0.7c-0.4,0.2-1,0.4-1.8,0.7s-1.6,0.3-2.5,0.3c-1.2,0-2.4-0.2-3.4-0.6
			c-1-0.4-1.9-1-2.7-1.8c-0.7-0.8-1.3-1.7-1.7-2.9s-0.6-2.5-0.6-4c0-1.4,0.2-2.7,0.7-3.9c0.4-1.2,1.1-2.2,1.9-3.1
			c0.8-0.8,1.8-1.5,3-2s2.6-0.7,4.1-0.7s2.9,0.1,4.2,0.3c1,0.2,1.9,0.3,2.6,0.5c0.4,0.1,0.7,0.5,0.7,0.9L317.2,58.3L317.2,58.3z"/>
		<path id="u" class="st0" d="M339,59.1c0,0.4-0.3,0.8-0.7,0.9c-0.7,0.2-1.6,0.3-2.7,0.5c-1.4,0.2-2.9,0.4-4.6,0.4
			c-1.6,0-2.9-0.2-3.9-0.7c-1.1-0.4-1.9-1.1-2.5-1.9s-1.1-1.7-1.4-2.8s-0.4-2.3-0.4-3.6v-8.7c0-1.2,1-2.3,2.3-2.3
			c1.2,0,2.3,1,2.3,2.3v8c0,2.1,0.3,3.6,0.9,4.5s1.7,1.3,3.2,1.3c0.5,0,1.1,0,1.7-0.1c0.2,0,0.4,0,0.5,0c0.5-0.1,0.8-0.5,0.8-1V43.2
			c0-1.2,1-2.3,2.3-2.3c1.2,0,2.3,1,2.3,2.3L339,59.1L339,59.1z"/>
		<path id="r" class="st0" d="M355.7,43.9c-0.1,0.5-0.6,0.9-1.2,0.7c-0.2,0-0.4-0.1-0.6-0.1c-0.7-0.1-1.4-0.2-2.3-0.2
			c-0.5,0-1,0.1-1.6,0.1c-0.1,0-0.3,0.1-0.4,0.1c-0.4,0.1-0.8,0.5-0.8,0.9V58c0,1.2-1,2.3-2.3,2.3c-1.2,0-2.3-1-2.3-2.3V42.4
			c0-0.4,0.3-0.8,0.7-0.9c0.7-0.2,1.6-0.5,2.6-0.7c1.3-0.3,2.8-0.4,4.3-0.4c0.3,0,0.6,0,1,0.1c0.4,0,0.8,0.1,1.2,0.1
			c0.4,0.1,0.8,0.1,1.2,0.2c0.5,0.1,0.8,0.6,0.7,1.1L355.7,43.9z"/>
		<path id="o" class="st0" d="M372.7,56.8c-1,1.3-2.4,2-4.1,2c-1.8,0-3.1-0.7-4.1-2s-1.5-3.2-1.5-5.5s0.5-4.1,1.5-5.4
			c1-1.3,2.4-2,4.1-2c1.8,0,3.1,0.7,4.1,2s1.5,3.1,1.5,5.4C374.1,53.6,373.6,55.4,372.7,56.8 M368.3,39.2
			c-6.2,0.1-11.2,5.3-11.1,11.5c0.2,8.8,11.6,16.1,11.6,16.1s11.1-7.7,11-16.5C379.7,44,374.5,39.1,368.3,39.2"/>
		<g class="st1">
			<path class="st0" d="M298.4,84.5c0.5,0,0.8-0.1,1-0.2s0.3-0.3,0.3-0.4s0-0.2,0-0.3c0-0.1-0.1-0.1-0.2-0.2s-0.2-0.1-0.3-0.2
				c-0.1-0.1-0.3-0.2-0.5-0.2c-0.2-0.1-0.5-0.2-0.7-0.3c-0.2-0.1-0.4-0.3-0.5-0.4c-0.2-0.2-0.3-0.4-0.4-0.6S297,81.2,297,81
				c0-0.8,0.3-1.4,0.8-1.8c0.6-0.4,1.4-0.7,2.4-0.7c0.5,0,1,0.1,1.3,0.2c0.4,0.1,0.7,0.2,1,0.4l-0.7,1.6c-0.2-0.1-0.4-0.2-0.8-0.3
				c-0.3-0.1-0.6-0.1-0.9-0.1c-0.1,0-0.3,0-0.4,0s-0.2,0-0.3,0.1c-0.1,0-0.2,0.1-0.3,0.2s-0.1,0.2-0.1,0.3c0,0.2,0.1,0.3,0.2,0.4
				s0.3,0.2,0.6,0.3c0.4,0.2,0.7,0.3,0.9,0.5s0.4,0.3,0.6,0.5c0.1,0.2,0.2,0.4,0.3,0.6c0.1,0.2,0.1,0.5,0.1,0.8s-0.1,0.6-0.2,0.9
				s-0.3,0.5-0.6,0.8c-0.3,0.2-0.6,0.4-1,0.5s-0.9,0.2-1.5,0.2c-0.4,0-0.7,0-1-0.1s-0.6-0.1-0.8-0.2s-0.4-0.1-0.6-0.2
				s-0.3-0.1-0.4-0.2l0.7-1.6c0.2,0.1,0.4,0.2,0.7,0.3C297.5,84.4,297.9,84.5,298.4,84.5z"/>
			<path class="st0" d="M304.4,79c0.2,0,0.3-0.1,0.5-0.2s0.4-0.1,0.6-0.2s0.5-0.1,0.8-0.1s0.6,0,1,0s0.8,0.1,1.1,0.2
				c0.3,0.1,0.6,0.3,0.8,0.5c0.3-0.2,0.7-0.4,1-0.5s0.7-0.2,1.2-0.2c0.4,0,0.8,0.1,1.1,0.2c0.3,0.1,0.6,0.3,0.8,0.5
				c0.2,0.2,0.4,0.5,0.4,0.8c0.1,0.3,0.1,0.6,0.1,1c0,0.2,0,0.3,0,0.5s-0.1,0.4-0.1,0.6l-1,4h-2.1l0.9-3.9c0-0.1,0.1-0.3,0.1-0.4
				s0-0.3,0-0.5c0-0.3-0.1-0.5-0.2-0.7s-0.4-0.3-0.7-0.3c-0.2,0-0.4,0-0.6,0.1s-0.3,0.1-0.5,0.2c0,0.1,0,0.1,0,0.2s0,0.1,0,0.2
				c0,0.2,0,0.3,0,0.5s-0.1,0.4-0.1,0.6l-1,4h-2.1l0.9-3.9c0-0.1,0.1-0.3,0.1-0.4c0-0.2,0-0.3,0-0.5c0-0.3-0.1-0.5-0.2-0.7
				s-0.4-0.3-0.7-0.3c-0.1,0-0.3,0-0.4,0s-0.2,0-0.4,0.1l-1.4,5.7h-2.1L304.4,79z"/>
			<path class="st0" d="M316.7,86h-2.1l1.8-7.4h2.1L316.7,86z M317.7,77.7c-0.3,0-0.6-0.1-0.8-0.3s-0.4-0.4-0.4-0.8
				c0-0.2,0-0.4,0.1-0.6s0.2-0.3,0.3-0.4s0.3-0.2,0.5-0.3c0.2-0.1,0.4-0.1,0.6-0.1c0.3,0,0.6,0.1,0.8,0.3s0.4,0.4,0.4,0.8
				c0,0.2,0,0.4-0.1,0.6s-0.2,0.3-0.3,0.4s-0.3,0.2-0.5,0.3C318,77.7,317.9,77.7,317.7,77.7z"/>
			<path class="st0" d="M321.6,86.1c-0.7,0-1.2-0.1-1.6-0.3c-0.4-0.2-0.6-0.4-0.8-0.7c-0.2-0.3-0.2-0.6-0.2-1s0.1-0.8,0.2-1.2
				l1.8-7.4l2.2-0.3l-1.9,8.1c0,0.2-0.1,0.3-0.1,0.5c0,0.1,0,0.3,0.1,0.4s0.2,0.2,0.3,0.3s0.3,0.1,0.6,0.1L321.6,86.1z"/>
			<path class="st0" d="M323.4,83.1c0-0.6,0.1-1.2,0.3-1.7c0.2-0.6,0.5-1.1,0.9-1.5s0.8-0.8,1.4-1c0.5-0.3,1.1-0.4,1.8-0.4
				c0.3,0,0.6,0,0.9,0.1s0.5,0.2,0.7,0.4c0.2,0.2,0.4,0.4,0.5,0.7c0.1,0.3,0.2,0.5,0.2,0.9c0,0.5-0.1,1-0.4,1.3s-0.6,0.7-1,0.9
				c-0.4,0.2-0.9,0.4-1.5,0.5s-1.2,0.2-1.9,0.2c0.1,0.4,0.2,0.7,0.4,0.8s0.6,0.2,1,0.2c0.3,0,0.6,0,0.9-0.1s0.6-0.1,0.9-0.2l0.2,1.6
				c-0.3,0.1-0.6,0.2-1,0.3c-0.4,0.1-0.8,0.1-1.3,0.1c-0.6,0-1.1-0.1-1.5-0.2c-0.4-0.2-0.7-0.4-1-0.7c-0.2-0.3-0.4-0.6-0.5-1
				C323.4,83.9,323.4,83.5,323.4,83.1z M327.5,80.1c-0.5,0-0.9,0.2-1.3,0.5s-0.6,0.8-0.7,1.4c0.6,0,1-0.1,1.4-0.1
				c0.4-0.1,0.6-0.2,0.8-0.3c0.2-0.1,0.3-0.2,0.4-0.4s0.1-0.3,0.1-0.4C328.2,80.3,328,80.1,327.5,80.1z"/>
			<path class="st0" d="M340.6,82.8c-0.1,0.5-0.2,1.1-0.1,1.6s0.2,1,0.3,1.4l-1.9,0.3c-0.1-0.1-0.1-0.2-0.2-0.3
				c0-0.1-0.1-0.2-0.1-0.3c-0.3,0.2-0.6,0.4-0.9,0.5s-0.7,0.2-1.1,0.2c-0.5,0-0.9-0.1-1.2-0.2c-0.3-0.2-0.6-0.4-0.8-0.7
				c-0.2-0.3-0.4-0.6-0.5-1s-0.1-0.8-0.1-1.2c0-0.6,0.1-1.2,0.3-1.8s0.5-1.1,1-1.5c0.4-0.4,0.9-0.8,1.4-1c0.6-0.2,1.1-0.4,1.8-0.4
				c0.1,0,0.2,0,0.4,0c0.2,0,0.5,0,0.7,0.1c0.3,0,0.6,0.1,0.9,0.2s0.6,0.2,0.9,0.3L340.6,82.8z M339.2,80.2c-0.1,0-0.2,0-0.3,0
				c-0.1,0-0.2,0-0.4,0c-0.3,0-0.6,0.1-0.9,0.2c-0.3,0.2-0.5,0.4-0.7,0.6s-0.4,0.6-0.5,0.9s-0.2,0.7-0.2,1c0,0.4,0.1,0.8,0.2,1.1
				c0.1,0.3,0.4,0.4,0.8,0.4c0.2,0,0.4,0,0.6-0.1s0.4-0.2,0.6-0.4c0-0.2,0-0.5,0.1-0.7c0-0.3,0.1-0.5,0.1-0.7L339.2,80.2z"/>
			<path class="st0" d="M343.7,79c0.2,0,0.3-0.1,0.5-0.2s0.4-0.1,0.6-0.2s0.5-0.1,0.8-0.1s0.6,0,1,0c1.1,0,1.9,0.3,2.3,1
				s0.5,1.5,0.2,2.6l-1,4H346l0.9-3.9c0.1-0.2,0.1-0.5,0.1-0.7s0-0.4,0-0.6s-0.1-0.3-0.3-0.4s-0.3-0.2-0.6-0.2c-0.3,0-0.5,0-0.8,0.1
				l-1.4,5.7H342L343.7,79z"/>
			<path class="st0" d="M357.6,78.6c-0.3,0.7-0.5,1.4-0.8,2s-0.5,1.2-0.8,1.8c-0.3,0.6-0.6,1.1-0.9,1.6s-0.6,1-1,1.5
				c-0.3,0.4-0.5,0.7-0.8,1.1s-0.6,0.7-0.9,1s-0.7,0.5-1.1,0.7s-0.9,0.3-1.4,0.3c-0.3,0-0.6,0-0.8-0.1c-0.2-0.1-0.5-0.1-0.7-0.2
				l0.6-1.6c0.2,0.1,0.4,0.1,0.5,0.2s0.3,0.1,0.5,0.1c0.3,0,0.6-0.1,0.9-0.3c0.3-0.2,0.5-0.5,0.7-0.8c-0.2-0.9-0.5-2-0.7-3.1
				c-0.2-1.2-0.3-2.5-0.4-3.9h2.1c0,0.4,0,0.8,0.1,1.2c0,0.4,0.1,0.9,0.1,1.3s0.1,0.9,0.1,1.3s0.1,0.8,0.2,1.1
				c0.4-0.7,0.8-1.4,1.2-2.2c0.3-0.8,0.7-1.7,1-2.7h2.3L357.6,78.6L357.6,78.6z"/>
			<path class="st0" d="M363,81.7c-0.2,0.4-0.4,0.8-0.6,1.2c-0.2,0.4-0.4,0.8-0.7,1.2c-0.2,0.4-0.5,0.7-0.7,1.1
				c-0.2,0.3-0.4,0.6-0.6,0.9h-1.6c-0.1-0.4-0.2-0.9-0.2-1.4c-0.1-0.5-0.2-1.1-0.2-1.8s-0.1-1.3-0.2-2s-0.1-1.4-0.1-2.2h2
				c0,0.3,0,0.7,0,1.1s0,0.8,0,1.2s0,0.8,0.1,1.3c0,0.4,0.1,0.9,0.1,1.3c0.2-0.4,0.5-0.8,0.7-1.2c0.2-0.4,0.4-0.8,0.7-1.3
				c0.2-0.4,0.4-0.8,0.6-1.3c0.2-0.4,0.3-0.8,0.5-1.1h1.7c0,0.7,0,1.4,0,2.3c0,0.8,0.1,1.7,0.2,2.6c0.3-0.4,0.5-0.9,0.7-1.3
				s0.4-0.9,0.6-1.3s0.3-0.8,0.5-1.2c0.1-0.4,0.3-0.7,0.4-1.1h2.2c-0.2,0.5-0.4,1-0.7,1.6c-0.3,0.6-0.6,1.2-0.9,1.8
				c-0.3,0.6-0.7,1.3-1.1,2s-0.9,1.3-1.4,2h-1.6c-0.1-0.8-0.2-1.5-0.3-2.2S363,82.4,363,81.7z"/>
			<path class="st0" d="M373.6,78.5c0.4,0,0.7,0.1,1,0.2s0.5,0.3,0.7,0.5s0.3,0.5,0.4,0.7c0.1,0.3,0.1,0.6,0.1,0.9
				c0,0.4,0,0.8-0.1,1.2l-1,4h-2.1l0.9-3.9c0-0.2,0.1-0.3,0.1-0.5s0-0.3,0-0.5s-0.1-0.5-0.2-0.6c-0.1-0.2-0.4-0.3-0.7-0.3
				c-0.1,0-0.3,0-0.4,0s-0.3,0-0.4,0.1l-1.4,5.7h-2.1l2.5-10.5l2.2-0.3l-0.9,3.5c0.2,0,0.4-0.1,0.6-0.1
				C373.2,78.5,373.4,78.5,373.6,78.5z"/>
			<path class="st0" d="M377,83.1c0-0.6,0.1-1.2,0.3-1.7c0.2-0.6,0.5-1.1,0.9-1.5s0.8-0.8,1.4-1c0.5-0.3,1.1-0.4,1.8-0.4
				c0.3,0,0.6,0,0.9,0.1s0.5,0.2,0.7,0.4c0.2,0.2,0.4,0.4,0.5,0.7c0.1,0.3,0.2,0.5,0.2,0.9c0,0.5-0.1,1-0.4,1.3
				c-0.2,0.4-0.6,0.7-1,0.9c-0.4,0.2-0.9,0.4-1.5,0.5s-1.2,0.2-1.9,0.2c0.1,0.4,0.2,0.7,0.4,0.8s0.6,0.2,1,0.2c0.3,0,0.6,0,0.9-0.1
				s0.6-0.1,0.9-0.2l0.2,1.6c-0.3,0.1-0.6,0.2-1,0.3s-0.8,0.1-1.3,0.1c-0.6,0-1.1-0.1-1.5-0.2c-0.4-0.2-0.7-0.4-1-0.7
				c-0.2-0.3-0.4-0.6-0.5-1C377,83.9,377,83.5,377,83.1z M381,80.1c-0.5,0-0.9,0.2-1.3,0.5s-0.6,0.8-0.7,1.4c0.6,0,1-0.1,1.4-0.1
				c0.4-0.1,0.6-0.2,0.8-0.3c0.2-0.1,0.3-0.2,0.4-0.4s0.1-0.3,0.1-0.4C381.8,80.3,381.5,80.1,381,80.1z"/>
			<path class="st0" d="M389.6,80.4c-0.2,0-0.4-0.1-0.6-0.1s-0.5-0.1-0.8-0.1c-0.1,0-0.3,0-0.4,0c-0.2,0-0.3,0-0.4,0.1L386,86h-2
				l1.7-7c0.4-0.1,0.9-0.3,1.4-0.4s1.1-0.2,1.7-0.2c0.2,0,0.5,0,0.8,0.1s0.5,0.1,0.7,0.2L389.6,80.4z"/>
			<path class="st0" d="M390.1,83.1c0-0.6,0.1-1.2,0.3-1.7c0.2-0.6,0.5-1.1,0.9-1.5s0.8-0.8,1.4-1c0.5-0.3,1.2-0.4,1.8-0.4
				c0.3,0,0.6,0,0.9,0.1s0.5,0.2,0.7,0.4c0.2,0.2,0.4,0.4,0.5,0.7c0.1,0.3,0.2,0.5,0.2,0.9c0,0.5-0.1,1-0.3,1.3
				c-0.2,0.4-0.6,0.7-1,0.9c-0.4,0.2-0.9,0.4-1.5,0.5s-1.2,0.2-1.9,0.2c0.1,0.4,0.2,0.7,0.4,0.8s0.6,0.2,1,0.2c0.3,0,0.6,0,0.9-0.1
				s0.6-0.1,0.9-0.2l0.2,1.6c-0.3,0.1-0.6,0.2-1,0.3c-0.4,0.1-0.8,0.1-1.3,0.1c-0.6,0-1.1-0.1-1.5-0.2s-0.7-0.4-1-0.7
				c-0.2-0.3-0.4-0.6-0.5-1C390.1,83.9,390.1,83.5,390.1,83.1z M394.1,80.1c-0.5,0-0.9,0.2-1.3,0.5s-0.6,0.8-0.7,1.4
				c0.6,0,1-0.1,1.4-0.1c0.4-0.1,0.6-0.2,0.8-0.3c0.2-0.1,0.3-0.2,0.4-0.4s0.1-0.3,0.1-0.4C394.9,80.3,394.6,80.1,394.1,80.1z"/>
		</g>
	</g>
</g>
</svg>
