<svg xmlns="http://www.w3.org/2000/svg" width="172" height="57" viewBox="0 0 172 57">
    <g fill="none" fill-rule="evenodd">
        <path d="M0-2h110v40H0z"/>
        <path fill="#FFF" d="M7.344 26.094c-.295 1.73-2.036 2.862-3.722 2.365a9.074 9.074 0 0 1-.094-.028c-.884-.273-1.587-.664-2.11-1.173-.522-.509-.89-1.143-1.101-1.9C.105 24.6 0 23.738 0 22.768V2.256C0 1.152.8.21 1.89.03a2.257 2.257 0 0 1 2.628 2.224v19.658c0 .546.042 1.005.13 1.377.087.373.243.69.467.95.223.262.528.46.915.596.175.062.372.118.592.167.492.111.807.596.722 1.091M17.852 25.183c.917 0 1.688-.031 2.314-.096a.957.957 0 0 0 .86-.954v-3.396a.959.959 0 0 0-.8-.945 10.146 10.146 0 0 0-1.852-.16c-.497 0-1.001.039-1.51.113-.511.074-.972.211-1.382.41a2.502 2.502 0 0 0-.99.838c-.25.36-.374.813-.374 1.36 0 1.068.337 1.806 1.01 2.217.67.409 1.58.613 2.724.613m-.373-16.8c1.494 0 2.75.186 3.771.559 1.02.372 1.835.893 2.445 1.565.61.67 1.046 1.484 1.307 2.44.262.956.392 2.005.392 3.147v11.02c0 .465-.328.86-.785.944-.627.114-1.418.243-2.37.386-1.406.21-2.993.316-4.76.316-1.17 0-2.24-.112-3.211-.335-.97-.224-1.799-.584-2.482-1.08a5.087 5.087 0 0 1-1.606-1.938c-.386-.794-.578-1.775-.578-2.943 0-1.117.217-2.06.653-2.831a5.345 5.345 0 0 1 1.773-1.88c.747-.486 1.611-.833 2.595-1.044.983-.211 2.01-.317 3.08-.317a14.032 14.032 0 0 1 3.323.41v-.745c0-.521-.062-1.018-.186-1.49a3.092 3.092 0 0 0-.654-1.247c-.311-.36-.722-.64-1.232-.84-.51-.198-1.152-.298-1.923-.298a17.156 17.156 0 0 0-3.153.274c-1.025.19-2-.506-2.158-1.535a1.842 1.842 0 0 1 1.448-2.085c.25-.052.517-.104.802-.155a19.641 19.641 0 0 1 3.509-.298M34.635 18.03c0 1.913.416 3.31 1.25 4.192.834.882 1.91 1.322 3.23 1.322.722 0 1.4-.099 2.034-.298a6.94 6.94 0 0 0 1.028-.404.95.95 0 0 0 .522-.857v-8.746c0-.47-.34-.875-.807-.946a17.366 17.366 0 0 0-.388-.055 14.271 14.271 0 0 0-1.791-.093c-1.644 0-2.9.54-3.771 1.62-.872 1.08-1.307 2.503-1.307 4.266zm12.582 8.271c0 3.104-.791 5.376-2.37 6.817-1.582 1.44-4.002 2.161-7.263 2.161-1.194 0-2.358-.1-3.49-.298a22.823 22.823 0 0 1-1.293-.265 1.896 1.896 0 0 1-1.419-2.242l.013-.06c.228-1.063 1.297-1.693 2.354-1.432.233.059.472.112.717.162.983.198 2.048.298 3.193.298 1.816 0 3.11-.373 3.883-1.118.77-.745 1.157-1.85 1.157-3.316v-.744c-.448.223-1.04.446-1.774.67-.734.223-1.574.336-2.52.336-1.245 0-2.383-.2-3.416-.597a7.146 7.146 0 0 1-2.65-1.75c-.735-.77-1.307-1.733-1.718-2.888-.41-1.154-.616-2.49-.616-4.004 0-1.416.218-2.72.653-3.912.436-1.192 1.07-2.21 1.904-3.055.835-.844 1.849-1.502 3.043-1.974 1.195-.471 2.551-.707 4.07-.707 1.468 0 2.862.11 4.181.334.986.167 1.86.341 2.622.522a.957.957 0 0 1 .739.934v16.128zM69.05 27.111a.953.953 0 0 1-.743.935c-.743.167-1.629.338-2.655.512-1.394.235-2.925.353-4.592.353-1.569 0-2.882-.223-3.94-.67-1.058-.447-1.903-1.067-2.538-1.863-.635-.794-1.09-1.744-1.363-2.85-.274-1.104-.41-2.316-.41-3.632v-8.66a2.256 2.256 0 0 1 2.258-2.255 2.256 2.256 0 0 1 2.259 2.254v7.954c0 2.086.305 3.575.914 4.47.61.894 1.674 1.341 3.193 1.341a21.156 21.156 0 0 0 2.25-.123.956.956 0 0 0 .849-.953V11.235a2.256 2.256 0 0 1 2.259-2.254 2.256 2.256 0 0 1 2.258 2.254v15.876zM85.744 11.853a.956.956 0 0 1-1.154.74 24.91 24.91 0 0 0-.602-.132c-.66-.136-1.425-.205-2.296-.205-.498 0-1.027.05-1.586.15a21.9 21.9 0 0 0-.41.075.953.953 0 0 0-.767.94v12.6a2.256 2.256 0 0 1-2.258 2.254 2.256 2.256 0 0 1-2.26-2.253V10.408c0-.416.267-.785.664-.913a28.47 28.47 0 0 1 2.604-.685c1.306-.285 2.756-.427 4.35-.427.298 0 .646.018 1.045.055.397.037.796.087 1.194.149.398.062.785.137 1.158.223.503.119.82.614.715 1.119l-.397 1.924zM102.652 24.751c-.985 1.35-2.358 2.024-4.122 2.024-1.764 0-3.137-.674-4.122-2.024-.985-1.348-1.477-3.181-1.477-5.498 0-2.288.492-4.099 1.477-5.433.985-1.335 2.358-2.002 4.122-2.002 1.764 0 3.137.667 4.122 2.002.985 1.334 1.477 3.145 1.477 5.433 0 2.317-.492 4.15-1.477 5.498m-4.35-17.55c-6.24.129-11.195 5.28-11.068 11.507.182 8.769 11.636 16.053 11.636 16.053s11.145-7.748 10.964-16.517c-.129-6.227-5.292-11.17-11.533-11.042"/>
        <text fill="#FFF" font-family="Ubuntu-BoldItalic, Ubuntu" font-size="14" font-style="italic" font-weight="bold" letter-spacing="-.319" transform="translate(0 -2)">
            <tspan x="74" y="56">smile anywhere</tspan>
        </text>
    </g>
</svg>
