<?xml version="1.0" encoding="UTF-8"?>
<svg width="48px" height="49px" viewBox="0 0 48 49" version="1.1" xmlns="http://www.w3.org/2000/svg" xmlns:xlink="http://www.w3.org/1999/xlink">
    <!-- Generator: Sketch 51.3 (57544) - http://www.bohemiancoding.com/sketch -->
    <title>noun_Dental checkup_987987</title>
    <desc>Created with Sketch.</desc>
    <defs></defs>
    <g id="Page-1" stroke="none" stroke-width="1" fill="none" fill-rule="evenodd">
        <g id="1-index-2-copy-47" transform="translate(-977.000000, -1390.000000)" fill="#000000" fill-rule="nonzero" stroke="#FFFFFF" stroke-width="0.5">
            <g id="noun_Dental-checkup_987987" transform="translate(977.000000, 1391.000000)">
                <path d="M46.8521739,32.8163265 L40.6956522,21.6489796 C39.8608696,20.1795918 38.2956522,19.2 36.5217391,19.2 L18.1565217,19.2 L9.6,2.54693878 C8.76521739,0.979591837 7.09565217,0 5.32173913,0 C4.59130435,0 3.96521739,0.195918367 3.23478261,0.489795918 C0.939130435,1.46938776 -0.104347826,4.2122449 1.04347826,6.36734694 L10.9565217,25.5673469 C11.7913043,27.1346939 13.4608696,28.1142857 15.2347826,28.1142857 L18.4695652,28.1142857 L16.5913043,39.9673469 C12.7304348,40.9469388 10.4347826,42.9061224 9.6,45.844898 C9.49565217,46.1387755 9.6,46.4326531 9.80869565,46.7265306 C10.0173913,47.0204082 10.3304348,47.1183673 10.6434783,47.1183673 L35.8956522,47.1183673 C36.2086957,47.1183673 36.5217391,47.0204082 36.7304348,46.7265306 C36.9391304,46.5306122 37.0434783,46.2367347 36.9391304,45.9428571 C36.2086957,42.3183673 33.2869565,40.6530612 29.9478261,39.8693878 L28.173913,28.2122449 L33.8086957,28.2122449 L38.6086957,37.0285714 C39.4434783,38.4979592 41.0086957,39.477551 42.7826087,39.477551 C43.5130435,39.477551 44.2434783,39.2816327 44.973913,38.9877551 C47.1652174,37.7142857 48.1043478,35.0693878 46.8521739,32.8163265 Z M34.4347826,45.0612245 L12.1043478,45.0612245 C16.9043478,38.5959184 33.8086957,41.044898 34.4347826,45.0612245 Z M18.6782609,39.477551 L20.4521739,28.2122449 L25.8782609,28.2122449 L27.6521739,39.477551 C27.6521739,39.477551 27.6521739,39.477551 27.5478261,39.477551 C24.8347826,38.9877551 19.6173913,39.3795918 18.6782609,39.477551 Z M43.9304348,37.1265306 C42.6782609,37.7142857 41.0086957,37.2244898 40.3826087,36.0489796 L35.2695652,26.7428571 C35.0608696,26.4489796 34.7478261,26.2530612 34.3304348,26.2530612 L15.2347826,26.2530612 C14.1913043,26.2530612 13.2521739,25.6653061 12.8347826,24.8816327 L2.92173913,5.58367347 C2.29565217,4.31020408 2.8173913,2.84081633 4.17391304,2.25306122 C4.48695652,2.05714286 6.46956522,1.37142857 7.72173913,3.42857143 L16.5913043,20.6693878 C16.8,20.9632653 17.1130435,21.2571429 17.5304348,21.2571429 L36.5217391,21.2571429 C37.5652174,21.2571429 38.4,21.7469388 38.9217391,22.6285714 L45.0782609,33.7959184 C45.7043478,34.9714286 45.1826087,36.4408163 43.9304348,37.1265306 Z" id="Shape"></path>
            </g>
        </g>
    </g>
</svg>