<svg xmlns="http://www.w3.org/2000/svg" width="37" height="37" viewBox="0 0 37 37">
    <g fill="none" fill-rule="evenodd" stroke="#3481F8">
        <path stroke-width="2" d="M13.023 2a1 1 0 0 0-1 1v16a1 1 0 0 0 1 1h11.639a1 1 0 0 0 1-1V6.492a1 1 0 0 0-1-1h-.403a2.746 2.746 0 0 1-2.746-2.746.746.746 0 0 0-.747-.746h-7.743z"/>
        <path stroke-linecap="round" stroke-width="1.5" d="M15 10h8M15 13h8M15 16h8"/>
        <path stroke-linecap="round" stroke-linejoin="round" stroke-width="2" d="M5.977 36h13.796l11.618-12.614c-.807-.515-1.936-.515-3.388 0-2.179.771-7.02 6.436-8.23 6.436h-3.63"/>
        <path fill="#FFF" fill-rule="nonzero" stroke-linecap="round" stroke-linejoin="round" stroke-width="2" d="M5 29.785c1.173-2.122 2.765-3.337 4.776-3.645 3.016-.463 3.18.323 6.032.925 2.85.603 6.786.232 6.786 2.083 0 1.235-2.178 1.852-6.535 1.852"/>
        <path stroke-width="2" d="M21.15 2.039c2.22-.182 3.539.024 3.959.618.816 1.152.354 2.765.586 3.92"/>
    </g>
</svg>
