<?xml version="1.0" encoding="UTF-8"?>
<svg width="36px" height="28px" viewBox="0 0 36 28" version="1.1" xmlns="http://www.w3.org/2000/svg" xmlns:xlink="http://www.w3.org/1999/xlink">
    <!-- Generator: Sketch 50.2 (55047) - http://www.bohemiancoding.com/sketch -->
    <title>Group 7</title>
    <desc>Created with Sketch.</desc>
    <defs>
        <filter x="-4.9%" y="-25.0%" width="110.5%" height="170.0%" filterUnits="objectBoundingBox" id="filter-1">
            <feOffset dx="0" dy="2" in="SourceAlpha" result="shadowOffsetOuter1"></feOffset>
            <feGaussianBlur stdDeviation="2" in="shadowOffsetOuter1" result="shadowBlurOuter1"></feGaussianBlur>
            <feColorMatrix values="0 0 0 0 0.786272321   0 0 0 0 0.780005473   0 0 0 0 0.780005473  0 0 0 1 0" type="matrix" in="shadowBlurOuter1" result="shadowMatrixOuter1"></feColorMatrix>
            <feMerge>
                <feMergeNode in="shadowMatrixOuter1"></feMergeNode>
                <feMergeNode in="SourceGraphic"></feMergeNode>
            </feMerge>
        </filter>
        <linearGradient x1="0%" y1="50%" x2="100%" y2="100%" id="linearGradient-2">
            <stop stop-color="#79D1F3" offset="0%"></stop>
            <stop stop-color="#1587C8" offset="100%"></stop>
        </linearGradient>
    </defs>
    <g id="UI-Screens" stroke="none" stroke-width="1" fill="none" fill-rule="evenodd">
        <g id="Desktop---Checkout" transform="translate(-746.000000, -398.000000)">
            <g id="Group" filter="url(#filter-1)" transform="translate(673.000000, 400.000000)">
                <g id="Group-7" transform="translate(77.284790, 0.000000)">
                    <rect id="Rectangle-Copy-4" fill="url(#linearGradient-2)" x="0.106445198" y="0" width="27.5391469" height="19.3745893" rx="3"></rect>
                    <polygon id="Fill-1" fill="#FFFFFF" points="16.0200147 8.62010047 16.0200147 9.2842211 17.8260553 9.2842211 17.8260553 10.0294837 16.0200147 10.0294837 16.0200147 10.7562173 18.0426911 10.7562173 18.9823057 9.68458368 18.0825375 8.62010047"></polygon>
                    <polygon id="Fill-2" fill="#FFFFFF" points="7.21047309 9.94079957 8.33343997 9.94079957 7.77037439 8.48496955"></polygon>
                    <path d="M20.2077658,7.13801279 L19.5284424,7.91809494 L18.8921882,7.13801279 L14.9767466,7.13801279 L14.9767466,7.14056208 L12.7146984,7.14056208 L12.1788222,8.45618125 L11.6285309,7.14056208 L9.112989,7.14056208 L9.112989,7.74213188 L8.83664211,7.14056208 L6.69132065,7.14056208 L4.65698328,12.2339774 L5.69521785,12.2339774 L7.10080158,12.2339774 L7.4176981,11.4228064 L8.1271994,11.4228064 L8.44333415,12.2339774 L11.2089712,12.2339774 L11.2089712,11.6138787 L11.4557848,12.2365889 L12.8914878,12.2365889 L13.13836,11.604552 L13.13836,12.2339774 L14.9767466,12.2339774 L14.9767466,12.2349101 L18.8088037,12.2349101 L19.5086949,11.4425789 L20.1681538,12.2349101 L21.6566533,12.2363402 L21.6566533,12.2365889 L22.3479893,12.2365889 L22.3479893,11.3465765 L20.9756891,9.69731147 L22.3479893,8.13770678 L22.3479893,7.13801279 L20.2077658,7.13801279 Z M20.5677317,7.86462206 L21.6540164,7.86462206 L20.0414069,9.69731147 L21.5559238,11.5175653 L20.5247796,11.5175653 L19.5118006,10.3083945 L18.4590924,11.5175653 L17.5011953,11.5175653 L17.5011953,11.5166327 L15.2004727,11.5166327 L15.2004727,7.86468424 L17.0457152,7.86468424 L17.0457152,7.86462206 L18.5092521,7.86462206 L19.521352,9.06197914 L20.5677317,7.86462206 Z M13.2075639,7.86468424 L14.5772272,7.86468424 L14.5772272,11.5166327 L13.7340059,11.5166327 L13.7309002,8.65645581 L12.5379677,11.5166327 L11.8156921,11.5166327 L10.619771,8.65390652 L10.619771,11.5166327 L8.94651285,11.5166327 L8.6304367,10.702104 L6.91762508,10.702104 L6.59826745,11.5166327 L5.70471068,11.5166327 L7.17791619,7.86468424 L8.40014763,7.86468424 L9.7993442,11.3223272 L9.7993442,7.86468424 L11.1418768,7.86468424 L12.2185515,10.3420948 L13.2075639,7.86468424 Z" id="Fill-3" fill="#FFFFFF"></path>
                </g>
            </g>
        </g>
    </g>
</svg>