<?xml version="1.0" encoding="UTF-8"?>
<svg width="20px" height="21px" viewBox="0 0 20 21" version="1.1" xmlns="http://www.w3.org/2000/svg" xmlns:xlink="http://www.w3.org/1999/xlink">
    <!-- Generator: Sketch 50.2 (55047) - http://www.bohemiancoding.com/sketch -->
    <title>icon</title>
    <desc>Created with Sketch.</desc>
    <defs></defs>
    <g id="UI-Screens" stroke="none" stroke-width="1" fill="none" fill-rule="evenodd">
        <g id="Tablet---Sign-In" transform="translate(-288.000000, -337.000000)" fill-rule="nonzero">
            <g id="Group-15" transform="translate(62.000000, 158.000000)">
                <g id="Group-14" transform="translate(52.000000, 37.000000)">
                    <g id="Group-12" transform="translate(1.000000, 127.000000)">
                        <g id="icon" transform="translate(173.000000, 15.000000)">
                            <path d="M19.9904688,10.4258594 C19.9904688,9.58726563 19.9224219,8.9753125 19.7751563,8.34070313 L10.1992188,8.34070313 L10.1992188,12.1257031 L15.8200781,12.1257031 C15.7067969,13.0663281 15.0948438,14.4828906 13.7349219,15.4347656 L13.7158594,15.5614844 L16.7435938,17.9070312 L16.9533594,17.9279687 C18.8798438,16.14875 19.9904688,13.5309375 19.9904688,10.4258594" id="Shape" fill="#4285F4"></path>
                            <path d="M10.1992187,20.3984375 C12.9529687,20.3984375 15.2647656,19.4917969 16.9533594,17.9279688 L13.7349219,15.4347656 C12.8736719,16.0353906 11.7177344,16.4546875 10.1992187,16.4546875 C7.50210937,16.4546875 5.21296875,14.6755469 4.39695312,12.2164063 L4.27734375,12.2265625 L1.1290625,14.6630469 L1.08789063,14.7775 C2.76507812,18.1092188 6.21015625,20.3984375 10.1992187,20.3984375" id="Shape" fill="#34A853"></path>
                            <path d="M4.39695312,12.2164062 C4.18164062,11.5817969 4.05703125,10.9017969 4.05703125,10.1992188 C4.05703125,9.4965625 4.18164062,8.81664063 4.385625,8.18203125 L4.37992187,8.046875 L1.1921875,5.57125 L1.08789062,5.62085938 C0.396640625,7.0034375 0,8.55601563 0,10.1992188 C0,11.8424219 0.396640625,13.3949219 1.08789062,14.7775 L4.39695312,12.2164062" id="Shape" fill="#FBBC05"></path>
                            <path d="M10.1992188,3.94367187 C12.114375,3.94367187 13.40625,4.7709375 14.1428906,5.46226562 L17.0213281,2.65179687 C15.2535156,1.00859375 12.9529688,0 10.1992188,0 C6.21015625,0 2.76507813,2.28914062 1.08789062,5.62085937 L4.385625,8.18203125 C5.21296875,5.72289062 7.50210938,3.94367187 10.1992188,3.94367187" id="Shape" fill="#EB4335"></path>
                        </g>
                    </g>
                </g>
            </g>
        </g>
    </g>
</svg>