<?xml version="1.0" encoding="UTF-8"?>
<svg width="151px" height="28px" viewBox="0 0 151 28" version="1.1" xmlns="http://www.w3.org/2000/svg" xmlns:xlink="http://www.w3.org/1999/xlink">
    <!-- Generator: Sketch 50.2 (55047) - http://www.bohemiancoding.com/sketch -->
    <title>Group</title>
    <desc>Created with Sketch.</desc>
    <defs>
        <filter x="-4.9%" y="-23.8%" width="110.5%" height="166.7%" filterUnits="objectBoundingBox" id="filter-1">
            <feOffset dx="0" dy="2" in="SourceAlpha" result="shadowOffsetOuter1"></feOffset>
            <feGaussianBlur stdDeviation="2" in="shadowOffsetOuter1" result="shadowBlurOuter1"></feGaussianBlur>
            <feColorMatrix values="0 0 0 0 0.786272321   0 0 0 0 0.780005473   0 0 0 0 0.780005473  0 0 0 1 0" type="matrix" in="shadowBlurOuter1" result="shadowMatrixOuter1"></feColorMatrix>
            <feMerge>
                <feMergeNode in="shadowMatrixOuter1"></feMergeNode>
                <feMergeNode in="SourceGraphic"></feMergeNode>
            </feMerge>
        </filter>
        <linearGradient x1="0%" y1="50%" x2="100%" y2="100%" id="linearGradient-2">
            <stop stop-color="#79D1F3" offset="0%"></stop>
            <stop stop-color="#1587C8" offset="100%"></stop>
        </linearGradient>
    </defs>
    <g id="UI-Screens" stroke="none" stroke-width="1" fill="none" fill-rule="evenodd">
        <g id="Desktop---Checkout" transform="translate(-669.000000, -398.000000)">
            <g id="Group" filter="url(#filter-1)" transform="translate(673.000000, 400.000000)">
                <g id="Group-4" transform="translate(37.948220, 0.000000)">
                    <rect id="Rectangle-Copy-4" fill="#FFFFFF" x="0.228096853" y="0" width="27.5391469" height="19.3745893" rx="3"></rect>
                    <ellipse id="Oval" fill="#F2C57C" cx="10.4752213" cy="9.78926616" rx="3.84267166" ry="3.87491785"></ellipse>
                    <ellipse id="Oval-Copy" fill="#D0091B" cx="16.879674" cy="9.78926616" rx="3.84267166" ry="3.87491785"></ellipse>
                </g>
                <g id="Group-7" transform="translate(77.284790, 0.000000)">
                    <rect id="Rectangle-Copy-4" fill="url(#linearGradient-2)" x="0.106445198" y="0" width="27.5391469" height="19.3745893" rx="3"></rect>
                    <polygon id="Fill-1" fill="#FFFFFF" points="16.0200147 8.62010047 16.0200147 9.2842211 17.8260553 9.2842211 17.8260553 10.0294837 16.0200147 10.0294837 16.0200147 10.7562173 18.0426911 10.7562173 18.9823057 9.68458368 18.0825375 8.62010047"></polygon>
                    <polygon id="Fill-2" fill="#FFFFFF" points="7.21047309 9.94079957 8.33343997 9.94079957 7.77037439 8.48496955"></polygon>
                    <path d="M20.2077658,7.13801279 L19.5284424,7.91809494 L18.8921882,7.13801279 L14.9767466,7.13801279 L14.9767466,7.14056208 L12.7146984,7.14056208 L12.1788222,8.45618125 L11.6285309,7.14056208 L9.112989,7.14056208 L9.112989,7.74213188 L8.83664211,7.14056208 L6.69132065,7.14056208 L4.65698328,12.2339774 L5.69521785,12.2339774 L7.10080158,12.2339774 L7.4176981,11.4228064 L8.1271994,11.4228064 L8.44333415,12.2339774 L11.2089712,12.2339774 L11.2089712,11.6138787 L11.4557848,12.2365889 L12.8914878,12.2365889 L13.13836,11.604552 L13.13836,12.2339774 L14.9767466,12.2339774 L14.9767466,12.2349101 L18.8088037,12.2349101 L19.5086949,11.4425789 L20.1681538,12.2349101 L21.6566533,12.2363402 L21.6566533,12.2365889 L22.3479893,12.2365889 L22.3479893,11.3465765 L20.9756891,9.69731147 L22.3479893,8.13770678 L22.3479893,7.13801279 L20.2077658,7.13801279 Z M20.5677317,7.86462206 L21.6540164,7.86462206 L20.0414069,9.69731147 L21.5559238,11.5175653 L20.5247796,11.5175653 L19.5118006,10.3083945 L18.4590924,11.5175653 L17.5011953,11.5175653 L17.5011953,11.5166327 L15.2004727,11.5166327 L15.2004727,7.86468424 L17.0457152,7.86468424 L17.0457152,7.86462206 L18.5092521,7.86462206 L19.521352,9.06197914 L20.5677317,7.86462206 Z M13.2075639,7.86468424 L14.5772272,7.86468424 L14.5772272,11.5166327 L13.7340059,11.5166327 L13.7309002,8.65645581 L12.5379677,11.5166327 L11.8156921,11.5166327 L10.619771,8.65390652 L10.619771,11.5166327 L8.94651285,11.5166327 L8.6304367,10.702104 L6.91762508,10.702104 L6.59826745,11.5166327 L5.70471068,11.5166327 L7.17791619,7.86468424 L8.40014763,7.86468424 L9.7993442,11.3223272 L9.7993442,7.86468424 L11.1418768,7.86468424 L12.2185515,10.3420948 L13.2075639,7.86468424 Z" id="Fill-3" fill="#FFFFFF"></path>
                </g>
                <g id="Group-6">
                    <rect id="Rectangle-Copy-4" fill="#FFFFFF" x="0.267633641" y="0" width="26.9271658" height="18.9440428" rx="3"></rect>
                    <path d="M17.1169252,7.19377729 C16.8541999,7.09548127 16.442544,6.9901243 15.9283702,6.9901243 C14.6180986,6.9901243 13.6949717,7.6479086 13.6871431,8.59063986 C13.6797804,9.28753817 14.3461466,9.67635558 14.8491366,9.90834533 C15.3652675,10.1460024 15.5388023,10.2976273 15.5363792,10.5099207 C15.5331172,10.8350036 15.1241641,10.9835625 14.742984,10.9835625 C14.212221,10.9835625 13.9302968,10.9100728 13.4947823,10.7289963 L13.323857,10.6518831 L13.1377404,11.7375989 C13.4475308,11.8729649 14.020233,11.990307 14.6149298,11.9963459 C16.0088934,11.9963459 16.9138466,11.3460871 16.9241916,10.3393427 C16.9291311,9.78765863 16.5758172,9.36771724 15.8107543,9.02163722 C15.3472803,8.79726588 15.063399,8.64749918 15.0663813,8.42034061 C15.0663813,8.21873158 15.3066459,8.00318645 15.8257592,8.00318645 C16.259503,7.99649711 16.5735805,8.09070521 16.8183186,8.18900122 L16.9371461,8.24493147 L17.1169252,7.19377729" id="Fill-2" fill="#00579F"></path>
                    <path d="M18.8822271,10.2051008 C18.9919212,9.92563539 19.410567,8.84930331 19.410567,8.84930331 C19.4027383,8.86221744 19.5194223,8.56853719 19.5864317,8.38643871 L19.6760883,8.80461486 C19.6760883,8.80461486 19.9299598,9.96233381 19.9829895,10.2051008 L18.8822271,10.2051008 Z M20.5174804,7.07904596 L19.4927677,7.07904596 C19.175335,7.07904596 18.9377732,7.16535692 18.7983489,7.48124204 L16.8288873,11.9260243 L18.2213596,11.9260243 C18.2213596,11.9260243 18.4491357,11.3283511 18.500581,11.1971659 C18.6527735,11.1971659 20.0055434,11.1992099 20.1989294,11.1992099 C20.2386318,11.3689517 20.3602553,11.9260243 20.3602553,11.9260243 L21.5907494,11.9260243 L20.5174804,7.07904596 L20.5174804,7.07904596 Z" id="Fill-4" fill="#00579F"></path>
                    <path d="M9.86946124,7.07791249 L8.57111894,10.3853226 L8.432813,9.71313762 C8.19115041,8.93829001 7.43811001,8.09887176 6.59615865,7.67865165 L7.78331566,11.9202455 L9.18641259,11.9186661 L11.2741425,7.07791249 L9.86946124,7.07791249" id="Fill-6" fill="#00579F"></path>
                    <path d="M7.36672029,7.07492087 L5.22838379,7.07492087 L5.21142174,7.17581829 C6.87510047,7.57727111 7.97586287,8.54750296 8.432813,9.71311903 L7.96784783,7.48436372 C7.8875111,7.17730481 7.65470232,7.08560522 7.36672029,7.07492087" id="Fill-8" fill="#F9A51A"></path>
                    <polygon id="Fill-1" fill="#00579F" points="11.8107957 7.07437272 10.9817056 11.92451 12.3072618 11.92451 13.136911 7.07437272"></polygon>
                    <path d="M1.25639126,2.49263722 C1.25639126,1.11599169 2.37689551,0 3.73987341,0 L23.7225597,0 C25.094149,0 26.2060419,1.10639397 26.2060419,2.49263722 L26.2060419,4.98527443 L1.25639126,4.98527443 L1.25639126,2.49263722 Z" id="Rectangle-Copy-5" fill="#00579F"></path>
                    <path d="M1.25639126,16.4514056 C1.25639126,15.0747601 2.37689551,13.9587684 3.73987341,13.9587684 L23.7225597,13.9587684 C25.094149,13.9587684 26.2060419,15.0651624 26.2060419,16.4514056 L26.2060419,18.9440428 L1.25639126,18.9440428 L1.25639126,16.4514056 Z" id="Rectangle-Copy-6" fill="#F9A51A" transform="translate(13.731217, 16.451406) rotate(180.000000) translate(-13.731217, -16.451406) "></path>
                    <rect id="Rectangle-Copy-4" x="0.267633641" y="0" width="26.9271658" height="18.9440428" rx="3"></rect>
                </g>
                <g id="Group-2" transform="translate(115.233010, 0.000000)">
                    <rect id="Rectangle-Copy-4" fill="#FFFFFF" x="0.0152064569" y="0" width="27.5391469" height="19.3745893" rx="3"></rect>
                    <path d="M11.5493761,5.09856145 L14.3708516,5.09856145 C15.1655033,5.09856145 16.1079836,5.12460454 16.7385106,5.68530119 C17.1596622,6.05988147 17.3806776,6.65667164 17.3296069,7.29733157 C17.1566067,9.46983853 15.8679076,10.6866742 14.1397966,10.6866742 L12.7482286,10.6866742 C12.5114263,10.6866742 12.3544311,10.8449135 12.2876463,11.2735607 L11.8993051,13.7644536 C11.8741335,13.9260674 11.804657,14.0212897 11.6778532,14.0328074 L9.93977538,14.0328074 C9.74691429,14.0328074 9.6783835,13.8840317 9.72879946,13.561831 L10.9803959,5.57122513 C11.0305209,5.25100521 11.2042486,5.09856145 11.5493761,5.09856145" id="Fill-1" fill="#1B3D92"></path>
                    <path d="M13.3336431,7.51946076 L16.1522813,7.51946076 C17.6654878,7.51946076 18.2352683,8.2918767 18.1473132,9.42860242 C18.0022491,11.3024575 16.8786932,12.3386056 15.3884757,12.3386056 L14.6360192,12.3386056 C14.4318091,12.3386056 14.2943837,12.4747632 14.2387297,12.8447951 L13.9160093,14.9929463 C13.8950572,15.1324786 13.8223069,15.2144226 13.7129632,15.2243997 L11.945567,15.2243997 C11.7792598,15.2243997 11.7201138,15.0960916 11.7636185,14.8182009 L12.8429422,7.92712677 C12.8861559,7.65092333 13.0359488,7.51946076 13.3336431,7.51946076" id="Fill-1" fill="#00A2D3"></path>
                    <path d="M12.3318348,11.0718552 L12.8245,7.92709743 C12.8677864,7.65096735 13.0176521,7.51950478 13.3153464,7.51950478 L16.1339846,7.51950478 C16.6006051,7.51950478 16.9775245,7.59293895 17.2729635,7.72821628 C16.9897465,9.66178708 15.7495719,10.7360827 14.1256394,10.7360827 L12.7339986,10.7360827 C12.550886,10.7360827 12.4140427,10.8304981 12.3318348,11.0718552" id="Page-1" fill="#1B2E7F"></path>
                </g>
            </g>
        </g>
    </g>
</svg>