<?xml version="1.0" encoding="UTF-8"?>
<svg width="36px" height="27px" viewBox="0 0 36 27" version="1.1" xmlns="http://www.w3.org/2000/svg" xmlns:xlink="http://www.w3.org/1999/xlink">
    <!-- Generator: Sketch 50.2 (55047) - http://www.bohemiancoding.com/sketch -->
    <title>Group 6</title>
    <desc>Created with Sketch.</desc>
    <defs>
        <filter x="-4.9%" y="-25.0%" width="110.5%" height="170.0%" filterUnits="objectBoundingBox" id="filter-1">
            <feOffset dx="0" dy="2" in="SourceAlpha" result="shadowOffsetOuter1"></feOffset>
            <feGaussianBlur stdDeviation="2" in="shadowOffsetOuter1" result="shadowBlurOuter1"></feGaussianBlur>
            <feColorMatrix values="0 0 0 0 0.786272321   0 0 0 0 0.780005473   0 0 0 0 0.780005473  0 0 0 1 0" type="matrix" in="shadowBlurOuter1" result="shadowMatrixOuter1"></feColorMatrix>
            <feMerge>
                <feMergeNode in="shadowMatrixOuter1"></feMergeNode>
                <feMergeNode in="SourceGraphic"></feMergeNode>
            </feMerge>
        </filter>
    </defs>
    <g id="UI-Screens" stroke="none" stroke-width="1" fill="none" fill-rule="evenodd">
        <g id="Desktop---Checkout" transform="translate(-669.000000, -398.000000)">
            <g id="Group" filter="url(#filter-1)" transform="translate(673.000000, 400.000000)">
                <g id="Group-6">
                    <rect id="Rectangle-Copy-4" fill="#FFFFFF" x="0.267633641" y="0" width="26.9271658" height="18.9440428" rx="3"></rect>
                    <path d="M17.1169252,7.19377729 C16.8541999,7.09548127 16.442544,6.9901243 15.9283702,6.9901243 C14.6180986,6.9901243 13.6949717,7.6479086 13.6871431,8.59063986 C13.6797804,9.28753817 14.3461466,9.67635558 14.8491366,9.90834533 C15.3652675,10.1460024 15.5388023,10.2976273 15.5363792,10.5099207 C15.5331172,10.8350036 15.1241641,10.9835625 14.742984,10.9835625 C14.212221,10.9835625 13.9302968,10.9100728 13.4947823,10.7289963 L13.323857,10.6518831 L13.1377404,11.7375989 C13.4475308,11.8729649 14.020233,11.990307 14.6149298,11.9963459 C16.0088934,11.9963459 16.9138466,11.3460871 16.9241916,10.3393427 C16.9291311,9.78765863 16.5758172,9.36771724 15.8107543,9.02163722 C15.3472803,8.79726588 15.063399,8.64749918 15.0663813,8.42034061 C15.0663813,8.21873158 15.3066459,8.00318645 15.8257592,8.00318645 C16.259503,7.99649711 16.5735805,8.09070521 16.8183186,8.18900122 L16.9371461,8.24493147 L17.1169252,7.19377729" id="Fill-2" fill="#00579F"></path>
                    <path d="M18.8822271,10.2051008 C18.9919212,9.92563539 19.410567,8.84930331 19.410567,8.84930331 C19.4027383,8.86221744 19.5194223,8.56853719 19.5864317,8.38643871 L19.6760883,8.80461486 C19.6760883,8.80461486 19.9299598,9.96233381 19.9829895,10.2051008 L18.8822271,10.2051008 Z M20.5174804,7.07904596 L19.4927677,7.07904596 C19.175335,7.07904596 18.9377732,7.16535692 18.7983489,7.48124204 L16.8288873,11.9260243 L18.2213596,11.9260243 C18.2213596,11.9260243 18.4491357,11.3283511 18.500581,11.1971659 C18.6527735,11.1971659 20.0055434,11.1992099 20.1989294,11.1992099 C20.2386318,11.3689517 20.3602553,11.9260243 20.3602553,11.9260243 L21.5907494,11.9260243 L20.5174804,7.07904596 L20.5174804,7.07904596 Z" id="Fill-4" fill="#00579F"></path>
                    <path d="M9.86946124,7.07791249 L8.57111894,10.3853226 L8.432813,9.71313762 C8.19115041,8.93829001 7.43811001,8.09887176 6.59615865,7.67865165 L7.78331566,11.9202455 L9.18641259,11.9186661 L11.2741425,7.07791249 L9.86946124,7.07791249" id="Fill-6" fill="#00579F"></path>
                    <path d="M7.36672029,7.07492087 L5.22838379,7.07492087 L5.21142174,7.17581829 C6.87510047,7.57727111 7.97586287,8.54750296 8.432813,9.71311903 L7.96784783,7.48436372 C7.8875111,7.17730481 7.65470232,7.08560522 7.36672029,7.07492087" id="Fill-8" fill="#F9A51A"></path>
                    <polygon id="Fill-1" fill="#00579F" points="11.8107957 7.07437272 10.9817056 11.92451 12.3072618 11.92451 13.136911 7.07437272"></polygon>
                    <path d="M1.25639126,2.49263722 C1.25639126,1.11599169 2.37689551,0 3.73987341,0 L23.7225597,0 C25.094149,0 26.2060419,1.10639397 26.2060419,2.49263722 L26.2060419,4.98527443 L1.25639126,4.98527443 L1.25639126,2.49263722 Z" id="Rectangle-Copy-5" fill="#00579F"></path>
                    <path d="M1.25639126,16.4514056 C1.25639126,15.0747601 2.37689551,13.9587684 3.73987341,13.9587684 L23.7225597,13.9587684 C25.094149,13.9587684 26.2060419,15.0651624 26.2060419,16.4514056 L26.2060419,18.9440428 L1.25639126,18.9440428 L1.25639126,16.4514056 Z" id="Rectangle-Copy-6" fill="#F9A51A" transform="translate(13.731217, 16.451406) rotate(180.000000) translate(-13.731217, -16.451406) "></path>
                    <rect id="Rectangle-Copy-4" x="0.267633641" y="0" width="26.9271658" height="18.9440428" rx="3"></rect>
                </g>
            </g>
        </g>
    </g>
</svg>